<?xml version="1.0" standalone="no"?>
<!DOCTYPE svg PUBLIC "-//W3C//DTD SVG 1.1//EN" "http://www.w3.org/Graphics/SVG/1.1/DTD/svg11.dtd" >
<svg xmlns="http://www.w3.org/2000/svg" xmlns:xlink="http://www.w3.org/1999/xlink" version="1.1">
<metadata>
Created by FontForge 20190801 at Wed May 30 13:48:48 2018
 By www-data
Copyright \(c\) 2017 by Alexander Slobzheninov. All rights reserved.
</metadata>
<defs>
<font id="Objectivity-RegularSlanted" horiz-adv-x="605" >
  <font-face 
    font-family="Objectivity"
    font-weight="400"
    font-style="oblique"
    font-stretch="normal"
    units-per-em="1000"
    panose-1="0 0 0 0 0 0 0 0 0 0"
    ascent="800"
    descent="-200"
    x-height="505"
    cap-height="705"
    bbox="-102 -280 1415.89 1008"
    underline-thickness="50"
    underline-position="-125"
    stemh="69"
    stemv="61"
    unicode-range="U+000D-F6C3"
  />
<missing-glyph horiz-adv-x="500" 
 />
    <glyph glyph-name=".notdef" horiz-adv-x="500" 
 />
    <glyph glyph-name="NULL" horiz-adv-x="731" 
d="M667 705l-62 -705h-541l61 705h542zM138 62h403l51 580h-403z" />
    <glyph glyph-name="NULL" horiz-adv-x="731" 
d="M667 705l-62 -705h-541l61 705h542zM138 62h403l51 580h-403z" />
    <glyph glyph-name="CR" unicode="&#xd;" horiz-adv-x="30" 
 />
    <glyph glyph-name="space" unicode=" " horiz-adv-x="308" 
 />
    <glyph glyph-name="exclam" unicode="!" horiz-adv-x="245" 
d="M91 -12c-31 0 -51 21 -48 52c3 29 26 51 57 51c30 0 50 -22 47 -51c-3 -31 -26 -52 -56 -52zM196 705l-16 -185l-45 -309h-49l9 309l16 185h85z" />
    <glyph glyph-name="quotedbl" unicode="&#x22;" horiz-adv-x="325" 
d="M137 566l-22 -180h-54l8 180l13 139h67zM293 566l-22 -180h-55l9 180l12 139h68z" />
    <glyph glyph-name="numbersign" unicode="#" horiz-adv-x="950" 
d="M408 456l-55 -154h176l55 154h-176zM844 302l-6 -58h-262l-85 -244h-68l86 244h-176l-87 -244h-68l88 244h-226l5 58h241l55 154h-232l4 58h248l78 222h68l-78 -222h175l78 222h68l-78 -222h240l-5 -58h-256l-55 -154h248z" />
    <glyph glyph-name="dollar" unicode="$" horiz-adv-x="702" 
d="M350 -24l-9 -97h-78l9 99c-143 20 -234 119 -223 250h83c-9 -104 74 -179 201 -179c116 0 192 61 199 146c8 94 -90 108 -198 122c-129 18 -263 39 -249 196c10 117 111 204 253 215l8 92h78l-9 -93c136 -17 223 -111 213 -236h-81c9 96 -69 165 -183 165
c-111 0 -188 -57 -195 -136c-8 -94 85 -109 194 -124c128 -18 267 -39 254 -191c-11 -127 -115 -220 -267 -229z" />
    <glyph glyph-name="percent" unicode="%" horiz-adv-x="1017" 
d="M547 192c11 119 100 201 219 201s195 -82 184 -201c-10 -120 -100 -202 -219 -202s-194 82 -184 202zM872 192c7 73 -40 123 -113 123c-72 0 -128 -50 -134 -123s40 -123 113 -123s128 50 134 123zM66 543c10 119 100 202 220 202c119 0 194 -83 184 -202
c-11 -119 -100 -201 -220 -201c-119 0 -195 82 -184 201zM391 543c6 73 -39 123 -112 123c-74 0 -129 -50 -135 -123c-7 -73 40 -123 113 -123s128 50 134 123zM742 735h94l-562 -735h-94z" />
    <glyph glyph-name="ampersand" unicode="&#x26;" horiz-adv-x="791" 
d="M464 127c-25 29 -170 170 -194 199c-77 -28 -129 -69 -137 -148c-9 -75 53 -129 146 -129c68 0 130 29 185 78zM306 394c25 -28 186 -181 212 -211c38 44 70 97 96 157h79c-33 -78 -75 -147 -124 -204c17 -19 123 -119 139 -136h-113l-80 80c-74 -66 -160 -105 -249 -105
c-135 0 -226 84 -216 201c10 110 83 164 168 202c-35 43 -64 99 -57 164c8 103 98 179 209 180c107 0 184 -73 190 -175l-79 -15c-1 67 -45 116 -112 116c-65 0 -121 -44 -128 -110c-5 -49 20 -98 65 -144z" />
    <glyph glyph-name="quotesingle" unicode="'" horiz-adv-x="169" 
d="M137 566l-22 -180h-54l8 180l13 139h67z" />
    <glyph glyph-name="parenleft" unicode="(" horiz-adv-x="333" 
d="M252 -180h-80c-87 95 -135 278 -119 459s96 363 199 458h80c-113 -102 -194 -277 -210 -458c-16 -185 35 -360 130 -459z" />
    <glyph glyph-name="parenright" unicode=")" horiz-adv-x="333" 
d="M65 -180h-80c113 99 194 274 210 459c16 181 -35 356 -130 458h80c87 -95 135 -277 119 -458s-96 -364 -199 -459z" />
    <glyph glyph-name="asterisk" unicode="*" horiz-adv-x="512" 
d="M465 400l-33 -50l-142 88l-13 -173h-58l18 173l-157 -88l-25 50l159 85l-144 85l33 50l142 -89l12 174h59l-18 -174l157 89l25 -50l-159 -85z" />
    <glyph glyph-name="plus" unicode="+" horiz-adv-x="572" 
d="M310 90h-79l17 190h-196l6 70h196l16 180h78l-15 -180h195l-6 -70h-196z" />
    <glyph glyph-name="comma" unicode="," horiz-adv-x="211" 
d="M97 -12c-29 0 -48 20 -45 51c2 30 26 50 55 50c35 0 55 -28 51 -70c-5 -62 -41 -125 -85 -153l-36 27c32 21 57 60 60 95z" />
    <glyph glyph-name="hyphen" unicode="-" horiz-adv-x="512" 
d="M66 347h410l-6 -70h-410z" />
    <glyph glyph-name="period" unicode="." horiz-adv-x="206" 
d="M98 -12c-31 0 -50 21 -48 52c3 29 26 51 57 51c30 0 50 -22 47 -51c-2 -31 -26 -52 -56 -52z" />
    <glyph glyph-name="slash" unicode="/" horiz-adv-x="443" 
d="M365 705h76l-383 -935h-76z" />
    <glyph glyph-name="zero" unicode="0" horiz-adv-x="741" 
d="M336 -25c-178 0 -286 159 -266 377c19 219 154 378 332 378c179 0 286 -159 267 -378c-19 -218 -154 -377 -333 -377zM396 656c-130 0 -228 -128 -243 -304c-15 -175 60 -303 190 -303s227 128 242 303c16 176 -59 304 -189 304z" />
    <glyph glyph-name="one" unicode="1" horiz-adv-x="397" 
d="M179 0l52 594l-183 -131l9 99l200 143h67l-62 -705h-83z" />
    <glyph glyph-name="two" unicode="2" horiz-adv-x="613" 
d="M158 486l-79 16c31 132 142 228 263 228c135 0 224 -96 212 -228c-9 -103 -60 -158 -163 -247l-208 -181h322l-6 -74h-458l5 51l302 263c64 56 116 110 123 188c8 89 -49 154 -135 154c-83 0 -157 -71 -178 -170z" />
    <glyph glyph-name="three" unicode="3" horiz-adv-x="628" 
d="M430 631h-314l6 74h435l-5 -56l-209 -215c129 -7 212 -100 201 -228c-12 -134 -125 -231 -270 -231c-135 0 -236 102 -235 242l75 13c3 -105 72 -181 163 -181c99 0 177 66 185 158c8 93 -57 160 -156 160c-23 0 -51 -6 -68 -14l-20 61z" />
    <glyph glyph-name="four" unicode="4" 
d="M133 252h231l32 371zM357 178h-336l5 54l342 473h119l-40 -453h88l-7 -74h-87l-16 -178h-83z" />
    <glyph glyph-name="five" unicode="5" horiz-adv-x="638" 
d="M300 380h-178l64 325h360l-6 -74h-293l-34 -177h102c161 0 257 -102 245 -241c-12 -138 -126 -238 -270 -238c-138 0 -237 102 -236 242l75 13c0 -105 68 -181 163 -181c100 0 177 68 186 162c8 98 -58 169 -178 169z" />
    <glyph glyph-name="six" unicode="6" horiz-adv-x="611" 
d="M283 49c97 1 174 75 182 176c9 99 -55 170 -152 171c-101 0 -181 -72 -190 -171c-9 -102 58 -176 160 -176zM105 375l284 330h101l-218 -250c25 8 47 11 73 11c130 0 216 -101 204 -241c-13 -145 -128 -250 -275 -250c-149 0 -247 103 -235 243c5 52 32 118 66 157z" />
    <glyph glyph-name="seven" unicode="7" horiz-adv-x="516" 
d="M521 655l-334 -655h-90l322 631h-376l6 74h477z" />
    <glyph glyph-name="eight" unicode="8" horiz-adv-x="674" 
d="M335 336c-102 0 -181 -60 -188 -143c-7 -84 61 -144 163 -144c101 0 180 60 187 144c8 83 -62 143 -162 143zM363 656c-89 0 -157 -51 -163 -122c-7 -72 53 -124 141 -124s156 52 162 124c7 71 -52 122 -140 122zM369 731c137 0 229 -78 219 -189
c-6 -79 -63 -147 -135 -165c86 -20 142 -100 134 -192c-11 -122 -129 -209 -284 -209c-154 0 -259 87 -248 209c8 92 78 172 168 192c-69 18 -114 86 -107 165c10 110 116 189 253 189z" />
    <glyph glyph-name="nine" unicode="9" horiz-adv-x="611" 
d="M327 655c-97 0 -174 -74 -183 -175c-8 -99 56 -171 152 -171c102 -1 182 71 191 171c9 102 -59 176 -160 175zM505 330l-285 -330h-100l217 250c-19 -6 -44 -12 -72 -12c-131 0 -216 102 -204 242c12 145 128 249 274 249c149 0 248 -102 236 -242
c-5 -53 -33 -118 -66 -157z" />
    <glyph glyph-name="colon" unicode=":" horiz-adv-x="206" 
d="M81 -12c-31 0 -50 21 -48 52c3 29 26 51 57 51c30 0 50 -22 47 -51c-2 -31 -26 -52 -56 -52zM115 376c-31 0 -50 22 -48 52c3 30 26 51 57 51c30 0 50 -21 47 -51c-2 -30 -26 -52 -56 -52z" />
    <glyph glyph-name="semicolon" unicode=";" horiz-adv-x="211" 
d="M115 376c-31 0 -50 22 -48 52c3 30 26 51 57 51c30 0 50 -21 47 -51c-2 -30 -26 -52 -56 -52zM80 -12c-30 0 -48 20 -45 51c2 30 26 50 55 50c34 0 55 -28 51 -70c-5 -62 -41 -125 -86 -153l-35 27c32 21 57 60 60 95z" />
    <glyph glyph-name="less" unicode="&#x3c;" horiz-adv-x="466" 
d="M91 252l298 -179l-6 -73l-353 215l6 74l391 216l-7 -74z" />
    <glyph glyph-name="equal" unicode="=" horiz-adv-x="572" 
d="M49 223h470l-6 -70h-470zM71 474h470l-6 -70h-470z" />
    <glyph glyph-name="greater" unicode="&#x3e;" horiz-adv-x="466" 
d="M436 289l-7 -74l-390 -215l6 73l329 179l-298 179l7 74z" />
    <glyph glyph-name="question" unicode="?" horiz-adv-x="601" 
d="M262 -13c-31 0 -50 21 -48 52c3 29 26 51 57 51c30 0 50 -21 47 -51c-2 -31 -26 -52 -56 -52zM317 179h-77c10 112 52 159 123 205c53 34 102 67 107 131c7 80 -52 141 -138 141c-92 0 -162 -71 -182 -168l-77 15c28 132 133 227 267 227c131 0 225 -91 214 -214
c-9 -96 -67 -136 -141 -182c-62 -39 -88 -73 -96 -155z" />
    <glyph glyph-name="at" unicode="@" horiz-adv-x="1025" 
d="M651 260c8 90 -47 154 -132 154c-86 0 -153 -65 -160 -154c-8 -88 47 -151 133 -151c84 0 152 63 159 151zM537 629c-218 0 -390 -155 -409 -369c-19 -212 114 -366 317 -366c52 0 112 16 146 34l-7 -69c-42 -22 -100 -31 -145 -31c-240 0 -408 183 -386 432
c22 252 228 435 490 435s436 -183 414 -435c-14 -155 -87 -267 -187 -267c-70 0 -119 54 -112 140c-31 -53 -110 -91 -193 -91c-120 0 -194 94 -183 218c11 128 113 220 242 220c130 0 215 -89 204 -212l-11 -128c-4 -51 21 -85 57 -85c58 0 97 87 107 205
c19 214 -125 369 -344 369z" />
    <glyph glyph-name="A" unicode="A" horiz-adv-x="704" 
d="M377 631l-197 -422h320zM153 144l-66 -144h-89l325 705h120l201 -705h-89l-41 144h-361z" />
    <glyph glyph-name="B" unicode="B" horiz-adv-x="704" 
d="M538 206c6 76 -61 130 -159 130h-202l-23 -262h202c99 0 175 56 182 132zM408 631h-206l-19 -221h205c86 0 151 45 157 110c6 64 -52 111 -137 111zM360 0h-296l61 705h298c128 0 214 -78 205 -184c-6 -70 -59 -130 -126 -147c76 -18 125 -89 118 -172
c-10 -117 -119 -202 -260 -202z" />
    <glyph glyph-name="C" unicode="C" horiz-adv-x="821" 
d="M399 49c119 0 231 79 269 186l79 -15c-47 -141 -195 -245 -354 -245c-212 0 -353 158 -333 377c19 219 187 378 399 378c159 0 289 -109 311 -257l-83 -10c-17 110 -114 193 -235 193c-164 0 -293 -127 -309 -304c-15 -176 93 -303 256 -303z" />
    <glyph glyph-name="D" unicode="D" horiz-adv-x="781" 
d="M64 0l61 705h216c246 0 398 -141 379 -353c-18 -211 -195 -352 -441 -352h-215zM638 352c15 171 -108 279 -303 279h-133l-48 -557h132c196 0 337 108 352 278z" />
    <glyph glyph-name="E" unicode="E" horiz-adv-x="645" 
d="M174 330l-23 -256h411l-6 -74h-492l61 705h482l-6 -74h-401l-20 -231h361l-6 -70h-361z" />
    <glyph glyph-name="F" unicode="F" horiz-adv-x="581" 
d="M475 288h-302l-26 -288h-83l61 705h446l-7 -74h-362l-23 -274h302z" />
    <glyph glyph-name="G" unicode="G" horiz-adv-x="868" 
d="M413 49c159 0 293 117 306 271h-285l6 69h369c-5 -240 -174 -414 -403 -414c-220 0 -366 159 -346 377c19 219 192 378 412 378c162 0 293 -105 313 -250l-80 -15c-19 111 -121 191 -239 191c-173 0 -307 -126 -323 -304c-15 -175 98 -303 270 -303z" />
    <glyph glyph-name="H" unicode="H" horiz-adv-x="744" 
d="M147 0h-84l62 705h83l-26 -301h389l27 301h83l-61 -705h-84l29 330h-389z" />
    <glyph glyph-name="I" unicode="I" horiz-adv-x="273" 
d="M125 705h84l-62 -705h-83z" />
    <glyph glyph-name="J" unicode="J" horiz-adv-x="472" 
d="M281 211l43 494h84l-43 -493c-13 -140 -110 -232 -232 -232c-37 0 -88 8 -125 20l6 72c36 -11 81 -18 109 -18c84 0 150 59 158 157z" />
    <glyph glyph-name="K" unicode="K" horiz-adv-x="618" 
d="M64 0l61 705h84l-26 -301l325 301h109l-364 -333l312 -372h-109l-279 341l-30 -341h-83z" />
    <glyph glyph-name="L" unicode="L" horiz-adv-x="578" 
d="M508 0h-444l61 705h84l-55 -631h360z" />
    <glyph glyph-name="M" unicode="M" horiz-adv-x="946" 
d="M200 598l-52 -598h-84l61 705h121l205 -592l311 592h120l-62 -705h-83l52 599l-313 -599h-67z" />
    <glyph glyph-name="N" unicode="N" horiz-adv-x="747" 
d="M235 705l312 -603l53 603h83l-61 -705h-109l-313 603l-53 -603h-83l61 705h110z" />
    <glyph glyph-name="O" unicode="O" horiz-adv-x="880" 
d="M406 -25c-222 0 -366 156 -346 377c19 221 190 378 412 378s366 -157 347 -378c-20 -221 -191 -377 -413 -377zM466 656c-173 0 -307 -127 -323 -304c-15 -176 97 -302 270 -303c172 0 307 127 322 303c15 177 -97 304 -269 304z" />
    <glyph glyph-name="P" unicode="P" horiz-adv-x="675" 
d="M358 631h-158l-29 -330h158c122 0 214 68 221 164c9 97 -71 166 -192 166zM333 226h-168l-20 -226h-81l61 705h251c163 0 270 -100 258 -240c-13 -139 -137 -239 -301 -239z" />
    <glyph glyph-name="Q" unicode="Q" horiz-adv-x="880" 
d="M466 656c-173 0 -307 -127 -323 -304c-15 -176 97 -302 270 -303c171 0 307 127 322 303c15 177 -97 304 -269 304zM819 352c-12 -133 -78 -242 -178 -308l105 -154h-99l-80 116c-49 -20 -103 -31 -161 -31c-222 0 -366 156 -346 377c19 221 190 378 412 378
s366 -157 347 -378z" />
    <glyph glyph-name="R" unicode="R" horiz-adv-x="730" 
d="M424 631h-222l-25 -291h222c103 0 183 59 191 143c8 92 -61 148 -166 148zM171 266l-24 -266h-83l61 705h312c148 0 247 -92 235 -222c-8 -98 -87 -183 -191 -205l155 -278h-97l-143 266h-225z" />
    <glyph glyph-name="S" unicode="S" horiz-adv-x="702" 
d="M621 205c-12 -134 -127 -230 -293 -230c-172 0 -287 106 -275 253h83c-9 -104 74 -179 201 -179c116 0 192 61 199 146c8 94 -90 108 -198 122c-129 18 -263 39 -249 196c11 125 126 217 285 217c161 0 270 -100 258 -239h-81c8 96 -69 165 -183 165
c-111 0 -188 -57 -195 -136c-8 -94 85 -109 194 -124c128 -18 267 -39 254 -191z" />
    <glyph glyph-name="T" unicode="T" horiz-adv-x="597" 
d="M226 0l55 631h-236l7 74h555l-7 -74h-236l-55 -631h-83z" />
    <glyph glyph-name="U" unicode="U" horiz-adv-x="749" 
d="M571 286l37 419h83l-37 -419c-15 -182 -145 -311 -312 -311c-168 0 -275 129 -259 311l36 419h84l-37 -419c-11 -129 60 -237 182 -237c121 0 211 98 223 237z" />
    <glyph glyph-name="V" unicode="V" horiz-adv-x="695" 
d="M59 705h89l175 -642l286 642h88l-318 -705h-124z" />
    <glyph glyph-name="W" unicode="W" horiz-adv-x="1076" 
d="M632 705l103 -649l239 649h86l-262 -705h-134l-103 618l-210 -618h-135l-139 705h87l125 -649l221 649h122z" />
    <glyph glyph-name="X" unicode="X" horiz-adv-x="697" 
d="M8 0l277 372l-206 333h100l173 -284l227 284h101l-270 -333l218 -372h-100l-185 321l-236 -321h-99z" />
    <glyph glyph-name="Y" unicode="Y" horiz-adv-x="647" 
d="M252 0l22 262l-215 443h93l171 -363l232 363h94l-291 -443l-23 -262h-83z" />
    <glyph glyph-name="Z" unicode="Z" horiz-adv-x="649" 
d="M20 55l484 580h-423l6 70h536l-5 -55l-483 -581h442l-6 -69h-555z" />
    <glyph glyph-name="bracketleft" unicode="[" horiz-adv-x="450" 
d="M196 676l-70 -798h249l-6 -58h-322l80 915h323l-5 -59h-249z" />
    <glyph glyph-name="backslash" unicode="\" horiz-adv-x="443" 
d="M140 705l219 -935h-76l-219 935h76z" />
    <glyph glyph-name="bracketright" unicode="]" horiz-adv-x="450" 
d="M308 -180h-323l5 58h249l70 798h-249l5 59h323z" />
    <glyph glyph-name="asciicircum" unicode="^" horiz-adv-x="573" 
d="M313 654l-182 -254h-78l223 305h82l170 -305h-77z" />
    <glyph glyph-name="underscore" unicode="_" horiz-adv-x="500" 
d="M-6 0h500l-6 -65h-500z" />
    <glyph glyph-name="grave" unicode="`" horiz-adv-x="312" 
d="M83 734l87 1l109 -165h-80z" />
    <glyph glyph-name="a" unicode="a" horiz-adv-x="669" 
d="M302 49c110 0 200 86 210 203c11 118 -64 203 -175 203c-112 0 -200 -85 -211 -203c-10 -117 64 -203 176 -203zM527 415l8 90h77l-45 -505h-76l8 89c-49 -67 -125 -109 -213 -109c-151 0 -250 115 -236 272c14 158 133 273 284 273c87 0 156 -42 193 -110z" />
    <glyph glyph-name="b" unicode="b" horiz-adv-x="666" 
d="M353 451c-112 0 -200 -84 -210 -199c-10 -114 64 -198 176 -198c111 0 200 82 210 198c10 115 -64 199 -176 199zM605 252c-13 -157 -134 -272 -284 -272c-87 0 -155 41 -193 107l-7 -87h-74l64 735h76l-27 -315c49 65 123 105 208 105c151 0 251 -115 237 -273z" />
    <glyph glyph-name="c" unicode="c" horiz-adv-x="610" 
d="M337 525c122 0 218 -78 228 -185l-75 -10c-13 74 -79 128 -159 128c-106 0 -195 -87 -205 -206s63 -205 169 -205c82 0 155 53 181 125l75 -10c-33 -106 -142 -182 -262 -182c-153 0 -253 114 -239 272s134 273 287 273z" />
    <glyph glyph-name="d" unicode="d" horiz-adv-x="666" 
d="M327 451c-111 0 -200 -84 -210 -199c-10 -116 65 -198 176 -198c112 0 200 84 210 198c10 115 -64 199 -176 199zM41 252c13 158 133 273 284 273c86 0 153 -40 190 -105l28 315h76l-64 -735h-74l8 87c-49 -66 -125 -107 -211 -107c-151 0 -251 115 -237 272z" />
    <glyph glyph-name="e" unicode="e" horiz-adv-x="635" 
d="M133 294l373 -1c-5 96 -73 162 -173 162c-98 0 -177 -66 -200 -161zM50 258c14 154 136 267 292 267c154 0 255 -113 241 -268c0 -9 -2 -19 -3 -30l-454 1c2 -106 72 -179 172 -179c79 0 157 48 185 114l74 -12c-40 -99 -149 -171 -261 -171c-156 0 -260 117 -246 278z
" />
    <glyph glyph-name="f" unicode="f" horiz-adv-x="378" 
d="M228 602l-9 -97h129l-5 -63h-129l-39 -442h-77l39 442h-83l6 63h83l9 105c8 88 66 145 144 145c28 0 53 -5 75 -13l-6 -66c-16 5 -35 9 -56 9c-44 0 -77 -31 -81 -83z" />
    <glyph glyph-name="g" unicode="g" horiz-adv-x="666" 
d="M302 55c112 0 200 83 210 197c11 118 -63 203 -175 203s-200 -85 -211 -203c-10 -114 65 -197 176 -197zM287 -181c107 0 191 70 202 189l7 80c-50 -64 -123 -102 -208 -102c-152 0 -252 112 -238 266c14 157 133 271 285 271c87 0 153 -39 190 -102l7 84h77l-44 -497
c-14 -162 -131 -258 -282 -258c-131 0 -233 83 -241 198l74 10c10 -81 82 -139 171 -139z" />
    <glyph glyph-name="h" unicode="h" 
d="M111 735h76l-26 -302c39 57 109 92 180 92c128 0 201 -94 190 -223l-27 -302h-76l26 302c8 89 -39 153 -129 153c-88 0 -168 -67 -176 -160l-26 -295h-76z" />
    <glyph glyph-name="i" unicode="i" horiz-adv-x="258" 
d="M104 505h77l-44 -505h-77zM150 598c-30 0 -50 22 -47 52s26 51 57 51c30 0 50 -21 47 -51s-26 -52 -57 -52z" />
    <glyph glyph-name="j" unicode="j" horiz-adv-x="254" 
d="M51 -75l50 580h77l-52 -588c-7 -85 -66 -142 -144 -142c-30 0 -62 5 -84 13l6 67c18 -7 44 -10 64 -10c46 0 78 33 83 80zM147 598c-30 0 -50 22 -47 52c2 30 26 51 56 51c31 0 50 -21 48 -51c-3 -30 -26 -52 -57 -52z" />
    <glyph glyph-name="k" unicode="k" horiz-adv-x="515" 
d="M47 0l64 735h76l-37 -434l237 204h103l-274 -235l240 -270h-103l-209 239l-21 -239h-76z" />
    <glyph glyph-name="l" unicode="l" horiz-adv-x="233" 
d="M110 735h77l-65 -735h-76z" />
    <glyph glyph-name="m" unicode="m" horiz-adv-x="928" 
d="M132 0h-76l44 505h74l-5 -63c36 52 92 83 157 83c83 0 147 -42 169 -106c38 64 105 105 185 105c118 0 194 -92 182 -222l-26 -302h-77l27 303c8 89 -43 152 -122 152c-83 0 -147 -63 -155 -152l-26 -303h-76l26 303c8 91 -40 152 -120 152c-85 0 -146 -61 -154 -152z
" />
    <glyph glyph-name="n" unicode="n" 
d="M100 505h77l-7 -71c40 56 111 91 181 91c129 0 200 -94 189 -223l-26 -302h-77l26 302c8 89 -37 153 -126 153c-88 0 -171 -67 -179 -160l-26 -295h-76z" />
    <glyph glyph-name="o" unicode="o" horiz-adv-x="639" 
d="M342 525c158 0 260 -113 246 -273c-14 -159 -136 -272 -293 -272c-158 0 -260 113 -246 272c14 160 135 273 293 273zM301 49c112 0 200 86 211 203c10 118 -64 203 -176 203s-200 -85 -210 -203c-11 -117 62 -203 175 -203z" />
    <glyph glyph-name="p" unicode="p" horiz-adv-x="666" 
d="M328 54c112 0 200 84 210 198c10 117 -64 199 -176 199c-111 0 -200 -84 -210 -199c-10 -114 64 -198 176 -198zM615 252c-14 -157 -134 -272 -285 -272c-85 0 -153 39 -190 105l-28 -315h-76l64 735h74l-7 -87c48 66 124 107 211 107c150 0 250 -115 237 -273z" />
    <glyph glyph-name="q" unicode="q" horiz-adv-x="666" 
d="M302 54c112 0 200 84 210 198c10 115 -64 199 -175 199s-201 -82 -211 -199c-10 -114 64 -198 176 -198zM50 252c14 158 134 273 284 273c87 0 156 -41 193 -107l7 87h74l-64 -735h-76l27 315c-48 -66 -123 -105 -208 -105c-151 0 -251 115 -237 272z" />
    <glyph glyph-name="r" unicode="r" horiz-adv-x="394" 
d="M100 505h74l-6 -70c35 55 86 88 148 88c21 0 45 -5 67 -14l-6 -70c-26 12 -54 16 -75 16c-78 0 -136 -71 -145 -172l-25 -283h-76z" />
    <glyph glyph-name="s" unicode="s" horiz-adv-x="544" 
d="M479 145c-8 -95 -101 -165 -222 -165c-130 0 -217 80 -207 189h75c-6 -70 52 -120 138 -120c78 0 137 38 142 89c5 63 -83 77 -137 85c-113 18 -200 34 -190 148c8 89 98 154 207 154c125 0 210 -72 202 -171l-75 1c5 58 -52 100 -134 100c-65 0 -121 -36 -126 -86
c-4 -45 37 -60 128 -75c91 -16 209 -37 199 -149z" />
    <glyph glyph-name="t" unicode="t" horiz-adv-x="388" 
d="M105 125l28 317h-83l5 63h87l21 118h62l-10 -118h130l-5 -63h-131l-27 -314c-4 -49 22 -82 71 -83c16 0 42 4 62 10l-6 -63c-23 -7 -56 -12 -81 -12c-83 0 -130 58 -123 145z" />
    <glyph glyph-name="u" unicode="u" 
d="M504 0h-76l6 71c-39 -56 -111 -91 -181 -91c-128 0 -200 94 -188 223l26 302h76l-26 -302c-8 -89 37 -154 127 -154c88 0 170 68 178 160l26 296h77z" />
    <glyph glyph-name="v" unicode="v" horiz-adv-x="564" 
d="M313 0h-106l-152 505h82l128 -444l206 444h82z" />
    <glyph glyph-name="w" unicode="w" horiz-adv-x="879" 
d="M295 0h-103l-127 505h80l106 -430l165 430h89l93 -430l180 430h80l-216 -505h-104l-85 416z" />
    <glyph glyph-name="x" unicode="x" horiz-adv-x="555" 
d="M114 0h-93l201 262l-147 243h90l117 -197l152 197h90l-190 -243l156 -262h-93l-123 214z" />
    <glyph glyph-name="y" unicode="y" horiz-adv-x="569" 
d="M24 -208l6 67c22 -8 46 -14 66 -14c73 0 102 80 142 156l-183 504h84l144 -410l194 410h81l-246 -512c-55 -115 -105 -216 -211 -216c-26 0 -55 6 -77 15z" />
    <glyph glyph-name="z" unicode="z" horiz-adv-x="556" 
d="M33 50l363 385h-319l6 70h434l-4 -50l-364 -386h340l-6 -69h-454z" />
    <glyph glyph-name="braceleft" unicode="{" horiz-adv-x="371" 
d="M237 -122h58l-5 -58h-91c-67 0 -109 47 -103 115l21 242c3 39 -20 66 -57 66h-10l7 78h10c37 0 65 27 68 66l21 232c6 69 56 116 123 116h91l-5 -59h-58c-43 0 -75 -30 -79 -74l-19 -222c-5 -54 -43 -93 -94 -97l-10 -1l10 -1c50 -3 82 -42 77 -96l-21 -233
c-3 -44 23 -74 66 -74z" />
    <glyph glyph-name="bar" unicode="|" horiz-adv-x="262" 
d="M127 735h72l-84 -965h-73z" />
    <glyph glyph-name="braceright" unicode="}" horiz-adv-x="371" 
d="M76 -180h-91l5 58h58c43 0 75 30 78 74l21 233c5 54 43 93 94 96l10 1l-10 1c-51 4 -82 43 -77 97l19 222c4 44 -22 74 -65 74h-58l5 59h91c67 0 109 -47 103 -116l-20 -232c-4 -39 19 -66 57 -66h10l-7 -78h-10c-38 0 -65 -27 -69 -66l-21 -242
c-6 -68 -56 -115 -123 -115z" />
    <glyph glyph-name="asciitilde" unicode="~" horiz-adv-x="651" 
d="M91 272l-30 46c39 50 104 84 156 84c96 0 173 -116 253 -116c40 1 80 25 109 61l30 -47c-38 -48 -99 -81 -149 -81c-95 0 -172 115 -255 115c-40 0 -82 -25 -114 -62z" />
    <glyph glyph-name="exclamdown" unicode="&#xa1;" horiz-adv-x="245" 
d="M38 -230l17 185l45 308h49l-10 -308l-16 -185h-85zM144 487c30 0 50 -21 47 -52c-2 -30 -26 -51 -56 -51c-31 0 -50 21 -48 51c3 31 26 52 57 52z" />
    <glyph glyph-name="cent" unicode="&#xa2;" horiz-adv-x="610" 
d="M326 -17l-8 -91h-77l8 90c-132 17 -216 125 -203 270s116 253 250 270l7 86h78l-8 -86c103 -15 179 -87 188 -182l-75 -10c-12 74 -79 128 -159 128c-106 0 -194 -87 -204 -206c-11 -119 62 -205 168 -205c82 0 155 53 182 125l74 -10c-29 -94 -118 -164 -221 -179z" />
    <glyph glyph-name="sterling" unicode="&#xa3;" 
d="M567 520l-75 -14c1 91 -37 157 -114 157c-72 0 -117 -59 -125 -141l-12 -138h251l-6 -69h-254c-20 -165 -67 -219 -129 -246h424l-7 -69h-501l8 89c61 11 112 48 128 226h-99l6 69h100l12 138c11 121 89 208 209 208c121 0 183 -89 184 -210z" />
    <glyph glyph-name="currency" unicode="&#xa4;" horiz-adv-x="749" 
d="M355 55c113 0 201 82 211 197s-63 198 -176 198c-111 0 -199 -83 -209 -198c-11 -115 62 -197 174 -197zM560 460l106 92l41 -50l-103 -90c30 -43 44 -97 38 -160c-5 -62 -29 -117 -66 -160l89 -90l-52 -50l-89 93c-48 -33 -108 -53 -174 -53s-121 19 -163 52l-107 -92
l-43 49l104 91c-29 43 -43 98 -38 160c6 63 29 117 66 160l-87 91l52 49l89 -92c48 33 107 52 172 52c67 0 123 -19 165 -52z" />
    <glyph glyph-name="yen" unicode="&#xa5;" horiz-adv-x="684" 
d="M56 289h218l-205 416h95l177 -374l239 374h96l-276 -416h217l-6 -69h-238l-7 -78h238l-6 -70h-238l-6 -72h-84l7 72h-240l6 70h240l7 78h-240z" />
    <glyph glyph-name="section" unicode="&#xa7;" horiz-adv-x="614" 
d="M462 278c7 80 -90 89 -153 95c-10 1 -19 2 -28 4c-81 -4 -139 -46 -143 -91c-7 -77 78 -88 147 -96c9 -1 22 -3 31 -4c83 4 142 41 146 92zM112 534c9 99 105 171 224 171c108 0 192 -74 201 -176l-79 -9c-3 64 -58 111 -130 111c-76 0 -134 -37 -138 -89
c-7 -73 74 -89 160 -105c97 -18 201 -39 192 -146c-5 -63 -60 -116 -136 -130c57 -16 95 -68 89 -133c-9 -108 -107 -183 -235 -183c-110 0 -195 74 -203 176l81 10c4 -65 59 -112 132 -112c78 0 136 37 142 99c7 81 -76 94 -162 107c-97 15 -200 39 -190 145
c5 63 59 116 132 130c-51 17 -86 69 -80 134z" />
    <glyph glyph-name="dieresis" unicode="&#xa8;" horiz-adv-x="444" 
d="M124 588c-31 0 -50 22 -48 51c3 30 26 51 57 51s50 -21 48 -51c-3 -29 -26 -51 -57 -51zM363 588c-31 0 -50 22 -48 51c3 30 26 51 57 51c30 0 50 -21 47 -51c-2 -29 -26 -51 -56 -51z" />
    <glyph glyph-name="copyright" unicode="&#xa9;" horiz-adv-x="937" 
d="M493 601c-205 0 -363 -148 -380 -348c-18 -204 114 -350 319 -350s363 146 381 350c17 200 -115 348 -320 348zM493 522c114 0 207 -74 223 -176l-55 -12c-17 78 -89 132 -176 132c-117 0 -210 -89 -221 -214s66 -214 186 -214c90 0 175 59 204 141l47 -13
c-33 -107 -141 -184 -257 -184c-155 0 -256 113 -242 270c14 158 134 270 291 270zM427 -150c-239 0 -393 167 -373 403c20 231 205 401 443 401c239 0 394 -166 373 -401c-21 -236 -204 -403 -443 -403z" />
    <glyph glyph-name="guillemotleft" unicode="&#xab;" horiz-adv-x="638" 
d="M364 505l-226 -253l181 -252h-91l-179 252l223 253h92zM599 505l-226 -253l182 -252h-92l-179 252l223 253h92z" />
    <glyph glyph-name="logicalnot" unicode="&#xac;" horiz-adv-x="642" 
d="M512 70l19 218h-471l6 66h531l-25 -284h-60z" />
    <glyph glyph-name="registered" unicode="&#xae;" horiz-adv-x="937" 
d="M113 254c-18 -205 114 -350 319 -350s363 145 381 350c17 199 -115 347 -320 347s-363 -148 -380 -347zM520 456h-144l-18 -200h149c62 0 111 41 116 103c5 61 -37 97 -103 97zM427 -149c-239 0 -393 167 -373 403c20 230 205 401 443 401c239 0 394 -166 373 -401
c-21 -236 -204 -403 -443 -403zM548 214l99 -203h-68l-94 197h-131l-17 -197h-60l43 494h215c94 0 155 -63 148 -149c-7 -73 -61 -129 -135 -142z" />
    <glyph glyph-name="macron" unicode="&#xaf;" horiz-adv-x="416" 
d="M394 668l-5 -54h-314l5 54h314z" />
    <glyph glyph-name="degree" unicode="&#xb0;" horiz-adv-x="503" 
d="M250 347c-121 0 -194 78 -184 194c10 117 97 195 218 195c120 0 193 -78 183 -195c-10 -116 -97 -194 -217 -194zM279 681c-85 0 -146 -56 -153 -140c-7 -83 44 -139 129 -139c84 0 145 56 152 139c7 84 -44 140 -128 140z" />
    <glyph glyph-name="plusminus" unicode="&#xb1;" horiz-adv-x="567" 
d="M35 71h466l-7 -71h-465zM317 186h-79l12 128h-194l6 71h194l10 120h79l-10 -120h193l-6 -71h-194z" />
    <glyph glyph-name="acute" unicode="&#xb4;" horiz-adv-x="312" 
d="M293 734l-145 -164h-80l139 165z" />
    <glyph glyph-name="paragraph" unicode="&#xb6;" horiz-adv-x="713" 
d="M654 645h-92l-76 -868h-70l76 868h-124l-76 -868h-69l48 549c-135 0 -217 76 -206 189c11 114 106 190 239 190h355z" />
    <glyph glyph-name="periodcentered" unicode="&#xb7;" horiz-adv-x="206" 
d="M109 235c-31 0 -51 22 -48 51c3 30 26 51 56 51c31 0 51 -21 48 -51c-3 -29 -26 -51 -56 -51z" />
    <glyph glyph-name="cedilla" unicode="&#xb8;" horiz-adv-x="320" 
d="M135 -99h-41l24 109h49l-17 -76c69 0 110 -42 104 -105c-5 -59 -53 -99 -118 -99c-56 0 -97 34 -102 82l43 11c7 -30 31 -51 60 -51c37 0 63 24 66 60c4 42 -23 69 -68 69z" />
    <glyph glyph-name="guillemotright" unicode="&#xbb;" horiz-adv-x="636" 
d="M353 252l-223 -252h-92l226 252l-182 253h92zM588 252l-223 -252h-92l226 252l-182 253h92z" />
    <glyph glyph-name="questiondown" unicode="&#xbf;" horiz-adv-x="601" 
d="M273 318h77c-10 -112 -52 -159 -123 -205c-52 -35 -101 -67 -107 -132c-7 -79 53 -140 139 -140c92 0 162 70 182 167l77 -15c-28 -131 -133 -226 -268 -226c-131 0 -224 90 -213 214c8 95 67 135 141 182c62 38 88 73 95 155zM329 510c30 0 50 -22 47 -52
c-2 -30 -26 -52 -56 -52c-31 0 -50 22 -48 52c3 30 26 52 57 52z" />
    <glyph glyph-name="Agrave" unicode="&#xc0;" horiz-adv-x="704" 
d="M368 631l-198 -422h321zM144 144l-66 -144h-90l326 705h119l202 -705h-89l-41 144h-361zM337 775l-101 144h90l98 -144h-87z" />
    <glyph glyph-name="Aacute" unicode="&#xc1;" horiz-adv-x="704" 
d="M368 631l-198 -422h321zM144 144l-66 -144h-90l326 705h119l202 -705h-89l-41 144h-361zM331 775l123 144h90l-126 -144h-87z" />
    <glyph glyph-name="Acircumflex" unicode="&#xc2;" horiz-adv-x="704" 
d="M368 631l-198 -422h321zM144 144l-66 -144h-90l326 705h119l202 -705h-89l-41 144h-361zM391 876l-97 -101h-77l136 145h83l111 -145h-76z" />
    <glyph glyph-name="Atilde" unicode="&#xc3;" horiz-adv-x="704" 
d="M368 631l-197 -422h320zM145 144l-67 -144h-89l325 705h120l201 -705h-88l-41 144h-361zM258 810l-39 30c21 39 65 66 114 66c69 0 84 -56 134 -56c28 0 54 19 69 45l39 -29c-21 -40 -65 -68 -117 -68c-74 0 -85 56 -132 56c-26 0 -50 -18 -68 -44z" />
    <glyph glyph-name="Adieresis" unicode="&#xc4;" horiz-adv-x="704" 
d="M369 631l-197 -422h320zM145 144l-66 -144h-89l325 705h120l201 -705h-88l-42 144h-361zM275 785c-30 0 -50 21 -47 51c2 30 26 51 56 51s50 -21 48 -51c-3 -30 -26 -51 -57 -51zM494 785c-30 0 -50 21 -48 51c3 30 27 51 57 51s50 -21 48 -51c-3 -30 -27 -51 -57 -51z
" />
    <glyph glyph-name="Aring" unicode="&#xc5;" horiz-adv-x="704" 
d="M367 631l-197 -422h320zM388 885c-25 0 -44 -17 -46 -41c-2 -25 14 -43 39 -43c24 0 44 18 46 43c2 24 -14 41 -39 41zM144 144l-67 -144h-89l325 705h120l201 -705h-88l-42 144h-360zM377 754c-55 0 -91 38 -86 89c4 52 46 89 100 89c55 0 90 -38 86 -89
c-4 -52 -46 -89 -100 -89z" />
    <glyph glyph-name="AE" unicode="&#xc6;" horiz-adv-x="939" 
d="M218 214h224l38 430zM506 74h350l-7 -74h-425l12 143h-258l-87 -143h-93l427 705h476l-6 -75h-340l-21 -237h300l-6 -70h-300z" />
    <glyph glyph-name="Ccedilla" unicode="&#xc7;" horiz-adv-x="821" 
d="M392 -99h-41l16 75c-198 12 -326 166 -307 376c19 219 187 378 399 378c159 0 289 -109 311 -257l-83 -10c-17 110 -114 193 -235 193c-164 0 -293 -127 -309 -304c-15 -176 93 -303 256 -303c119 0 231 79 269 186l79 -15c-45 -134 -181 -235 -331 -244l-9 -42
c68 0 109 -42 104 -105c-5 -59 -53 -99 -119 -99c-55 0 -97 34 -101 82l43 11c7 -30 31 -51 60 -51c36 0 63 24 66 60c4 42 -23 69 -68 69z" />
    <glyph glyph-name="Egrave" unicode="&#xc8;" horiz-adv-x="645" 
d="M164 330l-22 -256h411l-7 -74h-492l62 705h482l-7 -74h-400l-20 -231h360l-6 -70h-361zM219 919h91l98 -144h-87z" />
    <glyph glyph-name="Eacute" unicode="&#xc9;" horiz-adv-x="645" 
d="M164 330l-22 -256h411l-7 -74h-492l62 705h482l-7 -74h-400l-20 -231h360l-6 -70h-361zM438 919h90l-126 -144h-87z" />
    <glyph glyph-name="Ecircumflex" unicode="&#xca;" horiz-adv-x="645" 
d="M164 330l-22 -256h411l-7 -74h-492l62 705h482l-7 -74h-400l-20 -231h360l-6 -70h-361zM277 775h-76l136 145h83l111 -145h-76l-81 101z" />
    <glyph glyph-name="Edieresis" unicode="&#xcb;" horiz-adv-x="645" 
d="M166 330l-23 -256h411l-6 -74h-492l62 705h481l-6 -74h-401l-20 -231h361l-6 -70h-361zM259 785c-30 0 -50 21 -48 51c3 30 27 51 57 51s50 -21 48 -51c-3 -30 -27 -51 -57 -51zM478 785c-30 0 -50 21 -48 51c3 30 26 51 57 51c30 0 50 -21 47 -51
c-2 -30 -26 -51 -56 -51z" />
    <glyph glyph-name="Igrave" unicode="&#xcc;" horiz-adv-x="275" 
d="M117 705h83l-61 -705h-84zM18 919h91l97 -144h-87z" />
    <glyph glyph-name="Iacute" unicode="&#xcd;" horiz-adv-x="276" 
d="M118 705h83l-61 -705h-84zM237 919h91l-127 -144h-87z" />
    <glyph glyph-name="Icircumflex" unicode="&#xce;" horiz-adv-x="275" 
d="M118 705h83l-61 -705h-84zM77 775h-77l136 145h83l111 -145h-76l-80 101z" />
    <glyph glyph-name="Idieresis" unicode="&#xcf;" horiz-adv-x="275" 
d="M118 705h84l-62 -705h-83zM58 785c-31 0 -51 21 -48 51s26 51 57 51c30 0 50 -21 47 -51s-26 -51 -56 -51zM277 785c-31 0 -51 21 -48 51s26 51 56 51c31 0 51 -21 48 -51s-26 -51 -56 -51z" />
    <glyph glyph-name="Ntilde" unicode="&#xd1;" horiz-adv-x="747" 
d="M117 705h109l312 -603l53 603h84l-62 -705h-109l-313 603l-53 -603h-83zM276 810l-39 30c22 39 65 66 114 66c70 0 85 -56 134 -56c29 0 54 19 69 45l40 -29c-22 -40 -66 -68 -118 -68c-74 0 -85 56 -131 56c-27 0 -51 -18 -69 -44z" />
    <glyph glyph-name="Ograve" unicode="&#xd2;" horiz-adv-x="880" 
d="M398 -25c-222 0 -366 156 -347 377c20 221 191 378 413 378s365 -157 346 -378s-190 -377 -412 -377zM457 656c-172 0 -307 -127 -322 -304c-16 -176 97 -302 269 -303c173 0 307 127 323 303c15 177 -97 304 -270 304zM321 919h91l97 -144h-86z" />
    <glyph glyph-name="Oacute" unicode="&#xd3;" horiz-adv-x="880" 
d="M398 -25c-222 0 -366 156 -347 377c20 221 191 378 413 378s365 -157 346 -378s-190 -377 -412 -377zM457 656c-172 0 -307 -127 -322 -304c-16 -176 97 -302 269 -303c173 0 307 127 323 303c15 177 -97 304 -270 304zM540 919h90l-127 -144h-86z" />
    <glyph glyph-name="Ocircumflex" unicode="&#xd4;" horiz-adv-x="880" 
d="M457 656c-172 0 -307 -127 -322 -304c-16 -176 97 -302 269 -303c173 0 307 127 323 303c15 177 -97 304 -270 304zM398 -25c-222 0 -366 156 -347 377c20 221 191 378 413 378s365 -157 346 -378s-190 -377 -412 -377zM476 876l-97 -101h-77l137 145h82l111 -145h-76z
" />
    <glyph glyph-name="Otilde" unicode="&#xd5;" horiz-adv-x="880" 
d="M458 656c-173 0 -307 -127 -323 -304c-15 -176 97 -302 270 -303c172 0 307 127 322 303c16 177 -96 304 -269 304zM398 -25c-222 0 -365 156 -346 377s190 378 412 378s366 -157 347 -378c-20 -221 -191 -377 -413 -377zM342 810l-39 30c21 39 64 66 113 66
c70 0 85 -56 134 -56c29 0 54 19 70 45l39 -29c-21 -40 -66 -68 -118 -68c-74 0 -85 56 -131 56c-27 0 -51 -18 -68 -44z" />
    <glyph glyph-name="Odieresis" unicode="&#xd6;" horiz-adv-x="880" 
d="M399 -25c-222 0 -366 156 -346 377c19 221 190 378 412 378s366 -157 347 -378c-20 -221 -191 -377 -413 -377zM459 656c-173 0 -307 -127 -323 -304c-15 -176 97 -302 270 -303c172 0 307 127 322 303c16 177 -97 304 -269 304zM361 785c-31 0 -50 21 -48 51
c3 30 26 51 57 51c30 0 50 -21 47 -51c-2 -30 -26 -51 -56 -51zM580 785c-31 0 -51 21 -48 51s26 51 57 51c30 0 50 -21 47 -51c-2 -30 -26 -51 -56 -51z" />
    <glyph glyph-name="multiply" unicode="&#xd7;" horiz-adv-x="395" 
d="M90 141l-43 46l112 109l-93 109l51 46l90 -107l110 107l43 -46l-112 -109l92 -109l-50 -46l-91 107z" />
    <glyph glyph-name="Oslash" unicode="&#xd8;" horiz-adv-x="860" 
d="M450 656c-166 0 -297 -128 -313 -304c-9 -112 32 -204 106 -256l318 537c-33 15 -71 23 -111 23zM397 49c166 0 297 127 312 303c9 105 -26 192 -91 245l-314 -533c28 -10 59 -15 93 -15zM263 -4l-79 -136h-79l97 165c-103 63 -161 182 -148 327c19 219 188 378 402 378
c53 0 102 -10 145 -29l94 159l79 1l-113 -192c92 -66 144 -180 132 -317c-19 -218 -188 -377 -403 -377c-46 0 -88 8 -127 21z" />
    <glyph glyph-name="Ugrave" unicode="&#xd9;" horiz-adv-x="749" 
d="M562 286l36 419h84l-37 -419c-16 -182 -146 -311 -313 -311s-275 129 -259 311l37 419h84l-37 -419c-11 -129 59 -237 182 -237c121 0 210 98 223 237zM258 919h90l98 -144h-87z" />
    <glyph glyph-name="Uacute" unicode="&#xda;" horiz-adv-x="749" 
d="M562 286l36 419h84l-37 -419c-16 -182 -146 -311 -313 -311s-275 129 -259 311l37 419h84l-37 -419c-11 -129 59 -237 182 -237c121 0 210 98 223 237zM349 775l123 144h90l-126 -144h-87z" />
    <glyph glyph-name="Ucircumflex" unicode="&#xdb;" horiz-adv-x="749" 
d="M562 286l36 419h84l-37 -419c-16 -182 -146 -311 -313 -311s-275 129 -259 311l37 419h84l-37 -419c-11 -129 59 -237 182 -237c121 0 210 98 223 237zM411 876l-97 -101h-77l136 145h83l111 -145h-76z" />
    <glyph glyph-name="Udieresis" unicode="&#xdc;" horiz-adv-x="749" 
d="M563 286l37 419h83l-37 -419c-15 -182 -145 -311 -312 -311c-168 0 -275 129 -259 311l36 419h84l-37 -419c-11 -129 60 -237 182 -237c121 0 211 98 223 237zM295 785c-30 0 -50 21 -47 51c2 30 26 51 56 51c31 0 50 -21 48 -51c-3 -30 -26 -51 -57 -51zM514 785
c-30 0 -50 21 -47 51c2 30 26 51 56 51s50 -21 48 -51c-3 -30 -26 -51 -57 -51z" />
    <glyph glyph-name="Yacute" unicode="&#xdd;" horiz-adv-x="647" 
d="M242 0l23 262l-215 443h92l172 -363l232 363h94l-291 -443l-23 -262h-84zM420 919h91l-127 -144h-87z" />
    <glyph glyph-name="germandbls" unicode="&#xdf;" horiz-adv-x="684" 
d="M178 472l-41 -472h-84l42 480c12 140 122 242 263 242c131 0 220 -82 210 -191c-7 -82 -61 -144 -130 -154c102 -13 169 -94 159 -201c-10 -117 -108 -201 -230 -201c-59 0 -112 20 -157 46l30 70c38 -25 83 -43 128 -43c81 0 139 56 146 135c8 93 -44 157 -163 157h-42
l6 70h43c67 0 120 47 126 115c6 71 -50 123 -134 123c-93 0 -163 -69 -172 -176z" />
    <glyph glyph-name="agrave" unicode="&#xe0;" horiz-adv-x="669" 
d="M293 49c110 0 200 86 210 203c11 118 -64 203 -175 203c-112 0 -200 -85 -211 -203c-10 -117 64 -203 176 -203zM518 415l8 90h77l-45 -505h-76l8 89c-49 -67 -125 -109 -213 -109c-151 0 -250 115 -236 272c14 158 133 273 284 273c87 0 156 -42 193 -110zM292 565
l-116 164l86 1l110 -165h-80z" />
    <glyph glyph-name="aacute" unicode="&#xe1;" horiz-adv-x="669" 
d="M293 49c110 0 200 86 210 203c11 118 -64 203 -175 203c-112 0 -200 -85 -211 -203c-10 -117 64 -203 176 -203zM518 415l8 90h77l-45 -505h-76l8 89c-49 -67 -125 -109 -213 -109c-151 0 -250 115 -236 272c14 158 133 273 284 273c87 0 156 -42 193 -110zM282 565
l138 164h87l-145 -164h-80z" />
    <glyph glyph-name="acircumflex" unicode="&#xe2;" horiz-adv-x="669" 
d="M293 49c110 0 200 86 210 203c11 118 -64 203 -175 203c-112 0 -200 -85 -211 -203c-10 -117 64 -203 176 -203zM518 415l8 90h77l-45 -505h-76l8 89c-49 -67 -125 -109 -213 -109c-151 0 -250 115 -236 272c14 158 133 273 284 273c87 0 156 -42 193 -110zM340 685
l-99 -120h-73l135 165h81l107 -165h-73z" />
    <glyph glyph-name="atilde" unicode="&#xe3;" horiz-adv-x="669" 
d="M295 49c111 0 200 86 210 203c11 118 -64 203 -175 203c-112 0 -200 -85 -211 -203c-10 -117 64 -203 176 -203zM521 415l7 90h77l-44 -505h-77l8 89c-49 -67 -125 -109 -213 -109c-151 0 -250 115 -236 272c14 158 133 273 284 273c87 0 156 -42 194 -110zM219 592
l-40 23c22 39 67 66 113 66c68 0 87 -58 138 -58c26 0 52 16 64 38l41 -23c-21 -39 -65 -67 -117 -67c-73 0 -87 57 -137 57c-25 0 -49 -14 -62 -36z" />
    <glyph glyph-name="adieresis" unicode="&#xe4;" horiz-adv-x="669" 
d="M295 49c110 0 200 86 210 203c11 118 -64 203 -175 203c-112 0 -200 -85 -211 -203c-10 -117 64 -203 176 -203zM520 415l8 90h77l-45 -505h-76l8 89c-49 -67 -125 -109 -213 -109c-151 0 -250 115 -236 272c14 158 133 273 284 273c87 0 156 -42 193 -110zM212 582
c-30 0 -50 21 -47 51s26 51 56 51c31 0 51 -21 48 -51s-26 -51 -57 -51zM451 582c-30 0 -50 21 -47 51c2 30 26 51 56 51c31 0 50 -21 48 -51c-3 -30 -26 -51 -57 -51z" />
    <glyph glyph-name="aring" unicode="&#xe5;" horiz-adv-x="669" 
d="M290 49c111 0 201 86 211 203c10 118 -64 203 -175 203c-112 0 -201 -85 -211 -203c-10 -117 63 -203 175 -203zM341 738c-40 0 -72 -28 -74 -68c-4 -40 22 -69 62 -69s71 29 74 69c4 40 -22 68 -62 68zM516 415l8 90h76l-44 -505h-76l7 89c-48 -67 -125 -109 -212 -109
c-151 0 -250 115 -237 272c14 158 133 273 284 273c88 0 157 -42 194 -110zM325 555c-70 0 -116 48 -110 115s60 115 130 115s115 -48 109 -115s-59 -115 -129 -115z" />
    <glyph glyph-name="ae" unicode="&#xe6;" horiz-adv-x="1083" 
d="M337 460c-112 0 -200 -87 -211 -208c-10 -120 63 -207 175 -207c109 0 200 83 211 207c11 121 -63 208 -175 208zM583 279h373c6 102 -66 176 -175 176c-101 0 -181 -74 -198 -176zM522 420l8 85h61l-8 -92c42 69 114 112 207 112c154 0 255 -112 242 -266
c-2 -13 -4 -30 -7 -45h-445c7 -99 74 -165 174 -165c78 0 152 47 176 111l71 -10c-27 -99 -132 -170 -249 -170c-92 0 -167 46 -197 116l-8 -96h-61l7 84c-50 -64 -125 -104 -211 -104c-149 0 -246 115 -232 272c14 158 131 273 280 273c86 0 154 -41 192 -105z" />
    <glyph glyph-name="ccedilla" unicode="&#xe7;" horiz-adv-x="610" 
d="M296 -99h-41l17 79c-143 9 -236 120 -222 272c14 158 134 273 287 273c122 0 218 -78 228 -185l-75 -10c-13 74 -79 128 -159 128c-106 0 -195 -87 -205 -206s63 -205 169 -205c82 0 155 53 181 125l75 -10c-30 -96 -123 -168 -229 -180l-11 -48c68 0 109 -42 104 -105
c-5 -59 -53 -99 -119 -99c-55 0 -97 34 -102 82l44 11c7 -30 31 -51 60 -51c36 0 63 24 66 60c3 42 -23 69 -68 69z" />
    <glyph glyph-name="egrave" unicode="&#xe8;" horiz-adv-x="635" 
d="M124 294l373 -1c-5 96 -73 162 -173 162c-98 0 -177 -66 -200 -161zM41 258c14 154 136 267 292 267c154 0 255 -113 241 -268c0 -9 -2 -19 -3 -30l-454 1c2 -106 72 -179 172 -179c79 0 157 48 185 114l74 -12c-40 -99 -149 -171 -261 -171c-156 0 -260 117 -246 278z
M302 565l-117 164l87 1l109 -165h-79z" />
    <glyph glyph-name="eacute" unicode="&#xe9;" horiz-adv-x="635" 
d="M124 294l373 -1c-5 96 -73 162 -173 162c-98 0 -177 -66 -200 -161zM41 258c14 154 136 267 292 267c154 0 255 -113 241 -268c0 -9 -2 -19 -3 -30l-454 1c2 -106 72 -179 172 -179c79 0 157 48 185 114l74 -12c-40 -99 -149 -171 -261 -171c-156 0 -260 117 -246 278z
M292 565l138 164h87l-145 -164h-80z" />
    <glyph glyph-name="ecircumflex" unicode="&#xea;" horiz-adv-x="635" 
d="M124 294l373 -1c-5 96 -73 162 -173 162c-98 0 -177 -66 -200 -161zM41 258c14 154 136 267 292 267c154 0 255 -113 241 -268c0 -9 -2 -19 -3 -30l-454 1c2 -106 72 -179 172 -179c79 0 157 48 185 114l74 -12c-40 -99 -149 -171 -261 -171c-156 0 -260 117 -246 278z
M350 685l-100 -120h-72l134 165h82l107 -165h-74z" />
    <glyph glyph-name="edieresis" unicode="&#xeb;" horiz-adv-x="635" 
d="M126 294l373 -1c-5 96 -73 162 -173 162c-98 0 -177 -66 -200 -161zM43 258c14 154 136 267 292 267c154 0 255 -113 241 -268c0 -9 -2 -19 -3 -30l-454 1c2 -106 72 -179 172 -179c79 0 157 48 185 114l74 -12c-40 -99 -149 -171 -261 -171c-156 0 -260 117 -246 278z
M222 582c-30 0 -50 21 -47 51c2 30 26 51 56 51c31 0 50 -21 48 -51c-3 -30 -26 -51 -57 -51zM461 582c-30 0 -50 21 -47 51c2 30 25 51 56 51s50 -21 48 -51c-3 -30 -26 -51 -57 -51z" />
    <glyph glyph-name="igrave" unicode="&#xec;" horiz-adv-x="233" 
d="M91 505h77l-44 -505h-77zM-18 729l87 1l109 -165h-80z" />
    <glyph glyph-name="iacute" unicode="&#xed;" horiz-adv-x="237" 
d="M93 505h76l-44 -505h-76zM228 729h87l-145 -164h-80z" />
    <glyph glyph-name="icircumflex" unicode="&#xee;" horiz-adv-x="232" 
d="M89 505h76l-44 -505h-76zM44 565h-72l135 165h81l107 -165h-74l-77 120z" />
    <glyph glyph-name="idieresis" unicode="&#xef;" horiz-adv-x="239" 
d="M96 505h76l-44 -505h-77zM21 582c-31 0 -50 21 -48 51c3 30 26 51 57 51c30 0 50 -21 47 -51c-2 -30 -26 -51 -56 -51zM260 582c-31 0 -50 21 -48 51c3 30 26 51 57 51c30 0 50 -21 47 -51c-2 -30 -26 -51 -56 -51z" />
    <glyph glyph-name="ntilde" unicode="&#xf1;" 
d="M49 0l44 505h77l-7 -71c40 56 111 91 182 91c128 0 199 -94 188 -223l-26 -302h-77l27 302c7 89 -38 153 -127 153c-88 0 -171 -67 -179 -160l-25 -295h-77zM194 592l-39 23c21 39 66 66 113 66c68 0 86 -58 137 -58c27 0 52 16 65 38l41 -23c-22 -39 -66 -67 -117 -67
c-74 0 -88 57 -137 57c-25 0 -49 -14 -63 -36z" />
    <glyph glyph-name="ograve" unicode="&#xf2;" horiz-adv-x="640" 
d="M334 525c157 0 260 -113 246 -273c-14 -159 -136 -272 -294 -272s-259 113 -245 272c14 160 135 273 293 273zM293 49c111 0 200 86 210 203c11 118 -63 203 -175 203c-113 0 -200 -85 -211 -203c-10 -117 63 -203 176 -203zM185 729l87 1l109 -165h-80z" />
    <glyph glyph-name="oacute" unicode="&#xf3;" horiz-adv-x="640" 
d="M334 525c157 0 260 -113 246 -273c-14 -159 -136 -272 -293 -272c-159 0 -260 113 -246 272c14 160 135 273 293 273zM293 49c111 0 200 86 210 203c11 118 -63 203 -175 203c-113 0 -200 -85 -211 -203c-10 -117 63 -203 176 -203zM430 729h86l-144 -164h-80z" />
    <glyph glyph-name="ocircumflex" unicode="&#xf4;" horiz-adv-x="640" 
d="M293 49c111 0 200 86 210 203c11 118 -63 203 -175 203c-113 0 -200 -85 -211 -203c-10 -117 63 -203 176 -203zM334 525c157 0 260 -113 246 -273c-14 -159 -136 -272 -294 -272s-259 113 -245 272c14 160 135 273 293 273zM349 685l-99 -120h-72l134 165h82l106 -165
h-73z" />
    <glyph glyph-name="otilde" unicode="&#xf5;" horiz-adv-x="640" 
d="M295 49c112 0 200 86 210 203c11 118 -63 203 -175 203s-200 -85 -211 -203c-10 -117 63 -203 176 -203zM336 525c158 0 260 -113 246 -273c-14 -159 -136 -272 -293 -272c-158 0 -260 113 -246 272c14 160 135 273 293 273zM218 592l-40 23c22 39 67 66 113 66
c68 0 87 -58 138 -58c27 0 52 16 65 38l40 -23c-21 -39 -65 -67 -116 -67c-74 0 -88 57 -137 57c-26 0 -49 -14 -63 -36z" />
    <glyph glyph-name="odieresis" unicode="&#xf6;" horiz-adv-x="640" 
d="M336 525c157 0 260 -113 246 -273c-14 -159 -136 -272 -293 -272c-159 0 -260 113 -246 272c14 160 135 273 293 273zM295 49c111 0 200 86 210 203c11 118 -63 203 -175 203c-113 0 -200 -85 -211 -203c-10 -117 63 -203 176 -203zM222 582c-31 0 -50 21 -48 51
c3 30 26 51 57 51c30 0 50 -21 47 -51c-2 -30 -26 -51 -56 -51zM461 582c-31 0 -51 21 -48 51s26 51 57 51c30 0 50 -21 47 -51c-2 -30 -26 -51 -56 -51z" />
    <glyph glyph-name="divide" unicode="&#xf7;" horiz-adv-x="552" 
d="M255 20c-27 0 -45 19 -43 47c2 26 24 45 51 45c28 0 46 -19 44 -45c-3 -28 -24 -47 -52 -47zM55 308h450l-6 -70h-450zM290 417c-28 0 -46 19 -43 47c2 26 23 45 51 45s46 -19 43 -45c-2 -28 -24 -47 -51 -47z" />
    <glyph glyph-name="oslash" unicode="&#xf8;" horiz-adv-x="645" 
d="M337 465c-118 0 -210 -89 -221 -213c-7 -77 21 -141 72 -178l223 377c-23 9 -48 14 -74 14zM300 40c117 0 209 89 220 212c6 70 -16 128 -57 166l-219 -371c18 -5 36 -7 56 -7zM212 -9l-41 -71h-74l57 96c-75 46 -117 131 -107 236c13 160 136 273 295 273
c37 0 72 -6 102 -18l54 93h73l-72 -123c64 -47 100 -128 91 -225c-14 -159 -137 -272 -295 -272c-30 0 -58 4 -83 11z" />
    <glyph glyph-name="ugrave" unicode="&#xf9;" 
d="M495 0h-77l6 71c-39 -56 -110 -91 -181 -91c-128 0 -200 94 -188 223l26 302h77l-27 -302c-8 -89 37 -154 127 -154c88 0 170 68 178 160l26 296h77zM172 729h87l109 -165h-80z" />
    <glyph glyph-name="uacute" unicode="&#xfa;" 
d="M495 0h-77l6 71c-39 -56 -110 -91 -181 -91c-128 0 -200 94 -188 223l26 302h77l-27 -302c-8 -89 37 -154 127 -154c88 0 170 68 178 160l26 296h77zM405 729l86 -1l-144 -164h-80z" />
    <glyph glyph-name="ucircumflex" unicode="&#xfb;" 
d="M495 0h-77l6 71c-39 -56 -110 -91 -181 -91c-128 0 -200 94 -188 223l26 302h77l-27 -302c-8 -89 37 -154 127 -154c88 0 170 68 178 160l26 296h77zM227 564h-72l134 165h82l106 -165h-73l-78 121z" />
    <glyph glyph-name="udieresis" unicode="&#xfc;" 
d="M497 0h-77l6 71c-39 -56 -110 -91 -181 -91c-128 0 -199 94 -188 223l26 302h77l-27 -302c-8 -89 37 -154 127 -154c88 0 170 68 178 160l26 296h77zM199 581c-31 0 -50 22 -48 51c3 30 26 51 57 51c30 0 50 -21 47 -51c-2 -29 -26 -51 -56 -51zM438 581
c-31 0 -50 22 -48 51c3 30 26 51 57 51c30 0 50 -21 47 -51c-2 -29 -26 -51 -56 -51z" />
    <glyph glyph-name="yacute" unicode="&#xfd;" horiz-adv-x="569" 
d="M14 -208l6 67c22 -8 46 -14 66 -14c73 0 103 80 142 156l-183 504h85l143 -410l194 410h81l-246 -512c-55 -115 -105 -216 -211 -216c-26 0 -55 6 -77 15zM392 729h87l-145 -164h-80z" />
    <glyph glyph-name="ydieresis" unicode="&#xff;" horiz-adv-x="569" 
d="M16 -208l6 67c22 -8 46 -14 66 -14c73 0 103 80 142 156l-183 504h85l143 -410l194 410h81l-246 -512c-55 -115 -105 -216 -211 -216c-26 0 -55 6 -77 15zM186 582c-30 0 -50 21 -47 51c2 30 26 51 56 51c31 0 50 -21 48 -51c-3 -30 -26 -51 -57 -51zM425 582
c-30 0 -50 21 -47 51c2 30 25 51 56 51s50 -21 48 -51c-3 -30 -26 -51 -57 -51z" />
    <glyph glyph-name="Amacron" unicode="&#x100;" horiz-adv-x="704" 
d="M370 631l-197 -422h321zM147 144l-67 -144h-89l326 705h119l201 -705h-88l-41 144h-361zM235 858h314l-4 -53h-314z" />
    <glyph glyph-name="amacron" unicode="&#x101;" horiz-adv-x="669" 
d="M296 49c111 0 201 86 211 203c10 118 -64 203 -175 203c-112 0 -201 -85 -211 -203c-10 -117 63 -203 175 -203zM522 415l8 90h76l-44 -505h-76l7 89c-48 -67 -125 -109 -212 -109c-151 0 -250 115 -237 272c14 158 133 273 284 273c88 0 157 -42 194 -110zM182 648h314
l-4 -53h-314z" />
    <glyph glyph-name="Abreve" unicode="&#x102;" horiz-adv-x="704" 
d="M368 631l-197 -422h320zM144 144l-66 -144h-90l326 705h119l202 -705h-89l-41 144h-361zM467 917h59c-7 -83 -57 -142 -144 -142s-126 60 -119 142h60c-5 -50 22 -86 64 -86s75 36 80 86z" />
    <glyph glyph-name="abreve" unicode="&#x103;" horiz-adv-x="669" 
d="M293 49c111 0 200 86 211 203c10 118 -65 203 -176 203c-112 0 -200 -85 -211 -203c-10 -117 64 -203 176 -203zM519 415l7 90h77l-44 -505h-77l8 89c-49 -67 -125 -109 -213 -109c-151 0 -250 115 -236 272c14 158 133 273 284 273c88 0 156 -42 194 -110zM414 725h60
c-7 -83 -55 -160 -145 -160c-92 0 -126 76 -118 160h60c-5 -61 21 -104 62 -104c42 0 75 43 81 104z" />
    <glyph glyph-name="Aogonek" unicode="&#x104;" horiz-adv-x="752" 
d="M377 631l-197 -422h320zM556 0h-1l-41 144h-361l-66 -144h-89l325 705h120l201 -705h-11c-82 -22 -113 -60 -117 -101c-7 -73 59 -119 157 -122l-5 -56c-128 0 -213 70 -204 167c4 49 38 89 92 112z" />
    <glyph glyph-name="aogonek" unicode="&#x105;" horiz-adv-x="720" 
d="M302 49c110 0 200 86 210 203c11 118 -64 203 -175 203c-112 0 -200 -85 -211 -203c-10 -117 64 -203 176 -203zM491 4l8 85c-49 -67 -125 -109 -213 -109c-151 0 -250 115 -236 272c14 158 133 273 284 273c87 0 156 -42 193 -110l8 90h77l-45 -505h-8
c-83 -22 -114 -60 -118 -101c-6 -73 59 -119 157 -122l-5 -56c-128 0 -212 69 -204 167c5 52 43 94 102 116z" />
    <glyph glyph-name="Cacute" unicode="&#x106;" horiz-adv-x="821" 
d="M391 49c119 0 231 79 269 186l79 -15c-47 -141 -195 -245 -354 -245c-213 0 -353 158 -334 377c20 219 187 378 400 378c159 0 289 -109 310 -257l-82 -10c-17 110 -115 193 -235 193c-164 0 -294 -127 -309 -304c-15 -176 92 -303 256 -303zM510 919h91l-127 -144h-87z
" />
    <glyph glyph-name="cacute" unicode="&#x107;" horiz-adv-x="610" 
d="M328 525c122 0 218 -78 228 -185l-75 -10c-13 74 -79 128 -159 128c-106 0 -194 -87 -205 -206c-10 -119 63 -205 169 -205c82 0 155 53 182 125l74 -10c-33 -106 -142 -182 -262 -182c-153 0 -253 114 -239 272s134 273 287 273zM423 729h87l-145 -164h-80z" />
    <glyph glyph-name="Ccircumflex" unicode="&#x108;" horiz-adv-x="821" 
d="M391 49c119 0 231 79 269 186l79 -15c-47 -141 -195 -245 -354 -245c-213 0 -353 158 -334 377c20 219 187 378 400 378c159 0 289 -109 310 -257l-82 -10c-17 110 -115 193 -235 193c-164 0 -294 -127 -309 -304c-15 -176 92 -303 256 -303zM350 775h-77l136 145h83
l111 -145h-76l-80 101z" />
    <glyph glyph-name="ccircumflex" unicode="&#x109;" horiz-adv-x="610" 
d="M328 525c122 0 218 -78 228 -185l-75 -10c-13 74 -79 128 -159 128c-106 0 -194 -87 -205 -206c-10 -119 63 -205 169 -205c82 0 155 53 182 125l74 -10c-33 -106 -142 -182 -262 -182c-153 0 -253 114 -239 272s134 273 287 273zM244 565h-73l135 165h81l107 -165h-73
l-78 120z" />
    <glyph glyph-name="Cdotaccent" unicode="&#x10a;" horiz-adv-x="821" 
d="M393 49c119 0 231 79 269 186l78 -15c-46 -141 -194 -245 -353 -245c-213 0 -353 158 -334 377c20 219 187 378 399 378c160 0 290 -109 311 -257l-83 -10c-16 110 -114 193 -234 193c-165 0 -294 -127 -309 -304c-15 -176 92 -303 256 -303zM441 780
c-31 0 -50 20 -48 49c4 29 26 48 56 48c32 0 51 -19 48 -48c-2 -29 -25 -49 -56 -49z" />
    <glyph glyph-name="cdotaccent" unicode="&#x10b;" horiz-adv-x="610" 
d="M329 525c123 0 218 -78 228 -185l-75 -10c-12 74 -79 128 -158 128c-106 0 -195 -87 -205 -206c-11 -119 62 -205 168 -205c82 0 155 53 182 125l74 -10c-32 -106 -142 -182 -261 -182c-153 0 -254 114 -240 272s135 273 287 273zM336 595c-31 0 -51 21 -48 52
c3 29 26 51 57 51c30 0 50 -22 47 -51c-3 -31 -26 -52 -56 -52z" />
    <glyph glyph-name="Ccaron" unicode="&#x10c;" horiz-adv-x="821" 
d="M390 49c119 0 231 79 269 186l79 -15c-47 -141 -195 -245 -354 -245c-212 0 -353 158 -334 377c20 219 187 378 400 378c159 0 289 -109 311 -257l-83 -10c-17 110 -115 193 -235 193c-164 0 -294 -127 -309 -304c-15 -176 92 -303 256 -303zM540 940h74l-136 -164h-81
l-106 164h72l79 -120z" />
    <glyph glyph-name="ccaron" unicode="&#x10d;" horiz-adv-x="610" 
d="M328 525c122 0 218 -78 228 -185l-75 -10c-13 74 -79 128 -159 128c-106 0 -194 -87 -205 -206c-10 -119 63 -205 169 -205c82 0 155 53 182 125l74 -10c-33 -106 -142 -182 -262 -182c-153 0 -253 114 -239 272s134 273 287 273zM434 729l73 1l-135 -165h-82l-105 164
h72l78 -120z" />
    <glyph glyph-name="Dcaron" unicode="&#x10e;" horiz-adv-x="781" 
d="M627 352c15 171 -107 279 -303 279h-132l-48 -557h132c195 0 336 108 351 278zM269 0h-215l61 705h216c246 0 398 -141 379 -353c-18 -211 -195 -352 -441 -352zM389 817l98 120h74l-136 -164h-81l-106 164h72z" />
    <glyph glyph-name="dcaron" unicode="&#x10f;" horiz-adv-x="763" 
d="M327 451c-111 0 -200 -84 -210 -199c-10 -116 65 -198 176 -198c112 0 200 84 210 198c10 115 -64 199 -176 199zM41 252c13 158 133 273 284 273c86 0 153 -40 190 -105l28 315h76l-64 -735h-74l8 87c-49 -66 -125 -107 -211 -107c-151 0 -251 115 -237 272zM716 633
c-25 0 -41 18 -39 45c3 26 22 45 48 45c31 0 50 -25 47 -60c-5 -50 -35 -102 -75 -130l-25 22c23 20 42 52 44 78z" />
    <glyph glyph-name="Dcroat" unicode="&#x110;" horiz-adv-x="828" 
d="M148 439l24 266h215c246 0 398 -141 379 -353c-18 -211 -194 -352 -440 -352h-216l32 369h-112l6 70h112zM684 352c15 171 -108 279 -303 279h-132l-17 -192h204l-6 -70h-204l-26 -295h132c196 0 337 108 352 278z" />
    <glyph glyph-name="dcroat" unicode="&#x111;" horiz-adv-x="715" 
d="M327 451c-111 0 -200 -84 -210 -199c-10 -116 65 -198 176 -198c112 0 200 84 210 198c10 115 -64 199 -176 199zM515 420l16 182h-211l5 57h211l7 76h76l-6 -76h94l-5 -57h-94l-53 -602h-74l8 87c-49 -66 -125 -107 -211 -107c-151 0 -251 115 -237 272
c13 158 133 273 284 273c86 0 153 -40 190 -105z" />
    <glyph glyph-name="Emacron" unicode="&#x112;" horiz-adv-x="645" 
d="M167 330l-22 -256h410l-6 -74h-492l62 705h482l-7 -74h-401l-20 -231h361l-6 -70h-361zM533 858l-5 -53h-314l5 53h314z" />
    <glyph glyph-name="emacron" unicode="&#x113;" horiz-adv-x="635" 
d="M128 294l373 -1c-5 96 -74 162 -173 162s-178 -66 -200 -161zM45 258c13 154 136 267 292 267c153 0 255 -113 241 -268c-1 -9 -2 -19 -4 -30l-453 1c2 -106 72 -179 172 -179c78 0 157 48 185 114l73 -12c-39 -99 -149 -171 -261 -171c-156 0 -259 117 -245 278z
M192 648h314l-5 -53h-314z" />
    <glyph glyph-name="Ebreve" unicode="&#x114;" horiz-adv-x="645" 
d="M165 330l-23 -256h411l-7 -74h-491l61 705h482l-6 -74h-401l-20 -231h360l-6 -70h-360zM451 917h59c-8 -83 -57 -142 -144 -142s-126 60 -119 142h60c-5 -50 22 -86 64 -86s75 36 80 86z" />
    <glyph glyph-name="ebreve" unicode="&#x115;" horiz-adv-x="635" 
d="M124 294l374 -1c-5 96 -74 162 -174 162c-98 0 -177 -66 -200 -161zM42 258c13 154 135 267 291 267c154 0 255 -113 242 -268c-1 -9 -2 -19 -4 -30l-453 1c2 -106 71 -179 171 -179c79 0 157 48 186 114l73 -12c-39 -99 -149 -171 -261 -171c-156 0 -259 117 -245 278z
M423 725h61c-7 -83 -55 -160 -146 -160s-125 76 -117 160h60c-5 -61 21 -104 62 -104c42 0 75 43 80 104z" />
    <glyph glyph-name="Edotaccent" unicode="&#x116;" horiz-adv-x="645" 
d="M166 330l-22 -256h411l-7 -74h-492l62 705h482l-7 -74h-400l-21 -231h361l-6 -70h-361zM368 780c-31 0 -50 20 -47 49s26 48 56 48c31 0 50 -19 48 -48c-3 -29 -25 -49 -57 -49z" />
    <glyph glyph-name="edotaccent" unicode="&#x117;" horiz-adv-x="635" 
d="M126 294l373 -1c-5 96 -74 162 -173 162s-178 -66 -200 -161zM43 258c13 154 135 267 292 267c153 0 254 -113 241 -268c-1 -9 -2 -19 -4 -30l-453 1c2 -106 71 -179 172 -179c78 0 156 48 185 114l73 -12c-39 -99 -149 -171 -261 -171c-156 0 -259 117 -245 278z
M342 595c-30 0 -50 21 -47 52c3 29 26 51 56 51c31 0 51 -22 48 -51c-3 -31 -26 -52 -57 -52z" />
    <glyph glyph-name="Eogonek" unicode="&#x118;" horiz-adv-x="645" 
d="M420 0h-356l61 705h482l-6 -74h-401l-20 -231h361l-6 -70h-361l-23 -256h411l-6 -74h-58c-84 -22 -115 -60 -119 -101c-6 -73 59 -119 157 -122l-5 -56c-128 0 -212 69 -204 167c5 49 39 89 93 112z" />
    <glyph glyph-name="eogonek" unicode="&#x119;" horiz-adv-x="635" 
d="M133 294l373 -1c-5 96 -73 162 -173 162c-98 0 -177 -66 -200 -161zM284 -20c-150 6 -247 121 -234 278c14 154 136 267 292 267c154 0 255 -113 241 -268c0 -9 -2 -19 -3 -30l-454 1c2 -106 72 -179 172 -179c79 0 157 48 185 114l74 -12c-32 -81 -112 -144 -196 -163
c-57 -22 -80 -55 -83 -90c-6 -73 59 -119 157 -122l-5 -56c-128 0 -213 70 -204 167c3 38 24 70 58 93z" />
    <glyph glyph-name="Ecaron" unicode="&#x11a;" horiz-adv-x="645" 
d="M164 330l-23 -256h411l-7 -74h-491l61 705h482l-6 -74h-401l-20 -231h360l-6 -70h-360zM468 939l73 1l-135 -165h-82l-106 164h73l78 -120z" />
    <glyph glyph-name="ecaron" unicode="&#x11b;" horiz-adv-x="635" 
d="M124 294l373 -1c-5 96 -73 162 -173 162c-98 0 -177 -66 -200 -161zM41 258c14 154 136 267 292 267c154 0 255 -113 241 -268c0 -9 -2 -19 -3 -30l-454 1c2 -106 72 -179 172 -179c79 0 157 48 185 114l74 -12c-40 -99 -149 -171 -261 -171c-156 0 -260 117 -246 278z
M342 609l99 120l73 1l-135 -165h-82l-106 164h73z" />
    <glyph glyph-name="Gcircumflex" unicode="&#x11c;" horiz-adv-x="868" 
d="M404 49c160 0 293 117 307 271h-285l6 69h368c-4 -240 -173 -414 -402 -414c-221 0 -366 159 -347 377c19 219 192 378 413 378c162 0 293 -105 312 -250l-79 -15c-20 111 -121 191 -240 191c-172 0 -307 -126 -322 -304c-16 -175 97 -303 269 -303zM379 775h-77l137 145
h82l111 -145h-76l-80 101z" />
    <glyph glyph-name="gcircumflex" unicode="&#x11d;" horiz-adv-x="666" 
d="M293 55c112 0 200 83 210 197c11 118 -63 203 -175 203s-200 -85 -211 -203c-10 -114 65 -197 176 -197zM278 -181c107 0 191 70 202 189l7 80c-50 -64 -123 -102 -208 -102c-152 0 -252 112 -238 266c14 157 133 271 285 271c87 0 153 -39 190 -102l7 84h76l-43 -497
c-14 -162 -131 -258 -282 -258c-131 0 -233 83 -241 198l74 10c10 -81 82 -139 171 -139zM348 685l-100 -120h-72l134 165h82l107 -165h-74z" />
    <glyph glyph-name="Gbreve" unicode="&#x11e;" horiz-adv-x="868" 
d="M404 49c160 0 294 117 307 271h-285l6 69h368c-4 -240 -173 -414 -402 -414c-221 0 -366 159 -347 377c20 219 192 378 413 378c162 0 293 -105 313 -250l-80 -15c-20 111 -121 191 -240 191c-172 0 -307 -126 -322 -304c-15 -175 97 -303 269 -303zM552 917h59
c-7 -83 -57 -142 -143 -142c-87 0 -127 60 -120 142h60c-4 -50 23 -86 65 -86s75 36 79 86z" />
    <glyph glyph-name="gbreve" unicode="&#x11f;" horiz-adv-x="666" 
d="M293 55c112 0 201 83 211 197c10 118 -64 203 -176 203s-200 -85 -211 -203c-10 -114 65 -197 176 -197zM278 -181c107 0 191 70 202 189l7 80c-50 -64 -123 -102 -208 -102c-151 0 -251 112 -238 266c14 157 134 271 285 271c87 0 153 -39 190 -102l8 84h76l-44 -497
c-14 -162 -131 -258 -282 -258c-131 0 -232 83 -241 198l75 10c9 -81 81 -139 170 -139zM421 725h61c-7 -83 -55 -160 -146 -160s-125 76 -118 160h61c-5 -61 21 -104 62 -104c42 0 75 43 80 104z" />
    <glyph glyph-name="Gdotaccent" unicode="&#x120;" horiz-adv-x="868" 
d="M406 49c159 0 293 117 307 271h-286l6 69h369c-4 -240 -174 -414 -402 -414c-221 0 -366 159 -347 377c19 219 192 378 413 378c161 0 293 -105 312 -250l-79 -15c-20 111 -121 191 -240 191c-172 0 -307 -126 -322 -304c-16 -175 97 -303 269 -303zM470 780
c-31 0 -50 20 -48 49c4 29 26 48 57 48s50 -19 47 -48c-2 -29 -25 -49 -56 -49z" />
    <glyph glyph-name="gdotaccent" unicode="&#x121;" horiz-adv-x="666" 
d="M294 55c112 0 201 83 211 197c10 118 -64 203 -176 203s-200 -85 -210 -203c-10 -114 64 -197 175 -197zM279 -181c108 0 192 70 202 189l7 80c-50 -64 -123 -102 -207 -102c-152 0 -252 112 -239 266c14 157 134 271 286 271c87 0 152 -39 189 -102l8 84h76l-44 -497
c-14 -162 -131 -258 -282 -258c-130 0 -232 83 -241 198l75 10c10 -81 81 -139 170 -139zM340 595c-30 0 -50 21 -47 52c2 29 26 51 56 51c31 0 50 -22 48 -51c-3 -31 -26 -52 -57 -52z" />
    <glyph glyph-name="Gcommaaccent" unicode="&#x122;" horiz-adv-x="868" 
d="M413 49c159 0 293 117 306 271h-285l6 69h369c-5 -240 -174 -414 -403 -414c-220 0 -366 159 -346 377c19 219 192 378 412 378c162 0 293 -105 313 -250l-80 -15c-19 111 -121 191 -239 191c-173 0 -307 -126 -323 -304c-15 -175 98 -303 270 -303zM394 -171
c-25 0 -41 19 -39 45c3 27 22 45 48 45c31 0 50 -24 47 -60c-5 -49 -35 -101 -75 -129l-25 21c23 21 42 52 44 78z" />
    <glyph glyph-name="gcommaaccent" unicode="&#x123;" horiz-adv-x="666" 
d="M292 55c112 0 200 83 210 197c11 118 -63 203 -175 203s-200 -85 -211 -203c-10 -114 65 -197 176 -197zM277 -181c107 0 191 70 201 189l7 80c-49 -64 -122 -102 -207 -102c-152 0 -252 112 -238 266c13 157 133 271 285 271c87 0 153 -39 190 -102l7 84h76l-43 -497
c-14 -162 -132 -258 -282 -258c-131 0 -233 83 -241 198l74 10c10 -81 82 -139 171 -139zM352 655c25 0 41 -19 38 -45c-2 -27 -21 -45 -48 -45c-30 0 -49 24 -46 60c4 49 35 101 75 129l25 -21c-24 -21 -42 -52 -44 -78z" />
    <glyph glyph-name="Itilde" unicode="&#x128;" horiz-adv-x="285" 
d="M55 0l62 705h84l-62 -705h-84zM38 810l-39 30c21 39 65 66 114 66c69 0 84 -56 134 -56c28 0 54 19 69 45l39 -29c-21 -40 -65 -68 -117 -68c-74 0 -85 56 -132 56c-26 0 -50 -18 -68 -44z" />
    <glyph glyph-name="itilde" unicode="&#x129;" horiz-adv-x="254" 
d="M48 0l44 505h76l-44 -505h-76zM13 592l-39 23c21 39 66 66 113 66c68 0 87 -58 137 -58c27 0 52 16 65 38l41 -23c-22 -39 -66 -67 -117 -67c-74 0 -88 57 -137 57c-25 0 -49 -14 -63 -36z" />
    <glyph glyph-name="Imacron" unicode="&#x12a;" horiz-adv-x="263" 
d="M114 705h83l-61 -705h-84zM326 858l-5 -53h-314l5 53h314z" />
    <glyph glyph-name="imacron" unicode="&#x12b;" horiz-adv-x="227" 
d="M91 505h77l-45 -505h-76zM299 648l-5 -53h-314l5 53h314z" />
    <glyph glyph-name="Iogonek" unicode="&#x12e;" horiz-adv-x="273" 
d="M65 0h-1l61 705h84l-62 -705h-5c-82 -22 -114 -60 -117 -101c-7 -73 59 -119 156 -122l-4 -56c-128 0 -213 69 -204 167c4 49 38 89 92 112z" />
    <glyph glyph-name="iogonek" unicode="&#x12f;" horiz-adv-x="240" 
d="M56 2l44 503h76l-44 -505h-2c-85 -22 -117 -60 -121 -102c-6 -73 59 -119 157 -122l-5 -56c-128 0 -213 70 -204 167c4 51 41 93 99 115zM146 598c-30 0 -50 22 -47 52c2 30 26 51 56 51c31 0 50 -21 48 -51c-3 -30 -26 -52 -57 -52z" />
    <glyph glyph-name="Idotaccent" unicode="&#x130;" horiz-adv-x="273" 
d="M118 705h83l-61 -705h-84zM166 780c-31 0 -50 20 -47 49s25 48 56 48s50 -19 48 -48c-3 -29 -25 -49 -57 -49z" />
    <glyph glyph-name="dotlessi" unicode="&#x131;" horiz-adv-x="230" 
d="M99 505h76l-44 -505h-76z" />
    <glyph glyph-name="IJ" unicode="&#x132;" horiz-adv-x="698" 
d="M125 705h84l-62 -705h-83zM510 211l43 494h84l-43 -493c-13 -140 -110 -232 -232 -232c-37 0 -88 8 -125 20l6 72c36 -11 81 -18 109 -18c84 0 149 59 158 157z" />
    <glyph glyph-name="ij" unicode="&#x133;" horiz-adv-x="461" 
d="M104 505h77l-44 -505h-77zM272 -75l50 580h77l-52 -588c-7 -85 -65 -142 -144 -142c-30 0 -62 5 -84 13l6 67c19 -7 44 -10 64 -10c46 0 79 33 83 80zM150 598c-30 0 -50 22 -47 52s26 51 57 51c30 0 50 -21 47 -51s-26 -52 -57 -52zM368 598c-30 0 -50 22 -47 52
s26 51 56 51c31 0 51 -21 48 -51s-26 -52 -57 -52z" />
    <glyph glyph-name="Kcommaaccent" unicode="&#x136;" horiz-adv-x="618" 
d="M64 0l61 705h84l-26 -301l325 301h109l-364 -333l312 -372h-109l-279 341l-30 -341h-83zM278 -171c-26 0 -41 19 -39 45c2 27 21 46 48 46c30 0 49 -25 46 -61c-4 -49 -35 -101 -74 -129l-25 21c23 21 42 53 44 78z" />
    <glyph glyph-name="kcommaaccent" unicode="&#x137;" horiz-adv-x="515" 
d="M47 0l64 735h76l-37 -434l237 204h103l-274 -235l240 -270h-103l-209 239l-21 -239h-76zM225 -162c-26 0 -42 18 -39 45c2 26 21 45 48 45c30 0 49 -25 46 -60c-4 -50 -35 -102 -74 -130l-26 22c24 20 42 52 45 78z" />
    <glyph glyph-name="Lacute" unicode="&#x139;" horiz-adv-x="578" 
d="M499 0h-445l62 705h84l-56 -631h361zM245 919h91l-127 -144h-87z" />
    <glyph glyph-name="lacute" unicode="&#x13a;" horiz-adv-x="351" 
d="M103 735h76l-64 -735h-77zM226 927h91l-127 -145h-87z" />
    <glyph glyph-name="Lcommaaccent" unicode="&#x13b;" horiz-adv-x="578" 
d="M514 74l-6 -74h-444l61 705h84l-55 -631h360zM272 -171c-26 0 -42 19 -39 45c2 27 21 46 48 46c30 0 49 -25 46 -61c-4 -49 -35 -101 -74 -129l-26 21c24 21 42 53 45 78z" />
    <glyph glyph-name="lcommaaccent" unicode="&#x13c;" horiz-adv-x="243" 
d="M111 735h76l-64 -735h-76zM70 -169c-26 -1 -42 18 -39 45c2 26 21 45 48 45c30 0 49 -25 46 -60c-4 -50 -35 -102 -74 -130l-26 22c24 20 42 52 45 78z" />
    <glyph glyph-name="Lcaron" unicode="&#x13d;" horiz-adv-x="578" 
d="M507 0h-444l61 705h84l-55 -631h360zM347 640c-26 0 -41 19 -39 45c2 27 21 45 48 45c30 0 49 -24 46 -60c-4 -49 -35 -101 -74 -129l-25 21c23 21 42 52 44 78z" />
    <glyph glyph-name="lcaron" unicode="&#x13e;" horiz-adv-x="340" 
d="M111 735h76l-64 -735h-76zM294 632c-26 0 -42 19 -39 45c2 27 21 46 48 46c30 0 49 -25 46 -61c-4 -49 -35 -101 -74 -129l-26 21c24 21 42 53 45 78z" />
    <glyph glyph-name="Lslash" unicode="&#x141;" horiz-adv-x="512" 
d="M20 258l117 71l32 376h84l-28 -321l362 222l-7 -74l-362 -223l-20 -235h360l-6 -74h-444l22 255l-116 -71z" />
    <glyph glyph-name="lslash" unicode="&#x142;" horiz-adv-x="433" 
d="M419 474l-164 -100l-33 -374h-76l28 325l-163 -99l7 74l163 99l29 336h76l-25 -287l164 100z" />
    <glyph glyph-name="Nacute" unicode="&#x143;" horiz-adv-x="747" 
d="M226 705l312 -603l53 603h83l-62 -705h-109l-312 603l-53 -603h-84l62 705h110zM474 919h91l-127 -144h-87z" />
    <glyph glyph-name="nacute" unicode="&#x144;" 
d="M91 505h77l-7 -71c40 56 111 91 181 91c129 0 200 -94 189 -223l-26 -302h-77l27 302c7 89 -38 153 -127 153c-88 0 -171 -67 -179 -160l-26 -295h-76zM426 729h87l-145 -164h-80z" />
    <glyph glyph-name="Ncommaaccent" unicode="&#x145;" horiz-adv-x="747" 
d="M235 705l312 -603l53 603h83l-61 -705h-109l-313 603l-53 -603h-83l61 705h110zM325 -172c-26 0 -42 18 -39 45c2 27 21 45 48 45c30 0 49 -25 46 -60c-4 -50 -35 -102 -75 -130l-25 22c24 20 42 52 45 78z" />
    <glyph glyph-name="ncommaaccent" unicode="&#x146;" 
d="M100 505h77l-7 -71c40 56 111 91 181 91c129 0 200 -94 189 -223l-26 -302h-77l26 302c8 89 -37 153 -126 153c-88 0 -171 -67 -179 -160l-26 -295h-76zM269 -172c-26 0 -41 18 -39 45c2 26 21 45 48 45c31 0 49 -25 46 -60c-4 -50 -35 -102 -74 -130l-25 22
c23 20 42 52 44 78z" />
    <glyph glyph-name="Ncaron" unicode="&#x147;" horiz-adv-x="747" 
d="M225 705l312 -603l53 603h83l-61 -705h-109l-313 603l-53 -603h-83l61 705h110zM504 939l74 1l-136 -165h-81l-106 164h72l79 -120z" />
    <glyph glyph-name="ncaron" unicode="&#x148;" 
d="M91 505h77l-7 -71c40 56 111 91 181 91c129 0 200 -94 189 -223l-26 -302h-77l27 302c7 89 -38 153 -127 153c-88 0 -171 -67 -179 -160l-26 -295h-76zM439 729l73 1l-136 -165h-81l-106 164h72l79 -120z" />
    <glyph glyph-name="Omacron" unicode="&#x14c;" horiz-adv-x="880" 
d="M400 -25c-222 0 -365 156 -346 377s190 378 412 378s366 -157 347 -378s-191 -377 -413 -377zM460 656c-173 0 -307 -127 -323 -304c-15 -176 97 -302 270 -303c173 0 307 127 322 303c16 177 -96 304 -269 304zM635 858l-5 -53h-314l5 53h314z" />
    <glyph glyph-name="omacron" unicode="&#x14d;" horiz-adv-x="640" 
d="M338 525c157 0 259 -113 245 -273c-14 -159 -136 -272 -293 -272c-158 0 -259 113 -246 272c14 160 136 273 294 273zM296 49c112 0 201 86 211 203c10 118 -64 203 -175 203c-113 0 -201 -85 -211 -203c-10 -117 62 -203 175 -203zM506 648l-5 -53h-314l5 53h314z" />
    <glyph glyph-name="Obreve" unicode="&#x14e;" horiz-adv-x="880" 
d="M457 656c-172 0 -307 -127 -322 -304c-16 -176 97 -302 269 -303c173 0 307 127 323 303c15 177 -97 304 -270 304zM398 -25c-222 0 -366 156 -347 377c20 221 191 378 413 378s366 -157 346 -378c-19 -221 -190 -377 -412 -377zM552 917h59c-7 -83 -56 -142 -143 -142
s-127 60 -119 142h60c-5 -50 22 -86 64 -86s75 36 79 86z" />
    <glyph glyph-name="obreve" unicode="&#x14f;" horiz-adv-x="640" 
d="M293 49c112 0 200 86 211 203c10 118 -64 203 -176 203s-200 -85 -211 -203c-10 -117 63 -203 176 -203zM334 525c158 0 260 -113 246 -273c-14 -159 -136 -272 -293 -272c-158 0 -260 113 -246 272c14 160 135 273 293 273zM423 725h61c-8 -83 -55 -160 -146 -160
c-92 0 -125 76 -118 160h61c-6 -61 20 -104 62 -104c41 0 75 43 80 104z" />
    <glyph glyph-name="Ohungarumlaut" unicode="&#x150;" horiz-adv-x="880" 
d="M398 -25c-222 0 -366 156 -347 377c20 221 191 378 413 378s365 -157 346 -378s-190 -377 -412 -377zM457 656c-172 0 -307 -127 -322 -304c-16 -176 97 -302 269 -303c173 0 307 127 323 303c15 177 -97 304 -270 304zM462 919h81l-130 -144h-69zM624 919h79l-134 -144
h-68z" />
    <glyph glyph-name="ohungarumlaut" unicode="&#x151;" horiz-adv-x="639" 
d="M333 525c157 0 259 -113 245 -273c-14 -159 -136 -272 -293 -272c-158 0 -259 113 -246 272c14 160 136 273 294 273zM291 49c112 0 201 86 211 203c10 118 -63 203 -175 203c-113 0 -201 -85 -211 -203c-10 -117 63 -203 175 -203zM351 745h83l-150 -180h-71zM513 745
h82l-154 -180h-72z" />
    <glyph glyph-name="OE" unicode="&#x152;" horiz-adv-x="1069" 
d="M526 75l48 554c-26 11 -71 18 -114 18c-168 0 -301 -120 -317 -295c-15 -173 94 -294 258 -294c46 0 96 7 125 17zM60 352c19 219 187 370 402 370c45 0 87 -6 123 -17h445l-6 -74h-366l-21 -238h326l-6 -70h-326l-22 -249h376l-6 -74h-456c-34 -10 -84 -17 -125 -17
c-215 0 -357 151 -338 369z" />
    <glyph glyph-name="oe" unicode="&#x153;" horiz-adv-x="1098" 
d="M302 49c111 0 200 86 210 203c11 118 -63 203 -175 203c-113 0 -200 -85 -211 -203c-10 -117 63 -203 176 -203zM596 294l374 -1c-6 96 -74 162 -174 162c-98 0 -177 -66 -200 -161zM539 108c-52 -79 -140 -128 -244 -128c-158 0 -259 113 -245 272
c14 160 135 273 293 273c102 0 181 -48 220 -125c52 77 140 125 242 125c154 0 255 -112 242 -268c-1 -9 -3 -19 -4 -30l-453 1c2 -106 71 -179 171 -179c79 0 157 48 186 114l73 -12c-40 -99 -149 -171 -261 -171c-101 0 -180 49 -220 128z" />
    <glyph glyph-name="Racute" unicode="&#x154;" horiz-adv-x="730" 
d="M415 631h-222l-25 -291h221c104 0 184 59 191 143c8 92 -61 148 -165 148zM161 266l-23 -266h-84l62 705h311c149 0 247 -92 236 -222c-9 -98 -88 -183 -191 -205l155 -278h-97l-144 266h-225zM347 775l123 144h90l-126 -144h-87z" />
    <glyph glyph-name="racute" unicode="&#x155;" horiz-adv-x="417" 
d="M91 505h74l-6 -70c35 55 86 88 148 88c21 0 45 -5 67 -14l-7 -70c-25 12 -53 16 -74 16c-78 0 -136 -71 -145 -172l-25 -283h-76zM329 729h87l-145 -164h-80z" />
    <glyph glyph-name="Rcommaaccent" unicode="&#x156;" horiz-adv-x="730" 
d="M424 631h-222l-25 -291h222c103 0 183 59 191 143c8 92 -61 148 -166 148zM171 266l-24 -266h-83l61 705h312c148 0 247 -92 235 -222c-8 -98 -87 -183 -191 -205l155 -278h-97l-143 266h-225zM322 -172c-25 0 -41 19 -39 45c3 27 22 45 48 45c31 0 50 -24 47 -60
c-5 -49 -35 -101 -75 -129l-25 21c23 20 42 52 44 78z" />
    <glyph glyph-name="rcommaaccent" unicode="&#x157;" horiz-adv-x="389" 
d="M56 0l44 505h74l-6 -70c35 55 86 88 148 88c21 0 45 -5 67 -14l-6 -70c-26 12 -54 16 -75 16c-78 0 -136 -71 -145 -172l-25 -283h-76zM79 -170c-26 0 -41 18 -39 45s21 45 48 45c30 0 49 -24 46 -60c-4 -50 -35 -101 -74 -129l-25 21c23 20 42 52 44 78z" />
    <glyph glyph-name="Rcaron" unicode="&#x158;" horiz-adv-x="730" 
d="M414 631h-222l-25 -291h221c104 0 184 59 191 143c8 92 -61 148 -165 148zM160 266l-23 -266h-83l61 705h311c149 0 247 -92 236 -222c-9 -98 -88 -183 -191 -205l155 -278h-97l-144 266h-225zM401 819l99 120l73 1l-135 -165h-82l-105 164h72z" />
    <glyph glyph-name="rcaron" unicode="&#x159;" horiz-adv-x="394" 
d="M91 505h74l-6 -70c35 55 86 88 148 88c21 0 45 -5 67 -14l-7 -70c-25 12 -53 16 -74 16c-78 0 -136 -71 -145 -172l-25 -283h-76zM340 729l73 1l-135 -165h-82l-106 164h73l78 -120z" />
    <glyph glyph-name="Sacute" unicode="&#x15a;" horiz-adv-x="702" 
d="M612 205c-11 -134 -126 -230 -292 -230c-173 0 -288 106 -275 253h83c-9 -104 73 -179 200 -179c116 0 193 61 200 146c8 94 -90 108 -199 122c-129 18 -262 39 -248 196c11 125 126 217 285 217c161 0 269 -100 257 -239h-80c8 96 -69 165 -184 165
c-110 0 -187 -57 -194 -136c-8 -94 85 -109 194 -124c128 -18 267 -39 253 -191zM449 919h90l-127 -144h-86z" />
    <glyph glyph-name="sacute" unicode="&#x15b;" horiz-adv-x="544" 
d="M470 145c-8 -95 -101 -165 -222 -165c-130 0 -217 80 -207 189h75c-6 -70 52 -120 138 -120c78 0 137 38 142 89c5 63 -83 77 -137 85c-112 18 -200 34 -190 148c8 89 98 154 207 154c125 0 210 -72 202 -171l-75 1c5 58 -52 100 -134 100c-65 0 -121 -36 -126 -86
c-4 -45 37 -60 128 -75c91 -16 209 -37 199 -149zM371 729h87l-145 -164h-80z" />
    <glyph glyph-name="Scircumflex" unicode="&#x15c;" horiz-adv-x="702" 
d="M612 205c-11 -134 -126 -230 -292 -230c-173 0 -288 106 -275 253h83c-9 -104 73 -179 200 -179c116 0 193 61 200 146c8 94 -90 108 -199 122c-129 18 -262 39 -248 196c11 125 126 217 285 217c161 0 269 -100 257 -239h-80c8 96 -69 165 -184 165
c-110 0 -187 -57 -194 -136c-8 -94 85 -109 194 -124c128 -18 267 -39 253 -191zM288 775h-77l137 145h82l111 -145h-76l-80 101z" />
    <glyph glyph-name="scircumflex" unicode="&#x15d;" horiz-adv-x="544" 
d="M470 145c-8 -95 -101 -165 -222 -165c-130 0 -217 80 -207 189h75c-6 -70 52 -120 138 -120c78 0 137 38 142 89c5 63 -83 77 -137 85c-113 18 -200 34 -190 148c8 89 98 154 207 154c125 0 210 -72 202 -171l-75 1c5 58 -52 100 -134 100c-65 0 -121 -36 -126 -86
c-4 -45 37 -60 128 -75c91 -16 209 -37 199 -149zM191 565h-72l134 165h82l106 -165h-73l-78 120z" />
    <glyph glyph-name="Scedilla" unicode="&#x15e;" horiz-adv-x="702" 
d="M307 -99h-42l17 77c-146 17 -240 117 -229 250h83c-9 -104 74 -179 201 -179c116 0 192 61 199 146c8 94 -90 108 -198 122c-129 18 -263 39 -249 196c11 125 126 217 285 217c161 0 270 -100 258 -239h-81c8 96 -69 165 -183 165c-111 0 -188 -57 -195 -136
c-8 -94 85 -109 194 -124c128 -18 267 -39 254 -191c-12 -133 -125 -229 -290 -230l-9 -41c68 0 109 -42 104 -105c-6 -59 -54 -99 -119 -99c-56 0 -97 34 -102 82l44 11c6 -30 31 -51 59 -51c37 0 63 24 67 60c3 42 -23 69 -68 69z" />
    <glyph glyph-name="scedilla" unicode="&#x15f;" horiz-adv-x="544" 
d="M251 -99h-41l18 80c-114 11 -187 87 -178 188h75c-6 -70 52 -120 138 -120c78 0 137 38 142 89c5 63 -83 77 -137 85c-113 18 -200 34 -190 148c8 89 98 154 207 154c125 0 210 -72 202 -171l-75 1c5 58 -52 100 -134 100c-65 0 -121 -36 -126 -86c-4 -45 37 -60 128 -75
c91 -16 209 -37 199 -149c-7 -90 -91 -157 -202 -164l-11 -47c69 0 110 -42 104 -105c-5 -59 -53 -99 -119 -99c-55 0 -96 34 -101 82l43 11c7 -30 31 -51 60 -51c37 0 63 24 66 60c4 42 -23 69 -68 69z" />
    <glyph glyph-name="Scaron" unicode="&#x160;" horiz-adv-x="702" 
d="M611 205c-11 -134 -126 -230 -292 -230c-172 0 -288 106 -275 253h83c-9 -104 74 -179 201 -179c115 0 192 61 199 146c8 94 -90 108 -199 122c-128 18 -262 39 -248 196c11 125 126 217 285 217c161 0 269 -100 257 -239h-80c8 96 -69 165 -184 165
c-110 0 -187 -57 -194 -136c-8 -94 85 -109 194 -124c128 -18 267 -39 253 -191zM479 939l73 1l-136 -165h-81l-106 164h72l79 -120z" />
    <glyph glyph-name="scaron" unicode="&#x161;" horiz-adv-x="544" 
d="M470 145c-8 -95 -101 -165 -222 -165c-130 0 -217 80 -207 189h75c-6 -70 52 -120 138 -120c78 0 137 38 142 89c5 63 -83 77 -137 85c-113 18 -200 34 -190 148c8 89 98 154 207 154c125 0 210 -72 202 -171l-75 1c5 58 -52 100 -134 100c-65 0 -121 -36 -126 -86
c-4 -45 37 -60 128 -75c91 -16 209 -37 199 -149zM381 729l74 1l-136 -165h-81l-106 164h72l79 -120z" />
    <glyph glyph-name="Tcommaaccent" unicode="&#x162;" horiz-adv-x="597" 
d="M309 0h-83l55 631h-236l7 74h555l-7 -74h-236zM248 -172c-25 0 -41 18 -39 45s22 45 48 45c31 0 50 -24 46 -60c-4 -50 -35 -102 -74 -129l-25 21c23 20 42 52 44 78z" />
    <glyph glyph-name="tcommaaccent" unicode="&#x163;" horiz-adv-x="388" 
d="M105 125l28 317h-83l5 63h87l21 118h62l-10 -118h130l-5 -63h-131l-27 -314c-4 -49 22 -82 71 -83c16 0 42 4 62 10l-6 -63c-23 -7 -56 -12 -81 -12c-83 0 -130 58 -123 145zM192 -172c-26 0 -42 18 -39 45c2 26 21 45 48 45c30 0 49 -25 46 -60
c-4 -50 -35 -102 -74 -130l-26 22c24 20 42 52 45 78z" />
    <glyph glyph-name="Tcaron" unicode="&#x164;" horiz-adv-x="597" 
d="M216 0l55 631h-236l7 74h555l-7 -74h-236l-55 -631h-83zM427 933h74l-136 -165h-82l-105 165h72l79 -120z" />
    <glyph glyph-name="tcaron" unicode="&#x165;" horiz-adv-x="381" 
d="M100 125l28 317h-83l6 63h87l21 118h61l-10 -118h131l-6 -63h-130l-28 -314c-4 -49 23 -82 71 -83c16 0 42 4 62 10l-6 -63c-23 -7 -56 -12 -81 -12c-83 0 -130 58 -123 145zM313 642c-26 -1 -41 18 -39 44c2 27 21 46 48 46c30 0 49 -25 46 -60
c-4 -50 -35 -102 -74 -130l-25 22c23 20 42 52 44 78z" />
    <glyph glyph-name="Utilde" unicode="&#x168;" horiz-adv-x="749" 
d="M562 286l37 419h83l-36 -419c-16 -182 -146 -311 -313 -311c-168 0 -275 129 -259 311l37 419h83l-37 -419c-11 -129 60 -237 182 -237c121 0 211 98 223 237zM276 810l-39 30c21 39 65 66 114 66c69 0 84 -56 134 -56c28 0 54 19 69 45l39 -29c-21 -40 -65 -68 -117 -68
c-74 0 -85 56 -132 56c-26 0 -50 -18 -68 -44z" />
    <glyph glyph-name="utilde" unicode="&#x169;" 
d="M541 505l-44 -505h-77l6 71c-39 -56 -110 -91 -181 -91c-128 0 -199 94 -188 223l26 302h77l-27 -302c-7 -89 38 -154 127 -154c88 0 170 68 179 160l25 296h77zM195 592l-39 22c21 39 66 67 112 67c68 0 87 -59 138 -59c27 0 52 16 65 38l41 -22
c-22 -40 -66 -68 -117 -68c-74 0 -88 58 -137 58c-26 0 -49 -15 -63 -36z" />
    <glyph glyph-name="Umacron" unicode="&#x16a;" horiz-adv-x="749" 
d="M564 286l37 419h83l-36 -419c-16 -182 -146 -311 -313 -311c-168 0 -275 129 -259 311l37 419h83l-36 -419c-12 -129 59 -237 182 -237c121 0 210 98 222 237zM569 858l-4 -53h-314l4 53h314z" />
    <glyph glyph-name="umacron" unicode="&#x16b;" 
d="M498 0h-76l6 71c-39 -56 -111 -91 -181 -91c-129 0 -200 94 -189 223l27 302h76l-26 -302c-8 -89 37 -154 127 -154c88 0 170 68 178 160l26 296h76zM483 648l-5 -54h-314l5 54h314z" />
    <glyph glyph-name="Ubreve" unicode="&#x16c;" horiz-adv-x="749" 
d="M562 286l36 419h84l-37 -419c-16 -182 -146 -311 -312 -311c-168 0 -275 129 -260 311l37 419h84l-37 -419c-11 -129 59 -237 182 -237c121 0 211 98 223 237zM487 917h59c-7 -83 -57 -142 -144 -142c-86 0 -126 60 -119 142h60c-4 -50 22 -86 64 -86s75 36 80 86z" />
    <glyph glyph-name="ubreve" unicode="&#x16d;" 
d="M495 0h-77l7 71c-40 -56 -111 -91 -182 -91c-128 0 -199 94 -188 223l26 302h77l-27 -302c-7 -89 38 -154 127 -154c88 0 171 68 179 160l26 296h76zM400 724h61c-8 -83 -55 -160 -146 -160s-125 77 -118 160h61c-6 -60 20 -103 62 -103c41 0 75 43 80 103z" />
    <glyph glyph-name="Uring" unicode="&#x16e;" horiz-adv-x="749" 
d="M414 948c-40 0 -72 -28 -74 -68c-4 -40 22 -69 62 -69s71 29 75 69c3 40 -23 68 -63 68zM558 286l37 419h83l-36 -419c-16 -182 -146 -311 -313 -311c-168 0 -275 129 -259 311l37 419h83l-36 -419c-12 -129 59 -237 182 -237c121 0 210 98 222 237zM398 765
c-70 0 -115 48 -110 115c6 67 60 115 130 115s115 -48 109 -115s-59 -115 -129 -115z" />
    <glyph glyph-name="uring" unicode="&#x16f;" 
d="M327 737c-40 0 -71 -28 -74 -68c-4 -40 22 -69 62 -69s71 29 75 69c3 40 -23 68 -63 68zM536 505l-44 -505h-76l6 71c-39 -56 -111 -91 -181 -91c-129 0 -200 94 -189 223l27 302h76l-26 -302c-8 -89 37 -154 127 -154c88 0 170 68 178 160l26 296h76zM311 554
c-70 0 -115 48 -109 115c6 68 59 115 130 115c70 0 114 -47 108 -115c-6 -67 -59 -115 -129 -115z" />
    <glyph glyph-name="Uhungarumlaut" unicode="&#x170;" horiz-adv-x="749" 
d="M562 286l36 419h84l-37 -419c-16 -182 -146 -311 -313 -311s-275 129 -259 311l37 419h84l-37 -419c-11 -129 59 -237 182 -237c121 0 210 98 223 237zM397 919h80l-130 -144h-68zM558 919h80l-135 -144h-68z" />
    <glyph glyph-name="uhungarumlaut" unicode="&#x171;" horiz-adv-x="582" 
d="M494 0h-77l7 71c-40 -56 -111 -91 -181 -91c-129 0 -200 94 -189 223l27 302h76l-26 -302c-8 -89 37 -154 126 -154c88 0 171 68 179 160l26 296h76zM321 744h84l-150 -180h-72zM484 744h81l-154 -180h-71z" />
    <glyph glyph-name="Uogonek" unicode="&#x172;" horiz-adv-x="749" 
d="M334 -25c-163 4 -267 132 -251 311l36 419h84l-37 -419c-11 -129 60 -237 182 -237c121 0 211 98 223 237l37 419h83l-37 -419c-13 -159 -115 -278 -252 -305c-45 -22 -64 -52 -66 -83c-7 -73 58 -119 156 -122l-5 -56c-128 0 -212 70 -204 167c3 35 22 65 51 88z" />
    <glyph glyph-name="uogonek" unicode="&#x173;" horiz-adv-x="661" 
d="M428 4l6 67c-39 -56 -111 -91 -181 -91c-128 0 -200 94 -188 223l26 302h76l-26 -302c-8 -89 37 -154 127 -154c88 0 170 68 178 160l26 296h77l-45 -505h-9c-78 -22 -108 -59 -111 -100c-7 -72 58 -118 156 -121l-5 -56c-128 0 -212 69 -204 167c5 50 41 91 97 114z" />
    <glyph glyph-name="Wcircumflex" unicode="&#x174;" horiz-adv-x="1076" 
d="M622 705l104 -649l238 649h86l-262 -705h-133l-103 618l-211 -618h-134l-139 705h86l126 -649l220 649h122zM476 775h-76l136 145h83l111 -145h-76l-81 101z" />
    <glyph glyph-name="wcircumflex" unicode="&#x175;" horiz-adv-x="879" 
d="M286 0h-104l-127 505h80l106 -430l165 430h90l93 -430l179 430h80l-216 -505h-104l-84 416zM369 565h-72l134 165h82l106 -165h-73l-78 120z" />
    <glyph glyph-name="Ycircumflex" unicode="&#x176;" horiz-adv-x="647" 
d="M242 0l23 262l-215 443h92l172 -363l232 363h94l-291 -443l-23 -262h-84zM262 775h-77l137 145h82l111 -145h-76l-80 101z" />
    <glyph glyph-name="ycircumflex" unicode="&#x177;" horiz-adv-x="569" 
d="M14 -208l6 67c22 -8 46 -14 66 -14c73 0 103 80 142 156l-183 504h85l143 -410l194 410h81l-246 -512c-55 -115 -105 -216 -211 -216c-26 0 -55 6 -77 15zM214 565h-72l134 165h82l107 -165h-74l-77 120z" />
    <glyph glyph-name="Ydieresis" unicode="&#x178;" horiz-adv-x="647" 
d="M244 0l23 262l-216 443h93l171 -363l232 363h94l-291 -443l-23 -262h-83zM244 785c-31 0 -50 21 -48 51c3 30 26 51 57 51c30 0 50 -21 47 -51c-2 -30 -26 -51 -56 -51zM463 785c-31 0 -51 21 -48 51s26 51 57 51c30 0 50 -21 47 -51c-2 -30 -26 -51 -56 -51z" />
    <glyph glyph-name="Zacute" unicode="&#x179;" horiz-adv-x="649" 
d="M11 55l483 580h-422l6 70h536l-5 -55l-483 -581h442l-6 -69h-556zM424 919h90l-127 -144h-86z" />
    <glyph glyph-name="zacute" unicode="&#x17a;" horiz-adv-x="556" 
d="M23 50l363 385h-319l6 70h434l-4 -50l-364 -386h340l-6 -69h-454zM388 729h86l-145 -164h-80z" />
    <glyph glyph-name="Zdotaccent" unicode="&#x17b;" horiz-adv-x="649" 
d="M13 55l483 580h-422l6 70h535l-4 -55l-483 -581h442l-6 -69h-556zM354 780c-31 0 -50 20 -48 49c4 29 26 48 57 48s50 -19 48 -48c-3 -29 -26 -49 -57 -49z" />
    <glyph glyph-name="zdotaccent" unicode="&#x17c;" horiz-adv-x="556" 
d="M25 50l363 385h-320l6 70h435l-5 -50l-363 -386h339l-6 -69h-454zM300 595c-31 0 -50 21 -48 52c3 29 26 51 57 51c30 0 50 -22 47 -51c-2 -31 -26 -52 -56 -52z" />
    <glyph glyph-name="Zcaron" unicode="&#x17d;" horiz-adv-x="649" 
d="M10 55l483 580h-422l6 70h536l-5 -55l-483 -581h442l-6 -69h-556zM454 939l73 1l-136 -165h-81l-106 164h73l78 -120z" />
    <glyph glyph-name="zcaron" unicode="&#x17e;" horiz-adv-x="556" 
d="M23 50l363 385h-319l6 70h434l-4 -50l-364 -386h340l-6 -69h-454zM398 729l73 1l-135 -165h-82l-105 164h72l78 -120z" />
    <glyph glyph-name="Aacutering" unicode="&#x1fa;" horiz-adv-x="704" 
d="M364 631l-197 -422h320zM382 849c-25 0 -45 -17 -47 -41c-2 -25 14 -43 39 -43s44 18 46 43c2 24 -14 41 -38 41zM140 144l-66 -144h-90l326 705h119l202 -705h-89l-41 144h-361zM370 718c-54 0 -91 38 -86 89c5 52 47 89 101 89s90 -38 85 -89c-4 -52 -46 -89 -100 -89z
M344 906l89 102h90l-92 -102h-87z" />
    <glyph glyph-name="aacutering" unicode="&#x1fb;" horiz-adv-x="669" 
d="M284 49c111 0 201 86 211 203c10 118 -64 203 -175 203c-112 0 -201 -85 -211 -203c-10 -117 63 -203 175 -203zM348 696c-25 0 -44 -17 -47 -42c-2 -25 14 -43 39 -43s44 18 46 43s-14 42 -38 42zM510 415l8 90h76l-44 -505h-76l8 89c-49 -67 -126 -109 -213 -109
c-151 0 -250 115 -236 272c13 158 132 273 283 273c88 0 157 -42 194 -110zM336 565c-54 0 -90 37 -86 89c5 52 47 89 101 89s90 -38 86 -89c-5 -52 -47 -89 -101 -89zM334 775l123 144h91l-127 -144h-87z" />
    <glyph glyph-name="AEacute" unicode="&#x1fc;" horiz-adv-x="939" 
d="M210 214h223l38 430zM497 74h350l-7 -74h-425l12 143h-258l-87 -143h-93l427 705h476l-6 -75h-340l-21 -237h300l-6 -70h-300zM522 765l123 144h91l-127 -144h-87z" />
    <glyph glyph-name="aeacute" unicode="&#x1fd;" horiz-adv-x="1083" 
d="M328 460c-113 0 -201 -87 -211 -208c-11 -120 63 -207 175 -207c109 0 200 83 211 207c10 121 -63 208 -175 208zM573 279h374c5 102 -66 176 -175 176c-101 0 -181 -74 -199 -176zM513 420l8 85h61l-8 -92c42 69 114 112 207 112c154 0 255 -112 241 -266
c-1 -13 -3 -30 -6 -45h-446c8 -99 75 -165 175 -165c78 0 152 47 176 111l71 -10c-27 -99 -132 -170 -249 -170c-92 0 -167 46 -197 116l-8 -96h-61l7 84c-50 -64 -125 -104 -211 -104c-149 0 -246 115 -232 272c13 158 131 273 280 273c85 0 154 -41 192 -105zM509 570
l138 165l87 -1l-145 -164h-80z" />
    <glyph glyph-name="Oslashacute" unicode="&#x1fe;" horiz-adv-x="860" 
d="M448 656c-166 0 -297 -128 -313 -304c-10 -112 32 -204 106 -256l318 537c-33 15 -71 23 -111 23zM395 49c166 0 297 127 312 303c9 105 -26 192 -91 245l-314 -533c28 -10 59 -15 93 -15zM261 -4l-79 -136h-79l97 165c-103 63 -161 182 -148 327c19 219 188 378 402 378
c53 0 102 -10 145 -29l94 159l79 1l-113 -192c92 -66 144 -180 132 -317c-19 -218 -188 -377 -403 -377c-46 0 -88 8 -127 21zM427 765l123 144h90l-126 -144h-87z" />
    <glyph glyph-name="oslashacute" unicode="&#x1ff;" horiz-adv-x="645" 
d="M331 465c-118 0 -210 -89 -221 -213c-7 -77 22 -141 72 -178l223 377c-22 9 -47 14 -74 14zM294 40c117 0 210 89 220 212c6 70 -16 128 -57 166l-218 -371c17 -5 35 -7 55 -7zM206 -9l-41 -71h-73l57 96c-76 46 -117 131 -108 236c14 160 137 273 296 273
c37 0 71 -6 101 -18l54 93h74l-73 -123c65 -47 100 -128 91 -225c-13 -159 -136 -272 -295 -272c-30 0 -57 4 -83 11zM434 729h86l-145 -164h-79z" />
    <glyph glyph-name="Scommaaccent" unicode="&#x218;" horiz-adv-x="702" 
d="M621 205c-12 -134 -127 -230 -293 -230c-172 0 -287 106 -275 253h83c-9 -104 74 -179 201 -179c116 0 192 61 199 146c8 94 -90 108 -198 122c-129 18 -263 39 -249 196c11 125 126 217 285 217c161 0 270 -100 258 -239h-81c8 96 -69 165 -183 165
c-111 0 -188 -57 -195 -136c-8 -94 85 -109 194 -124c128 -18 267 -39 254 -191zM299 -172c-26 -1 -41 18 -39 45c2 26 21 45 48 45c31 0 49 -25 46 -60c-4 -50 -35 -102 -74 -130l-25 22c23 20 42 52 44 78z" />
    <glyph glyph-name="scommaaccent" unicode="&#x219;" horiz-adv-x="544" 
d="M479 145c-8 -95 -101 -165 -222 -165c-130 0 -217 80 -207 189h75c-6 -70 52 -120 138 -120c78 0 137 38 142 89c5 63 -83 77 -137 85c-113 18 -200 34 -190 148c8 89 98 154 207 154c125 0 210 -72 202 -171l-75 1c5 58 -52 100 -134 100c-65 0 -121 -36 -126 -86
c-4 -45 37 -60 128 -75c91 -16 209 -37 199 -149zM222 -172c-25 0 -41 18 -39 45c3 26 22 45 48 45c31 0 50 -25 47 -60c-5 -50 -35 -102 -75 -130l-25 22c23 20 42 52 44 78z" />
    <glyph glyph-name="circumflex" unicode="&#x2c6;" horiz-adv-x="424" 
d="M68 570l135 165h81l107 -165h-73l-78 121l-99 -121h-73z" />
    <glyph glyph-name="caron" unicode="&#x2c7;" horiz-adv-x="424" 
d="M332 735h74l-136 -165h-82l-105 165h72l78 -121z" />
    <glyph glyph-name="breve" unicode="&#x2d8;" horiz-adv-x="365" 
d="M286 735h60c-7 -84 -55 -161 -145 -161c-92 0 -125 77 -118 161h61c-6 -61 20 -104 62 -104c41 0 74 43 80 104z" />
    <glyph glyph-name="dotaccent" unicode="&#x2d9;" horiz-adv-x="206" 
d="M123 560c-31 0 -50 22 -48 52c3 30 26 51 57 51c30 0 50 -21 47 -51c-2 -30 -26 -52 -56 -52z" />
    <glyph glyph-name="ring" unicode="&#x2da;" horiz-adv-x="340" 
d="M184 540c-70 0 -116 48 -110 115c6 68 60 115 130 115s115 -47 109 -115c-6 -67 -59 -115 -129 -115zM200 723c-40 0 -72 -28 -74 -68c-4 -40 22 -68 62 -68s71 28 75 68c3 40 -23 68 -63 68z" />
    <glyph glyph-name="ogonek" unicode="&#x2db;" horiz-adv-x="320" 
d="M175 12l38 -12c-85 -22 -117 -60 -121 -102c-6 -73 59 -119 157 -122l-5 -56c-128 0 -212 70 -204 167c6 61 57 108 135 125z" />
    <glyph glyph-name="tilde" unicode="&#x2dc;" horiz-adv-x="455" 
d="M114 596l-39 22c21 39 66 66 113 66c68 0 87 -58 137 -58c27 0 52 16 65 38l41 -22c-21 -40 -66 -68 -117 -68c-73 0 -88 58 -137 58c-25 0 -49 -15 -63 -36z" />
    <glyph glyph-name="hungarumlaut" unicode="&#x2dd;" horiz-adv-x="468" 
d="M206 750h84l-151 -180h-71zM368 750h82l-154 -180h-72z" />
    <glyph glyph-name="Wgrave" unicode="&#x1e80;" horiz-adv-x="1076" 
d="M622 705l104 -649l238 649h86l-262 -705h-133l-103 618l-211 -618h-134l-139 705h86l126 -649l220 649h122zM419 919h90l98 -144h-87z" />
    <glyph glyph-name="wgrave" unicode="&#x1e81;" horiz-adv-x="879" 
d="M286 0h-104l-127 505h80l106 -430l165 430h90l93 -430l179 430h80l-216 -505h-104l-84 416zM304 729l87 1l109 -165h-80z" />
    <glyph glyph-name="Wacute" unicode="&#x1e82;" horiz-adv-x="1076" 
d="M622 705l104 -649l238 649h86l-262 -705h-133l-103 618l-211 -618h-134l-139 705h86l126 -649l220 649h122zM637 919h90l-126 -144h-87z" />
    <glyph glyph-name="wacute" unicode="&#x1e83;" horiz-adv-x="879" 
d="M286 0h-104l-127 505h80l106 -430l165 430h90l93 -430l179 430h80l-216 -505h-104l-84 416zM549 729h86l-144 -164h-80z" />
    <glyph glyph-name="Wdieresis" unicode="&#x1e84;" horiz-adv-x="1076" 
d="M624 705l103 -649l239 649h86l-262 -705h-134l-103 618l-210 -618h-135l-139 705h87l125 -649l221 649h122zM501 785c-31 0 -50 21 -48 51c3 30 26 51 57 51c30 0 50 -21 47 -51c-2 -30 -26 -51 -56 -51zM634 785c-30 0 -50 21 -47 51c2 30 26 51 56 51
c31 0 50 -21 48 -51c-3 -30 -26 -51 -57 -51z" />
    <glyph glyph-name="wdieresis" unicode="&#x1e85;" horiz-adv-x="879" 
d="M288 0h-104l-127 505h80l107 -430l164 430h90l93 -430l179 430h80l-216 -505h-104l-84 416zM341 582c-31 0 -50 21 -48 51c3 30 26 51 57 51c30 0 50 -21 47 -51c-2 -30 -26 -51 -56 -51zM580 582c-31 0 -50 21 -48 51c3 30 26 51 57 51c30 0 50 -21 47 -51
c-2 -30 -26 -51 -56 -51z" />
    <glyph glyph-name="Germandbls" unicode="&#x1e9e;" horiz-adv-x="684" 
d="M178 472l-41 -472h-84l42 480c12 140 122 242 263 242c131 0 220 -82 210 -191c-7 -82 -61 -144 -130 -154c102 -13 169 -94 159 -201c-10 -117 -108 -201 -230 -201c-59 0 -112 20 -157 46l30 70c38 -25 83 -43 128 -43c81 0 139 56 146 135c8 93 -44 157 -163 157h-42
l6 70h43c67 0 120 47 126 115c6 71 -50 123 -134 123c-93 0 -163 -69 -172 -176z" />
    <glyph glyph-name="Ygrave" unicode="&#x1ef2;" horiz-adv-x="647" 
d="M242 0l23 262l-215 443h92l172 -363l232 363h94l-291 -443l-23 -262h-84zM206 919h91l97 -144h-86z" />
    <glyph glyph-name="ygrave" unicode="&#x1ef3;" horiz-adv-x="560" 
d="M10 -208l6 67c22 -8 46 -14 65 -14c74 0 103 80 143 156l-183 504h84l144 -410l193 410h82l-246 -512c-56 -115 -106 -216 -212 -216c-25 0 -54 6 -76 15zM263 565l-116 164l87 1l109 -165h-80z" />
    <glyph glyph-name="endash" unicode="&#x2013;" horiz-adv-x="667" 
d="M634 347l-6 -70h-570l6 70h570z" />
    <glyph glyph-name="emdash" unicode="&#x2014;" horiz-adv-x="827" 
d="M44 347h770l-6 -70h-770z" />
    <glyph glyph-name="quoteleft" unicode="&#x2018;" horiz-adv-x="211" 
d="M131 613c29 0 48 -20 45 -51c-3 -29 -26 -50 -56 -50c-34 0 -54 28 -51 70c6 62 41 126 86 153l35 -27c-32 -20 -56 -60 -59 -95z" />
    <glyph glyph-name="quoteright" unicode="&#x2019;" horiz-adv-x="211" 
d="M125 621c-30 0 -48 21 -46 52c3 29 26 50 56 50c34 0 55 -28 51 -70c-6 -62 -41 -126 -86 -153l-35 27c32 20 57 60 60 94z" />
    <glyph glyph-name="quotesinglbase" unicode="&#x201a;" horiz-adv-x="211" 
d="M97 -12c-29 0 -48 20 -45 51c2 30 26 50 55 50c35 0 55 -28 51 -70c-5 -62 -41 -125 -85 -153l-36 27c32 21 57 60 60 95z" />
    <glyph glyph-name="quotedblleft" unicode="&#x201c;" horiz-adv-x="374" 
d="M178 562c-2 -29 -26 -50 -55 -50c-35 0 -55 28 -51 70c5 62 41 126 85 153l35 -27c-31 -20 -56 -60 -59 -95c29 0 48 -20 45 -51zM337 562c-3 -29 -26 -50 -56 -50c-34 0 -55 28 -51 70c5 62 41 126 86 153l35 -27c-32 -20 -57 -60 -60 -95c30 0 48 -20 46 -51z" />
    <glyph glyph-name="quotedblright" unicode="&#x201d;" horiz-adv-x="371" 
d="M82 674c2 30 26 51 55 51c34 0 55 -28 51 -70c-5 -63 -41 -126 -86 -153l-35 27c32 20 57 59 60 94c-30 0 -48 21 -45 51zM240 674c2 30 26 51 55 51c34 0 55 -28 51 -70c-5 -63 -41 -126 -86 -153l-35 27c32 20 57 59 60 94c-30 0 -48 21 -45 51z" />
    <glyph glyph-name="quotedblbase" unicode="&#x201e;" horiz-adv-x="371" 
d="M53 40c3 29 26 50 56 50c34 0 54 -28 51 -70c-6 -62 -41 -126 -86 -153l-35 27c32 20 56 60 59 94c-29 0 -47 21 -45 52zM211 40c3 29 26 50 56 50c34 0 55 -28 51 -70c-6 -62 -41 -126 -86 -153l-35 27c32 20 57 60 60 94c-30 0 -48 21 -46 52z" />
    <glyph glyph-name="bullet" unicode="&#x2022;" horiz-adv-x="224" 
d="M118 250c-36 0 -59 25 -56 60s30 60 66 60s60 -25 57 -60s-31 -60 -67 -60z" />
    <glyph glyph-name="ellipsis" unicode="&#x2026;" horiz-adv-x="538" 
d="M98 -12c-31 0 -50 21 -48 52c3 29 26 51 57 51c30 0 50 -22 47 -51c-2 -31 -26 -52 -56 -52zM264 -12c-31 0 -51 21 -48 52c3 29 26 51 57 51c30 0 50 -22 47 -51c-2 -31 -26 -52 -56 -52zM430 -12c-31 0 -50 21 -48 52c3 29 26 51 57 51c30 0 50 -22 47 -51
c-2 -31 -26 -52 -56 -52z" />
    <glyph glyph-name="perthousand" unicode="&#x2030;" horiz-adv-x="1482" 
d="M547 192c10 119 100 201 219 201s195 -82 184 -201c-10 -120 -100 -202 -220 -202c-118 0 -194 82 -183 202zM872 192c6 73 -40 123 -113 123s-128 -50 -134 -123c-7 -73 40 -123 112 -123c73 0 129 50 135 123zM1011 191c10 120 100 202 220 202c119 0 194 -82 184 -202
c-10 -119 -100 -201 -220 -201c-119 0 -194 82 -184 201zM1336 192c7 72 -39 123 -112 123c-74 0 -129 -51 -135 -123c-7 -74 40 -123 113 -123s128 49 134 123zM66 543c10 119 100 202 219 202c120 0 195 -83 185 -202c-11 -119 -100 -201 -220 -201
c-119 0 -195 82 -184 201zM391 543c6 73 -40 123 -113 123s-128 -50 -135 -123c-6 -73 40 -123 114 -123c73 0 127 50 134 123zM742 735h93l-562 -735h-93z" />
    <glyph glyph-name="guilsinglleft" unicode="&#x2039;" horiz-adv-x="376" 
d="M348 505l-226 -253l182 -252h-92l-179 252l223 253h92z" />
    <glyph glyph-name="guilsinglright" unicode="&#x203a;" horiz-adv-x="376" 
d="M344 252l-224 -252h-91l225 252l-181 253h92z" />
    <glyph glyph-name="lira" unicode="&#x20a4;" 
d="M379 662c-71 0 -119 -59 -126 -141l-10 -122h251l-5 -54h-251c-2 -22 -5 -42 -8 -61h254l-5 -54h-262c-24 -106 -68 -149 -115 -170h424l-5 -60h-502l7 85c47 7 90 37 114 147h-93l4 52h101c3 19 5 40 7 61h-102l5 54h102l10 122c11 121 91 208 208 208s185 -88 186 -210
l-76 -12c0 90 -38 155 -113 155z" />
    <glyph glyph-name="Euro" unicode="&#x20ac;" horiz-adv-x="912" 
d="M490 49c119 0 231 79 269 186l79 -15c-47 -141 -195 -245 -354 -245c-181 0 -310 115 -332 284h-111l5 57h103c0 27 3 52 7 79h-102l5 56h111c54 166 201 279 380 279c159 0 289 -109 311 -257l-83 -10c-17 110 -115 193 -235 193c-132 0 -241 -82 -287 -205h306l-5 -56
h-317c-3 -14 -5 -28 -6 -43c-1 -12 -2 -24 -1 -36h317l-5 -57h-307c23 -126 119 -210 252 -210z" />
    <glyph glyph-name="trademark" unicode="&#x2122;" horiz-adv-x="1102" 
d="M151 150l44 495h-151l5 60h369l-5 -60h-151l-44 -495h-67zM975 609l-225 -459h-53l-144 459l-40 -459h-65l48 555h97l139 -459l218 459h98l-48 -555h-65z" />
    <glyph glyph-name="minus" unicode="&#x2212;" horiz-adv-x="512" 
d="M66 347h410l-6 -70h-410z" />
    <glyph glyph-name="approxequal" unicode="&#x2248;" horiz-adv-x="360" 
 />
    <glyph glyph-name="notequal" unicode="&#x2260;" horiz-adv-x="572" 
d="M42 223h171l83 179h-238l6 70h265l76 164h69l-75 -164h135l-6 -70h-161l-83 -179h228l-6 -70h-254l-90 -193h-70l89 193h-145z" />
    <glyph glyph-name="lessequal" unicode="&#x2264;" horiz-adv-x="449" 
d="M380 69l-7 -69h-351l6 69h352zM53 358l366 162l-6 -72l-295 -129l272 -130l-6 -70l-338 162z" />
    <glyph glyph-name="greaterequal" unicode="&#x2265;" horiz-adv-x="449" 
d="M36 69h352l-6 -69h-352zM47 189l294 130l-272 129l7 72l337 -162l-6 -77l-366 -162z" />
    <glyph glyph-name="commaaccent" unicode="&#xf6c3;" horiz-adv-x="197" 
d="M89 -24c-26 0 -42 18 -39 45c2 27 21 45 48 45c30 0 49 -25 46 -60c-4 -50 -35 -102 -74 -130l-26 22c24 20 42 52 45 78z" />
    <glyph glyph-name="acute.case" horiz-adv-x="302" 
d="M284 735l-127 -145h-87l123 145h91z" />
    <glyph glyph-name="breve.case" horiz-adv-x="364" 
d="M287 735h59c-8 -83 -57 -143 -144 -143s-126 60 -119 143h60c-5 -51 22 -87 64 -87s75 36 80 87z" />
    <glyph glyph-name="caron.case" horiz-adv-x="431" 
d="M337 735h76l-137 -145h-82l-111 145h77l79 -102z" />
    <glyph glyph-name="circumflex.case" horiz-adv-x="431" 
d="M70 590l137 145h82l111 -145h-76l-80 102l-97 -102h-77z" />
    <glyph glyph-name="dieresis.case" horiz-adv-x="424" 
d="M123 559c-31 0 -50 20 -48 51c3 29 26 50 57 50c30 0 50 -21 47 -50c-2 -31 -26 -51 -56 -51zM342 559c-31 0 -51 20 -48 51c3 29 26 50 57 50c30 0 50 -21 47 -50c-3 -31 -26 -51 -56 -51z" />
    <glyph glyph-name="dotaccent.case" horiz-adv-x="206" 
d="M123 566c-31 0 -50 19 -47 49c3 29 25 48 56 48s50 -19 48 -48c-3 -30 -25 -49 -57 -49z" />
    <glyph glyph-name="grave.case" horiz-adv-x="302" 
d="M83 737h90l98 -145h-87z" />
    <glyph glyph-name="hungarumlaut.case" horiz-adv-x="448" 
d="M188 735h81l-130 -145h-69zM349 735h80l-134 -145h-68z" />
    <glyph glyph-name="ijacute" horiz-adv-x="480" 
d="M97 505h77l-44 -505h-77zM287 -77l51 582h77l-51 -584c-8 -84 -66 -141 -145 -141c-29 0 -62 5 -84 13l5 59c21 -6 43 -9 65 -9c45 0 78 32 82 80zM233 735l86 -1l-145 -164h-79zM470 735l86 -1l-145 -164h-79z" />
    <glyph glyph-name="ring.case" horiz-adv-x="288" 
d="M161 540c-55 0 -91 38 -87 89c5 52 47 89 101 89s90 -37 86 -89s-47 -89 -100 -89zM172 671c-25 0 -44 -17 -46 -41c-3 -25 14 -43 39 -43c24 0 44 18 46 43c2 24 -14 41 -39 41z" />
    <glyph glyph-name="tilde.case" horiz-adv-x="455" 
d="M115 605l-39 30c21 39 64 67 113 67c70 0 85 -57 134 -57c29 0 54 19 69 46l40 -30c-21 -40 -66 -68 -118 -68c-74 0 -85 57 -131 57c-27 0 -51 -19 -68 -45z" />
    </font>
</defs>
</svg>
