<?xml version="1.0" standalone="no"?>
<!DOCTYPE svg PUBLIC "-//W3C//DTD SVG 1.1//EN" "http://www.w3.org/Graphics/SVG/1.1/DTD/svg11.dtd" >
<svg xmlns="http://www.w3.org/2000/svg" xmlns:xlink="http://www.w3.org/1999/xlink" version="1.1">
<metadata>
Created by FontForge 20190801 at Wed May 30 13:45:52 2018
 By www-data
Copyright \(c\) 2017 by Alexander Slobzheninov. All rights reserved.
</metadata>
<defs>
<font id="Objectivity-Medium" horiz-adv-x="611" >
  <font-face 
    font-family="Objectivity"
    font-weight="500"
    font-stretch="normal"
    units-per-em="1000"
    panose-1="0 0 0 0 0 0 0 0 0 0"
    ascent="800"
    descent="-200"
    x-height="508"
    cap-height="708"
    bbox="-58 -300 1449 1034"
    underline-thickness="50"
    underline-position="-125"
    stemh="97"
    stemv="109"
    unicode-range="U+000D-F6C3"
  />
<missing-glyph horiz-adv-x="500" 
 />
    <glyph glyph-name=".notdef" horiz-adv-x="500" 
 />
    <glyph glyph-name="NULL" horiz-adv-x="742" 
d="M651 708v-708h-560v708h560zM187 85h366v538h-366v-538z" />
    <glyph glyph-name="NULL" horiz-adv-x="742" 
d="M651 708v-708h-560v708h560zM187 85h366v538h-366v-538z" />
    <glyph glyph-name="CR" unicode="&#xd;" horiz-adv-x="30" 
 />
    <glyph glyph-name="space" unicode=" " horiz-adv-x="309" 
 />
    <glyph glyph-name="exclam" unicode="!" horiz-adv-x="282" 
d="M141 -14c-39 0 -67 28 -67 67c0 38 28 65 67 65s67 -27 67 -65c0 -39 -28 -67 -67 -67zM200 708v-188l-28 -294h-62l-27 294v188h117z" />
    <glyph glyph-name="quotedbl" unicode="&#x22;" horiz-adv-x="355" 
d="M137 568l-11 -192h-66l-12 192v140h89v-140zM307 568l-11 -192h-66l-12 192v140h89v-140z" />
    <glyph glyph-name="numbersign" unicode="#" horiz-adv-x="946" 
d="M404 444l-35 -132h157l36 132h-158zM848 312v-77h-249l-62 -235h-94l63 235h-158l-62 -235h-94l63 235h-207v77h228l35 132h-213v78h233l58 216h94l-58 -216h157l58 216h94l-58 -216h222v-78h-243l-36 -132h229z" />
    <glyph glyph-name="dollar" unicode="$" horiz-adv-x="709" 
d="M408 -23v-97h-112v101c-140 24 -236 122 -236 250h114c0 -91 80 -157 194 -157c101 0 160 52 160 123c0 81 -90 93 -190 107c-133 18 -269 42 -269 205c0 117 90 205 227 221v90h112v-92c132 -23 223 -116 223 -238h-111c0 84 -73 144 -174 144c-96 0 -158 -48 -158 -113
c0 -81 82 -94 184 -108c132 -18 275 -42 275 -201c0 -126 -91 -220 -239 -235z" />
    <glyph glyph-name="percent" unicode="%" horiz-adv-x="1032" 
d="M574 194c0 122 84 206 205 206s205 -84 205 -206c0 -121 -84 -205 -205 -205s-205 84 -205 205zM883 194c0 62 -43 104 -104 104s-104 -42 -104 -104c0 -61 43 -103 104 -103s104 42 104 103zM48 543c0 122 84 206 206 206s206 -84 206 -206c0 -121 -84 -205 -206 -205
s-206 84 -206 205zM357 543c0 62 -41 104 -103 104s-104 -42 -104 -104c0 -61 42 -104 104 -104s103 43 103 104zM705 738h120l-498 -738h-120z" />
    <glyph glyph-name="ampersand" unicode="&#x26;" horiz-adv-x="809" 
d="M470 133c-16 15 -177 164 -193 179c-63 -24 -100 -60 -100 -126s60 -113 143 -113c54 0 106 22 150 60zM323 402l219 -200c30 39 54 85 72 138h106c-24 -76 -62 -144 -108 -201c13 -12 141 -128 153 -139h-146l-78 70c-70 -60 -154 -95 -239 -95c-140 0 -240 84 -240 206
c0 109 65 163 145 200c-36 42 -64 95 -63 156c0 109 90 189 206 190c113 0 203 -76 217 -181l-105 -20c-7 61 -51 105 -110 105c-55 0 -100 -39 -100 -99c0 -43 24 -87 71 -130z" />
    <glyph glyph-name="quotesingle" unicode="'" horiz-adv-x="185" 
d="M137 568l-11 -192h-66l-12 192v140h89v-140z" />
    <glyph glyph-name="parenleft" unicode="(" horiz-adv-x="349" 
d="M322 -180h-106c-95 95 -159 277 -159 459s64 364 159 459h106c-103 -104 -169 -280 -169 -459c0 -183 66 -357 169 -459z" />
    <glyph glyph-name="parenright" unicode=")" horiz-adv-x="349" 
d="M133 -180h-106c103 102 169 276 169 459c0 179 -66 355 -169 459h106c95 -95 159 -277 159 -459s-64 -364 -159 -459z" />
    <glyph glyph-name="asterisk" unicode="*" horiz-adv-x="516" 
d="M468 411l-39 -66l-136 83l4 -160h-78l4 160l-136 -83l-39 66l140 77l-140 77l39 66l136 -83l-4 160h78l-4 -160l136 83l39 -66l-140 -77z" />
    <glyph glyph-name="plus" unicode="+" horiz-adv-x="566" 
d="M337 90h-108v178h-181v91h181v171h108v-171h181v-91h-181v-178z" />
    <glyph glyph-name="comma" unicode="," horiz-adv-x="235" 
d="M111 -14c-37 0 -62 27 -62 66c0 38 28 65 66 65c43 0 72 -36 72 -91c0 -69 -35 -140 -83 -173l-54 29c36 26 61 69 61 104z" />
    <glyph glyph-name="hyphen" unicode="-" horiz-adv-x="506" 
d="M48 358h410v-94h-410v94z" />
    <glyph glyph-name="period" unicode="." horiz-adv-x="230" 
d="M115 -14c-39 0 -67 28 -67 67c0 38 28 65 67 65c40 0 67 -27 67 -65c0 -39 -27 -67 -67 -67z" />
    <glyph glyph-name="slash" unicode="/" horiz-adv-x="460" 
d="M331 708h102l-304 -938h-102z" />
    <glyph glyph-name="zero" unicode="0" horiz-adv-x="756" 
d="M378 -25c-186 0 -311 159 -311 379s125 379 311 379s311 -159 311 -379s-125 -379 -311 -379zM378 628c-116 0 -191 -115 -191 -274s75 -275 191 -275s191 116 191 275s-75 274 -191 274z" />
    <glyph glyph-name="one" unicode="1" horiz-adv-x="432" 
d="M213 0v562l-174 -130v131l194 145h99v-708h-119z" />
    <glyph glyph-name="two" unicode="2" horiz-adv-x="632" 
d="M174 474l-112 23c21 137 129 236 257 236c142 0 246 -98 246 -232c0 -102 -43 -157 -136 -241l-177 -161h300v-99h-483v71l282 257c53 48 98 98 98 170c0 77 -55 133 -131 133c-72 0 -133 -66 -144 -157z" />
    <glyph glyph-name="three" unicode="3" horiz-adv-x="638" 
d="M389 609h-308v99h466v-75l-176 -198c118 -15 200 -106 200 -227c0 -135 -109 -233 -261 -233c-144 0 -257 106 -268 251l105 18c13 -97 78 -167 159 -167c87 0 150 57 150 136c0 80 -62 139 -147 139c-20 0 -45 -5 -61 -12l-32 79z" />
    <glyph glyph-name="four" unicode="4" horiz-adv-x="636" 
d="M174 267h199v330zM373 168h-336v72l289 468h168v-441h85v-99h-85v-168h-121v168z" />
    <glyph glyph-name="five" unicode="5" horiz-adv-x="651" 
d="M308 368h-197l36 340h386v-99h-293l-16 -148h105c160 0 261 -102 261 -243s-109 -243 -261 -243c-147 0 -257 106 -268 252l105 17c8 -97 74 -167 159 -167c87 0 149 59 149 141c0 87 -61 150 -166 150z" />
    <glyph glyph-name="six" unicode="6" horiz-adv-x="633" 
d="M320 77c84 1 144 65 144 154c0 86 -60 149 -144 149c-88 1 -152 -62 -152 -149c0 -90 64 -154 152 -154zM103 383l246 325h140l-189 -245c16 4 37 8 62 8c130 0 223 -101 223 -240c0 -149 -112 -256 -269 -256c-156 0 -268 104 -268 247c0 54 24 121 55 161z" />
    <glyph glyph-name="seven" unicode="7" horiz-adv-x="523" 
d="M505 637l-268 -637h-128l256 606h-346v102h486v-71z" />
    <glyph glyph-name="eight" unicode="8" horiz-adv-x="688" 
d="M344 324c-86 0 -148 -52 -148 -123c0 -72 62 -123 148 -123c87 0 149 51 149 123c0 71 -63 123 -149 123zM344 633c-75 0 -130 -44 -130 -106c0 -63 55 -109 130 -109c76 0 130 46 130 109c0 62 -54 106 -130 106zM344 734c143 0 247 -78 247 -193
c0 -76 -47 -145 -112 -164c82 -19 142 -100 142 -189c0 -124 -116 -211 -277 -211s-277 88 -277 211c0 89 59 170 142 189c-65 19 -112 88 -112 164c0 113 104 193 247 193z" />
    <glyph glyph-name="nine" unicode="9" horiz-adv-x="633" 
d="M313 631c-84 -1 -145 -65 -145 -154c0 -87 61 -149 145 -149c88 -1 151 62 151 149c0 90 -63 154 -151 154zM530 325l-247 -325h-139l189 244c-17 -3 -38 -7 -62 -7c-130 0 -223 100 -223 240c0 149 112 255 269 255c156 0 268 -103 268 -246c0 -54 -24 -121 -55 -161z
" />
    <glyph glyph-name="colon" unicode=":" horiz-adv-x="230" 
d="M115 -14c-39 0 -67 28 -67 67c0 38 28 65 67 65c40 0 67 -27 67 -65c0 -39 -27 -67 -67 -67zM115 361c-39 0 -67 27 -67 66c0 38 28 66 67 66c40 0 67 -28 67 -66c0 -39 -27 -66 -67 -66z" />
    <glyph glyph-name="semicolon" unicode=";" horiz-adv-x="235" 
d="M115 361c-39 0 -67 27 -67 66c0 38 28 66 67 66c40 0 67 -28 67 -66c0 -39 -27 -66 -67 -66zM111 -14c-37 0 -62 27 -62 66c0 38 28 65 66 65c43 0 72 -36 72 -91c0 -69 -35 -140 -83 -173l-54 29c36 26 61 69 61 104z" />
    <glyph glyph-name="less" unicode="&#x3c;" horiz-adv-x="458" 
d="M105 254l296 -158v-98l-374 204v103l374 204v-98z" />
    <glyph glyph-name="equal" unicode="=" horiz-adv-x="566" 
d="M48 232h470v-93h-470v93zM48 484h470v-93h-470v93z" />
    <glyph glyph-name="greater" unicode="&#x3e;" horiz-adv-x="458" 
d="M431 305v-103l-374 -204v98l296 158l-296 157v98z" />
    <glyph glyph-name="question" unicode="?" horiz-adv-x="619" 
d="M306 -15c-39 0 -67 28 -67 67c0 38 28 65 67 65c40 0 68 -27 68 -65c0 -39 -28 -67 -68 -67zM359 192h-105c0 111 37 161 101 206c46 32 88 63 88 117c0 67 -55 118 -127 118c-81 0 -139 -64 -149 -150l-110 21c15 133 120 229 262 229c137 0 243 -89 243 -213
c0 -92 -53 -136 -123 -181c-55 -35 -80 -69 -80 -147z" />
    <glyph glyph-name="at" unicode="@" horiz-adv-x="1033" 
d="M643 260c0 76 -54 132 -127 132s-126 -56 -126 -132s53 -130 126 -130s127 54 127 130zM516 612c-210 0 -362 -148 -362 -352c0 -201 137 -347 327 -347c53 0 114 16 147 34v-88c-42 -22 -101 -32 -147 -32c-240 0 -424 183 -424 433c0 252 193 435 459 435
c267 0 460 -183 460 -435c0 -155 -69 -266 -179 -266c-73 0 -130 55 -132 130c-25 -48 -101 -82 -180 -82c-118 0 -196 94 -196 218c0 128 95 220 227 220c134 0 228 -90 228 -216v-121c0 -40 23 -73 55 -73c50 0 79 80 79 190c0 204 -152 352 -362 352z" />
    <glyph glyph-name="A" unicode="A" horiz-adv-x="733" 
d="M367 604l-139 -382h279zM202 132l-47 -132h-128l253 708h174l252 -708h-127l-47 132h-330z" />
    <glyph glyph-name="B" unicode="B" horiz-adv-x="732" 
d="M544 212c0 65 -62 112 -149 112h-184v-225h184c87 0 149 48 149 113zM393 609h-182v-191h182c77 0 131 39 131 95s-54 96 -131 96zM415 0h-324v708h320c137 0 234 -80 234 -190c0 -69 -44 -129 -105 -146c73 -18 125 -88 125 -170c0 -118 -104 -202 -250 -202z" />
    <glyph glyph-name="C" unicode="C" horiz-adv-x="824" 
d="M428 79c104 0 198 70 225 167l114 -19c-32 -146 -175 -252 -340 -252c-215 0 -371 159 -370 379c0 220 155 379 370 379c165 0 308 -111 340 -263l-115 -14c-24 100 -118 172 -224 172c-147 0 -251 -114 -251 -274c1 -160 105 -275 251 -275z" />
    <glyph glyph-name="D" unicode="D" horiz-adv-x="798" 
d="M91 0v708h241c246 0 410 -141 410 -354s-164 -354 -410 -354h-241zM622 354c0 156 -117 254 -290 254h-122v-508h122c173 0 290 98 290 254z" />
    <glyph glyph-name="E" unicode="E" horiz-adv-x="647" 
d="M207 319v-217h384v-102h-500v708h490v-102h-374v-195h334v-92h-334z" />
    <glyph glyph-name="F" unicode="F" horiz-adv-x="592" 
d="M495 273h-284v-273h-120v708h463v-105h-343v-234h284v-96z" />
    <glyph glyph-name="G" unicode="G" horiz-adv-x="871" 
d="M444 79c139 0 250 100 251 229h-256v88h374c19 -244 -136 -421 -371 -421c-224 0 -385 159 -385 379s161 379 385 379c166 0 307 -105 340 -250l-113 -21c-26 97 -122 166 -227 166c-155 0 -265 -113 -265 -274c0 -159 112 -275 267 -275z" />
    <glyph glyph-name="H" unicode="H" horiz-adv-x="769" 
d="M211 0h-121v708h121v-289h347v289h121v-708h-121v317h-347v-317z" />
    <glyph glyph-name="I" unicode="I" horiz-adv-x="303" 
d="M91 708h120v-708h-120v708z" />
    <glyph glyph-name="J" unicode="J" horiz-adv-x="487" 
d="M277 221v487h120v-492c0 -139 -94 -236 -224 -236c-41 0 -95 8 -134 20v98c34 -10 77 -16 105 -16c78 0 133 55 133 139z" />
    <glyph glyph-name="K" unicode="K" horiz-adv-x="661" 
d="M91 0v708h120v-294l273 294h150l-316 -334l325 -374h-151l-281 332v-332h-120z" />
    <glyph glyph-name="L" unicode="L" horiz-adv-x="584" 
d="M545 0h-454v708h120v-604h334v-104z" />
    <glyph glyph-name="M" unicode="M" horiz-adv-x="976" 
d="M210 558v-558h-119v708h167l229 -557l231 557h167v-708h-119v559l-232 -559h-92z" />
    <glyph glyph-name="N" unicode="N" horiz-adv-x="772" 
d="M237 708l327 -562v562h117v-708h-146l-326 562v-562h-118v708h146z" />
    <glyph glyph-name="O" unicode="O" horiz-adv-x="885" 
d="M442 -25c-227 0 -385 156 -385 379c0 222 158 379 385 379c228 0 386 -157 386 -379c0 -223 -158 -379 -386 -379zM442 628c-155 0 -265 -114 -265 -274s110 -274 265 -275c156 0 266 115 266 275s-110 274 -266 274z" />
    <glyph glyph-name="P" unicode="P" horiz-adv-x="697" 
d="M345 609h-138v-293h138c108 0 186 61 185 146c0 86 -77 147 -185 147zM364 216h-157v-216h-116v708h274c166 0 285 -103 285 -246s-119 -246 -286 -246z" />
    <glyph glyph-name="Q" unicode="Q" horiz-adv-x="885" 
d="M442 628c-155 0 -265 -114 -265 -274s110 -274 265 -275c155 0 266 115 266 275s-110 274 -266 274zM828 354c0 -132 -55 -240 -147 -307l117 -157h-131l-82 109c-43 -15 -91 -24 -143 -24c-227 0 -385 156 -385 379c0 222 158 379 385 379c228 0 386 -157 386 -379z" />
    <glyph glyph-name="R" unicode="R" horiz-adv-x="751" 
d="M403 609h-192v-257h192c92 0 160 53 160 126c0 83 -67 131 -160 131zM211 256v-256h-120v708h326c155 0 266 -95 266 -230c0 -95 -69 -179 -165 -204l177 -274h-138l-156 256h-190z" />
    <glyph glyph-name="S" unicode="S" horiz-adv-x="709" 
d="M647 212c0 -138 -109 -237 -282 -237c-177 0 -305 108 -305 256h114c0 -91 80 -157 194 -157c101 0 160 52 160 123c0 81 -90 93 -190 107c-133 18 -269 42 -269 205c0 131 111 224 276 224c166 0 286 -102 286 -243h-111c0 84 -73 144 -174 144
c-96 0 -158 -48 -158 -113c0 -81 82 -94 184 -108c132 -18 275 -42 275 -201z" />
    <glyph glyph-name="T" unicode="T" horiz-adv-x="612" 
d="M246 0v605h-227v103h573v-103h-226v-605h-120z" />
    <glyph glyph-name="U" unicode="U" horiz-adv-x="771" 
d="M565 291v417h121v-419c0 -183 -125 -314 -300 -314c-176 0 -301 131 -301 314v419h121v-417c0 -110 70 -211 180 -212c107 0 179 90 179 212z" />
    <glyph glyph-name="V" unicode="V" horiz-adv-x="723" 
d="M27 708h126l209 -620l208 620h126l-244 -708h-181z" />
    <glyph glyph-name="W" unicode="W" horiz-adv-x="1128" 
d="M645 708l147 -622l167 622h123l-195 -708h-185l-138 573l-137 -573h-186l-196 708h124l168 -622l150 622h158z" />
    <glyph glyph-name="X" unicode="X" horiz-adv-x="749" 
d="M37 0l242 374l-234 334h142l185 -268l189 268h143l-242 -334l251 -374h-143l-199 304l-193 -304h-141z" />
    <glyph glyph-name="Y" unicode="Y" horiz-adv-x="681" 
d="M282 0v252l-255 456h130l185 -345l180 345h133l-253 -456v-252h-120z" />
    <glyph glyph-name="Z" unicode="Z" horiz-adv-x="664" 
d="M49 79l397 532h-387v97h546v-79l-394 -532h404v-97h-566v79z" />
    <glyph glyph-name="bracketleft" unicode="[" horiz-adv-x="449" 
d="M195 660v-763h228v-77h-332v918h332v-78h-228z" />
    <glyph glyph-name="backslash" unicode="\" horiz-adv-x="460" 
d="M129 708l304 -938h-102l-304 938h102z" />
    <glyph glyph-name="bracketright" unicode="]" horiz-adv-x="449" 
d="M359 -180h-332v77h227v763h-227v78h332v-918z" />
    <glyph glyph-name="asciicircum" unicode="^" horiz-adv-x="582" 
d="M291 639l-138 -239h-105l187 308h111l188 -308h-105z" />
    <glyph glyph-name="underscore" unicode="_" horiz-adv-x="500" 
d="M0 0h500v-85h-500v85z" />
    <glyph glyph-name="grave" unicode="`" horiz-adv-x="334" 
d="M48 738h114l124 -168h-100z" />
    <glyph glyph-name="a" unicode="a" horiz-adv-x="673" 
d="M324 77c97 0 167 74 167 177s-70 177 -167 177s-168 -74 -168 -177c0 -102 71 -177 168 -177zM492 432v76h109v-508h-109v76c-43 -60 -110 -96 -189 -96c-149 0 -255 115 -255 274s106 274 255 274c79 0 146 -36 189 -96z" />
    <glyph glyph-name="b" unicode="b" horiz-adv-x="668" 
d="M344 426c-97 0 -167 -73 -167 -172s70 -172 167 -172c96 0 168 71 168 172c0 99 -71 172 -168 172zM620 254c0 -159 -108 -274 -255 -274c-78 0 -143 34 -187 91v-71h-106v738h109v-299c43 56 108 89 184 89c148 0 255 -115 255 -274z" />
    <glyph glyph-name="c" unicode="c" horiz-adv-x="618" 
d="M316 528c129 0 235 -81 253 -193l-104 -13c-16 66 -78 113 -148 113c-90 0 -161 -76 -161 -181c1 -105 70 -181 161 -181c72 0 131 47 149 112l104 -13c-21 -111 -128 -192 -253 -192c-156 0 -269 115 -269 274s113 274 268 274z" />
    <glyph glyph-name="d" unicode="d" horiz-adv-x="668" 
d="M324 426c-97 0 -168 -73 -168 -172c0 -101 72 -172 168 -172c97 0 167 73 167 172s-70 172 -167 172zM48 254c0 159 107 274 255 274c76 0 141 -33 184 -89v299h109v-738h-106v71c-44 -57 -109 -91 -187 -91c-147 0 -255 115 -255 274z" />
    <glyph glyph-name="e" unicode="e" horiz-adv-x="638" 
d="M161 301h316c-12 80 -76 136 -160 136c-82 0 -142 -55 -156 -136zM48 260c0 156 114 268 272 268s270 -112 270 -269c0 -12 -1 -27 -2 -39l-428 1c13 -90 76 -150 159 -150c68 0 131 40 150 96l102 -15c-29 -100 -134 -172 -250 -172c-159 0 -273 117 -273 280z" />
    <glyph glyph-name="f" unicode="f" horiz-adv-x="395" 
d="M234 586v-78h123v-85h-123v-423h-108v423h-78v85h78v87c0 98 59 163 146 163c32 0 59 -5 85 -14v-91c-17 5 -33 8 -52 8c-42 0 -70 -30 -71 -75z" />
    <glyph glyph-name="g" unicode="g" horiz-adv-x="668" 
d="M324 83c97 0 167 72 167 171c0 103 -70 177 -167 177s-168 -74 -168 -177c0 -99 71 -171 168 -171zM326 -158c94 0 161 61 161 168v65c-43 -54 -107 -85 -183 -85c-148 0 -256 110 -256 264c0 158 108 272 256 272c79 0 141 -33 184 -87v69h108v-499
c0 -164 -111 -259 -266 -259c-133 0 -243 84 -261 201l100 12c17 -70 83 -121 157 -121z" />
    <glyph glyph-name="h" unicode="h" 
d="M72 738h109v-291c34 51 98 81 162 81c126 0 206 -91 206 -217v-311h-108v302c0 75 -45 129 -121 129s-139 -58 -139 -139v-292h-109v738z" />
    <glyph glyph-name="i" unicode="i" horiz-adv-x="279" 
d="M86 508h108v-508h-108v508zM140 590c-40 0 -68 28 -68 67c0 38 28 65 68 65c39 0 67 -27 67 -65c0 -39 -28 -67 -67 -67z" />
    <glyph glyph-name="j" unicode="j" horiz-adv-x="278" 
d="M85 -55v563h108v-576c0 -96 -60 -160 -150 -160c-33 0 -71 5 -97 14l1 90c18 -6 43 -9 63 -9c45 1 75 32 75 78zM138 590c-39 0 -67 28 -67 67c0 38 28 65 67 65c40 0 68 -27 68 -65c0 -39 -28 -67 -68 -67z" />
    <glyph glyph-name="k" unicode="k" horiz-adv-x="542" 
d="M72 0v738h109v-426l195 196h139l-236 -235l245 -273h-138l-205 232v-232h-109z" />
    <glyph glyph-name="l" unicode="l" horiz-adv-x="252" 
d="M72 738h108v-738h-108v738z" />
    <glyph glyph-name="m" unicode="m" horiz-adv-x="935" 
d="M181 0h-109v508h105v-58c32 49 85 78 146 78c79 0 145 -38 175 -96c35 58 99 95 172 95c119 0 203 -91 203 -220v-307h-108v298c0 77 -49 132 -118 133c-71 0 -122 -56 -122 -133v-298h-109v298c0 80 -45 133 -115 133c-72 0 -120 -53 -120 -133v-298z" />
    <glyph glyph-name="n" unicode="n" 
d="M72 508h107v-65c36 53 99 85 165 85c124 0 205 -92 205 -218v-310h-108v302c0 75 -45 129 -121 129s-139 -58 -139 -139v-292h-109v508z" />
    <glyph glyph-name="o" unicode="o" horiz-adv-x="646" 
d="M323 528c162 0 276 -113 276 -274s-114 -274 -276 -274c-163 0 -276 113 -276 274s113 274 276 274zM323 77c97 0 168 74 168 177s-71 177 -168 177c-98 0 -167 -74 -167 -177s69 -177 167 -177z" />
    <glyph glyph-name="p" unicode="p" horiz-adv-x="668" 
d="M344 82c97 0 168 73 168 172c0 101 -72 172 -168 172c-97 0 -167 -73 -167 -172s70 -172 167 -172zM620 254c0 -159 -107 -274 -255 -274c-76 0 -141 33 -184 89v-299h-109v738h106v-71c44 57 109 91 187 91c147 0 255 -115 255 -274z" />
    <glyph glyph-name="q" unicode="q" horiz-adv-x="668" 
d="M324 82c97 0 167 73 167 172s-70 172 -167 172c-96 0 -168 -71 -168 -172c0 -99 71 -172 168 -172zM48 254c0 159 108 274 255 274c78 0 143 -34 187 -91v71h106v-738h-109v299c-43 -56 -108 -89 -184 -89c-148 0 -255 115 -255 274z" />
    <glyph glyph-name="r" unicode="r" horiz-adv-x="408" 
d="M72 508h105v-65c31 52 80 83 138 83c20 0 43 -5 65 -13v-97c-28 12 -59 16 -79 16c-72 0 -120 -64 -120 -154v-278h-109v508z" />
    <glyph glyph-name="s" unicode="s" horiz-adv-x="559" 
d="M508 153c0 -101 -92 -174 -221 -174c-134 0 -231 81 -231 193h100c0 -60 55 -104 131 -104c68 0 117 31 116 73c0 53 -79 66 -130 73c-119 18 -209 33 -209 154c0 93 89 161 204 161c131 0 227 -73 227 -174h-101c-1 50 -54 85 -127 85c-55 0 -101 -30 -101 -71
c0 -38 38 -50 120 -64c97 -16 222 -37 222 -152z" />
    <glyph glyph-name="t" unicode="t" horiz-adv-x="404" 
d="M116 143v280h-78v85h84l14 123h89v-123h124v-85h-124v-273c0 -46 28 -78 74 -78c14 0 38 3 57 9v-87c-26 -9 -62 -14 -90 -14c-91 0 -150 66 -150 163z" />
    <glyph glyph-name="u" unicode="u" 
d="M539 0h-107v65c-35 -53 -99 -85 -164 -85c-125 0 -206 92 -206 218v310h109v-302c0 -75 44 -129 121 -129c75 0 139 58 139 139v292h108v-508z" />
    <glyph glyph-name="v" unicode="v" horiz-adv-x="580" 
d="M366 0h-153l-186 508h116l146 -424l147 424h117z" />
    <glyph glyph-name="w" unicode="w" horiz-adv-x="893" 
d="M344 0h-143l-164 508h113l127 -401l112 401h115l116 -403l125 403h112l-166 -508h-143l-101 382z" />
    <glyph glyph-name="x" unicode="x" horiz-adv-x="591" 
d="M168 0h-131l177 264l-168 244h128l121 -182l121 182h129l-169 -244l178 -264h-132l-127 199z" />
    <glyph glyph-name="y" unicode="y" horiz-adv-x="583" 
d="M72 -209v88c22 -8 47 -14 67 -14c70 0 91 70 117 133l-229 510h119l159 -375l138 375h114l-199 -520c-44 -117 -89 -214 -197 -214c-29 0 -63 6 -89 17z" />
    <glyph glyph-name="z" unicode="z" horiz-adv-x="562" 
d="M49 71l298 343h-288v94h444v-71l-295 -343h305v-94h-464v71z" />
    <glyph glyph-name="braceleft" unicode="{" horiz-adv-x="392" 
d="M305 -103h60v-77h-117c-70 0 -117 47 -117 118v230c0 39 -26 64 -64 64h-10v103h10c38 0 64 26 64 64v221c0 71 47 118 117 118h117v-78h-60c-42 0 -70 -28 -70 -70v-202c0 -58 -39 -100 -97 -103l-10 -1l10 -1c58 -3 97 -45 97 -103v-213c0 -42 28 -70 70 -70z" />
    <glyph glyph-name="bar" unicode="|" horiz-adv-x="282" 
d="M91 738h100v-968h-100v968z" />
    <glyph glyph-name="braceright" unicode="}" horiz-adv-x="392" 
d="M144 -180h-117v77h60c42 0 70 28 70 70v213c0 58 38 100 97 103l10 1l-10 1c-59 3 -97 45 -97 103v202c0 42 -28 70 -70 70h-60v78h117c70 0 117 -47 117 -118v-221c0 -38 26 -64 64 -64h10v-103h-10c-38 0 -64 -25 -64 -64v-230c0 -71 -47 -118 -117 -118z" />
    <glyph glyph-name="asciitilde" unicode="~" horiz-adv-x="666" 
d="M88 252l-40 66c37 55 105 92 159 92c95 0 185 -112 262 -112c42 0 82 26 108 64l41 -66c-37 -55 -102 -92 -155 -92c-95 0 -185 112 -266 112c-40 0 -80 -26 -109 -64z" />
    <glyph glyph-name="exclamdown" unicode="&#xa1;" horiz-adv-x="282" 
d="M82 -230v188l28 294h62l27 -294v-188h-117zM141 492c39 0 67 -28 67 -67c0 -38 -28 -65 -67 -65s-67 27 -67 65c0 39 28 67 67 67z" />
    <glyph glyph-name="cent" unicode="&#xa2;" horiz-adv-x="618" 
d="M367 -16v-95h-104v96c-127 23 -215 129 -215 269s88 246 215 269v88h104v-87c105 -18 187 -92 202 -189l-104 -13c-16 66 -78 113 -148 113c-90 0 -161 -76 -161 -181c1 -105 70 -181 161 -181c72 0 131 47 149 112l104 -13c-18 -96 -101 -169 -203 -188z" />
    <glyph glyph-name="sterling" unicode="&#xa3;" horiz-adv-x="628" 
d="M580 522l-101 -18c-7 79 -44 136 -111 136c-65 0 -97 -51 -98 -123v-123h239v-87h-244c-9 -141 -51 -186 -112 -213h426v-94h-531v114c59 12 105 43 107 193h-97v87h100v125c0 124 75 214 206 214c129 0 204 -89 216 -211z" />
    <glyph glyph-name="currency" unicode="&#xa4;" horiz-adv-x="746" 
d="M373 79c98 0 168 73 168 175s-70 175 -168 175c-96 0 -166 -73 -166 -175s68 -175 166 -175zM536 469l88 84l64 -63l-87 -83c31 -42 48 -94 48 -153s-17 -112 -48 -154l88 -84l-65 -62l-88 85c-44 -29 -100 -45 -163 -45c-62 0 -116 16 -160 44l-91 -84l-65 62l88 84
c-31 42 -48 95 -48 154s17 111 48 153l-86 84l65 63l89 -85c44 29 98 45 160 45c63 0 119 -16 163 -45z" />
    <glyph glyph-name="yen" unicode="&#xa5;" horiz-adv-x="711" 
d="M72 296h198l-233 412h134l186 -352l182 352h136l-231 -412h197v-83h-223v-58h223v-84h-223v-71h-121v71h-225v84h225v58h-225v83z" />
    <glyph glyph-name="section" unicode="&#xa7;" horiz-adv-x="626" 
d="M456 277c0 68 -83 78 -140 84c-10 1 -31 5 -39 7c-65 -4 -110 -43 -110 -79c0 -67 77 -79 136 -86c8 -2 29 -5 38 -7c67 4 115 38 115 81zM91 530c0 101 94 175 221 175c110 0 205 -71 228 -172l-105 -13c-10 55 -63 94 -127 94c-65 0 -112 -29 -112 -70
c0 -62 76 -77 158 -94c100 -21 211 -44 211 -151c0 -62 -52 -117 -124 -132c56 -17 96 -71 96 -134c0 -111 -95 -188 -228 -188c-112 0 -207 73 -227 174l106 14c11 -56 64 -96 125 -96c66 0 113 29 113 79c0 70 -77 83 -160 98c-97 17 -204 44 -204 149
c0 63 48 117 116 132c-51 18 -87 72 -87 135z" />
    <glyph glyph-name="dieresis" unicode="&#xa8;" horiz-adv-x="474" 
d="M112 580c-37 0 -64 27 -64 63c0 37 27 62 64 62c38 0 65 -25 65 -62c0 -36 -27 -63 -65 -63zM361 580c-37 0 -64 27 -64 63c0 37 27 62 64 62c38 0 65 -25 65 -62c0 -36 -27 -63 -65 -63z" />
    <glyph glyph-name="copyright" unicode="&#xa9;" horiz-adv-x="967" 
d="M484 602c-206 0 -350 -146 -350 -346c0 -206 144 -350 350 -350s350 144 350 350c0 200 -144 346 -350 346zM492 524c119 0 221 -80 243 -189l-74 -14c-19 75 -91 129 -171 129c-105 0 -182 -81 -182 -196s77 -197 184 -197c85 0 158 58 176 138l68 -15
c-20 -114 -122 -196 -245 -196c-156 0 -268 111 -268 270c0 158 111 270 269 270zM483 -163c-251 0 -426 172 -426 419c0 241 175 415 426 415c252 0 428 -171 428 -415c0 -247 -176 -419 -428 -419z" />
    <glyph glyph-name="guillemotleft" unicode="&#xab;" horiz-adv-x="670" 
d="M365 508l-198 -253l198 -255h-123l-194 255l194 253h123zM614 508l-198 -253l198 -255h-123l-194 255l194 253h123z" />
    <glyph glyph-name="logicalnot" unicode="&#xac;" horiz-adv-x="646" 
d="M507 70v204h-459v90h540v-294h-81z" />
    <glyph glyph-name="registered" unicode="&#xae;" horiz-adv-x="967" 
d="M134 256c0 -206 144 -350 350 -350s350 144 350 350c0 200 -144 346 -350 346s-350 -146 -350 -346zM516 448h-126v-185h131c58 0 99 38 99 95s-41 90 -104 90zM483 -163c-251 0 -426 172 -426 419c0 241 175 415 426 415c252 0 428 -171 428 -415
c0 -247 -176 -419 -428 -419zM582 214l114 -204h-91l-104 196h-111v-196h-81v498h223c100 0 170 -64 170 -151c0 -73 -48 -127 -120 -143z" />
    <glyph glyph-name="macron" unicode="&#xaf;" horiz-adv-x="418" 
d="M370 677v-70h-322v70h322z" />
    <glyph glyph-name="degree" unicode="&#xb0;" horiz-adv-x="511" 
d="M256 343c-125 0 -208 80 -208 199s83 199 208 199c124 0 207 -80 207 -199s-83 -199 -207 -199zM256 669c-77 0 -127 -51 -127 -127s50 -127 127 -127c75 0 126 51 126 127s-51 127 -126 127z" />
    <glyph glyph-name="plusminus" unicode="&#xb1;" horiz-adv-x="566" 
d="M48 90h470v-90h-470v90zM334 188h-102v118h-184v90h184v112h102v-112h184v-90h-184v-118z" />
    <glyph glyph-name="acute" unicode="&#xb4;" horiz-adv-x="337" 
d="M286 738l-138 -168h-100l124 168h114z" />
    <glyph glyph-name="paragraph" unicode="&#xb6;" horiz-adv-x="753" 
d="M672 627h-94v-845h-96v845h-113v-845h-97v534c-136 0 -225 79 -224 196s90 196 224 196h400v-81z" />
    <glyph glyph-name="periodcentered" unicode="&#xb7;" horiz-adv-x="230" 
d="M115 224c-39 0 -67 28 -67 66s28 65 67 65c40 0 67 -27 67 -65s-27 -66 -67 -66z" />
    <glyph glyph-name="cedilla" unicode="&#xb8;" horiz-adv-x="322" 
d="M140 -106h-44l18 120h62l-12 -84c65 0 110 -40 110 -101c0 -59 -47 -99 -116 -99c-55 0 -100 32 -110 78l47 18c9 -27 34 -46 59 -46c33 0 54 21 54 54c0 36 -27 60 -68 60z" />
    <glyph glyph-name="guillemotright" unicode="&#xbb;" horiz-adv-x="669" 
d="M372 255l-193 -255h-123l197 255l-197 253h123zM622 255l-194 -255h-123l197 255l-197 253h123z" />
    <glyph glyph-name="questiondown" unicode="&#xbf;" horiz-adv-x="619" 
d="M260 309h105c0 -111 -37 -161 -101 -206c-46 -32 -88 -63 -88 -118c0 -66 55 -117 127 -117c81 0 139 63 149 149l110 -20c-15 -133 -120 -229 -262 -229c-137 0 -243 89 -243 213c0 92 53 136 123 181c55 35 80 69 80 147zM313 516c39 0 67 -28 67 -67
c0 -38 -28 -66 -67 -66s-67 28 -67 66c0 39 28 67 67 67z" />
    <glyph glyph-name="Agrave" unicode="&#xc0;" horiz-adv-x="733" 
d="M367 604l-139 -382h279zM202 132l-47 -132h-128l253 708h174l252 -708h-127l-47 132h-330zM313 778l-123 148h118l113 -148h-108z" />
    <glyph glyph-name="Aacute" unicode="&#xc1;" horiz-adv-x="733" 
d="M367 604l-139 -382h279zM202 132l-47 -132h-128l253 708h174l252 -708h-127l-47 132h-330zM306 778l113 148h117l-122 -148h-108z" />
    <glyph glyph-name="Acircumflex" unicode="&#xc2;" horiz-adv-x="733" 
d="M367 604l-139 -382h279zM202 132l-47 -132h-128l253 708h174l252 -708h-127l-47 132h-330zM369 873l-80 -95h-93l117 148h112l118 -148h-93z" />
    <glyph glyph-name="Atilde" unicode="&#xc3;" horiz-adv-x="733" 
d="M367 604l-139 -382h279zM202 132l-47 -132h-128l253 708h174l252 -708h-127l-47 132h-330zM241 813l-54 36c19 45 65 78 117 78c72 0 96 -57 141 -57c26 0 49 18 62 45l55 -36c-19 -45 -65 -77 -122 -77c-76 0 -95 57 -138 57c-24 0 -45 -19 -61 -46z" />
    <glyph glyph-name="Adieresis" unicode="&#xc4;" horiz-adv-x="733" 
d="M367 604l-139 -382h279zM202 132l-47 -132h-128l253 708h174l252 -708h-127l-47 132h-330zM254 785c-38 0 -65 26 -65 64c0 37 27 63 65 63s64 -26 64 -63c0 -38 -26 -64 -64 -64zM486 785c-38 0 -65 26 -65 64c0 37 27 63 65 63c37 0 64 -26 64 -63
c0 -38 -27 -64 -64 -64z" />
    <glyph glyph-name="Aring" unicode="&#xc5;" horiz-adv-x="733" 
d="M367 604l-139 -382h279zM366 891c-22 0 -38 -16 -38 -38c0 -23 16 -39 38 -39c23 0 39 16 39 39c-1 22 -16 38 -39 38zM202 132l-47 -132h-128l253 708h174l252 -708h-127l-47 132h-330zM366 756c-60 0 -104 41 -104 97s43 96 103 96c61 0 104 -40 104 -97
c1 -56 -42 -96 -103 -96z" />
    <glyph glyph-name="AE" unicode="&#xc6;" horiz-adv-x="970" 
d="M273 226h203v398zM584 102h329v-102h-437v132h-248l-67 -132h-134l362 708h514v-102h-318v-200h278v-93h-279v-211z" />
    <glyph glyph-name="Ccedilla" unicode="&#xc7;" horiz-adv-x="824" 
d="M427 -106h-44l12 82c-198 15 -339 169 -338 378c0 220 155 379 370 379c165 0 308 -111 340 -263l-115 -14c-24 100 -118 172 -224 172c-147 0 -251 -114 -251 -274c1 -160 105 -275 251 -275c104 0 198 70 225 167l114 -19c-30 -137 -158 -239 -310 -251l-6 -46
c65 0 110 -40 110 -101c0 -59 -47 -99 -116 -99c-55 0 -100 32 -110 78l47 18c9 -27 34 -46 59 -46c33 0 54 21 54 54c0 36 -27 60 -68 60z" />
    <glyph glyph-name="Egrave" unicode="&#xc8;" horiz-adv-x="647" 
d="M207 319v-217h384v-102h-500v708h490v-102h-374v-195h334v-92h-334zM158 926h118l113 -148h-108z" />
    <glyph glyph-name="Eacute" unicode="&#xc9;" horiz-adv-x="647" 
d="M207 319v-217h384v-102h-500v708h490v-102h-374v-195h334v-92h-334zM387 926h118l-123 -148h-108z" />
    <glyph glyph-name="Ecircumflex" unicode="&#xca;" horiz-adv-x="647" 
d="M207 319v-217h384v-102h-500v708h490v-102h-374v-195h334v-92h-334zM258 778h-94l118 148h111l118 -148h-93l-81 95z" />
    <glyph glyph-name="Edieresis" unicode="&#xcb;" horiz-adv-x="647" 
d="M207 319v-217h384v-102h-500v708h490v-102h-374v-195h334v-92h-334zM222 785c-38 0 -64 26 -64 64c0 37 26 63 64 63s65 -26 65 -63c0 -38 -27 -64 -65 -64zM454 785c-38 0 -65 26 -65 64c0 37 27 63 65 63s64 -26 64 -63c0 -38 -26 -64 -64 -64z" />
    <glyph glyph-name="Igrave" unicode="&#xcc;" horiz-adv-x="303" 
d="M92 708h120v-708h-120v708zM-28 926h118l113 -148h-108z" />
    <glyph glyph-name="Iacute" unicode="&#xcd;" horiz-adv-x="306" 
d="M92 708h120v-708h-120v708zM201 926h117l-122 -148h-108z" />
    <glyph glyph-name="Icircumflex" unicode="&#xce;" horiz-adv-x="303" 
d="M92 708h120v-708h-120v708zM72 778h-94l118 148h111l118 -148h-93l-81 95z" />
    <glyph glyph-name="Idieresis" unicode="&#xcf;" horiz-adv-x="303" 
d="M91 708h120v-708h-120v708zM35 785c-37 0 -64 26 -64 64c0 37 27 63 64 63c38 0 65 -26 65 -63c0 -38 -27 -64 -65 -64zM267 785c-38 0 -64 26 -64 64c0 37 26 63 64 63s65 -26 65 -63c0 -38 -27 -64 -65 -64z" />
    <glyph glyph-name="Ntilde" unicode="&#xd1;" horiz-adv-x="772" 
d="M91 708h146l327 -562v562h117v-708h-146l-326 562v-562h-118v708zM258 813l-54 36c19 45 65 78 117 78c72 0 96 -57 141 -57c26 0 49 18 62 45l55 -36c-19 -45 -65 -77 -122 -77c-76 0 -95 57 -138 57c-24 0 -45 -19 -61 -46z" />
    <glyph glyph-name="Ograve" unicode="&#xd2;" horiz-adv-x="885" 
d="M442 -25c-227 0 -385 156 -385 379c0 222 158 379 385 379c228 0 386 -157 386 -379c0 -223 -158 -379 -386 -379zM442 628c-155 0 -265 -114 -265 -274s110 -274 265 -275c156 0 266 115 266 275s-110 274 -266 274zM263 926h118l113 -148h-108z" />
    <glyph glyph-name="Oacute" unicode="&#xd3;" horiz-adv-x="885" 
d="M442 -25c-227 0 -385 156 -385 379c0 222 158 379 385 379c228 0 386 -157 386 -379c0 -223 -158 -379 -386 -379zM442 628c-155 0 -265 -114 -265 -274s110 -274 265 -275c156 0 266 115 266 275s-110 274 -266 274zM491 926h118l-122 -148h-108z" />
    <glyph glyph-name="Ocircumflex" unicode="&#xd4;" horiz-adv-x="885" 
d="M442 628c-155 0 -265 -114 -265 -274s110 -274 265 -275c156 0 266 115 266 275s-110 274 -266 274zM442 -25c-227 0 -385 156 -385 379c0 222 158 379 385 379c228 0 386 -157 386 -379c0 -223 -158 -379 -386 -379zM442 873l-80 -95h-93l117 148h112l118 -148h-93z" />
    <glyph glyph-name="Otilde" unicode="&#xd5;" horiz-adv-x="885" 
d="M442 628c-155 0 -265 -114 -265 -274s110 -274 265 -275c156 0 266 115 266 275s-110 274 -266 274zM442 -25c-227 0 -385 156 -385 379c0 222 158 379 385 379c228 0 386 -157 386 -379c0 -223 -158 -379 -386 -379zM314 813l-54 36c19 45 65 78 117 78
c72 0 96 -57 141 -57c26 0 49 18 62 45l55 -36c-19 -45 -65 -77 -122 -77c-76 0 -95 57 -138 57c-24 0 -45 -19 -61 -46z" />
    <glyph glyph-name="Odieresis" unicode="&#xd6;" horiz-adv-x="885" 
d="M442 -25c-227 0 -385 156 -385 379c0 222 158 379 385 379c228 0 386 -157 386 -379c0 -223 -158 -379 -386 -379zM442 628c-155 0 -265 -114 -265 -274s110 -274 265 -275c156 0 266 115 266 275s-110 274 -266 274zM327 785c-38 0 -65 26 -65 64c0 37 27 63 65 63
s64 -26 64 -63c0 -38 -26 -64 -64 -64zM559 785c-38 0 -65 26 -65 64c0 37 27 63 65 63c37 0 64 -26 64 -63c0 -38 -27 -64 -64 -64z" />
    <glyph glyph-name="multiply" unicode="&#xd7;" horiz-adv-x="416" 
d="M112 128l-64 64l98 104l-98 104l64 63l96 -102l96 102l64 -63l-98 -104l98 -104l-63 -63l-97 101z" />
    <glyph glyph-name="Oslash" unicode="&#xd8;" horiz-adv-x="865" 
d="M432 628c-148 0 -255 -115 -255 -274c0 -96 40 -175 104 -223l243 481c-28 10 -60 16 -92 16zM432 79c149 0 256 115 256 275c0 89 -35 165 -92 213l-240 -477c24 -7 50 -11 76 -11zM307 -6l-67 -134h-95l85 169c-107 64 -173 182 -173 325c0 220 157 379 375 379
c50 0 98 -9 140 -25l77 152l96 1l-96 -191c98 -66 159 -180 159 -316c0 -220 -157 -379 -376 -379c-45 0 -86 7 -125 19z" />
    <glyph glyph-name="Ugrave" unicode="&#xd9;" horiz-adv-x="771" 
d="M565 291v417h121v-419c0 -183 -125 -314 -300 -314c-176 0 -301 131 -301 314v419h121v-417c0 -110 70 -211 180 -212c107 0 179 90 179 212zM206 926h118l113 -148h-108z" />
    <glyph glyph-name="Uacute" unicode="&#xda;" horiz-adv-x="771" 
d="M565 291v417h121v-419c0 -183 -125 -314 -300 -314c-176 0 -301 131 -301 314v419h121v-417c0 -110 70 -211 180 -212c107 0 179 90 179 212zM435 926h118l-123 -148h-108z" />
    <glyph glyph-name="Ucircumflex" unicode="&#xdb;" horiz-adv-x="771" 
d="M565 291v417h121v-419c0 -183 -125 -314 -300 -314c-176 0 -301 131 -301 314v419h121v-417c0 -110 70 -211 180 -212c107 0 179 90 179 212zM305 778h-93l118 148h111l118 -148h-93l-81 95z" />
    <glyph glyph-name="Udieresis" unicode="&#xdc;" horiz-adv-x="771" 
d="M565 291v417h121v-419c0 -183 -125 -314 -300 -314c-176 0 -301 131 -301 314v419h121v-417c0 -110 70 -211 180 -212c107 0 179 90 179 212zM270 785c-38 0 -64 26 -64 64c0 37 26 63 64 63s65 -26 65 -63c0 -38 -27 -64 -65 -64zM502 785c-38 0 -65 26 -65 64
c0 37 27 63 65 63s64 -26 64 -63c0 -38 -26 -64 -64 -64z" />
    <glyph glyph-name="Yacute" unicode="&#xdd;" horiz-adv-x="681" 
d="M282 0v252l-255 456h130l185 -345l180 345h133l-253 -456v-252h-120zM390 926h117l-122 -148h-108z" />
    <glyph glyph-name="germandbls" unicode="&#xdf;" horiz-adv-x="714" 
d="M201 473v-473h-120v480c0 144 107 247 261 247c143 0 245 -83 245 -198c0 -77 -43 -138 -104 -149c95 -14 164 -97 164 -201c0 -118 -94 -204 -220 -204c-57 0 -113 18 -165 44l29 89c39 -22 81 -37 120 -37c69 0 116 50 116 119c0 82 -44 142 -148 142h-45v86h46
c53 0 90 43 90 102c0 64 -54 110 -130 110c-83 0 -139 -61 -139 -157z" />
    <glyph glyph-name="agrave" unicode="&#xe0;" horiz-adv-x="673" 
d="M324 77c97 0 167 74 167 177s-70 177 -167 177s-168 -74 -168 -177c0 -102 71 -177 168 -177zM492 432v76h109v-508h-109v76c-43 -60 -110 -96 -189 -96c-149 0 -255 115 -255 274s106 274 255 274c79 0 146 -36 189 -96zM269 568l-138 168h113l125 -168h-100z" />
    <glyph glyph-name="aacute" unicode="&#xe1;" horiz-adv-x="673" 
d="M324 77c97 0 167 74 167 177s-70 177 -167 177s-168 -74 -168 -177c0 -102 71 -177 168 -177zM492 432v76h109v-508h-109v76c-43 -60 -110 -96 -189 -96c-149 0 -255 115 -255 274s106 274 255 274c79 0 146 -36 189 -96zM256 568l124 168h114l-139 -168h-99z" />
    <glyph glyph-name="acircumflex" unicode="&#xe2;" horiz-adv-x="673" 
d="M324 77c97 0 167 74 167 177s-70 177 -167 177s-168 -74 -168 -177c0 -102 71 -177 168 -177zM492 432v76h109v-508h-109v76c-43 -60 -110 -96 -189 -96c-149 0 -255 115 -255 274s106 274 255 274c79 0 146 -36 189 -96zM315 682l-81 -114h-90l115 168h111l117 -168h-92
z" />
    <glyph glyph-name="atilde" unicode="&#xe3;" horiz-adv-x="673" 
d="M324 77c97 0 167 74 167 177s-70 177 -167 177s-168 -74 -168 -177c0 -102 71 -177 168 -177zM492 432v76h109v-508h-109v76c-43 -60 -110 -96 -189 -96c-149 0 -255 115 -255 274s106 274 255 274c79 0 146 -36 189 -96zM200 593l-54 28c19 44 66 77 118 77
c70 0 94 -57 142 -57c25 0 48 15 59 38l55 -29c-19 -45 -65 -77 -122 -77c-76 0 -95 56 -142 56c-24 0 -44 -15 -56 -36z" />
    <glyph glyph-name="adieresis" unicode="&#xe4;" horiz-adv-x="673" 
d="M324 77c97 0 167 74 167 177s-70 177 -167 177s-168 -74 -168 -177c0 -102 71 -177 168 -177zM492 432v76h109v-508h-109v76c-43 -60 -110 -96 -189 -96c-149 0 -255 115 -255 274s106 274 255 274c79 0 146 -36 189 -96zM189 580c-37 0 -64 26 -64 63c0 36 27 62 64 62
c38 0 65 -26 65 -62c0 -37 -27 -63 -65 -63zM438 580c-37 0 -64 26 -64 63c0 36 27 62 64 62c38 0 65 -26 65 -62c0 -37 -27 -63 -65 -63z" />
    <glyph glyph-name="aring" unicode="&#xe5;" horiz-adv-x="673" 
d="M324 77c97 0 167 74 167 177s-70 177 -167 177s-168 -74 -168 -177c0 -102 71 -177 168 -177zM314 740c-37 0 -63 -25 -62 -62c0 -36 25 -62 62 -62c36 0 62 26 62 62c0 37 -26 62 -62 62zM492 432v76h109v-508h-109v76c-43 -60 -110 -96 -189 -96
c-149 0 -255 115 -255 274s106 274 255 274c79 0 146 -36 189 -96zM314 558c-75 0 -128 50 -128 120c0 71 53 120 128 120s127 -49 127 -120c0 -70 -52 -120 -127 -120z" />
    <glyph glyph-name="ae" unicode="&#xe6;" horiz-adv-x="1071" 
d="M325 439c-99 0 -169 -77 -169 -185c0 -107 71 -185 169 -185c95 0 169 73 169 185c0 108 -71 185 -169 185zM592 286h322c-4 86 -70 150 -163 150c-86 0 -148 -61 -159 -150zM489 435v73h78v-83c35 63 99 103 191 103c155 0 265 -113 265 -268c0 -15 -1 -36 -2 -52h-426
c16 -82 80 -137 166 -137c67 0 127 39 141 93l99 -13c-18 -99 -116 -171 -234 -171c-88 0 -166 43 -200 106v-86h-78v72c-44 -58 -111 -92 -190 -92c-146 0 -251 114 -251 274c0 159 105 274 251 274c79 0 146 -36 190 -93z" />
    <glyph glyph-name="ccedilla" unicode="&#xe7;" horiz-adv-x="618" 
d="M323 -106h-44l13 87c-143 11 -244 122 -244 273c0 159 113 274 268 274c129 0 235 -81 253 -193l-104 -13c-16 66 -78 113 -148 113c-90 0 -161 -76 -161 -181c1 -105 70 -181 161 -181c72 0 131 47 149 112l104 -13c-19 -100 -107 -175 -216 -190l-7 -52
c66 0 110 -40 110 -101c0 -59 -46 -99 -116 -99c-54 0 -100 32 -110 78l47 18c10 -27 34 -46 59 -46c33 0 54 21 54 54c0 36 -26 60 -68 60z" />
    <glyph glyph-name="egrave" unicode="&#xe8;" horiz-adv-x="638" 
d="M161 301h316c-12 80 -76 136 -160 136c-82 0 -142 -55 -156 -136zM48 260c0 156 114 268 272 268s270 -112 270 -269c0 -12 -1 -27 -2 -39l-428 1c13 -90 76 -150 159 -150c68 0 131 40 150 96l102 -15c-29 -100 -134 -172 -250 -172c-159 0 -273 117 -273 280zM277 568
l-138 168h114l124 -168h-100z" />
    <glyph glyph-name="eacute" unicode="&#xe9;" horiz-adv-x="638" 
d="M161 301h316c-12 80 -76 136 -160 136c-82 0 -142 -55 -156 -136zM48 260c0 156 114 268 272 268s270 -112 270 -269c0 -12 -1 -27 -2 -39l-428 1c13 -90 76 -150 159 -150c68 0 131 40 150 96l102 -15c-29 -100 -134 -172 -250 -172c-159 0 -273 117 -273 280zM264 568
l124 168h114l-138 -168h-100z" />
    <glyph glyph-name="ecircumflex" unicode="&#xea;" horiz-adv-x="638" 
d="M161 301h316c-12 80 -76 136 -160 136c-82 0 -142 -55 -156 -136zM48 260c0 156 114 268 272 268s270 -112 270 -269c0 -12 -1 -27 -2 -39l-428 1c13 -90 76 -150 159 -150c68 0 131 40 150 96l102 -15c-29 -100 -134 -172 -250 -172c-159 0 -273 117 -273 280zM323 682
l-80 -114h-91l116 168h110l117 -168h-92z" />
    <glyph glyph-name="edieresis" unicode="&#xeb;" horiz-adv-x="638" 
d="M161 301h316c-12 80 -76 136 -160 136c-82 0 -142 -55 -156 -136zM48 260c0 156 114 268 272 268s270 -112 270 -269c0 -12 -1 -27 -2 -39l-428 1c13 -90 76 -150 159 -150c68 0 131 40 150 96l102 -15c-29 -100 -134 -172 -250 -172c-159 0 -273 117 -273 280zM198 580
c-38 0 -65 26 -65 63c0 36 27 62 65 62c37 0 64 -26 64 -62c0 -37 -27 -63 -64 -63zM447 580c-38 0 -65 26 -65 63c0 36 27 62 65 62c37 0 64 -26 64 -62c0 -37 -27 -63 -64 -63z" />
    <glyph glyph-name="igrave" unicode="&#xec;" horiz-adv-x="256" 
d="M76 508h108v-508h-108v508zM-54 736h114l124 -168h-99z" />
    <glyph glyph-name="iacute" unicode="&#xed;" horiz-adv-x="260" 
d="M76 508h108v-508h-108v508zM196 736h113l-138 -168h-100z" />
    <glyph glyph-name="icircumflex" unicode="&#xee;" horiz-adv-x="256" 
d="M72 508h109v-508h-109v508zM47 568h-91l116 168h111l116 -168h-91l-80 114z" />
    <glyph glyph-name="idieresis" unicode="&#xef;" horiz-adv-x="263" 
d="M77 508h109v-508h-109v508zM7 580c-38 0 -65 26 -65 63c0 36 27 62 65 62s64 -26 64 -62c0 -37 -26 -63 -64 -63zM256 580c-38 0 -65 26 -65 63c0 36 27 62 65 62s64 -26 64 -62c0 -37 -26 -63 -64 -63z" />
    <glyph glyph-name="ntilde" unicode="&#xf1;" 
d="M72 0v508h107v-65c36 53 99 85 165 85c124 0 205 -92 205 -218v-310h-108v302c0 75 -45 129 -121 129s-139 -58 -139 -139v-292h-109zM179 593l-54 28c19 44 66 77 118 77c70 0 94 -57 143 -57c25 0 47 15 58 38l55 -29c-19 -45 -65 -77 -121 -77c-76 0 -95 56 -142 56
c-24 0 -45 -15 -57 -36z" />
    <glyph glyph-name="ograve" unicode="&#xf2;" horiz-adv-x="648" 
d="M324 528c162 0 276 -113 276 -274s-114 -274 -276 -274c-163 0 -276 113 -276 274s113 274 276 274zM324 77c97 0 167 74 167 177s-70 177 -167 177c-98 0 -168 -74 -168 -177s70 -177 168 -177zM141 736h113l125 -168h-100z" />
    <glyph glyph-name="oacute" unicode="&#xf3;" horiz-adv-x="648" 
d="M324 77c97 0 167 74 167 177s-70 177 -167 177c-98 0 -168 -74 -168 -177s70 -177 168 -177zM324 528c162 0 276 -113 276 -274s-114 -274 -276 -274c-163 0 -276 113 -276 274s113 274 276 274zM266 568l124 168h114l-139 -168h-99z" />
    <glyph glyph-name="ocircumflex" unicode="&#xf4;" horiz-adv-x="648" 
d="M324 77c97 0 167 74 167 177s-70 177 -167 177c-98 0 -168 -74 -168 -177s70 -177 168 -177zM324 528c162 0 276 -113 276 -274s-114 -274 -276 -274c-163 0 -276 113 -276 274s113 274 276 274zM325 682l-81 -114h-90l115 168h111l117 -168h-92z" />
    <glyph glyph-name="otilde" unicode="&#xf5;" horiz-adv-x="648" 
d="M324 77c97 0 167 74 167 177s-70 177 -167 177c-98 0 -168 -74 -168 -177s70 -177 168 -177zM324 528c162 0 276 -113 276 -274s-114 -274 -276 -274c-163 0 -276 113 -276 274s113 274 276 274zM201 593l-54 28c19 44 66 77 118 77c70 0 94 -57 142 -57
c26 0 48 15 59 38l55 -29c-19 -45 -65 -77 -121 -77c-76 0 -95 56 -142 56c-24 0 -45 -15 -57 -36z" />
    <glyph glyph-name="odieresis" unicode="&#xf6;" horiz-adv-x="648" 
d="M324 528c162 0 276 -113 276 -274s-114 -274 -276 -274c-163 0 -276 113 -276 274s113 274 276 274zM324 77c97 0 167 74 167 177s-70 177 -167 177c-98 0 -168 -74 -168 -177s70 -177 168 -177zM199 580c-37 0 -64 26 -64 63c0 36 27 62 64 62c38 0 65 -26 65 -62
c0 -37 -27 -63 -65 -63zM448 580c-37 0 -64 26 -64 63c0 36 27 62 64 62c38 0 65 -26 65 -62c0 -37 -27 -63 -65 -63z" />
    <glyph glyph-name="divide" unicode="&#xf7;" horiz-adv-x="546" 
d="M273 20c-34 0 -59 24 -59 58c0 33 25 57 59 57s59 -24 59 -57c0 -34 -25 -58 -59 -58zM48 331h450v-91h-450v91zM273 422c-34 0 -59 24 -59 58c0 33 25 57 59 57s59 -24 59 -57c0 -34 -25 -58 -59 -58z" />
    <glyph glyph-name="oslash" unicode="&#xf8;" horiz-adv-x="656" 
d="M328 447c-107 0 -183 -81 -183 -193c0 -67 27 -122 71 -156l171 340c-18 6 -39 9 -59 9zM328 61c106 0 182 80 182 193c0 60 -22 110 -58 145l-168 -334c14 -3 29 -4 44 -4zM246 -10l-34 -70h-87l50 99c-79 46 -127 130 -127 235c0 161 115 274 280 274
c35 0 67 -5 97 -15l43 87h87l-61 -120c70 -48 114 -128 114 -226c0 -161 -116 -274 -280 -274c-29 0 -56 3 -82 10z" />
    <glyph glyph-name="ugrave" unicode="&#xf9;" 
d="M539 0h-107v65c-35 -53 -99 -85 -164 -85c-125 0 -206 92 -206 218v310h109v-302c0 -75 44 -129 121 -129c75 0 139 58 139 139v292h108v-508zM126 735h113l125 -168h-100z" />
    <glyph glyph-name="uacute" unicode="&#xfa;" 
d="M539 0h-107v65c-35 -53 -99 -85 -164 -85c-125 0 -206 92 -206 218v310h109v-302c0 -75 44 -129 121 -129c75 0 139 58 139 139v292h108v-508zM366 735h114l-138 -168h-100z" />
    <glyph glyph-name="ucircumflex" unicode="&#xfb;" 
d="M539 0h-107v65c-35 -53 -99 -85 -164 -85c-125 0 -206 92 -206 218v310h109v-302c0 -75 44 -129 121 -129c75 0 139 58 139 139v292h108v-508zM221 567h-91l116 168h110l117 -168h-92l-80 114z" />
    <glyph glyph-name="udieresis" unicode="&#xfc;" 
d="M539 0h-107v65c-35 -53 -99 -85 -164 -85c-125 0 -206 92 -206 218v310h109v-302c0 -75 44 -129 121 -129c75 0 139 58 139 139v292h108v-508zM176 579c-38 0 -65 26 -65 63c0 36 27 62 65 62s64 -26 64 -62c0 -37 -26 -63 -64 -63zM425 579c-38 0 -65 26 -65 63
c0 36 27 62 65 62c37 0 64 -26 64 -62c0 -37 -27 -63 -64 -63z" />
    <glyph glyph-name="yacute" unicode="&#xfd;" horiz-adv-x="583" 
d="M72 -209v88c22 -8 47 -14 67 -14c70 0 91 70 117 133l-229 510h119l159 -375l138 375h114l-199 -520c-44 -117 -89 -214 -197 -214c-29 0 -63 6 -89 17zM234 568l124 168h113l-138 -168h-99z" />
    <glyph glyph-name="ydieresis" unicode="&#xff;" horiz-adv-x="583" 
d="M72 -209v88c22 -8 47 -14 67 -14c70 0 91 70 117 133l-229 510h119l159 -375l138 375h114l-199 -520c-44 -117 -89 -214 -197 -214c-29 0 -63 6 -89 17zM167 580c-37 0 -64 26 -64 63c0 36 27 62 64 62c38 0 65 -26 65 -62c0 -37 -27 -63 -65 -63zM416 580
c-37 0 -64 26 -64 63c0 36 27 62 64 62c38 0 65 -26 65 -62c0 -37 -27 -63 -65 -63z" />
    <glyph glyph-name="Amacron" unicode="&#x100;" horiz-adv-x="733" 
d="M367 604l-139 -382h279zM202 132l-47 -132h-128l253 708h174l252 -708h-127l-47 132h-330zM209 876h322v-69h-322v69z" />
    <glyph glyph-name="amacron" unicode="&#x101;" horiz-adv-x="673" 
d="M324 77c97 0 167 74 167 177s-70 177 -167 177s-168 -74 -168 -177c0 -102 71 -177 168 -177zM492 432v76h109v-508h-109v76c-43 -60 -110 -96 -189 -96c-149 0 -255 115 -255 274s106 274 255 274c79 0 146 -36 189 -96zM150 666h322v-69h-322v69z" />
    <glyph glyph-name="Abreve" unicode="&#x102;" horiz-adv-x="733" 
d="M367 604l-139 -382h279zM202 132l-47 -132h-128l253 708h174l252 -708h-127l-47 132h-330zM433 926h76c0 -87 -47 -148 -139 -148c-93 0 -140 62 -140 148h76c0 -46 27 -79 64 -79s63 33 63 79z" />
    <glyph glyph-name="abreve" unicode="&#x103;" horiz-adv-x="673" 
d="M324 77c97 0 167 74 167 177s-70 177 -167 177s-168 -74 -168 -177c0 -102 71 -177 168 -177zM492 432v76h109v-508h-109v76c-43 -60 -110 -96 -189 -96c-149 0 -255 115 -255 274s106 274 255 274c79 0 146 -36 189 -96zM374 736h77c0 -88 -40 -168 -140 -168
c-101 0 -140 80 -140 168h78c0 -58 25 -98 62 -98s63 40 63 98z" />
    <glyph glyph-name="Aogonek" unicode="&#x104;" horiz-adv-x="778" 
d="M367 604l-139 -382h279zM615 0h-36l-47 132h-330l-47 -132h-128l253 708h174l252 -708h-5c-83 -23 -109 -58 -109 -96c0 -69 65 -112 159 -116v-67c-133 0 -225 69 -225 168c0 49 32 89 89 111z" />
    <glyph glyph-name="aogonek" unicode="&#x105;" horiz-adv-x="717" 
d="M324 77c97 0 167 74 167 177s-70 177 -167 177s-168 -74 -168 -177c0 -102 71 -177 168 -177zM509 0h-17v76c-43 -60 -110 -96 -189 -96c-149 0 -255 115 -255 274s106 274 255 274c79 0 146 -36 189 -96v76h109v-508h-7c-83 -23 -109 -58 -109 -96
c0 -69 66 -112 160 -116v-67c-133 0 -226 69 -226 168c0 49 33 89 90 111z" />
    <glyph glyph-name="Cacute" unicode="&#x106;" horiz-adv-x="824" 
d="M428 79c104 0 198 70 225 167l114 -19c-32 -146 -175 -252 -340 -252c-215 0 -371 159 -370 379c0 220 155 379 370 379c165 0 308 -111 340 -263l-115 -14c-24 100 -118 172 -224 172c-147 0 -251 -114 -251 -274c1 -160 105 -275 251 -275zM458 926h118l-123 -148h-108
z" />
    <glyph glyph-name="cacute" unicode="&#x107;" horiz-adv-x="618" 
d="M316 528c129 0 235 -81 253 -193l-104 -13c-16 66 -78 113 -148 113c-90 0 -161 -76 -161 -181c1 -105 70 -181 161 -181c72 0 131 47 149 112l104 -13c-21 -111 -128 -192 -253 -192c-156 0 -269 115 -269 274s113 274 268 274zM382 736h113l-138 -168h-100z" />
    <glyph glyph-name="Ccircumflex" unicode="&#x108;" horiz-adv-x="824" 
d="M428 79c104 0 198 70 225 167l114 -19c-32 -146 -175 -252 -340 -252c-215 0 -371 159 -370 379c0 220 155 379 370 379c165 0 308 -111 340 -263l-115 -14c-24 100 -118 172 -224 172c-147 0 -251 -114 -251 -274c1 -160 105 -275 251 -275zM329 778h-94l118 148h111
l118 -148h-93l-80 95z" />
    <glyph glyph-name="ccircumflex" unicode="&#x109;" horiz-adv-x="618" 
d="M316 528c129 0 235 -81 253 -193l-104 -13c-16 66 -78 113 -148 113c-90 0 -161 -76 -161 -181c1 -105 70 -181 161 -181c72 0 131 47 149 112l104 -13c-21 -111 -128 -192 -253 -192c-156 0 -269 115 -269 274s113 274 268 274zM236 568h-91l116 168h110l117 -168h-92
l-79 114z" />
    <glyph glyph-name="Cdotaccent" unicode="&#x10a;" horiz-adv-x="824" 
d="M428 79c104 0 198 70 225 167l114 -19c-32 -146 -175 -252 -340 -252c-215 0 -371 159 -370 379c0 220 155 379 370 379c165 0 308 -111 340 -263l-115 -14c-24 100 -118 172 -224 172c-147 0 -251 -114 -251 -274c1 -160 105 -275 251 -275zM409 778
c-39 0 -66 24 -66 62c1 36 28 61 66 61c40 0 66 -25 66 -61c0 -38 -26 -62 -66 -62z" />
    <glyph glyph-name="cdotaccent" unicode="&#x10b;" horiz-adv-x="618" 
d="M316 528c129 0 235 -81 253 -193l-104 -13c-16 66 -78 113 -148 113c-90 0 -161 -76 -161 -181c1 -105 70 -181 161 -181c72 0 131 47 149 112l104 -13c-21 -111 -128 -192 -253 -192c-156 0 -269 115 -269 274s113 274 268 274zM315 595c-38 0 -65 27 -65 65
s27 65 65 65c39 0 66 -27 66 -65s-27 -65 -66 -65z" />
    <glyph glyph-name="Ccaron" unicode="&#x10c;" horiz-adv-x="824" 
d="M428 79c104 0 198 70 225 167l114 -19c-32 -146 -175 -252 -340 -252c-215 0 -371 159 -370 379c0 220 155 379 370 379c165 0 308 -111 340 -263l-115 -14c-24 100 -118 172 -224 172c-147 0 -251 -114 -251 -274c1 -160 105 -275 251 -275zM489 947h92l-117 -168h-110
l-116 168h91l80 -114z" />
    <glyph glyph-name="ccaron" unicode="&#x10d;" horiz-adv-x="618" 
d="M316 528c129 0 235 -81 253 -193l-104 -13c-16 66 -78 113 -148 113c-90 0 -161 -76 -161 -181c1 -105 70 -181 161 -181c72 0 131 47 149 112l104 -13c-21 -111 -128 -192 -253 -192c-156 0 -269 115 -269 274s113 274 268 274zM395 736h92l-117 -168h-110l-116 168h91
l80 -114z" />
    <glyph glyph-name="Dcaron" unicode="&#x10e;" horiz-adv-x="798" 
d="M622 354c0 156 -117 254 -290 254h-122v-508h122c173 0 290 98 290 254zM332 0h-241v708h241c246 0 410 -141 410 -354s-164 -354 -410 -354zM367 832l80 114h92l-117 -168h-111l-115 168h90z" />
    <glyph glyph-name="dcaron" unicode="&#x10f;" horiz-adv-x="780" 
d="M324 426c-97 0 -168 -73 -168 -172c0 -101 72 -172 168 -172c97 0 167 73 167 172s-70 172 -167 172zM48 254c0 159 107 274 255 274c76 0 141 -33 184 -89v299h109v-738h-106v71c-44 -57 -109 -91 -187 -91c-147 0 -255 115 -255 274zM702 619c-30 0 -50 22 -50 54
c0 34 22 56 55 56c37 0 63 -29 63 -72c0 -56 -30 -118 -73 -148l-39 23c25 22 44 57 44 87z" />
    <glyph glyph-name="Dcroat" unicode="&#x110;" horiz-adv-x="840" 
d="M132 443v265h241c246 0 410 -141 410 -354s-164 -354 -410 -354h-241v356h-105v87h105zM664 354c0 156 -117 254 -291 254h-122v-165h176v-87h-176v-256h122c174 0 291 98 291 254z" />
    <glyph glyph-name="dcroat" unicode="&#x111;" horiz-adv-x="710" 
d="M324 426c-97 0 -168 -73 -168 -172c0 -101 72 -172 168 -172c97 0 167 73 167 172s-70 172 -167 172zM487 439v155h-190v70h190v74h109v-74h87v-70h-87v-594h-106v71c-44 -57 -109 -91 -187 -91c-147 0 -255 115 -255 274s107 274 255 274c76 0 141 -33 184 -89z" />
    <glyph glyph-name="Emacron" unicode="&#x112;" horiz-adv-x="647" 
d="M207 319v-217h384v-102h-500v708h490v-102h-374v-195h334v-92h-334zM499 876v-69h-322v69h322z" />
    <glyph glyph-name="emacron" unicode="&#x113;" horiz-adv-x="638" 
d="M161 301h316c-12 80 -76 136 -160 136c-82 0 -142 -55 -156 -136zM48 260c0 156 114 268 272 268s270 -112 270 -269c0 -12 -1 -27 -2 -39l-428 1c13 -90 76 -150 159 -150c68 0 131 40 150 96l102 -15c-29 -100 -134 -172 -250 -172c-159 0 -273 117 -273 280zM161 666
h322v-69h-322v69z" />
    <glyph glyph-name="Ebreve" unicode="&#x114;" horiz-adv-x="647" 
d="M541 319h-334v-217h384v-102h-500v708h490v-102h-374v-195h334v-92zM401 926h76c0 -87 -46 -148 -139 -148s-140 62 -140 148h77c0 -46 26 -79 63 -79s63 33 63 79z" />
    <glyph glyph-name="ebreve" unicode="&#x115;" horiz-adv-x="638" 
d="M161 301h316c-12 80 -76 136 -160 136c-82 0 -142 -55 -156 -136zM48 260c0 156 114 268 272 268s270 -112 270 -269c0 -12 -1 -27 -2 -39l-428 1c13 -90 76 -150 159 -150c68 0 131 40 150 96l102 -15c-29 -100 -134 -172 -250 -172c-159 0 -273 117 -273 280zM385 736
h77c0 -88 -40 -168 -140 -168c-101 0 -140 80 -140 168h78c0 -58 25 -98 62 -98s63 40 63 98z" />
    <glyph glyph-name="Edotaccent" unicode="&#x116;" horiz-adv-x="647" 
d="M207 319v-217h384v-102h-500v708h490v-102h-374v-195h334v-92h-334zM338 778c-39 0 -66 24 -66 62c1 36 28 61 66 61c39 0 66 -25 66 -61c0 -38 -27 -62 -66 -62z" />
    <glyph glyph-name="edotaccent" unicode="&#x117;" horiz-adv-x="638" 
d="M161 301h316c-12 80 -76 136 -160 136c-82 0 -142 -55 -156 -136zM48 260c0 156 114 268 272 268s270 -112 270 -269c0 -12 -1 -27 -2 -39l-428 1c13 -90 76 -150 159 -150c68 0 131 40 150 96l102 -15c-29 -100 -134 -172 -250 -172c-159 0 -273 117 -273 280zM322 595
c-38 0 -66 27 -66 65s28 65 66 65c39 0 66 -27 66 -65s-27 -65 -66 -65z" />
    <glyph glyph-name="Eogonek" unicode="&#x118;" horiz-adv-x="647" 
d="M456 0h-365v708h490v-102h-374v-195h334v-92h-334v-217h384v-102h-49c-84 -23 -111 -58 -111 -96c0 -70 66 -113 160 -116v-67c-133 0 -226 69 -226 167c0 50 33 90 91 112z" />
    <glyph glyph-name="eogonek" unicode="&#x119;" horiz-adv-x="638" 
d="M161 301h316c-12 80 -76 136 -160 136c-82 0 -142 -55 -156 -136zM303 -19c-149 8 -255 122 -255 279c0 156 114 268 272 268s270 -112 270 -269c0 -12 -1 -27 -2 -39l-428 1c13 -90 76 -150 159 -150c68 0 131 40 150 96l102 -15c-20 -68 -75 -123 -145 -152h2
c-4 -1 -9 -2 -13 -4c-4 -1 -9 -3 -14 -4c-64 -23 -85 -54 -85 -89c0 -69 65 -112 159 -116v-67c-133 0 -226 69 -226 168c0 38 20 70 54 93z" />
    <glyph glyph-name="Ecaron" unicode="&#x11a;" horiz-adv-x="647" 
d="M207 319v-217h384v-102h-500v708h490v-102h-374v-195h334v-92h-334zM418 946h92l-117 -168h-111l-115 168h90l81 -114z" />
    <glyph glyph-name="ecaron" unicode="&#x11b;" horiz-adv-x="638" 
d="M161 301h316c-12 80 -76 136 -160 136c-82 0 -142 -55 -156 -136zM48 260c0 156 114 268 272 268s270 -112 270 -269c0 -12 -1 -27 -2 -39l-428 1c13 -90 76 -150 159 -150c68 0 131 40 150 96l102 -15c-29 -100 -134 -172 -250 -172c-159 0 -273 117 -273 280zM322 622
l80 114h92l-117 -168h-111l-115 168h90z" />
    <glyph glyph-name="Gcircumflex" unicode="&#x11c;" horiz-adv-x="871" 
d="M444 79c139 0 250 100 251 229h-256v88h374c19 -244 -136 -421 -371 -421c-224 0 -385 159 -385 379s161 379 385 379c166 0 307 -105 340 -250l-113 -21c-26 97 -122 166 -227 166c-155 0 -265 -113 -265 -274c0 -159 112 -275 267 -275zM362 778h-94l118 148h112
l118 -148h-93l-81 95z" />
    <glyph glyph-name="gcircumflex" unicode="&#x11d;" horiz-adv-x="668" 
d="M324 83c97 0 167 72 167 171c0 103 -70 177 -167 177s-168 -74 -168 -177c0 -99 71 -171 168 -171zM326 -158c94 0 161 61 161 168v65c-43 -54 -107 -85 -183 -85c-148 0 -256 110 -256 264c0 158 108 272 256 272c79 0 141 -33 184 -87v69h108v-499
c0 -164 -111 -259 -266 -259c-133 0 -243 84 -261 201l100 12c17 -70 83 -121 157 -121zM323 682l-81 -114h-91l116 168h110l117 -168h-92z" />
    <glyph glyph-name="Gbreve" unicode="&#x11e;" horiz-adv-x="871" 
d="M444 79c139 0 250 100 251 229h-256v88h374c19 -244 -136 -421 -371 -421c-224 0 -385 159 -385 379s161 379 385 379c166 0 307 -105 340 -250l-113 -21c-26 97 -122 166 -227 166c-155 0 -265 -113 -265 -274c0 -159 112 -275 267 -275zM506 926h75
c0 -87 -46 -148 -139 -148s-139 62 -139 148h76c0 -46 26 -79 63 -79c38 0 64 33 64 79z" />
    <glyph glyph-name="gbreve" unicode="&#x11f;" horiz-adv-x="668" 
d="M324 83c97 0 167 72 167 171c0 103 -70 177 -167 177s-168 -74 -168 -177c0 -99 71 -171 168 -171zM326 -158c94 0 161 61 161 168v65c-43 -54 -107 -85 -183 -85c-148 0 -256 110 -256 264c0 158 108 272 256 272c79 0 141 -33 184 -87v69h108v-499
c0 -164 -111 -259 -266 -259c-133 0 -243 84 -261 201l100 12c17 -70 83 -121 157 -121zM384 736h77c0 -88 -39 -168 -140 -168c-100 0 -139 80 -139 168h77c0 -58 26 -98 62 -98c37 0 63 40 63 98z" />
    <glyph glyph-name="Gdotaccent" unicode="&#x120;" horiz-adv-x="871" 
d="M444 79c139 0 250 100 251 229h-256v88h374c19 -244 -136 -421 -371 -421c-224 0 -385 159 -385 379s161 379 385 379c166 0 307 -105 340 -250l-113 -21c-26 97 -122 166 -227 166c-155 0 -265 -113 -265 -274c0 -159 112 -275 267 -275zM442 778c-39 0 -65 24 -65 62
c0 36 27 61 65 61c40 0 66 -25 66 -61c0 -38 -26 -62 -66 -62z" />
    <glyph glyph-name="gdotaccent" unicode="&#x121;" horiz-adv-x="668" 
d="M324 83c97 0 167 72 167 171c0 103 -70 177 -167 177s-168 -74 -168 -177c0 -99 71 -171 168 -171zM326 -158c94 0 161 61 161 168v65c-43 -54 -107 -85 -183 -85c-148 0 -256 110 -256 264c0 158 108 272 256 272c79 0 141 -33 184 -87v69h108v-499
c0 -164 -111 -259 -266 -259c-133 0 -243 84 -261 201l100 12c17 -70 83 -121 157 -121zM321 595c-38 0 -65 27 -65 65s27 65 65 65c39 0 66 -27 66 -65s-27 -65 -66 -65z" />
    <glyph glyph-name="Gcommaaccent" unicode="&#x122;" horiz-adv-x="871" 
d="M444 79c139 0 250 100 251 229h-256v88h374c19 -244 -136 -421 -371 -421c-224 0 -385 159 -385 379s161 379 385 379c166 0 307 -105 340 -250l-113 -21c-26 97 -122 166 -227 166c-155 0 -265 -113 -265 -274c0 -159 112 -275 267 -275zM441 -190c-30 0 -50 23 -50 55
c0 33 21 55 54 55c38 0 64 -29 64 -72c0 -56 -31 -118 -74 -148l-38 23c25 22 44 58 44 87z" />
    <glyph glyph-name="gcommaaccent" unicode="&#x123;" horiz-adv-x="668" 
d="M324 83c97 0 167 72 167 171c0 103 -70 177 -167 177s-168 -74 -168 -177c0 -99 71 -171 168 -171zM326 -158c94 0 161 61 161 168v65c-43 -54 -107 -85 -183 -85c-148 0 -256 110 -256 264c0 158 108 272 256 272c79 0 141 -33 184 -87v69h108v-499
c0 -164 -111 -259 -266 -259c-133 0 -243 84 -261 201l100 12c17 -70 83 -121 157 -121zM333 677c30 0 50 -23 50 -55c0 -33 -22 -55 -55 -55c-38 0 -64 29 -64 72c0 56 31 118 74 148l39 -23c-26 -22 -44 -58 -44 -87z" />
    <glyph glyph-name="Itilde" unicode="&#x128;" horiz-adv-x="313" 
d="M91 0v708h121v-708h-121zM23 813l-54 36c19 45 64 78 117 78c71 0 96 -57 141 -57c26 0 49 18 62 45l55 -36c-19 -45 -65 -77 -122 -77c-76 0 -95 57 -138 57c-24 0 -45 -19 -61 -46z" />
    <glyph glyph-name="itilde" unicode="&#x129;" horiz-adv-x="273" 
d="M72 0v508h109v-508h-109zM3 593l-54 28c19 44 66 77 118 77c70 0 95 -57 143 -57c25 0 47 15 59 38l55 -29c-20 -45 -65 -77 -122 -77c-76 0 -95 56 -142 56c-24 0 -45 -15 -57 -36z" />
    <glyph glyph-name="Imacron" unicode="&#x12a;" horiz-adv-x="291" 
d="M85 708h120v-708h-120v708zM306 876v-69h-322v69h322z" />
    <glyph glyph-name="imacron" unicode="&#x12b;" horiz-adv-x="252" 
d="M72 508h108v-508h-108v508zM287 666v-69h-322v69h322z" />
    <glyph glyph-name="Iogonek" unicode="&#x12e;" horiz-adv-x="305" 
d="M121 0h-30v708h120v-708h-4c-83 -23 -109 -58 -109 -96c0 -69 65 -112 159 -116v-67c-133 0 -226 69 -226 168c0 49 33 89 90 111z" />
    <glyph glyph-name="iogonek" unicode="&#x12f;" horiz-adv-x="265" 
d="M102 0h-20v508h109v-508h-3c-85 -23 -112 -58 -112 -97c0 -69 66 -112 160 -115v-68c-133 0 -226 70 -226 168c0 50 34 90 92 112zM136 590c-39 0 -67 28 -67 67c0 38 28 65 67 65s67 -27 67 -65c0 -39 -28 -67 -67 -67z" />
    <glyph glyph-name="Idotaccent" unicode="&#x130;" horiz-adv-x="302" 
d="M91 708h120v-708h-120v708zM151 778c-39 0 -66 24 -66 62c1 36 28 61 66 61c40 0 66 -25 66 -61c0 -38 -26 -62 -66 -62z" />
    <glyph glyph-name="dotlessi" unicode="&#x131;" horiz-adv-x="253" 
d="M72 508h109v-508h-109v508z" />
    <glyph glyph-name="IJ" unicode="&#x132;" horiz-adv-x="739" 
d="M91 708h120v-708h-120v708zM528 221v487h120v-492c0 -139 -94 -236 -223 -236c-42 0 -95 8 -134 20v98c34 -10 76 -16 104 -16c78 0 133 55 133 139z" />
    <glyph glyph-name="ij" unicode="&#x133;" horiz-adv-x="519" 
d="M86 508h108v-508h-108v508zM326 -55v563h108v-576c0 -96 -60 -160 -150 -160c-33 0 -71 5 -96 14v90c18 -6 43 -9 63 -9c45 1 75 32 75 78zM140 590c-40 0 -68 28 -68 67c0 38 28 65 68 65c39 0 67 -27 67 -65c0 -39 -28 -67 -67 -67zM379 590c-39 0 -67 28 -67 67
c0 38 28 65 67 65c40 0 68 -27 68 -65c0 -39 -28 -67 -68 -67z" />
    <glyph glyph-name="Kcommaaccent" unicode="&#x136;" horiz-adv-x="661" 
d="M91 0v708h120v-294l273 294h150l-316 -334l325 -374h-151l-281 332v-332h-120zM340 -188c-30 0 -49 23 -49 55c0 34 21 56 54 56c38 0 64 -29 64 -72c0 -56 -31 -118 -74 -148l-39 23c26 22 44 57 44 86z" />
    <glyph glyph-name="kcommaaccent" unicode="&#x137;" horiz-adv-x="542" 
d="M72 0v738h109v-426l195 196h139l-236 -235l245 -273h-138l-205 232v-232h-109zM278 -181c-30 0 -50 23 -50 55c0 34 22 56 55 56c37 0 63 -29 63 -72c0 -56 -30 -118 -73 -149l-39 24c25 22 44 57 44 86z" />
    <glyph glyph-name="Lacute" unicode="&#x139;" horiz-adv-x="584" 
d="M545 0h-454v708h120v-604h334v-104zM208 926h118l-122 -148h-108z" />
    <glyph glyph-name="lacute" unicode="&#x13a;" horiz-adv-x="373" 
d="M72 738h109v-738h-109v738zM185 936h118l-123 -151h-107z" />
    <glyph glyph-name="Lcommaaccent" unicode="&#x13b;" horiz-adv-x="584" 
d="M545 104v-104h-454v708h120v-604h334zM314 -188c-30 0 -50 23 -50 55c0 34 21 56 54 56c38 0 64 -29 64 -72c0 -56 -31 -118 -74 -148l-39 23c26 22 45 57 45 86z" />
    <glyph glyph-name="lcommaaccent" unicode="&#x13c;" horiz-adv-x="262" 
d="M72 0v738h109v-738h-109zM122 -188c-30 0 -50 22 -50 54c0 34 21 56 55 56c37 0 63 -29 63 -72c0 -56 -31 -118 -74 -148l-38 23c25 22 44 57 44 87z" />
    <glyph glyph-name="Lcaron" unicode="&#x13d;" horiz-adv-x="585" 
d="M545 104v-104h-454v708h120v-604h334zM347 627c-30 0 -50 23 -50 55c0 33 21 56 55 56c37 0 63 -29 63 -72c0 -56 -30 -119 -74 -149l-38 24c25 22 44 57 44 86z" />
    <glyph glyph-name="lcaron" unicode="&#x13e;" horiz-adv-x="376" 
d="M72 738h109v-738h-109v738zM299 619c-30 0 -50 22 -50 54c0 34 21 56 54 56c38 0 64 -29 64 -72c0 -56 -31 -118 -74 -148l-39 23c26 22 45 57 45 87z" />
    <glyph glyph-name="Lslash" unicode="&#x141;" horiz-adv-x="520" 
d="M27 267l108 70v371h121v-293l315 203v-98l-315 -203v-213h333v-104h-454v239l-108 -70v98z" />
    <glyph glyph-name="lslash" unicode="&#x142;" horiz-adv-x="458" 
d="M430 463l-147 -94v-369h-109v299l-145 -93v98l145 94v340h109v-271l147 94v-98z" />
    <glyph glyph-name="Nacute" unicode="&#x143;" horiz-adv-x="772" 
d="M237 708l327 -562v562h117v-708h-146l-326 562v-562h-118v708h146zM436 926h117l-122 -148h-108z" />
    <glyph glyph-name="nacute" unicode="&#x144;" 
d="M72 508h107v-65c36 53 99 85 165 85c124 0 205 -92 205 -218v-310h-108v302c0 75 -45 129 -121 129s-139 -58 -139 -139v-292h-109v508zM391 736h113l-138 -168h-99z" />
    <glyph glyph-name="Ncommaaccent" unicode="&#x145;" horiz-adv-x="772" 
d="M91 708h146l327 -562v562h117v-708h-146l-326 562v-562h-118v708zM378 -189c-29 0 -49 22 -49 55s21 55 54 55c38 0 64 -29 64 -72c0 -56 -31 -118 -74 -148l-39 23c26 22 44 58 44 87z" />
    <glyph glyph-name="ncommaaccent" unicode="&#x146;" 
d="M72 508h107v-65c36 53 99 85 165 85c124 0 205 -92 205 -218v-310h-108v302c0 75 -45 129 -121 129s-139 -58 -139 -139v-292h-109v508zM305 -189c-30 0 -50 22 -50 55s21 55 55 55c37 0 63 -29 63 -72c0 -56 -31 -118 -74 -148l-38 23c25 22 44 57 44 87z" />
    <glyph glyph-name="Ncaron" unicode="&#x147;" horiz-adv-x="772" 
d="M237 708l327 -562v562h117v-708h-146l-326 562v-562h-118v708h146zM467 946h91l-116 -168h-111l-116 168h91l81 -114z" />
    <glyph glyph-name="ncaron" unicode="&#x148;" 
d="M72 508h107v-65c36 53 99 85 165 85c124 0 205 -92 205 -218v-310h-108v302c0 75 -45 129 -121 129s-139 -58 -139 -139v-292h-109v508zM405 736h91l-116 -168h-111l-116 168h91l81 -114z" />
    <glyph glyph-name="Omacron" unicode="&#x14c;" horiz-adv-x="885" 
d="M442 -25c-227 0 -385 156 -385 379c0 222 158 379 385 379c228 0 386 -157 386 -379c0 -223 -158 -379 -386 -379zM442 628c-155 0 -265 -114 -265 -274s110 -274 265 -275c156 0 266 115 266 275s-110 274 -266 274zM604 876v-69h-322v69h322z" />
    <glyph glyph-name="omacron" unicode="&#x14d;" horiz-adv-x="648" 
d="M324 528c162 0 276 -113 276 -274s-114 -274 -276 -274c-163 0 -276 113 -276 274s113 274 276 274zM324 77c97 0 167 74 167 177s-70 177 -167 177c-98 0 -168 -74 -168 -177s70 -177 168 -177zM485 666v-69h-322v69h322z" />
    <glyph glyph-name="Obreve" unicode="&#x14e;" horiz-adv-x="885" 
d="M442 628c-155 0 -265 -114 -265 -274s110 -274 265 -275c156 0 266 115 266 275s-110 274 -266 274zM442 -25c-227 0 -385 156 -385 379c0 222 158 379 385 379c228 0 386 -157 386 -379c0 -223 -158 -379 -386 -379zM506 926h76c0 -87 -47 -148 -139 -148
c-93 0 -140 62 -140 148h76c0 -46 26 -79 64 -79c37 0 63 33 63 79z" />
    <glyph glyph-name="obreve" unicode="&#x14f;" horiz-adv-x="648" 
d="M324 77c97 0 167 74 167 177s-70 177 -167 177c-98 0 -168 -74 -168 -177s70 -177 168 -177zM324 528c162 0 276 -113 276 -274s-114 -274 -276 -274c-163 0 -276 113 -276 274s113 274 276 274zM386 736h78c0 -88 -40 -168 -140 -168c-101 0 -140 80 -140 168h77
c0 -58 26 -98 63 -98s62 40 62 98z" />
    <glyph glyph-name="Ohungarumlaut" unicode="&#x150;" horiz-adv-x="885" 
d="M442 -25c-227 0 -385 156 -385 379c0 222 158 379 385 379c228 0 386 -157 386 -379c0 -223 -158 -379 -386 -379zM442 628c-155 0 -265 -114 -265 -274s110 -274 265 -275c156 0 266 115 266 275s-110 274 -266 274zM409 926h106l-122 -148h-87zM585 926h104l-129 -148
h-86z" />
    <glyph glyph-name="ohungarumlaut" unicode="&#x151;" horiz-adv-x="646" 
d="M323 528c162 0 276 -113 276 -274s-114 -274 -276 -274c-163 0 -276 113 -276 274s113 274 276 274zM323 77c97 0 168 74 168 177s-71 177 -168 177c-98 0 -167 -74 -167 -177s69 -177 167 -177zM301 748h110l-135 -180h-90zM478 748h109l-143 -180h-91z" />
    <glyph glyph-name="OE" unicode="&#x152;" horiz-adv-x="1069" 
d="M547 108v491c-25 12 -70 20 -111 20c-150 0 -259 -107 -259 -265c0 -156 106 -265 250 -265c46 0 94 7 120 19zM57 354c0 221 151 370 370 370c45 0 87 -5 123 -16h452v-102h-336v-200h296v-93h-296v-211h346v-102h-462c-33 -10 -83 -16 -123 -16
c-219 0 -370 149 -370 370z" />
    <glyph glyph-name="oe" unicode="&#x153;" horiz-adv-x="1082" 
d="M324 77c97 0 167 74 167 177s-70 177 -167 177c-98 0 -168 -74 -168 -177s70 -177 168 -177zM605 302l317 -1c-13 80 -77 136 -161 136c-82 0 -142 -55 -156 -135zM547 91c-46 -69 -124 -111 -223 -111c-163 0 -276 113 -276 274s113 274 276 274c97 0 175 -41 221 -109
c46 68 124 109 221 109c156 0 268 -112 268 -269c0 -11 -1 -27 -2 -38h-428c13 -90 76 -150 159 -150c68 0 131 41 150 96l101 -16c-30 -99 -134 -171 -247 -171c-96 0 -174 42 -220 111z" />
    <glyph glyph-name="Racute" unicode="&#x154;" horiz-adv-x="751" 
d="M403 609h-192v-257h192c92 0 160 53 160 126c0 83 -67 131 -160 131zM211 256v-256h-120v708h326c155 0 266 -95 266 -230c0 -95 -69 -179 -165 -204l177 -274h-138l-156 256h-190zM316 778l113 148h118l-123 -148h-108z" />
    <glyph glyph-name="racute" unicode="&#x155;" horiz-adv-x="433" 
d="M72 508h105v-65c31 52 80 83 138 83c20 0 43 -5 65 -13v-97c-28 12 -59 16 -79 16c-72 0 -120 -64 -120 -154v-278h-109v508zM292 736h113l-138 -168h-100z" />
    <glyph glyph-name="Rcommaaccent" unicode="&#x156;" horiz-adv-x="751" 
d="M403 609h-192v-257h192c92 0 160 53 160 126c0 83 -67 131 -160 131zM211 256v-256h-120v708h326c155 0 266 -95 266 -230c0 -95 -69 -179 -165 -204l177 -274h-138l-156 256h-190zM375 -189c-30 0 -50 23 -50 55c0 33 22 56 55 56c37 0 63 -29 63 -72
c0 -57 -30 -119 -73 -149l-39 24c25 21 44 57 44 86z" />
    <glyph glyph-name="rcommaaccent" unicode="&#x157;" horiz-adv-x="405" 
d="M72 508h105v-65c31 52 80 83 138 83c20 0 43 -5 65 -13v-97c-28 12 -59 16 -79 16c-72 0 -120 -64 -120 -154v-278h-109v508zM123 -189c-30 0 -50 22 -50 55s21 55 54 55c38 0 64 -29 64 -72c0 -56 -31 -118 -74 -148l-38 23c25 22 44 57 44 87z" />
    <glyph glyph-name="Rcaron" unicode="&#x158;" horiz-adv-x="751" 
d="M403 609h-192v-257h192c92 0 160 53 160 126c0 83 -67 131 -160 131zM211 256v-256h-120v708h326c155 0 266 -95 266 -230c0 -95 -69 -179 -165 -204l177 -274h-138l-156 256h-190zM380 832l80 114h92l-117 -168h-110l-116 168h91z" />
    <glyph glyph-name="rcaron" unicode="&#x159;" horiz-adv-x="407" 
d="M72 508h105v-65c31 52 80 83 138 83c20 0 43 -5 65 -13v-97c-28 12 -59 16 -79 16c-72 0 -120 -64 -120 -154v-278h-109v508zM305 736h92l-117 -168h-110l-116 168h91l81 -114z" />
    <glyph glyph-name="Sacute" unicode="&#x15a;" horiz-adv-x="709" 
d="M647 212c0 -138 -109 -237 -282 -237c-177 0 -305 108 -305 256h114c0 -91 80 -157 194 -157c101 0 160 52 160 123c0 81 -90 93 -190 107c-133 18 -269 42 -269 205c0 131 111 224 276 224c166 0 286 -102 286 -243h-111c0 84 -73 144 -174 144
c-96 0 -158 -48 -158 -113c0 -81 82 -94 184 -108c132 -18 275 -42 275 -201zM402 926h117l-122 -148h-108z" />
    <glyph glyph-name="sacute" unicode="&#x15b;" horiz-adv-x="561" 
d="M508 153c1 -101 -91 -174 -220 -174c-135 0 -231 81 -231 193h99c1 -60 56 -104 132 -104c67 0 116 31 116 73c0 53 -79 66 -131 73c-118 18 -209 33 -208 154c0 93 89 161 204 161c131 0 226 -73 227 -174h-102c0 50 -54 85 -127 85c-55 0 -100 -30 -101 -71
c0 -38 39 -50 120 -64c97 -16 222 -37 222 -152zM336 736h113l-138 -168h-100z" />
    <glyph glyph-name="Scircumflex" unicode="&#x15c;" horiz-adv-x="709" 
d="M647 212c0 -138 -109 -237 -282 -237c-177 0 -305 108 -305 256h114c0 -91 80 -157 194 -157c101 0 160 52 160 123c0 81 -90 93 -190 107c-133 18 -269 42 -269 205c0 131 111 224 276 224c166 0 286 -102 286 -243h-111c0 84 -73 144 -174 144
c-96 0 -158 -48 -158 -113c0 -81 82 -94 184 -108c132 -18 275 -42 275 -201zM272 778h-93l117 148h112l118 -148h-93l-81 95z" />
    <glyph glyph-name="scircumflex" unicode="&#x15d;" horiz-adv-x="561" 
d="M508 153c1 -101 -91 -174 -220 -174c-135 0 -231 81 -231 193h99c1 -60 56 -104 132 -104c67 0 116 31 116 73c0 53 -79 66 -131 73c-118 18 -209 33 -208 154c0 93 89 161 204 161c131 0 226 -73 227 -174h-102c0 50 -54 85 -127 85c-55 0 -100 -30 -101 -71
c0 -38 39 -50 120 -64c97 -16 222 -37 222 -152zM190 568h-91l116 168h111l116 -168h-91l-80 114z" />
    <glyph glyph-name="Scedilla" unicode="&#x15e;" horiz-adv-x="709" 
d="M342 -106h-44l13 85c-149 19 -251 119 -251 252h114c0 -91 80 -157 194 -157c101 0 160 52 160 123c0 81 -90 93 -190 107c-133 18 -269 42 -269 205c0 131 111 224 276 224c166 0 286 -102 286 -243h-111c0 84 -73 144 -174 144c-96 0 -158 -48 -158 -113
c0 -81 82 -94 184 -108c132 -18 275 -42 275 -201c0 -136 -107 -234 -275 -237l-7 -45c66 0 111 -40 111 -101c0 -59 -47 -99 -116 -99c-55 0 -100 32 -110 78l47 18c9 -27 34 -46 59 -46c33 0 54 21 54 54c0 36 -27 60 -68 60z" />
    <glyph glyph-name="scedilla" unicode="&#x15f;" horiz-adv-x="561" 
d="M287 -106h-44l13 87c-117 11 -199 88 -199 191h99c1 -60 56 -104 132 -104c67 0 116 31 116 73c0 53 -79 66 -131 73c-118 18 -209 33 -208 154c0 93 89 161 204 161c131 0 226 -73 227 -174h-102c0 50 -54 85 -127 85c-55 0 -100 -30 -101 -71c0 -38 39 -50 120 -64
c97 -16 222 -37 222 -152c1 -92 -77 -162 -190 -172l-7 -51c66 0 110 -40 110 -101c0 -59 -46 -99 -115 -99c-55 0 -101 32 -111 78l47 18c10 -27 34 -46 59 -46c33 0 55 21 55 54c0 36 -27 60 -69 60z" />
    <glyph glyph-name="Scaron" unicode="&#x160;" horiz-adv-x="709" 
d="M647 212c0 -138 -109 -237 -282 -237c-177 0 -305 108 -305 256h114c0 -91 80 -157 194 -157c101 0 160 52 160 123c0 81 -90 93 -190 107c-133 18 -269 42 -269 205c0 131 111 224 276 224c166 0 286 -102 286 -243h-111c0 84 -73 144 -174 144
c-96 0 -158 -48 -158 -113c0 -81 82 -94 184 -108c132 -18 275 -42 275 -201zM433 946h91l-116 -168h-111l-116 168h91l81 -114z" />
    <glyph glyph-name="scaron" unicode="&#x161;" horiz-adv-x="561" 
d="M508 153c1 -101 -91 -174 -220 -174c-135 0 -231 81 -231 193h99c1 -60 56 -104 132 -104c67 0 116 31 116 73c0 53 -79 66 -131 73c-118 18 -209 33 -208 154c0 93 89 161 204 161c131 0 226 -73 227 -174h-102c0 50 -54 85 -127 85c-55 0 -100 -30 -101 -71
c0 -38 39 -50 120 -64c97 -16 222 -37 222 -152zM347 736h91l-116 -168h-111l-116 168h91l81 -114z" />
    <glyph glyph-name="Tcommaaccent" unicode="&#x162;" horiz-adv-x="612" 
d="M246 0v605h-227v103h573v-103h-226v-605h-120zM297 -189c-30 0 -50 23 -50 55c0 33 22 56 55 56c38 0 64 -29 64 -72c0 -57 -31 -119 -74 -149l-39 24c26 21 44 57 44 86z" />
    <glyph glyph-name="tcommaaccent" unicode="&#x163;" horiz-adv-x="404" 
d="M116 143v280h-78v85h84l14 123h89v-123h124v-85h-124v-273c0 -46 28 -78 74 -78c14 0 38 3 57 9v-87c-26 -9 -62 -14 -90 -14c-91 0 -150 66 -150 163zM237 -189c-30 0 -50 22 -50 55s21 55 54 55c38 0 64 -29 64 -72c0 -56 -31 -118 -74 -148l-39 23c26 22 45 57 45 87z
" />
    <glyph glyph-name="Tcaron" unicode="&#x164;" horiz-adv-x="612" 
d="M246 0v605h-227v103h573v-103h-226v-605h-120zM386 946h91l-116 -168h-111l-116 168h91l81 -114z" />
    <glyph glyph-name="tcaron" unicode="&#x165;" horiz-adv-x="407" 
d="M116 143v280h-78v85h84l14 123h89v-123h124v-85h-124v-273c0 -46 28 -78 74 -78c14 0 38 3 57 9v-87c-26 -9 -62 -14 -90 -14c-91 0 -150 66 -150 163zM312 650c-30 0 -50 23 -50 55c0 33 21 56 54 56c38 0 64 -29 64 -72c0 -57 -31 -119 -74 -149l-38 24
c25 21 44 57 44 86z" />
    <glyph glyph-name="Utilde" unicode="&#x168;" horiz-adv-x="771" 
d="M565 291v417h121v-419c0 -183 -125 -314 -300 -314c-176 0 -301 131 -301 314v419h121v-417c0 -110 70 -211 180 -212c107 0 179 90 179 212zM258 813l-54 36c19 45 64 78 117 78c71 0 95 -57 140 -57c27 0 49 18 63 45l54 -36c-19 -45 -65 -77 -121 -77
c-76 0 -96 57 -138 57c-25 0 -46 -19 -61 -46z" />
    <glyph glyph-name="utilde" unicode="&#x169;" 
d="M539 508v-508h-107v65c-35 -53 -99 -85 -164 -85c-125 0 -206 92 -206 218v310h109v-302c0 -75 44 -129 121 -129c75 0 139 58 139 139v292h108zM177 592l-54 28c19 44 66 77 118 77c70 0 94 -57 143 -57c25 0 47 15 58 38l55 -29c-19 -44 -64 -77 -121 -77
c-76 0 -95 56 -142 56c-24 0 -45 -15 -57 -36z" />
    <glyph glyph-name="Umacron" unicode="&#x16a;" horiz-adv-x="771" 
d="M565 291v417h121v-419c0 -183 -125 -314 -300 -314c-176 0 -301 131 -301 314v419h121v-417c0 -110 70 -211 180 -212c107 0 179 90 179 212zM547 876v-69h-322v69h322z" />
    <glyph glyph-name="umacron" unicode="&#x16b;" 
d="M539 0h-107v65c-35 -53 -99 -85 -164 -85c-125 0 -206 92 -206 218v310h109v-302c0 -75 44 -129 121 -129c75 0 139 58 139 139v292h108v-508zM461 665v-69h-322v69h322z" />
    <glyph glyph-name="Ubreve" unicode="&#x16c;" horiz-adv-x="771" 
d="M565 291v417h121v-419c0 -183 -125 -314 -300 -314c-176 0 -301 131 -301 314v419h121v-417c0 -110 70 -211 180 -212c107 0 179 90 179 212zM449 926h76c0 -87 -46 -148 -139 -148s-140 62 -140 148h77c0 -46 26 -79 63 -79s63 33 63 79z" />
    <glyph glyph-name="ubreve" unicode="&#x16d;" 
d="M539 0h-107v65c-35 -53 -99 -85 -164 -85c-125 0 -206 92 -206 218v310h109v-302c0 -75 44 -129 121 -129c75 0 139 58 139 139v292h108v-508zM363 735h77c0 -88 -40 -168 -140 -168s-140 80 -140 168h78c0 -57 26 -98 62 -98c37 0 63 41 63 98z" />
    <glyph glyph-name="Uring" unicode="&#x16e;" horiz-adv-x="771" 
d="M386 950c-37 0 -63 -25 -62 -62c0 -36 25 -62 62 -62c36 0 62 26 62 62c0 37 -26 62 -62 62zM565 291v417h121v-419c0 -183 -125 -314 -300 -314c-176 0 -301 131 -301 314v419h121v-417c0 -110 70 -211 180 -212c107 0 179 90 179 212zM386 768c-75 0 -128 50 -128 120
c0 71 53 120 128 120s127 -49 127 -120c0 -70 -52 -120 -127 -120z" />
    <glyph glyph-name="uring" unicode="&#x16f;" 
d="M300 739c-37 0 -63 -25 -62 -62c0 -36 25 -62 62 -62c36 0 62 26 62 62c0 37 -26 62 -62 62zM539 508v-508h-107v65c-35 -53 -99 -85 -164 -85c-125 0 -206 92 -206 218v310h109v-302c0 -75 44 -129 121 -129c75 0 139 58 139 139v292h108zM300 557
c-75 0 -128 50 -128 120c0 71 53 120 128 120c76 0 127 -49 127 -120c0 -70 -51 -120 -127 -120z" />
    <glyph glyph-name="Uhungarumlaut" unicode="&#x170;" horiz-adv-x="771" 
d="M565 291v417h121v-419c0 -183 -125 -314 -300 -314c-176 0 -301 131 -301 314v419h121v-417c0 -110 70 -211 180 -212c107 0 179 90 179 212zM352 926h105l-121 -148h-88zM527 926h105l-129 -148h-87z" />
    <glyph glyph-name="uhungarumlaut" unicode="&#x171;" horiz-adv-x="585" 
d="M539 0h-107v65c-35 -53 -99 -85 -164 -85c-125 0 -206 92 -206 218v310h109v-302c0 -75 44 -129 121 -129c75 0 139 58 139 139v292h108v-508zM269 747h110l-135 -180h-90zM445 747h110l-144 -180h-90z" />
    <glyph glyph-name="Uogonek" unicode="&#x172;" horiz-adv-x="771" 
d="M368 -25c-167 9 -283 138 -283 314v419h121v-417c0 -110 70 -211 180 -212c107 0 179 90 179 212v417h121v-419c0 -161 -97 -282 -240 -309c-44 -21 -59 -48 -59 -77c0 -69 66 -112 160 -116v-67c-133 0 -226 69 -226 168c0 35 17 65 47 87z" />
    <glyph glyph-name="uogonek" unicode="&#x173;" horiz-adv-x="658" 
d="M445 0h-13v65c-35 -53 -99 -85 -164 -85c-125 0 -206 92 -206 218v310h109v-302c0 -75 44 -129 121 -129c75 0 139 58 139 139v292h108v-508h-10c-78 -23 -103 -57 -103 -94c0 -69 66 -112 160 -116v-67c-133 0 -226 69 -226 167c0 49 31 88 85 110z" />
    <glyph glyph-name="Wcircumflex" unicode="&#x174;" horiz-adv-x="1128" 
d="M645 708l147 -622l167 622h123l-195 -708h-185l-138 573l-137 -573h-186l-196 708h124l168 -622l150 622h158zM484 778h-94l118 148h111l118 -148h-93l-81 95z" />
    <glyph glyph-name="wcircumflex" unicode="&#x175;" horiz-adv-x="893" 
d="M344 0h-143l-164 508h113l127 -401l112 401h115l116 -403l125 403h112l-166 -508h-143l-101 382zM367 568h-90l115 168h111l117 -168h-92l-80 114z" />
    <glyph glyph-name="Ycircumflex" unicode="&#x176;" horiz-adv-x="681" 
d="M282 0v252l-255 456h130l185 -345l180 345h133l-253 -456v-252h-120zM260 778h-93l117 148h112l118 -148h-93l-81 95z" />
    <glyph glyph-name="ycircumflex" unicode="&#x177;" horiz-adv-x="583" 
d="M72 -209v88c22 -8 47 -14 67 -14c70 0 91 70 117 133l-229 510h119l159 -375l138 375h114l-199 -520c-44 -117 -89 -214 -197 -214c-29 0 -63 6 -89 17zM212 568h-90l115 168h111l117 -168h-92l-80 114z" />
    <glyph glyph-name="Ydieresis" unicode="&#x178;" horiz-adv-x="681" 
d="M282 0v252l-255 456h130l185 -345l180 345h133l-253 -456v-252h-120zM225 785c-38 0 -65 26 -65 64c0 37 27 63 65 63s64 -26 64 -63c0 -38 -26 -64 -64 -64zM457 785c-38 0 -65 26 -65 64c0 37 27 63 65 63c37 0 64 -26 64 -63c0 -38 -27 -64 -64 -64z" />
    <glyph glyph-name="Zacute" unicode="&#x179;" horiz-adv-x="664" 
d="M49 79l397 532h-387v97h546v-79l-394 -532h404v-97h-566v79zM381 926h118l-123 -148h-108z" />
    <glyph glyph-name="zacute" unicode="&#x17a;" horiz-adv-x="562" 
d="M49 71l298 343h-288v94h444v-71l-295 -343h305v-94h-464v71zM348 736h113l-138 -168h-100z" />
    <glyph glyph-name="Zdotaccent" unicode="&#x17b;" horiz-adv-x="664" 
d="M49 79l397 532h-387v97h546v-79l-394 -532h404v-97h-566v79zM332 778c-39 0 -66 24 -66 62c1 36 28 61 66 61c40 0 66 -25 66 -61c0 -38 -26 -62 -66 -62z" />
    <glyph glyph-name="zdotaccent" unicode="&#x17c;" horiz-adv-x="562" 
d="M49 71l298 343h-288v94h444v-71l-295 -343h305v-94h-464v71zM281 595c-38 0 -65 27 -65 65s27 65 65 65c39 0 66 -27 66 -65s-27 -65 -66 -65z" />
    <glyph glyph-name="Zcaron" unicode="&#x17d;" horiz-adv-x="664" 
d="M49 79l397 532h-387v97h546v-79l-394 -532h404v-97h-566v79zM412 946h92l-117 -168h-111l-115 168h90l81 -114z" />
    <glyph glyph-name="zcaron" unicode="&#x17e;" horiz-adv-x="562" 
d="M49 71l298 343h-288v94h444v-71l-295 -343h305v-94h-464v71zM361 736h92l-117 -168h-110l-116 168h91l81 -114z" />
    <glyph glyph-name="Aacutering" unicode="&#x1fa;" horiz-adv-x="733" 
d="M367 604l-139 -382h279zM366 857c-22 0 -38 -15 -38 -38c0 -22 16 -38 38 -38c23 0 39 16 39 38c-1 22 -16 38 -39 38zM202 132l-47 -132h-128l253 708h174l252 -708h-127l-47 132h-330zM366 723c-60 0 -104 40 -104 96c0 57 43 96 103 96c61 0 104 -40 104 -96
c1 -57 -42 -96 -103 -96zM311 927l87 107h115l-94 -107h-108z" />
    <glyph glyph-name="aacutering" unicode="&#x1fb;" horiz-adv-x="673" 
d="M324 77c97 0 167 74 167 177s-70 177 -167 177s-168 -74 -168 -177c0 -102 71 -177 168 -177zM328 698c-22 0 -38 -15 -38 -38c0 -22 16 -38 38 -38c23 0 39 16 39 38c-1 23 -16 38 -39 38zM492 432v76h109v-508h-109v76c-43 -60 -110 -96 -189 -96
c-149 0 -255 115 -255 274s106 274 255 274c79 0 146 -36 189 -96zM328 564c-61 0 -104 40 -104 96c0 57 43 96 103 96c61 0 104 -40 104 -96c1 -56 -42 -96 -103 -96zM300 785l109 141h114l-116 -141h-107z" />
    <glyph glyph-name="AEacute" unicode="&#x1fc;" horiz-adv-x="970" 
d="M273 226h203v398zM584 102h329v-102h-437v132h-248l-67 -132h-134l362 708h514v-102h-318v-200h278v-93h-279v-211zM492 767l113 147h118l-123 -147h-108z" />
    <glyph glyph-name="aeacute" unicode="&#x1fd;" horiz-adv-x="1071" 
d="M325 439c-99 0 -169 -77 -169 -185c0 -107 71 -185 169 -185c95 0 169 73 169 185c0 108 -71 185 -169 185zM592 286h322c-4 86 -70 150 -163 150c-86 0 -148 -61 -159 -150zM489 435v73h78v-83c35 63 99 103 191 103c155 0 265 -113 265 -268c0 -15 -1 -36 -2 -52h-426
c16 -82 80 -137 166 -137c67 0 127 39 141 93l99 -13c-18 -99 -116 -171 -234 -171c-88 0 -166 43 -200 106v-86h-78v72c-44 -58 -111 -92 -190 -92c-146 0 -251 114 -251 274c0 159 105 274 251 274c79 0 146 -36 190 -93zM471 570l124 168h114l-138 -168h-100z" />
    <glyph glyph-name="Oslashacute" unicode="&#x1fe;" horiz-adv-x="865" 
d="M432 628c-148 0 -255 -115 -255 -274c0 -96 40 -175 104 -223l243 481c-28 10 -60 16 -92 16zM432 79c149 0 256 115 256 275c0 89 -35 165 -92 213l-240 -477c24 -7 50 -11 76 -11zM307 -6l-67 -134h-95l85 169c-107 64 -173 182 -173 325c0 220 157 379 375 379
c50 0 98 -9 140 -25l77 152l96 1l-96 -191c98 -66 159 -180 159 -316c0 -220 -157 -379 -376 -379c-45 0 -86 7 -125 19zM387 768l113 148h118l-123 -148h-108z" />
    <glyph glyph-name="oslashacute" unicode="&#x1ff;" horiz-adv-x="656" 
d="M328 447c-107 0 -183 -81 -183 -193c0 -67 27 -122 71 -156l171 340c-18 6 -39 9 -59 9zM328 61c106 0 182 80 182 193c0 60 -22 110 -58 145l-168 -334c14 -3 29 -4 44 -4zM246 -10l-34 -70h-87l50 99c-79 46 -127 130 -127 235c0 161 115 274 280 274
c35 0 67 -5 97 -15l43 87h87l-61 -120c70 -48 114 -128 114 -226c0 -161 -116 -274 -280 -274c-29 0 -56 3 -82 10zM396 736h113l-138 -168h-100z" />
    <glyph glyph-name="Scommaaccent" unicode="&#x218;" horiz-adv-x="709" 
d="M647 212c0 -138 -109 -237 -282 -237c-177 0 -305 108 -305 256h114c0 -91 80 -157 194 -157c101 0 160 52 160 123c0 81 -90 93 -190 107c-133 18 -269 42 -269 205c0 131 111 224 276 224c166 0 286 -102 286 -243h-111c0 84 -73 144 -174 144
c-96 0 -158 -48 -158 -113c0 -81 82 -94 184 -108c132 -18 275 -42 275 -201zM345 -189c-30 0 -50 22 -50 54c0 34 22 56 55 56c38 0 63 -29 63 -72c0 -56 -30 -118 -73 -148l-39 23c25 22 44 57 44 87z" />
    <glyph glyph-name="scommaaccent" unicode="&#x219;" horiz-adv-x="561" 
d="M508 153c1 -101 -91 -174 -220 -174c-135 0 -231 81 -231 193h99c1 -60 56 -104 132 -104c67 0 116 31 116 73c0 53 -79 66 -131 73c-118 18 -209 33 -208 154c0 93 89 161 204 161c131 0 226 -73 227 -174h-102c0 50 -54 85 -127 85c-55 0 -100 -30 -101 -71
c0 -38 39 -50 120 -64c97 -16 222 -37 222 -152zM265 -189c-30 0 -50 22 -50 55s22 55 55 55c38 0 63 -29 63 -72c0 -56 -30 -118 -73 -148l-39 23c25 22 44 57 44 87z" />
    <glyph glyph-name="circumflex" unicode="&#x2c6;" horiz-adv-x="439" 
d="M48 570l116 168h110l117 -168h-92l-80 114l-80 -114h-91z" />
    <glyph glyph-name="caron" unicode="&#x2c7;" horiz-adv-x="439" 
d="M299 738h92l-117 -168h-110l-116 168h91l80 -114z" />
    <glyph glyph-name="breve" unicode="&#x2d8;" horiz-adv-x="376" 
d="M250 738h78c0 -88 -40 -168 -140 -168c-101 0 -140 80 -140 168h77c0 -57 26 -98 63 -98s62 41 62 98z" />
    <glyph glyph-name="dotaccent" unicode="&#x2d9;" horiz-adv-x="228" 
d="M114 560c-39 0 -66 27 -66 65c0 37 27 64 66 64c38 0 66 -27 66 -64c0 -38 -28 -65 -66 -65z" />
    <glyph glyph-name="ring" unicode="&#x2da;" horiz-adv-x="351" 
d="M176 541c-76 0 -128 49 -128 120s52 119 128 119c75 0 127 -48 127 -119s-52 -120 -127 -120zM176 723c-37 0 -63 -26 -62 -62c0 -37 25 -63 62 -63c36 0 62 26 62 63c0 36 -26 62 -62 62z" />
    <glyph glyph-name="ogonek" unicode="&#x2db;" horiz-adv-x="322" 
d="M175 10l52 -10c-86 -23 -113 -58 -113 -97c0 -69 66 -112 160 -116v-67c-133 0 -226 69 -226 168c0 59 47 104 127 122z" />
    <glyph glyph-name="tilde" unicode="&#x2dc;" horiz-adv-x="470" 
d="M102 593l-54 28c19 45 66 77 118 77c70 0 94 -57 142 -57c26 0 48 16 59 38l55 -28c-19 -45 -65 -78 -121 -78c-76 0 -95 56 -142 56c-24 0 -45 -14 -57 -36z" />
    <glyph glyph-name="hungarumlaut" unicode="&#x2dd;" horiz-adv-x="497" 
d="M163 750h110l-135 -180h-90zM339 750h110l-144 -180h-90z" />
    <glyph glyph-name="Wgrave" unicode="&#x1e80;" horiz-adv-x="1128" 
d="M645 708l147 -622l167 622h123l-195 -708h-185l-138 573l-137 -573h-186l-196 708h124l168 -622l150 622h158zM384 926h118l113 -148h-108z" />
    <glyph glyph-name="wgrave" unicode="&#x1e81;" horiz-adv-x="893" 
d="M344 0h-143l-164 508h113l127 -401l112 401h115l116 -403l125 403h112l-166 -508h-143l-101 382zM264 736h113l124 -168h-99z" />
    <glyph glyph-name="Wacute" unicode="&#x1e82;" horiz-adv-x="1128" 
d="M645 708l147 -622l167 622h123l-195 -708h-185l-138 573l-137 -573h-186l-196 708h124l168 -622l150 622h158zM613 926h118l-123 -148h-108z" />
    <glyph glyph-name="wacute" unicode="&#x1e83;" horiz-adv-x="893" 
d="M344 0h-143l-164 508h113l127 -401l112 401h115l116 -403l125 403h112l-166 -508h-143l-101 382zM513 736h113l-138 -168h-99z" />
    <glyph glyph-name="Wdieresis" unicode="&#x1e84;" horiz-adv-x="1128" 
d="M645 708l147 -622l167 622h123l-195 -708h-185l-138 573l-137 -573h-186l-196 708h124l168 -622l150 622h158zM448 785c-38 0 -64 26 -64 64c0 37 26 63 64 63s65 -26 65 -63c0 -38 -27 -64 -65 -64zM680 785c-38 0 -65 26 -65 64c0 37 27 63 65 63s64 -26 64 -63
c0 -38 -26 -64 -64 -64z" />
    <glyph glyph-name="wdieresis" unicode="&#x1e85;" horiz-adv-x="893" 
d="M344 0h-143l-164 508h113l127 -401l112 401h115l116 -403l125 403h112l-166 -508h-143l-101 382zM322 580c-37 0 -64 26 -64 63c0 36 27 62 64 62c38 0 65 -26 65 -62c0 -37 -27 -63 -65 -63zM571 580c-37 0 -64 26 -64 63c0 36 27 62 64 62c38 0 65 -26 65 -62
c0 -37 -27 -63 -65 -63z" />
    <glyph glyph-name="Germandbls" unicode="&#x1e9e;" horiz-adv-x="714" 
d="M201 473v-473h-120v480c0 144 107 247 261 247c143 0 245 -83 245 -198c0 -77 -43 -138 -104 -149c95 -14 164 -97 164 -201c0 -118 -94 -204 -220 -204c-57 0 -113 18 -165 44l29 89c39 -22 81 -37 120 -37c69 0 116 50 116 119c0 82 -44 142 -148 142h-45v86h46
c53 0 90 43 90 102c0 64 -54 110 -130 110c-83 0 -139 -61 -139 -157z" />
    <glyph glyph-name="Ygrave" unicode="&#x1ef2;" horiz-adv-x="681" 
d="M282 0v252l-255 456h130l185 -345l180 345h133l-253 -456v-252h-120zM161 926h118l113 -148h-108z" />
    <glyph glyph-name="ygrave" unicode="&#x1ef3;" horiz-adv-x="583" 
d="M72 -209v88c22 -8 47 -14 67 -14c70 0 91 70 117 133l-229 510h119l159 -375l138 375h114l-199 -520c-44 -117 -89 -214 -197 -214c-29 0 -63 6 -89 17zM247 568l-138 168h113l124 -168h-99z" />
    <glyph glyph-name="endash" unicode="&#x2013;" horiz-adv-x="666" 
d="M618 358v-94h-570v94h570z" />
    <glyph glyph-name="emdash" unicode="&#x2014;" horiz-adv-x="829" 
d="M29 358h770v-94h-770v94z" />
    <glyph glyph-name="quoteleft" unicode="&#x2018;" horiz-adv-x="235" 
d="M124 604c37 0 62 -26 62 -65c0 -38 -28 -65 -66 -65c-43 0 -72 36 -72 90c0 69 34 141 83 173l53 -28c-35 -26 -60 -69 -60 -105z" />
    <glyph glyph-name="quoteright" unicode="&#x2019;" horiz-adv-x="235" 
d="M111 598c-37 0 -62 27 -62 66c0 38 28 65 66 65c43 0 72 -36 72 -91c0 -68 -35 -140 -83 -172l-54 28c36 26 61 69 61 104z" />
    <glyph glyph-name="quotesinglbase" unicode="&#x201a;" horiz-adv-x="235" 
d="M111 -14c-37 0 -62 27 -62 66c0 38 28 65 66 65c43 0 72 -36 72 -91c0 -69 -35 -140 -83 -173l-54 29c36 26 61 69 61 104z" />
    <glyph glyph-name="quotedblleft" unicode="&#x201c;" horiz-adv-x="427" 
d="M188 539c0 -38 -28 -65 -66 -65c-43 0 -72 36 -72 90c0 69 35 141 83 173l54 -28c-36 -26 -61 -69 -61 -105c37 0 62 -26 62 -65zM376 539c0 -38 -28 -65 -66 -65c-43 0 -72 36 -72 90c0 69 35 141 83 173l54 -28c-36 -26 -61 -69 -61 -105c37 0 62 -26 62 -65z" />
    <glyph glyph-name="quotedblright" unicode="&#x201d;" horiz-adv-x="424" 
d="M51 667c0 38 28 65 66 65c43 0 72 -36 72 -90c0 -69 -34 -141 -83 -173l-53 28c35 26 60 69 60 105c-37 0 -62 26 -62 65zM239 667c0 38 28 65 66 65c43 0 72 -36 72 -90c0 -69 -35 -141 -83 -173l-54 28c36 26 61 69 61 105c-37 0 -62 26 -62 65z" />
    <glyph glyph-name="quotedblbase" unicode="&#x201e;" horiz-adv-x="424" 
d="M51 53c0 38 28 64 66 64c43 0 72 -36 72 -90c0 -69 -34 -140 -83 -173l-53 29c35 25 60 69 60 104c-37 0 -62 27 -62 66zM239 53c0 38 28 64 66 64c43 0 72 -36 72 -90c0 -69 -34 -140 -83 -173l-53 29c35 25 60 69 60 104c-37 0 -62 27 -62 66z" />
    <glyph glyph-name="bullet" unicode="&#x2022;" horiz-adv-x="262" 
d="M131 229c-48 0 -83 34 -83 81s35 81 83 81c49 0 83 -34 83 -81s-34 -81 -83 -81z" />
    <glyph glyph-name="ellipsis" unicode="&#x2026;" horiz-adv-x="616" 
d="M115 -14c-39 0 -67 28 -67 67c0 38 28 65 67 65c40 0 67 -27 67 -65c0 -39 -27 -67 -67 -67zM308 -14c-39 0 -67 28 -67 67c0 38 28 65 67 65s67 -27 67 -65c0 -39 -28 -67 -67 -67zM501 -14c-39 0 -67 28 -67 67c0 38 28 65 67 65s67 -27 67 -65c0 -39 -28 -67 -67 -67z
" />
    <glyph glyph-name="perthousand" unicode="&#x2030;" horiz-adv-x="1497" 
d="M574 194c0 122 84 206 205 206s205 -84 205 -206c0 -121 -84 -205 -205 -205s-205 84 -205 205zM882 194c0 62 -42 104 -104 104c-61 0 -103 -42 -103 -104c0 -61 42 -103 103 -103c62 0 104 42 104 103zM1038 194c0 122 84 206 206 206c121 0 205 -84 205 -206
c0 -121 -84 -205 -205 -205c-122 0 -206 84 -206 205zM1346 194c0 62 -41 104 -103 104s-104 -42 -104 -104c0 -61 42 -103 104 -103s103 42 103 103zM48 543c0 122 84 206 206 206s206 -84 206 -206c0 -121 -84 -205 -206 -205s-206 84 -206 205zM357 543
c0 62 -42 104 -104 104c-61 0 -103 -42 -103 -104c0 -61 42 -104 103 -104c62 0 104 43 104 104zM705 738h120l-498 -738h-120z" />
    <glyph glyph-name="guilsinglleft" unicode="&#x2039;" horiz-adv-x="391" 
d="M343 508l-197 -253l197 -255h-123l-193 255l193 253h123z" />
    <glyph glyph-name="guilsinglright" unicode="&#x203a;" horiz-adv-x="391" 
d="M365 255l-194 -255h-123l197 255l-197 253h123z" />
    <glyph glyph-name="lira" unicode="&#x20a4;" horiz-adv-x="628" 
d="M369 639c-64 0 -99 -52 -99 -125l1 -100h238v-66h-239c0 -20 -1 -37 -2 -54h241v-67h-255c-18 -89 -58 -126 -102 -146h427v-81h-531v109c42 7 80 31 96 122h-90v63h102c2 16 2 37 2 54h-104v66h104v104c0 124 77 214 203 214c127 0 207 -89 219 -211l-102 -17
c-8 79 -43 135 -109 135z" />
    <glyph glyph-name="Euro" unicode="&#x20ac;" horiz-adv-x="918" 
d="M522 79c103 0 198 70 225 167l114 -19c-32 -146 -175 -252 -340 -252c-181 0 -320 113 -359 280h-115v69h104c0 10 -1 20 -1 30c0 12 1 23 2 34h-105v69h116c40 165 178 276 357 276c166 0 309 -111 341 -263l-115 -14c-24 100 -118 172 -224 172
c-113 0 -200 -67 -235 -171h261v-69h-276c-1 -11 -1 -22 -1 -34c0 -10 0 -20 1 -30h275v-69h-261c34 -106 123 -176 236 -176z" />
    <glyph glyph-name="trademark" unicode="&#x2122;" horiz-adv-x="1134" 
d="M164 150v477h-145v81h382v-81h-145v-477h-92zM963 572l-167 -422h-69l-167 422v-422h-89v558h124l166 -429l164 429h127v-558h-89v422z" />
    <glyph glyph-name="minus" unicode="&#x2212;" horiz-adv-x="506" 
d="M48 358h410v-94h-410v94z" />
    <glyph glyph-name="approxequal" unicode="&#x2248;" horiz-adv-x="345" 
 />
    <glyph glyph-name="notequal" unicode="&#x2260;" horiz-adv-x="566" 
d="M48 232h167l59 159h-226v93h259l56 154h87l-57 -154h125v-93h-158l-58 -159h216v-93h-249l-66 -179h-87l66 179h-134v93z" />
    <glyph glyph-name="lessequal" unicode="&#x2264;" horiz-adv-x="456" 
d="M408 88v-88h-360v88h360zM48 377l360 146v-89l-274 -108l274 -109v-88l-360 145v103z" />
    <glyph glyph-name="greaterequal" unicode="&#x2265;" horiz-adv-x="456" 
d="M48 88h360v-88h-360v88zM48 217l274 109l-274 108v89l360 -146v-103l-360 -145v88z" />
    <glyph glyph-name="commaaccent" unicode="&#xf6c3;" horiz-adv-x="214" 
d="M98 -30c-30 0 -50 23 -50 55c0 34 21 56 55 56c37 0 63 -29 63 -72c0 -56 -30 -118 -74 -149l-38 24c25 22 44 57 44 86z" />
    <glyph glyph-name="acute.case" horiz-adv-x="327" 
d="M279 738l-123 -148h-108l113 148h118z" />
    <glyph glyph-name="breve.case" horiz-adv-x="375" 
d="M251 738h76c0 -87 -47 -148 -139 -148c-93 0 -140 62 -140 148h77c0 -46 26 -79 63 -79s63 33 63 79z" />
    <glyph glyph-name="caron.case" horiz-adv-x="443" 
d="M302 738h93l-118 -148h-111l-118 148h94l79 -95z" />
    <glyph glyph-name="circumflex.case" horiz-adv-x="443" 
d="M48 590l118 148h111l118 -148h-93l-81 95l-79 -95h-94z" />
    <glyph glyph-name="dieresis.case" horiz-adv-x="457" 
d="M112 549c-37 0 -64 25 -64 63c0 37 27 63 64 63c38 0 65 -26 65 -63c0 -38 -27 -63 -65 -63zM344 549c-37 0 -64 25 -64 63c0 37 27 63 64 63c38 0 65 -26 65 -63c0 -38 -27 -63 -65 -63z" />
    <glyph glyph-name="dotaccent.case" horiz-adv-x="228" 
d="M114 560c-39 0 -66 24 -66 62c1 36 27 61 66 61s66 -25 66 -61c0 -38 -27 -62 -66 -62z" />
    <glyph glyph-name="grave.case" horiz-adv-x="327" 
d="M48 766h118l113 -148h-108z" />
    <glyph glyph-name="hungarumlaut.case" horiz-adv-x="480" 
d="M151 738h106l-122 -148h-87zM327 738h105l-130 -148h-86z" />
    <glyph glyph-name="ijacute" horiz-adv-x="526" 
d="M80 508h109v-508h-109v508zM347 -57v565h108v-569c0 -95 -60 -159 -150 -159c-33 0 -71 5 -96 14v79c16 -5 37 -8 56 -8c2 0 5 0 7 1c45 0 75 30 75 77zM200 738h114l-138 -168h-100zM462 738h113l-138 -168h-100z" />
    <glyph glyph-name="ring.case" horiz-adv-x="303" 
d="M152 540c-61 0 -104 40 -104 97c0 56 43 95 103 95c61 0 104 -40 104 -96c1 -56 -42 -96 -103 -96zM152 675c-22 0 -38 -16 -38 -38c0 -23 16 -39 38 -39c23 0 39 16 39 39c-1 22 -16 38 -39 38z" />
    <glyph glyph-name="tilde.case" horiz-adv-x="470" 
d="M102 605l-54 36c19 45 64 78 117 78c71 0 95 -57 141 -57c26 0 49 18 62 45l54 -36c-19 -45 -65 -77 -121 -77c-76 0 -95 57 -138 57c-25 0 -45 -19 -61 -46z" />
    </font>
</defs>
</svg>
