<?xml version="1.0" standalone="no"?>
<!DOCTYPE svg PUBLIC "-//W3C//DTD SVG 1.1//EN" "http://www.w3.org/Graphics/SVG/1.1/DTD/svg11.dtd" >
<svg xmlns="http://www.w3.org/2000/svg" xmlns:xlink="http://www.w3.org/1999/xlink" version="1.1">
<metadata>
Created by FontForge 20190801 at Tue Apr  4 22:24:01 2017
 By www-data
Copyright (c) 2016 by The Temporary State. All rights reserved.
</metadata>
<defs>
<font id="Wremena" horiz-adv-x="680" >
  <font-face 
    font-family="Wremena"
    font-weight="400"
    font-stretch="normal"
    units-per-em="1000"
    panose-1="2 0 0 0 0 0 0 0 0 0"
    ascent="750"
    descent="-250"
    x-height="450"
    cap-height="650"
    bbox="-75 -275 1345 900"
    underline-thickness="50"
    underline-position="-100"
    unicode-range="U+0020-E00A"
  />
<missing-glyph horiz-adv-x="910" 
d="M140 0v650h630v-650h-630zM180 615v-580h550v580h-550zM602 500l28 -28l-147 -147l147 -146l-28 -28l-147 146l-147 -147l-28 28l147 147l-147 148l28 28l147 -148z" />
    <glyph glyph-name=".notdef" horiz-adv-x="910" 
d="M140 0v650h630v-650h-630zM180 615v-580h550v580h-550zM602 500l28 -28l-147 -147l147 -146l-28 -28l-147 146l-147 -147l-28 28l147 147l-147 148l28 28l147 -148z" />
    <glyph glyph-name="B" unicode="B" horiz-adv-x="620" 
d="M15 0l100 55v540l-100 55h305c135 0 225 -45 225 -155c0 -125 -135 -145 -135 -145v-5s170 -15 170 -165c0 -125 -110 -180 -255 -180h-310zM310 325h-100v-270l35 -20h70c90 0 155 45 155 145c0 105 -70 145 -160 145zM210 595v-235h100c80 0 135 45 135 130
c0 90 -55 125 -135 125h-65z" />
    <glyph glyph-name="C" unicode="C" horiz-adv-x="645" 
d="M585 665v-245l-75 160s-50 55 -145 55c-135 0 -220 -120 -220 -295c0 -170 80 -295 235 -295c170 0 227 166 230 174c-2 -11 -46 -234 -260 -234c-185 0 -315 140 -315 335c0 215 131 345 315 345c114 0 175 -55 175 -55z" />
    <glyph glyph-name="D" unicode="D" horiz-adv-x="660" 
d="M280 0h-265l100 55v540l-100 55h265c175 0 345 -100 345 -325s-170 -325 -345 -325zM210 595v-540l35 -20h35c120 0 235 80 235 290s-115 290 -235 290h-35z" />
    <glyph glyph-name="E" unicode="E" horiz-adv-x="610" 
d="M210 595v-240h125l70 105v-245l-70 105h-125v-265l35 -20h215l90 175v-210h-535l100 55v540l-100 55h520v-210l-90 175h-200z" />
    <glyph glyph-name="F" unicode="F" horiz-adv-x="575" 
d="M210 320v-265l110 -55h-305l100 55v540l-100 55h520v-210l-90 175h-200l-35 -20v-240h115l70 105v-245l-70 105h-115z" />
    <glyph glyph-name="G" unicode="G" horiz-adv-x="700" 
d="M605 665v-245l-75 160s-60 55 -155 55c-135 0 -230 -120 -230 -310c0 -165 80 -300 235 -300c95 0 135 60 135 60v170l-120 55h295l-80 -55v-265l-75 75s-55 -80 -185 -80c-185 0 -315 135 -315 335c0 225 150 345 330 345c114 0 180 -55 180 -55z" />
    <glyph glyph-name="H" unicode="H" horiz-adv-x="725" 
d="M710 650l-100 -55v-540l100 -55h-295l100 55v265h-305v-265l100 -55h-295l100 55v540l-100 55h295l-100 -55v-240h305v240l-100 55h295z" />
    <glyph glyph-name="I" unicode="I" horiz-adv-x="325" 
d="M310 650l-100 -55v-540l100 -55h-295l100 55v540l-100 55h295z" />
    <glyph glyph-name="J" unicode="J" horiz-adv-x="515" 
d="M510 650l-100 -55v-370c0 -155 -80 -240 -200 -240c-137 0 -180 85 -180 150c0 70 37 93 70 93c40 0 55 -28 55 -53c0 -55 -50 -40 -50 -85c0 -40 35 -75 100 -75c70 0 110 48 110 150v430l-120 55h315z" />
    <glyph glyph-name="K" unicode="K" 
d="M310 650l-100 -55v-245l258 248l-66 52h257l-153 -64l-211 -211l305 -320l80 -55h-160l-310 329v-274l100 -55h-295l100 55v540l-100 55h295z" />
    <glyph glyph-name="L" unicode="L" horiz-adv-x="585" 
d="M320 650l-110 -55v-540l35 -20h205l95 185v-220h-530l100 55v540l-100 55h305z" />
    <glyph glyph-name="M" unicode="M" horiz-adv-x="849" 
d="M15 0l100 55v540l-100 55h198l209 -492h1l209 492h202l-100 -55v-540l100 -55h-295l100 55v505l-244 -575l-235 555v-485l100 -55h-245z" />
    <glyph glyph-name="O" unicode="O" 
d="M35 325c0 205 130 340 305 340s305 -135 305 -340s-130 -340 -305 -340s-305 135 -305 340zM145 325c0 -190 75 -310 195 -310s195 120 195 310s-75 310 -195 310s-195 -120 -195 -310z" />
    <glyph glyph-name="P" unicode="P" horiz-adv-x="575" 
d="M330 0h-315l100 55v540l-100 55h270c145 0 260 -50 260 -175s-115 -175 -260 -175h-75v-245zM210 615v-280h65c90 0 160 30 160 140s-70 140 -160 140h-65z" />
    <glyph glyph-name="Q" unicode="Q" 
d="M35 325c0 205 130 340 305 340s305 -135 305 -340c0 -155 -74 -269 -185 -316l130 -209l-238 186c-4 0 -8 -1 -12 -1c-175 0 -305 135 -305 340zM145 325c0 -190 75 -310 195 -310s195 120 195 310s-75 310 -195 310s-195 -120 -195 -310z" />
    <glyph glyph-name="R" unicode="R" horiz-adv-x="640" 
d="M505 0l-233 300h-62v-245l100 -55h-295l100 55v540l-100 55h270c145 0 260 -50 260 -175c0 -96 -68 -148 -165 -167l206 -254l89 -54h-170zM210 615v-280h65c90 0 160 30 160 140s-70 140 -160 140h-65z" />
    <glyph glyph-name="S" unicode="S" horiz-adv-x="530" 
d="M455 665v-215l-75 135s-50 50 -125 50c-80 0 -135 -50 -135 -110c0 -54 46 -89 105 -115l125 -55c64 -28 140 -65 140 -175c0 -125 -105 -195 -235 -195c-95 0 -145 45 -145 45l-60 -45v245l80 -165s40 -50 125 -50s145 50 145 130s-68 101 -110 120l-125 55
c-71 31 -125 81 -125 165c0 125 100 180 215 180c85 0 140 -45 140 -45z" />
    <glyph glyph-name="T" unicode="T" horiz-adv-x="625" 
d="M585 650v-210l-90 175h-135v-560l110 -55h-315l110 55v560h-135l-90 -175v210h545z" />
    <glyph glyph-name="U" unicode="U" horiz-adv-x="700" 
d="M200 595v-378c0 -98 49 -177 177 -177s178 79 178 177v378l-100 55h245l-100 -55v-363c0 -137 -71 -247 -238 -247c-187 0 -257 110 -257 247v363l-100 55h295z" />
    <glyph glyph-name="V" unicode="V" 
d="M700 650l-105 -55l-246 -610l-259 605l-100 60h280l-85 -50l190 -445l180 445l-90 50h235z" />
    <glyph glyph-name="W" unicode="W" horiz-adv-x="935" 
d="M955 650l-105 -55l-186 -610l-187 488l-178 -488l-209 605l-100 60h280l-85 -50l145 -415l175 480l181 -472l124 407l-90 50h235z" />
    <glyph glyph-name="X" unicode="X" horiz-adv-x="700" 
d="M110 55l193 270l-193 265l-110 60h295l-80 -50l144 -197l141 197l-90 50h255l-120 -55l-162 -226l227 -309l110 -60h-295l80 50l-177 242l-173 -242l90 -50h-255z" />
    <glyph glyph-name="Y" unicode="Y" horiz-adv-x="670" 
d="M270 650l-80 -50l175 -275l175 275l-80 50h230l-100 -55l-195 -308v-232l100 -55h-295l100 55v205l-210 330l-100 60h280z" />
    <glyph glyph-name="Z" unicode="Z" horiz-adv-x="600" 
d="M35 0l372 615h-257l-90 -175v210h480l-373 -615h288l90 175v-210h-510z" />
    <glyph glyph-name="a" unicode="a" horiz-adv-x="470" 
d="M156 237l144 59v24c0 89 -20 115 -75 115s-81 -26 -81 -87c0 -31 -17 -47 -41 -47s-41 18 -41 47c0 62 113 117 173 117c109 0 145 -60 145 -145v-270l90 35s-80 -100 -115 -100s-55 21 -55 74l-77 -51c-22 -16 -42 -23 -72 -23c-61 0 -106 46 -106 115
c0 65 44 109 111 137zM300 91v176l-77 -32c-74 -31 -96 -70 -96 -120c0 -40 23 -73 69 -73c25 0 63 16 104 49z" />
    <glyph glyph-name="b" unicode="b" horiz-adv-x="500" 
d="M255 -15c-85 0 -125 55 -125 55l-70 -55v653l-80 19l160 58v-349c35 54 80 99 145 99c105 0 180 -85 180 -230c0 -150 -91 -250 -210 -250zM140 339v-234c0 -55 50 -85 98 -85c77 0 142 65 142 190c0 130 -60 190 -135 190c-40 0 -76 -19 -105 -61z" />
    <glyph glyph-name="c" unicode="c" horiz-adv-x="455" 
d="M425 177c-8 -115 -80 -192 -182 -192c-129 0 -208 105 -208 240c0 140 99 240 218 240c100 0 159 -54 159 -112c0 -31 -24 -47 -47 -47c-30 0 -43 26 -43 48c0 52 -27 81 -71 81c-70 0 -136 -67 -136 -179c0 -149 91 -196 161 -196c49 0 113 32 149 117z" />
    <glyph glyph-name="d" unicode="d" horiz-adv-x="530" 
d="M440 715v-653l80 -19l-160 -58v99c-35 -54 -80 -99 -145 -99c-105 0 -180 85 -180 230c0 150 91 250 210 250c80 0 115 -45 115 -45v218l-80 19zM360 111v234c0 55 -50 85 -98 85c-77 0 -142 -65 -142 -190c0 -130 60 -190 135 -190c40 0 76 19 105 61z" />
    <glyph glyph-name="e" unicode="e" horiz-adv-x="470" 
d="M425 177c-8 -115 -80 -192 -182 -192c-129 0 -208 105 -208 240c0 140 95 240 213 240c127 0 177 -90 177 -195h-310v-14c0 -159 91 -196 161 -196c49 0 113 32 149 117zM250 435c-61 0 -117 -49 -132 -135h147c50 0 80 15 80 55c0 50 -40 80 -95 80z" />
    <glyph glyph-name="f" unicode="f" horiz-adv-x="330" 
d="M110 45v370h-95v35h95c0 175 80 265 180 265c45 0 85 -19 85 -59c0 -29 -20 -46 -44 -46c-55 0 -41 70 -76 70c-45 0 -65 -60 -65 -190v-40h115v-35h-115v-370l95 -45h-255z" />
    <glyph glyph-name="g" unicode="g" horiz-adv-x="490" 
d="M50 305c0 88 70 160 175 160c70 0 105 -30 145 -30c25 0 15 13 15 26c0 21 14 39 38 39c28 0 42 -20 42 -40c0 -27 -15 -50 -60 -50c-25 0 -50 5 -50 5s45 -40 45 -110c0 -88 -70 -160 -175 -160c-8 0 -16 0 -23 1c-30 0 -77 -6 -77 -41c0 -25 25 -30 40 -30h165
c100 0 140 -40 140 -115s-85 -185 -255 -185c-140 0 -200 70 -200 130c0 70 64 91 98 97c-27 8 -53 34 -53 68c0 60 55 80 101 85c-68 22 -111 81 -111 150zM385 0h-251c-2 -1 -49 -16 -49 -65c0 -50 45 -95 155 -95c145 0 200 70 200 115c0 30 -20 45 -55 45zM135 305
c0 -85 35 -135 90 -135s90 50 90 135s-35 135 -90 135s-90 -50 -90 -135z" />
    <glyph glyph-name="h" unicode="h" horiz-adv-x="530" 
d="M290 0l80 45v243c0 82 -16 117 -78 117c-42 0 -87 -26 -117 -63v-297l80 -45h-240l80 45v593l-80 19l160 58v-343c35 38 88 93 152 93c96 0 123 -65 123 -164v-256l80 -45h-240z" />
    <glyph glyph-name="i" unicode="i" horiz-adv-x="275" 
d="M20 407l80 -19v-343l-80 -45h240l-80 45v420zM75 610c0 30 25 55 55 55s55 -25 55 -55s-25 -55 -55 -55s-55 25 -55 55z" />
    <glyph glyph-name="j" unicode="j" horiz-adv-x="230" 
d="M80 388v-388c0 -130 -15 -190 -45 -190c-25 0 -11 70 -66 70c-24 0 -44 -17 -44 -46c0 -40 35 -59 75 -59c100 0 160 90 160 265v425l-160 -58zM55 610c0 30 25 55 55 55s55 -25 55 -55s-25 -55 -55 -55s-55 25 -55 55z" />
    <glyph glyph-name="k" unicode="k" horiz-adv-x="500" 
d="M175 244l175 166l-60 40h215l-115 -45l-143 -139l198 -221l70 -45h-140l-200 234v-189l80 -45h-240l80 45v593l-80 19l160 58v-471z" />
    <glyph glyph-name="l" unicode="l" horiz-adv-x="270" 
d="M95 638l-80 19l160 58v-670l80 -45h-240l80 45v593z" />
    <glyph glyph-name="m" unicode="m" horiz-adv-x="810" 
d="M570 0l80 45v243c0 82 -16 117 -78 117c-42 0 -87 -26 -119 -65c1 -13 2 -26 2 -39v-256l80 -45h-240l80 45v243c0 82 -16 117 -78 117c-42 0 -87 -26 -117 -63v-297l80 -45h-240l80 45v343l-80 19l160 58v-93c35 38 88 93 152 93c73 0 106 -37 118 -99
c40 44 93 99 157 99c96 0 123 -65 123 -164v-256l80 -45h-240z" />
    <glyph glyph-name="n" unicode="n" horiz-adv-x="535" 
d="M295 0l80 45v243c0 82 -16 117 -78 117c-42 0 -87 -26 -117 -63v-297l80 -45h-240l80 45v343l-80 19l160 58v-93c35 38 88 93 152 93c96 0 123 -65 123 -164v-256l80 -45h-240z" />
    <glyph glyph-name="o" unicode="o" horiz-adv-x="504" 
d="M239 430c-73 0 -114 -65 -114 -165c0 -146 59 -245 141 -245c74 0 113 67 113 165c0 146 -57 245 -140 245zM35 225c0 130 88 240 217 240c139 0 217 -110 217 -240s-88 -240 -217 -240c-139 0 -217 110 -217 240z" />
    <glyph glyph-name="p" unicode="p" horiz-adv-x="510" 
d="M150 339v-234c0 -55 50 -85 98 -85c77 0 142 65 142 190c0 130 -60 190 -135 190c-40 0 -76 -19 -105 -61zM-10 -210l80 45v553l-80 19l160 58v-99c35 54 80 99 145 99c105 0 180 -85 180 -230c0 -150 -91 -250 -210 -250c-80 0 -115 45 -115 45v-195l80 -45h-240z" />
    <glyph glyph-name="q" unicode="q" horiz-adv-x="510" 
d="M360 111v234c0 55 -50 85 -98 85c-77 0 -142 -65 -142 -190c0 -130 60 -190 135 -190c40 0 76 19 105 61zM245 465c85 0 125 -55 125 -55l70 55v-630l80 -45h-240l80 45v249c-35 -54 -80 -99 -145 -99c-105 0 -180 85 -180 230c0 150 91 250 210 250z" />
    <glyph glyph-name="r" unicode="r" horiz-adv-x="410" 
d="M100 388l-80 19l160 58v-105l40 44c45 49 72 61 100 61c35 0 65 -19 65 -57c0 -29 -20 -48 -44 -48c-46 0 -36 45 -71 45c-20 0 -45 -25 -90 -80v-280l100 -45h-260l80 45v343z" />
    <glyph glyph-name="s" unicode="s" horiz-adv-x="400" 
d="M200 -15c-75 0 -110 35 -110 35l-40 -35v200c40 -110 75 -170 150 -170c55 0 85 35 85 75c0 50 -28 67 -65 85l-70 33c-45 20 -105 47 -105 127c0 73 60 130 150 130c60 0 95 -30 95 -30l45 30v-175l-60 115s-25 30 -80 30c-50 0 -85 -30 -85 -70c0 -45 31 -57 80 -80
l70 -33c76 -36 100 -72 100 -132c0 -80 -70 -135 -160 -135z" />
    <glyph glyph-name="t" unicode="t" horiz-adv-x="300" 
d="M5 415l160 150v-115h105v-35h-105v-320c0 -40 20 -50 40 -50c35 0 75 40 75 40s-55 -100 -115 -100c-50 0 -80 30 -80 95v335h-80z" />
    <glyph glyph-name="u" unicode="u" horiz-adv-x="525" 
d="M75 388l-80 19l160 58v-303c0 -82 16 -117 78 -117c42 0 92 26 122 63v280l-80 19l160 58v-403l80 -19l-160 -58v93c-35 -38 -93 -93 -157 -93c-96 0 -123 65 -123 164v239z" />
    <glyph glyph-name="v" unicode="v" horiz-adv-x="500" 
d="M525 450l-90 -45l-190 -420l-190 420l-90 45h256l-80 -40l129 -285l128 285l-80 40h207z" />
    <glyph glyph-name="w" unicode="w" horiz-adv-x="705" 
d="M730 450l-90 -45l-145 -420l-148 336l-147 -336l-145 420l-90 45h253l-80 -40l92 -269l142 324l141 -322l92 267l-80 40h205z" />
    <glyph glyph-name="x" unicode="x" horiz-adv-x="520" 
d="M240 450l-70 -35l98 -130l97 125l-70 40h205l-95 -45l-116 -148l161 -212l90 -45h-250l70 35l-120 158l-120 -153l70 -40h-205l95 45l138 177l-138 183l-90 45h250z" />
    <glyph glyph-name="y" unicode="y" horiz-adv-x="495" 
d="M520 450l-90 -45l-207 -521c-34 -90 -73 -109 -113 -109c-35 0 -60 23 -60 53s20 50 45 50c18 0 28 -9 41 -20c16 -14 31 -2 45 32l56 139l-182 376l-90 45h256l-80 -40l135 -282l112 282l-80 40h212z" />
    <glyph glyph-name="z" unicode="z" horiz-adv-x="455" 
d="M340 30l80 110v-140h-390l280 420h-175l-80 -110v140h365l-280 -420h200z" />
    <glyph glyph-name="afii10017" unicode="&#x410;" 
d="M-20 0l105 55l205 485l-95 110h147l248 -590l100 -60h-280l85 50l-65 155h-241l-64 -155l90 -50h-235zM310 495l-106 -255h212z" />
    <glyph glyph-name="afii10018" unicode="&#x411;" horiz-adv-x="610" 
d="M210 595v-235h95c145 0 260 -55 260 -180s-115 -180 -260 -180h-290l100 55v540l-100 55h510v-210l-90 175h-190zM210 325v-270l35 -20h50c90 0 160 35 160 145s-70 145 -160 145h-85z" />
    <glyph glyph-name="afii10019" unicode="&#x412;" horiz-adv-x="620" 
d="M15 0l100 55v540l-100 55h305c135 0 225 -45 225 -155c0 -125 -135 -145 -135 -145v-5s170 -15 170 -165c0 -125 -110 -180 -255 -180h-310zM310 325h-100v-270l35 -20h70c90 0 155 45 155 145c0 105 -70 145 -160 145zM210 595v-235h100c80 0 135 45 135 130
c0 90 -55 125 -135 125h-65z" />
    <glyph glyph-name="afii10020" unicode="&#x413;" horiz-adv-x="565" 
d="M210 595v-540l110 -55h-305l100 55v540l-100 55h510v-210l-90 175h-190z" />
    <glyph glyph-name="afii10021" unicode="&#x414;" horiz-adv-x="695" 
d="M655 650l-100 -55v-540l36 -20h104l-110 -245v210h-490v-210l-110 245h60c95 0 165 155 165 450v110l-100 55h545zM460 595l-35 20h-135l-35 -20v-110c0 -380 -115 -450 -115 -450h285l35 20v540z" />
    <glyph glyph-name="afii10022" unicode="&#x415;" horiz-adv-x="610" 
d="M210 595v-240h125l70 105v-245l-70 105h-125v-265l35 -20h215l90 175v-210h-535l100 55v540l-100 55h520v-210l-90 175h-200z" />
    <glyph glyph-name="afii10024" unicode="&#x416;" horiz-adv-x="975" 
d="M635 650l-100 -55v-245l243 248l-71 52h267l-153 -64l-203 -211l267 -320l90 -55h-170l-270 329v-274l100 -55h-295l100 55v274l-270 -329h-170l90 55l267 320l-203 211l-153 64h267l-71 -52l243 -248v245l-100 55h295z" />
    <glyph glyph-name="afii10025" unicode="&#x417;" horiz-adv-x="560" 
d="M55 420v245l60 -55s51 55 155 55c150 0 225 -70 225 -160c0 -135 -130 -145 -130 -145v-5s160 -5 160 -170c0 -119 -110 -200 -260 -200c-114 0 -160 55 -160 55l-60 -55v245l75 -160s40 -55 135 -55c110 0 160 65 160 165c0 105 -70 155 -170 155h-75v35h95
c70 0 130 35 130 130c0 85 -55 135 -140 135s-125 -55 -125 -55z" />
    <glyph glyph-name="afii10026" unicode="&#x418;" horiz-adv-x="730" 
d="M715 650l-100 -55v-540l100 -55h-295l100 55v463l-310 -451v-12l100 -55h-295l100 55v540l-100 55h295l-100 -55v-463l310 451v12l-100 55h295z" />
    <glyph glyph-name="afii10027" unicode="&#x419;" horiz-adv-x="730" 
d="M715 650l-100 -55v-540l100 -55h-295l100 55v463l-310 -451v-12l100 -55h-295l100 55v540l-100 55h295l-100 -55v-463l310 451v12l-100 55h295zM469 857c39 0 53 -29 53 -52c0 -66 -79 -90 -157 -90s-157 24 -157 90c0 23 14 52 53 52c26 0 49 -15 49 -40
c0 -28 -23 -33 -17 -51c5 -17 38 -26 72 -26s67 9 72 26c6 18 -17 23 -17 51c0 25 23 40 49 40z" />
    <glyph glyph-name="afii10028" unicode="&#x41a;" 
d="M310 650l-100 -55v-245l258 248l-66 52h257l-153 -64l-211 -211l305 -320l80 -55h-160l-310 329v-274l100 -55h-295l100 55v540l-100 55h295z" />
    <glyph glyph-name="afii10029" unicode="&#x41b;" horiz-adv-x="685" 
d="M670 650l-100 -55v-540l100 -55h-295l100 55v540l-35 20h-135l-35 -20v-110c0 -355 -75 -500 -190 -500c-40 0 -80 20 -80 65c0 35 25 50 45 50c50 0 35 -45 70 -45c55 0 110 135 110 430v110l-100 55h545z" />
    <glyph glyph-name="afii10030" unicode="&#x41c;" horiz-adv-x="849" 
d="M15 0l100 55v540l-100 55h198l209 -492h1l209 492h202l-100 -55v-540l100 -55h-295l100 55v505l-244 -575l-235 555v-485l100 -55h-245z" />
    <glyph glyph-name="afii10031" unicode="&#x41d;" horiz-adv-x="725" 
d="M710 650l-100 -55v-540l100 -55h-295l100 55v265h-305v-265l100 -55h-295l100 55v540l-100 55h295l-100 -55v-240h305v240l-100 55h295z" />
    <glyph glyph-name="afii10032" unicode="&#x41e;" 
d="M35 325c0 205 130 340 305 340s305 -135 305 -340s-130 -340 -305 -340s-305 135 -305 340zM145 325c0 -190 75 -310 195 -310s195 120 195 310s-75 310 -195 310s-195 -120 -195 -310z" />
    <glyph glyph-name="afii10033" unicode="&#x41f;" horiz-adv-x="715" 
d="M700 650l-100 -55v-540l100 -55h-295l100 55v540l-35 20h-225l-35 -20v-540l100 -55h-295l100 55v540l-100 55h685z" />
    <glyph glyph-name="afii10034" unicode="&#x420;" horiz-adv-x="575" 
d="M330 0h-315l100 55v540l-100 55h270c145 0 260 -50 260 -175s-115 -175 -260 -175h-75v-245zM210 615v-280h65c90 0 160 30 160 140s-70 140 -160 140h-65z" />
    <glyph glyph-name="afii10035" unicode="&#x421;" horiz-adv-x="645" 
d="M585 665v-245l-75 160s-50 55 -145 55c-135 0 -220 -120 -220 -295c0 -170 80 -295 235 -295c170 0 227 166 230 174c-2 -11 -46 -234 -260 -234c-185 0 -315 140 -315 335c0 215 131 345 315 345c114 0 175 -55 175 -55z" />
    <glyph glyph-name="afii10036" unicode="&#x422;" horiz-adv-x="625" 
d="M585 650v-210l-90 175h-135v-560l110 -55h-315l110 55v560h-135l-90 -175v210h545z" />
    <glyph glyph-name="afii10037" unicode="&#x423;" horiz-adv-x="655" 
d="M675 650l-105 -55l-250 -530c-26 -55 -60 -80 -105 -80s-80 30 -80 70s30 60 55 60c55 0 45 -50 70 -50c15 0 24 10 31 26l38 81l-239 418l-100 60h280l-85 -50l192 -324l153 324l-90 50h235z" />
    <glyph glyph-name="afii10038" unicode="&#x424;" horiz-adv-x="715" 
d="M505 650l-100 -55v-45h20c150 0 260 -80 260 -220s-110 -220 -260 -220h-20v-55l100 -55h-295l100 55v55h-20c-150 0 -260 80 -260 220s110 220 260 220h20v45l-100 55h295zM575 330c0 130 -80 185 -170 185v-370c90 0 170 55 170 185zM310 145v370
c-90 0 -170 -55 -170 -185s80 -185 170 -185z" />
    <glyph glyph-name="afii10039" unicode="&#x425;" horiz-adv-x="700" 
d="M110 55l193 270l-193 265l-110 60h295l-80 -50l144 -197l141 197l-90 50h255l-120 -55l-162 -226l227 -309l110 -60h-295l80 50l-177 242l-173 -242l90 -50h-255z" />
    <glyph glyph-name="afii10040" unicode="&#x426;" horiz-adv-x="740" 
d="M15 0l100 55v540l-100 55h295l-100 -55v-540l35 -20h225l35 20v540l-100 55h295l-100 -55v-540l36 -20h104l-110 -245v210h-615z" />
    <glyph glyph-name="afii10041" unicode="&#x427;" horiz-adv-x="660" 
d="M645 650l-100 -55v-540l100 -55h-315l120 55v285s-70 -70 -180 -70c-130 0 -180 75 -180 195v130l-100 55h295l-100 -55v-120c0 -90 25 -155 125 -155c80 0 140 45 140 45v230l-100 55h295z" />
    <glyph glyph-name="afii10042" unicode="&#x428;" horiz-adv-x="1005" 
d="M650 650l-100 -55v-540l35 -20h175l35 20v540l-100 55h295l-100 -55v-540l100 -55h-975l100 55v540l-100 55h295l-100 -55v-540l35 -20h175l35 20v540l-100 55h295z" />
    <glyph glyph-name="afii10043" unicode="&#x429;" horiz-adv-x="1030" 
d="M650 650l-100 -55v-540l35 -20h175l35 20v540l-100 55h295l-100 -55v-540l35 -20h105l-110 -245v210h-905l100 55v540l-100 55h295l-100 -55v-540l35 -20h175l35 20v540l-100 55h295z" />
    <glyph glyph-name="afii10044" unicode="&#x42a;" horiz-adv-x="695" 
d="M225 55v540l-35 20h-60l-90 -175v210h380l-100 -55v-235h85c145 0 260 -55 260 -180s-115 -180 -260 -180h-280zM320 325v-270l35 -20h40c90 0 160 35 160 145s-70 145 -160 145h-75z" />
    <glyph glyph-name="afii10045" unicode="&#x42b;" horiz-adv-x="875" 
d="M15 650h295l-100 -55v-235h85c145 0 260 -55 260 -180s-115 -180 -260 -180h-280l100 55v540zM210 325v-270l35 -20h40c90 0 160 35 160 145s-70 145 -160 145h-75zM860 650l-100 -55v-540l100 -55h-295l100 55v540l-100 55h295z" />
    <glyph glyph-name="afii10046" unicode="&#x42c;" horiz-adv-x="585" 
d="M15 650h295l-100 -55v-235h85c145 0 260 -55 260 -180s-115 -180 -260 -180h-280l100 55v540zM210 325v-270l35 -20h40c90 0 160 35 160 145s-70 145 -160 145h-75z" />
    <glyph glyph-name="afii10047" unicode="&#x42d;" horiz-adv-x="635" 
d="M50 -15v245l75 -160s50 -55 145 -55c134 0 218 113 220 305h-305v35h304c-8 176 -91 280 -219 280c-95 0 -145 -55 -145 -55l-75 -160v245l60 -55s61 55 175 55c184 0 315 -110 315 -340s-131 -340 -315 -340c-114 0 -175 55 -175 55z" />
    <glyph glyph-name="afii10048" unicode="&#x42e;" horiz-adv-x="935" 
d="M310 650l-100 -55v-250h120c8 180 116 320 285 320c175 0 285 -150 285 -340s-110 -340 -285 -340c-171 0 -280 142 -285 325h-120v-255l100 -55h-295l100 55v540l-100 55h295zM440 325c0 -175 55 -310 175 -310s175 135 175 310s-55 310 -175 310s-175 -135 -175 -310z
" />
    <glyph glyph-name="afii10049" unicode="&#x42f;" horiz-adv-x="635" 
d="M620 0h-295l100 55v245h-82l-203 -300h-165l81 49l189 260c-92 19 -155 68 -155 161c0 125 120 180 270 180h260l-100 -55v-540zM425 335v280h-55c-95 0 -170 -40 -170 -145c0 -110 80 -135 160 -135h65z" />
    <glyph glyph-name="afii10065" unicode="&#x430;" horiz-adv-x="470" 
d="M156 237l144 59v24c0 89 -20 115 -75 115s-81 -26 -81 -87c0 -31 -17 -47 -41 -47s-41 18 -41 47c0 62 113 117 173 117c109 0 145 -60 145 -145v-270l90 35s-80 -100 -115 -100s-55 21 -55 74l-77 -51c-22 -16 -42 -23 -72 -23c-61 0 -106 46 -106 115
c0 65 44 109 111 137zM300 91v176l-77 -32c-74 -31 -96 -70 -96 -120c0 -40 23 -73 69 -73c25 0 63 16 104 49z" />
    <glyph glyph-name="afii10066" unicode="&#x431;" horiz-adv-x="510" 
d="M75 330h5s50 115 175 115c140 0 220 -100 220 -230s-89 -230 -218 -230c-139 0 -222 120 -222 300c0 245 100 365 230 365h105c72 0 87 36 90 46v-21c0 -35 -10 -115 -100 -115h-105c-140 0 -165 -90 -180 -230zM244 409c-73 0 -114 -65 -114 -155
c0 -136 59 -235 141 -235c74 0 113 67 113 155c0 136 -57 235 -140 235z" />
    <glyph glyph-name="afii10067" unicode="&#x432;" horiz-adv-x="490" 
d="M20 0l80 45v360l-80 45h230c80 0 175 -20 175 -110c0 -85 -100 -100 -100 -100v-3s125 -7 125 -112c0 -100 -100 -125 -180 -125h-250zM260 215h-80v-170l18 -10h62c60 0 100 40 100 90s-30 90 -100 90zM180 405v-155h50c75 0 110 35 110 85s-35 80 -105 80h-37z" />
    <glyph glyph-name="afii10068" unicode="&#x433;" horiz-adv-x="435" 
d="M180 410v-355l100 -55h-260l80 45v360l-80 45h380v-140l-80 110h-122z" />
    <glyph glyph-name="afii10069" unicode="&#x434;" horiz-adv-x="530" 
d="M-15 35h53c79 0 112 145 112 310v60l-80 45h430l-80 -45v-360l18 -10h82l-85 -225v190h-365v-190zM340 45v360l-18 10h-114l-18 -10v-60c0 -265 -70 -310 -70 -310h202z" />
    <glyph glyph-name="afii10072" unicode="&#x436;" horiz-adv-x="700" 
d="M390 45l80 -45h-240l80 45v188l-185 -233h-145l75 45l183 221l-143 139l-120 45h225l-65 -40l175 -166v161l-80 45h240l-80 -45v-161l175 166l-65 40h225l-120 -45l-143 -139l183 -221l75 -45h-145l-185 233v-188z" />
    <glyph glyph-name="afii10070" unicode="&#x435;" horiz-adv-x="470" 
d="M425 177c-8 -115 -80 -192 -182 -192c-129 0 -208 105 -208 240c0 140 95 240 213 240c127 0 177 -90 177 -195h-310v-14c0 -159 91 -196 161 -196c49 0 113 32 149 117zM250 435c-61 0 -117 -49 -132 -135h147c50 0 80 15 80 55c0 50 -40 80 -95 80z" />
    <glyph glyph-name="afii10071" unicode="&#x451;" horiz-adv-x="470" 
d="M425 177c-8 -115 -80 -192 -182 -192c-129 0 -208 105 -208 240c0 140 95 240 213 240c127 0 177 -90 177 -195h-310v-14c0 -159 91 -196 161 -196c49 0 113 32 149 117zM250 435c-61 0 -117 -49 -132 -135h147c50 0 80 15 80 55c0 50 -40 80 -95 80zM80 610
c0 30 25 55 55 55s55 -25 55 -55s-25 -55 -55 -55s-55 25 -55 55zM275 610c0 30 25 55 55 55s55 -25 55 -55s-25 -55 -55 -55s-55 25 -55 55z" />
    <glyph glyph-name="afii10023" unicode="&#x401;" horiz-adv-x="610" 
d="M210 595v-240h125l70 105v-245l-70 105h-125v-265l35 -20h215l90 175v-210h-535l100 55v540l-100 55h520v-210l-90 175h-200zM370 780c0 30 25 55 55 55s55 -25 55 -55s-25 -55 -55 -55s-55 25 -55 55zM150 780c0 30 25 55 55 55s55 -25 55 -55s-25 -55 -55 -55
s-55 25 -55 55z" />
    <glyph glyph-name="afii10073" unicode="&#x437;" horiz-adv-x="445" 
d="M215 15c66 0 105 40 105 105c0 45 -15 100 -115 100h-65v35h70c60 0 90 30 90 80c0 40 -30 85 -110 85c-105 0 -140 -120 -140 -120v165l45 -55s45 55 125 55c85 0 165 -35 165 -120c0 -90 -95 -102 -95 -102v-3s120 -5 120 -120c0 -70 -70 -135 -195 -135
c-120 0 -185 55 -185 120c0 30 15 50 40 50c30 0 38 -28 38 -50c0 -55 32 -90 107 -90z" />
    <glyph glyph-name="afii10074" unicode="&#x438;" horiz-adv-x="565" 
d="M305 0l80 45v294l-205 -281v-13l80 -45h-240l80 45v360l-80 45h240l-80 -45v-294l205 281v13l-80 45h240l-80 -45v-360l80 -45h-240z" />
    <glyph glyph-name="afii10075" unicode="&#x439;" horiz-adv-x="565" 
d="M195 645c23 0 43 -12 43 -37c0 -28 -23 -33 -17 -51c5 -17 27 -27 61 -27c35 0 56 10 62 27c6 18 -17 23 -17 51c0 25 20 37 43 37c36 0 49 -26 49 -49c0 -66 -69 -86 -137 -86s-136 20 -136 86c0 23 13 49 49 49zM305 0l80 45v294l-205 -281v-13l80 -45h-240l80 45v360
l-80 45h240l-80 -45v-294l205 281v13l-80 45h240l-80 -45v-360l80 -45h-240z" />
    <glyph glyph-name="afii10076" unicode="&#x43a;" horiz-adv-x="505" 
d="M20 0l80 45v360l-80 45h240l-80 -45v-161l175 166l-60 40h215l-115 -45l-143 -139l198 -221l70 -45h-140l-200 234v-189l80 -45h-240z" />
    <glyph glyph-name="afii10077" unicode="&#x43b;" horiz-adv-x="540" 
d="M280 0l80 45v360l-18 10h-114l-18 -10v-60c0 -155 -22 -355 -147 -355c-28 0 -58 17 -58 53c0 32 18 45 41 45c31 0 26 -32 52 -32c39 0 72 124 72 289v60l-80 45h430l-80 -45v-360l80 -45h-240z" />
    <glyph glyph-name="afii10078" unicode="&#x43c;" horiz-adv-x="655" 
d="M395 0l80 45v330l-170 -390l-170 390v-330l80 -45h-195l80 45v360l-80 45h170l140 -320l140 320h165l-80 -45v-360l80 -45h-240z" />
    <glyph glyph-name="afii10079" unicode="&#x43d;" horiz-adv-x="555" 
d="M20 0l80 45v360l-80 45h240l-80 -45v-155h195v155l-80 45h240l-80 -45v-360l80 -45h-240l80 45v170h-195v-170l80 -45h-240z" />
    <glyph glyph-name="afii10080" unicode="&#x43e;" horiz-adv-x="504" 
d="M239 430c-73 0 -114 -65 -114 -165c0 -146 59 -245 141 -245c74 0 113 67 113 165c0 146 -57 245 -140 245zM35 225c0 130 88 240 217 240c139 0 217 -110 217 -240s-88 -240 -217 -240c-139 0 -217 110 -217 240z" />
    <glyph glyph-name="afii10081" unicode="&#x43f;" horiz-adv-x="555" 
d="M180 405v-360l80 -45h-240l80 45v360l-80 45h515l-80 -45v-360l80 -45h-240l80 45v360l-18 10h-159z" />
    <glyph glyph-name="afii10082" unicode="&#x440;" horiz-adv-x="510" 
d="M150 339v-234c0 -55 50 -85 98 -85c77 0 142 65 142 190c0 130 -60 190 -135 190c-40 0 -76 -19 -105 -61zM-10 -210l80 45v553l-80 19l160 58v-99c35 54 80 99 145 99c105 0 180 -85 180 -230c0 -150 -91 -250 -210 -250c-80 0 -115 45 -115 45v-195l80 -45h-240z" />
    <glyph glyph-name="afii10083" unicode="&#x441;" horiz-adv-x="455" 
d="M425 177c-8 -115 -80 -192 -182 -192c-129 0 -208 105 -208 240c0 140 99 240 218 240c100 0 159 -54 159 -112c0 -31 -24 -47 -47 -47c-30 0 -43 26 -43 48c0 52 -27 81 -71 81c-70 0 -136 -67 -136 -179c0 -149 91 -196 161 -196c49 0 113 32 149 117z" />
    <glyph glyph-name="afii10084" unicode="&#x442;" horiz-adv-x="470" 
d="M105 0l90 45v375h-80l-80 -110v140h400v-140l-80 110h-80v-375l90 -45h-260z" />
    <glyph glyph-name="afii10085" unicode="&#x443;" horiz-adv-x="495" 
d="M520 450l-90 -45l-207 -521c-34 -90 -73 -109 -113 -109c-35 0 -60 23 -60 53s20 50 45 50c18 0 28 -9 41 -20c16 -14 31 -2 45 32l56 139l-182 376l-90 45h256l-80 -40l135 -282l112 282l-80 40h212z" />
    <glyph glyph-name="afii10086" unicode="&#x444;" horiz-adv-x="710" 
d="M235 -210l80 45v214c-2 -3 -32 -64 -110 -64c-95 0 -170 80 -170 240s75 240 170 240c76 0 107 -59 110 -65v238l-80 19l160 58v-315c3 9 36 65 110 65c95 0 170 -80 170 -240s-75 -240 -170 -240c-76 0 -107 58 -110 64v-214l80 -45h-240zM480 425
c-65 0 -85 -60 -85 -60v-281c1 -3 21 -59 85 -59c75 0 105 95 105 200s-30 200 -105 200zM315 85v280s-20 60 -85 60c-75 0 -105 -95 -105 -200s30 -200 105 -200c65 0 85 60 85 60z" />
    <glyph glyph-name="afii10087" unicode="&#x445;" horiz-adv-x="520" 
d="M240 450l-70 -35l98 -130l97 125l-70 40h205l-95 -45l-116 -148l161 -212l90 -45h-250l70 35l-120 158l-120 -153l70 -40h-205l95 45l138 177l-138 183l-90 45h250z" />
    <glyph glyph-name="afii10088" unicode="&#x446;" horiz-adv-x="565" 
d="M375 45v360l-80 45h240l-80 -45v-360l18 -10h82l-85 -225v190h-450l80 45v360l-80 45h240l-80 -45v-360l18 -10h159z" />
    <glyph glyph-name="afii10089" unicode="&#x447;" horiz-adv-x="515" 
d="M335 45v185s-50 -55 -130 -55c-75 0 -135 35 -135 130v100l-80 45h240l-80 -45v-100c0 -65 35 -90 85 -90c60 0 100 35 100 35v155l-80 45h240l-80 -45v-360l80 -45h-260z" />
    <glyph glyph-name="afii10090" unicode="&#x448;" horiz-adv-x="770" 
d="M590 45v360l-70 45h230l-80 -45v-360l80 -45h-730l80 45v360l-80 45h230l-70 -45v-360l18 -10h147v370l-70 45h220l-70 -45v-370h147z" />
    <glyph glyph-name="afii10091" unicode="&#x449;" horiz-adv-x="780" 
d="M590 45v360l-80 45h240l-80 -45v-360l18 -10h82l-85 -225v190h-665l80 45v360l-80 45h230l-70 -45v-360l18 -10h147v370l-70 45h220l-70 -45v-370h147z" />
    <glyph glyph-name="afii10092" unicode="&#x44a;" horiz-adv-x="530" 
d="M170 45v365l-18 10h-37l-80 -110v140h295l-80 -45v-155h75c80 0 180 -25 180 -125s-100 -125 -180 -125h-235zM320 215h-70v-170l18 -10h52c60 0 100 40 100 90s-30 90 -100 90z" />
    <glyph glyph-name="afii10093" unicode="&#x44b;" horiz-adv-x="690" 
d="M20 0l80 45v360l-80 45h240l-80 -45v-155h75c80 0 180 -25 180 -125s-100 -125 -180 -125h-235zM250 215h-70v-170l18 -10h52c60 0 100 40 100 90s-30 90 -100 90zM430 0l80 45v360l-80 45h240l-80 -45v-360l80 -45h-240z" />
    <glyph glyph-name="afii10094" unicode="&#x44c;" horiz-adv-x="460" 
d="M20 0l80 45v360l-80 45h240l-80 -45v-155h75c80 0 180 -25 180 -125s-100 -125 -180 -125h-235zM250 215h-70v-170l18 -10h52c60 0 100 40 100 90s-30 90 -100 90z" />
    <glyph glyph-name="afii10095" unicode="&#x44d;" horiz-adv-x="470" 
d="M140 220v35h203c-10 119 -70 165 -148 165c-100 0 -142 -109 -145 -119v164l45 -55s50 55 130 55c130 0 210 -90 210 -240c0 -155 -90 -240 -225 -240c-110 0 -175 60 -175 125c0 30 15 50 40 50c30 0 38 -28 38 -50c0 -60 32 -95 97 -95c70 0 135 55 135 205h-205z" />
    <glyph glyph-name="afii10096" unicode="&#x44e;" horiz-adv-x="714" 
d="M20 0l80 45v360l-80 45h240l-80 -45v-160h85c8 121 84 220 207 220c139 0 207 -110 207 -240s-78 -240 -207 -240c-134 0 -202 101 -207 225h-85v-165l80 -45h-240zM458 430c-73 0 -103 -75 -103 -165c0 -141 49 -245 131 -245c74 0 103 77 103 165
c0 141 -48 245 -131 245z" />
    <glyph glyph-name="afii10097" unicode="&#x44f;" horiz-adv-x="505" 
d="M485 450l-80 -45v-360l80 -45h-240l80 45v155h-59l-144 -200h-137l70 45l124 162c-58 13 -109 46 -109 118c0 100 100 125 180 125h235zM255 235h70v170l-18 10h-52c-60 0 -100 -40 -100 -90s30 -90 100 -90z" />
    <glyph glyph-name="uni0406" unicode="&#x406;" horiz-adv-x="325" 
d="M310 650l-100 -55v-540l100 -55h-295l100 55v540l-100 55h295z" />
    <glyph glyph-name="afii10103" unicode="&#x456;" horiz-adv-x="275" 
d="M20 407l80 -19v-343l-80 -45h240l-80 45v420zM75 610c0 30 25 55 55 55s55 -25 55 -55s-25 -55 -55 -55s-55 25 -55 55z" />
    <glyph glyph-name="afii10062" unicode="&#x40e;" horiz-adv-x="655" 
d="M675 650l-105 -55l-250 -530c-26 -55 -60 -80 -105 -80s-80 30 -80 70s30 60 55 60c55 0 45 -50 70 -50c15 0 24 10 31 26l38 81l-239 418l-100 60h280l-85 -50l192 -324l153 324l-90 50h235zM454 857c39 0 53 -29 53 -52c0 -66 -79 -90 -157 -90s-157 24 -157 90
c0 23 14 52 53 52c26 0 49 -15 49 -40c0 -28 -23 -33 -17 -51c5 -17 38 -26 72 -26s67 9 72 26c6 18 -17 23 -17 51c0 25 23 40 49 40z" />
    <glyph glyph-name="afii10110" unicode="&#x45e;" horiz-adv-x="495" 
d="M520 450l-90 -45l-207 -521c-34 -90 -73 -109 -113 -109c-35 0 -60 23 -60 53s20 50 45 50c18 0 28 -9 41 -20c16 -14 31 -2 45 32l56 139l-182 376l-90 45h256l-80 -40l135 -282l112 282l-80 40h212zM175 645c23 0 43 -12 43 -37c0 -28 -23 -33 -17 -51
c5 -17 27 -27 61 -27c35 0 56 10 62 27c6 18 -17 23 -17 51c0 25 20 37 43 37c36 0 49 -26 49 -49c0 -66 -69 -86 -137 -86s-136 20 -136 86c0 23 13 49 49 49z" />
    <glyph glyph-name="afii10051" unicode="&#x402;" horiz-adv-x="725" 
d="M595 148c0 120 -35 207 -140 207c-80 0 -125 -60 -125 -60v-240l100 -55h-295l100 55v560h-105l-90 -175v210h580v-210l-90 175h-200v-290s70 75 165 75c145 0 195 -115 195 -235c0 -340 -343 -385 -355 -390c8 6 260 67 260 373z" />
    <glyph glyph-name="afii10099" unicode="&#x452;" horiz-adv-x="515" 
d="M175 520v-150c35 48 75 95 140 95c85 0 155 -75 155 -254c0 -345 -308 -431 -320 -436c8 6 240 97 240 423c0 112 -31 207 -113 207c-42 0 -72 -29 -102 -66v-294l80 -45h-240l80 45v475h-110v35h110v83l-80 19l160 58v-160h125v-35h-125z" />
    <glyph glyph-name="afii10105" unicode="&#x458;" horiz-adv-x="230" 
d="M80 388v-388c0 -130 -15 -190 -45 -190c-25 0 -11 70 -66 70c-24 0 -44 -17 -44 -46c0 -40 35 -59 75 -59c100 0 160 90 160 265v425l-160 -58zM55 610c0 30 25 55 55 55s55 -25 55 -55s-25 -55 -55 -55s-55 25 -55 55z" />
    <glyph glyph-name="afii10057" unicode="&#x408;" horiz-adv-x="515" 
d="M510 650l-100 -55v-370c0 -155 -80 -240 -200 -240c-137 0 -180 85 -180 150c0 70 37 93 70 93c40 0 55 -28 55 -53c0 -55 -50 -40 -50 -85c0 -40 35 -75 100 -75c70 0 110 48 110 150v430l-120 55h315z" />
    <glyph glyph-name="afii10058" unicode="&#x409;" horiz-adv-x="955" 
d="M675 650l-100 -55v-235h90c145 0 260 -55 260 -180s-115 -180 -260 -180h-285l100 55v540l-35 20h-140l-35 -20v-110c0 -355 -75 -500 -190 -500c-40 0 -80 20 -80 65c0 35 25 50 45 50c50 0 35 -45 70 -45c55 0 110 135 110 430v110l-100 55h550zM575 325v-270l35 -20
h45c90 0 160 35 160 145s-70 145 -160 145h-80z" />
    <glyph glyph-name="afii10106" unicode="&#x459;" horiz-adv-x="710" 
d="M270 0l80 45v360l-18 10h-104l-18 -10v-60c0 -155 -22 -355 -147 -355c-28 0 -58 17 -58 53c0 32 18 45 41 45c31 0 26 -32 52 -32c39 0 72 124 72 289v60l-80 45h420l-80 -45v-155h75c80 0 180 -25 180 -125s-100 -125 -180 -125h-235zM500 215h-70v-170l18 -10h52
c60 0 100 40 100 90s-30 90 -100 90z" />
    <glyph glyph-name="afii10107" unicode="&#x45a;" horiz-adv-x="735" 
d="M20 0l80 45v360l-80 45h240l-80 -45v-155h195v155l-80 45h240l-80 -45v-155h75c80 0 180 -25 180 -125s-100 -125 -180 -125h-235l80 45v170h-195v-170l80 -45h-240zM525 215h-70v-170l18 -10h52c60 0 100 40 100 90s-30 90 -100 90z" />
    <glyph glyph-name="afii10059" unicode="&#x40a;" horiz-adv-x="985" 
d="M700 650l-100 -55v-235h95c145 0 260 -55 260 -180s-115 -180 -260 -180h-290l100 55v270h-295v-270l100 -55h-295l100 55v540l-100 55h295l-100 -55v-235h295v235l-100 55h295zM600 325v-270l35 -20h50c90 0 160 35 160 145s-70 145 -160 145h-85z" />
    <glyph glyph-name="afii10060" unicode="&#x40b;" horiz-adv-x="750" 
d="M135 0l100 55v560h-105l-90 -175v210h580v-210l-90 175h-200v-290s70 75 165 75c145 0 175 -105 175 -225v-120l100 -55h-295l100 55v115c0 100 -15 185 -120 185c-80 0 -125 -60 -125 -60v-240l100 -55h-295z" />
    <glyph glyph-name="afii10108" unicode="&#x45b;" horiz-adv-x="530" 
d="M175 520v-148c35 38 88 93 152 93c96 0 123 -65 123 -164v-256l80 -45h-240l80 45v243c0 82 -16 117 -78 117c-42 0 -87 -26 -117 -63v-297l80 -45h-240l80 45v475h-110v35h110v83l-80 19l160 58v-160h125v-35h-125z" />
    <glyph glyph-name="afii10145" unicode="&#x40f;" horiz-adv-x="715" 
d="M15 0l100 55v540l-100 55h295l-100 -55v-540l35 -20h225l35 20v540l-100 55h295l-100 -55v-540l100 -55h-290l-53 -210l-53 210h-289z" />
    <glyph glyph-name="afii10193" unicode="&#x45f;" horiz-adv-x="555" 
d="M277 -190l-42 190h-215l80 45v360l-80 45h240l-80 -45v-360l18 -10h159l18 10v360l-80 45h240l-80 -45v-360l80 -45h-216z" />
    <glyph glyph-name="uni04D8" unicode="&#x4d8;" horiz-adv-x="675" 
d="M90 420v245l60 -55s61 55 185 55c190 0 305 -130 305 -340c0 -205 -130 -340 -305 -340c-190 0 -305 130 -305 335v35h499c-7 172 -76 280 -204 280c-105 0 -160 -55 -160 -55zM335 15c119 0 193 118 195 305h-390c0 -190 65 -305 195 -305z" />
    <glyph glyph-name="afii10846" unicode="&#x4d9;" horiz-adv-x="470" 
d="M45 273c8 115 80 192 182 192c129 0 208 -105 208 -240c0 -140 -90 -240 -208 -240c-127 0 -182 90 -182 195h309c0 4 1 9 1 14c0 159 -91 196 -161 196c-49 0 -113 -32 -149 -117zM225 15c60 0 113 48 127 135h-147c-50 0 -80 -15 -80 -55c0 -50 45 -80 100 -80z" />
    <glyph glyph-name="uni0492" unicode="&#x492;" horiz-adv-x="565" 
d="M10 320v35h105v240l-100 55h510v-210l-90 175h-190l-35 -20v-240h180v-35h-180v-265l110 -55h-305l100 55v265h-105z" />
    <glyph glyph-name="uni0493" unicode="&#x493;" horiz-adv-x="435" 
d="M10 215v35h90v155l-80 45h380v-140l-80 110h-122l-18 -10v-160h120v-35h-120v-160l100 -55h-260l80 45v170h-90z" />
    <glyph glyph-name="uni049A" unicode="&#x49a;" horiz-adv-x="690" 
d="M310 650l-100 -55v-245l258 248l-66 52h257l-153 -64l-211 -211l324 -340h91l-110 -245v210h-80l-310 329v-274l100 -55h-295l100 55v540l-100 55h295z" />
    <glyph glyph-name="uni049B" unicode="&#x49b;" horiz-adv-x="515" 
d="M20 0l80 45v360l-80 45h240l-80 -45v-161l175 166l-60 40h215l-115 -45l-143 -139l207 -231h71l-85 -225v190h-65l-200 234v-189l80 -45h-240z" />
    <glyph glyph-name="uni04A2" unicode="&#x4a2;" horiz-adv-x="750" 
d="M640 0h-225l100 55v265h-305v-265l100 -55h-295l100 55v540l-100 55h295l-100 -55v-240h305v240l-100 55h295l-100 -55v-540l36 -20h104l-110 -245v210z" />
    <glyph glyph-name="uni04A3" unicode="&#x4a3;" horiz-adv-x="565" 
d="M20 0l80 45v360l-80 45h240l-80 -45v-155h195v155l-80 45h240l-80 -45v-360l18 -10h82l-85 -225v190h-175l80 45v170h-195v-170l80 -45h-240z" />
    <glyph glyph-name="uni04E8" unicode="&#x4e8;" 
d="M35 325c0 205 130 340 305 340s305 -135 305 -340s-130 -340 -305 -340s-305 135 -305 340zM340 15c119 0 193 118 195 305h-390c1 -187 76 -305 195 -305zM340 635c-114 0 -187 -108 -195 -280h389c-7 172 -81 280 -194 280z" />
    <glyph glyph-name="uni04E9" unicode="&#x4e9;" horiz-adv-x="504" 
d="M35 225c0 130 88 240 217 240c139 0 217 -110 217 -240s-88 -240 -217 -240c-139 0 -217 110 -217 240zM379 185c0 10 -1 20 -1 30h-251c12 -118 66 -195 139 -195c74 0 113 67 113 165zM239 430c-73 0 -114 -65 -114 -165v-15h250c-15 109 -66 180 -136 180z" />
    <glyph glyph-name="uni04AE" unicode="&#x4ae;" horiz-adv-x="670" 
d="M270 650l-80 -50l175 -275l175 275l-80 50h230l-100 -55l-195 -308v-232l100 -55h-295l100 55v205l-210 330l-100 60h280z" />
    <glyph glyph-name="uni04AF" unicode="&#x4af;" horiz-adv-x="500" 
d="M525 450l-90 -45l-145 -321v-249l80 -45h-240l80 45v227l-155 343l-90 45h256l-80 -40l129 -285l128 285l-80 40h207z" />
    <glyph glyph-name="uni04B0" unicode="&#x4b0;" horiz-adv-x="670" 
d="M150 180v35h150v45l-210 330l-100 60h280l-80 -50l175 -275l175 275l-80 50h230l-100 -55l-195 -308v-72h150v-35h-150v-125l100 -55h-295l100 55v125h-150z" />
    <glyph glyph-name="uni04B1" unicode="&#x4b1;" horiz-adv-x="500" 
d="M80 0v35h130v26l-155 344l-90 45h256l-80 -40l129 -285l128 285l-80 40h207l-90 -45l-145 -322v-48h130v-35h-130v-165l80 -45h-240l80 45v165h-130z" />
    <glyph glyph-name="uni04BA" unicode="&#x4ba;" horiz-adv-x="640" 
d="M115 55v540l-100 55h295l-100 -55v-270s70 75 165 75c145 0 175 -105 175 -225v-120l100 -55h-295l100 55v115c0 100 -15 185 -120 185c-80 0 -125 -60 -125 -60v-240l100 -55h-295z" />
    <glyph glyph-name="uni04BB" unicode="&#x4bb;" horiz-adv-x="530" 
d="M290 0l80 45v243c0 82 -16 117 -78 117c-42 0 -87 -26 -117 -63v-297l80 -45h-240l80 45v593l-80 19l160 58v-343c35 38 88 93 152 93c96 0 123 -65 123 -164v-256l80 -45h-240z" />
    <glyph glyph-name="afii10100" unicode="&#x453;" horiz-adv-x="435" 
d="M180 410v-355l100 -55h-260l80 45v360l-80 45h380v-140l-80 110h-122zM275 700h115l-230 -200z" />
    <glyph glyph-name="afii10052" unicode="&#x403;" horiz-adv-x="565" 
d="M210 595v-540l110 -55h-305l100 55v540l-100 55h510v-210l-90 175h-190zM350 900h135l-250 -200z" />
    <glyph glyph-name="afii10054" unicode="&#x405;" horiz-adv-x="530" 
d="M455 665v-215l-75 135s-50 50 -125 50c-80 0 -135 -50 -135 -110c0 -54 46 -89 105 -115l125 -55c64 -28 140 -65 140 -175c0 -125 -105 -195 -235 -195c-95 0 -145 45 -145 45l-60 -45v245l80 -165s40 -50 125 -50s145 50 145 130s-68 101 -110 120l-125 55
c-71 31 -125 81 -125 165c0 125 100 180 215 180c85 0 140 -45 140 -45z" />
    <glyph glyph-name="afii10102" unicode="&#x455;" horiz-adv-x="400" 
d="M200 -15c-75 0 -110 35 -110 35l-40 -35v200c40 -110 75 -170 150 -170c55 0 85 35 85 75c0 50 -28 67 -65 85l-70 33c-45 20 -105 47 -105 127c0 73 60 130 150 130c60 0 95 -30 95 -30l45 30v-175l-60 115s-25 30 -80 30c-50 0 -85 -30 -85 -70c0 -45 31 -57 80 -80
l70 -33c76 -36 100 -72 100 -132c0 -80 -70 -135 -160 -135z" />
    <glyph glyph-name="afii10061" unicode="&#x40c;" 
d="M400 900h135l-250 -200zM310 650l-100 -55v-245l258 248l-66 52h257l-153 -64l-211 -211l305 -320l80 -55h-160l-310 329v-274l100 -55h-295l100 55v540l-100 55h295z" />
    <glyph glyph-name="afii10109" unicode="&#x45c;" horiz-adv-x="505" 
d="M320 700h115l-230 -200zM100 45l-80 -45h240l-80 45v189l200 -234h140l-70 45l-198 221l143 139l115 45h-215l60 -40l-175 -166v161l80 45h-240l80 -45v-360z" />
    <glyph glyph-name="uni0498" unicode="&#x498;" horiz-adv-x="560" 
d="M55 420v245l60 -55s51 55 155 55c150 0 225 -70 225 -160c0 -135 -130 -145 -130 -145v-5s160 -5 160 -170c0 -110 -94 -187 -227 -198l-20 -32s62 -5 62 -70c0 -50 -42 -85 -105 -85c-44 0 -64 24 -65 25c3 -2 18 -10 45 -10c40 0 60 25 60 55c0 25 -17 40 -40 40
c-9 0 -15 -2 -15 -2l47 77h-2c-114 0 -160 55 -160 55l-60 -55v245l75 -160s40 -55 135 -55c110 0 160 65 160 165c0 105 -70 155 -170 155h-75v35h95c70 0 130 35 130 130c0 85 -55 135 -140 135s-125 -55 -125 -55z" />
    <glyph glyph-name="uni0499" unicode="&#x499;" horiz-adv-x="445" 
d="M215 15c66 0 105 40 105 105c0 45 -15 100 -115 100h-65v35h70c60 0 90 30 90 80c0 40 -30 85 -110 85c-105 0 -140 -120 -140 -120v165l45 -55s45 55 125 55c85 0 165 -35 165 -120c0 -90 -95 -102 -95 -102v-3s120 -5 120 -120c0 -66 -62 -126 -172 -134l-20 -31
s62 -5 62 -70c0 -50 -42 -85 -105 -85c-44 0 -64 23 -65 25c2 -2 17 -10 45 -10c40 0 60 25 60 55c0 25 -17 40 -40 40c-9 0 -15 -2 -15 -2l47 77c-115 2 -177 56 -177 120c0 30 15 50 40 50c30 0 38 -28 38 -50c0 -55 32 -90 107 -90z" />
    <glyph glyph-name="uni04A0" unicode="&#x4a0;" horiz-adv-x="770" 
d="M390 650l-100 -55v-245l258 248l-66 52h257l-153 -64l-211 -211l305 -320l80 -55h-160l-310 329v-274l100 -55h-295l100 55v540l-35 20h-40l-90 -175v210h360z" />
    <glyph glyph-name="uni04A1" unicode="&#x4a1;" horiz-adv-x="545" 
d="M60 0l80 45v365l-18 10h-27l-80 -110v140h285l-80 -45v-161l175 166l-60 40h215l-115 -45l-143 -139l198 -221l70 -45h-140l-200 234v-189l80 -45h-240z" />
    <glyph glyph-name="uni04AA" unicode="&#x4aa;" horiz-adv-x="645" 
d="M585 665v-245l-75 160s-50 55 -145 55c-135 0 -220 -120 -220 -295c0 -170 80 -295 235 -295c170 0 227 166 230 174c-2 -11 -45 -225 -249 -233l-18 -31s62 -5 62 -70c0 -50 -42 -85 -105 -85c-44 0 -64 23 -65 25c2 -2 17 -10 45 -10c40 0 60 25 60 55
c0 25 -17 40 -40 40c-9 0 -15 -2 -15 -2l48 78c-176 8 -298 145 -298 334c0 215 131 345 315 345c114 0 175 -55 175 -55z" />
    <glyph glyph-name="uni04AB" unicode="&#x4ab;" horiz-adv-x="455" 
d="M425 177c-8 -108 -71 -181 -162 -191l-20 -31s62 -5 62 -70c0 -50 -42 -85 -105 -85c-44 0 -64 23 -65 25c2 -2 17 -10 45 -10c40 0 60 25 60 55c0 25 -17 40 -40 40c-9 0 -15 -2 -15 -2l47 77c-122 6 -197 108 -197 240c0 140 99 240 218 240c100 0 159 -54 159 -112
c0 -31 -24 -47 -47 -47c-30 0 -43 26 -43 48c0 52 -27 81 -71 81c-70 0 -136 -67 -136 -179c0 -149 91 -196 161 -196c49 0 113 32 149 117z" />
    <glyph glyph-name="uni0496" unicode="&#x496;" horiz-adv-x="975" 
d="M635 650l-100 -55v-245l243 248l-71 52h267l-153 -64l-203 -211l283 -340h104l-110 -245v210h-90l-270 329v-274l100 -55h-295l100 55v274l-270 -329h-170l90 55l267 320l-203 211l-153 64h267l-71 -52l243 -248v245l-100 55h295z" />
    <glyph glyph-name="uni0497" unicode="&#x497;" horiz-adv-x="700" 
d="M390 45l80 -45h-240l80 45v188l-185 -233h-145l75 45l183 221l-143 139l-120 45h225l-65 -40l175 -166v161l-80 45h240l-80 -45v-161l175 166l-65 40h225l-120 -45l-143 -139l191 -231h82l-85 -225v190h-75l-185 233v-188z" />
    <glyph glyph-name="afii10050" unicode="&#x490;" horiz-adv-x="540" 
d="M210 595v-540l110 -55h-305l100 55v540l-100 55h410l90 205v-240h-270z" />
    <glyph glyph-name="afii10098" unicode="&#x491;" horiz-adv-x="400" 
d="M180 410v-355l100 -55h-260l80 45v360l-80 45h285l80 170v-200h-187z" />
    <glyph glyph-name="afii10101" unicode="&#x454;" horiz-adv-x="455" 
d="M295 255v-35h-178c13 -122 95 -160 159 -160c49 0 113 32 149 117c-8 -115 -80 -192 -182 -192c-129 0 -208 105 -208 240c0 140 99 240 218 240c100 0 159 -54 159 -112c0 -31 -24 -47 -47 -47c-30 0 -43 26 -43 48c0 52 -27 81 -71 81c-70 0 -136 -68 -136 -180h180z
" />
    <glyph glyph-name="afii10053" unicode="&#x404;" horiz-adv-x="635" 
d="M585 230v-245l-60 55s-61 -55 -175 -55c-184 0 -315 110 -315 340s131 340 315 340c114 0 175 -55 175 -55l60 55v-245l-75 160s-50 55 -145 55c-128 0 -211 -104 -219 -280h304v-35h-305c2 -192 86 -305 220 -305c95 0 145 55 145 55z" />
    <glyph glyph-name="afii10056" unicode="&#x407;" horiz-adv-x="325" 
d="M310 650l-100 -55v-540l100 -55h-295l100 55v540l-100 55h295zM17 780c0 30 25 55 55 55s55 -25 55 -55s-25 -55 -55 -55s-55 25 -55 55zM198 780c0 30 25 55 55 55s55 -25 55 -55s-25 -55 -55 -55s-55 25 -55 55z" />
    <glyph glyph-name="afii10104" unicode="&#x457;" horiz-adv-x="275" 
d="M20 407l80 -19v-343l-80 -45h240l-80 45v420zM-10 610c0 30 25 55 55 55s55 -25 55 -55s-25 -55 -55 -55s-55 25 -55 55zM165 610c0 30 25 55 55 55s55 -25 55 -55s-25 -55 -55 -55s-55 25 -55 55z" />
    <glyph glyph-name="uni04B2" unicode="&#x4b2;" horiz-adv-x="700" 
d="M110 55l193 270l-193 265l-110 60h295l-80 -50l144 -197l141 197l-90 50h255l-120 -55l-162 -226l245 -334h107l-110 -245v210h-200l80 50l-177 242l-173 -242l90 -50h-255z" />
    <glyph glyph-name="uni04B3" unicode="&#x4b3;" horiz-adv-x="520" 
d="M240 450l-70 -35l98 -130l97 125l-70 40h205l-95 -45l-116 -148l168 -222h83l-85 -225v190h-165l70 35l-120 158l-120 -153l70 -40h-205l95 45l138 177l-138 183l-90 45h250z" />
    <glyph glyph-name="Ccedilla" unicode="&#xc7;" horiz-adv-x="645" 
d="M585 665v-245l-75 160s-50 55 -145 55c-135 0 -220 -120 -220 -295c0 -170 80 -295 235 -295c170 0 227 166 230 174c-2 -11 -45 -225 -249 -233l-18 -31s62 -5 62 -70c0 -50 -42 -85 -105 -85c-44 0 -64 23 -65 25c2 -2 17 -10 45 -10c40 0 60 25 60 55
c0 25 -17 40 -40 40c-9 0 -15 -2 -15 -2l48 78c-176 8 -298 145 -298 334c0 215 131 345 315 345c114 0 175 -55 175 -55z" />
    <glyph glyph-name="ccedilla" unicode="&#xe7;" horiz-adv-x="455" 
d="M425 177c-8 -108 -71 -181 -162 -191l-20 -31s62 -5 62 -70c0 -50 -42 -85 -105 -85c-44 0 -64 23 -65 25c2 -2 17 -10 45 -10c40 0 60 25 60 55c0 25 -17 40 -40 40c-9 0 -15 -2 -15 -2l47 77c-122 6 -197 108 -197 240c0 140 99 240 218 240c100 0 159 -54 159 -112
c0 -31 -24 -47 -47 -47c-30 0 -43 26 -43 48c0 52 -27 81 -71 81c-70 0 -136 -67 -136 -179c0 -149 91 -196 161 -196c49 0 113 32 149 117z" />
    <glyph glyph-name="Edieresis" unicode="&#xcb;" horiz-adv-x="610" 
d="M210 595v-240h125l70 105v-245l-70 105h-125v-265l35 -20h215l90 175v-210h-535l100 55v540l-100 55h520v-210l-90 175h-200zM370 780c0 30 25 55 55 55s55 -25 55 -55s-25 -55 -55 -55s-55 25 -55 55zM150 780c0 30 25 55 55 55s55 -25 55 -55s-25 -55 -55 -55
s-55 25 -55 55z" />
    <glyph glyph-name="edieresis" unicode="&#xeb;" horiz-adv-x="470" 
d="M425 177c-8 -115 -80 -192 -182 -192c-129 0 -208 105 -208 240c0 140 95 240 213 240c127 0 177 -90 177 -195h-310v-14c0 -159 91 -196 161 -196c49 0 113 32 149 117zM250 435c-61 0 -117 -49 -132 -135h147c50 0 80 15 80 55c0 50 -40 80 -95 80zM80 610
c0 30 25 55 55 55s55 -25 55 -55s-25 -55 -55 -55s-55 25 -55 55zM275 610c0 30 25 55 55 55s55 -25 55 -55s-25 -55 -55 -55s-55 25 -55 55z" />
    <glyph glyph-name="Ntilde" unicode="&#xd1;" horiz-adv-x="735" 
d="M140 650l440 -480v425l-110 55h255l-100 -55v-610l-465 507v-437l110 -55h-255l100 55v486l-100 109h125zM476 715c-91 0 -166 55 -236 55c-72 0 -85 -61 -87 -73c-1 8 -7 143 114 143c91 0 166 -55 236 -55c69 0 84 57 87 71c0 -11 4 -141 -114 -141z" />
    <glyph glyph-name="ntilde" unicode="&#xf1;" horiz-adv-x="535" 
d="M295 0l80 45v243c0 82 -16 117 -78 117c-42 0 -87 -26 -117 -63v-297l80 -45h-240l80 45v343l-80 19l160 58v-93c35 38 88 93 152 93c96 0 123 -65 123 -164v-256l80 -45h-240zM435 670c0 0 12 -125 -82 -125c-56 0 -133 45 -183 45c-54 0 -62 -65 -62 -65
s-12 125 82 125c56 0 133 -45 183 -45c54 0 62 65 62 65z" />
    <glyph glyph-name="Aacute" unicode="&#xc1;" 
d="M-20 0l105 55l205 485l-95 110h147l248 -590l100 -60h-280l85 50l-65 155h-241l-64 -155l90 -50h-235zM310 495l-106 -255h212zM379 900h135l-250 -200z" />
    <glyph glyph-name="aacute" unicode="&#xe1;" horiz-adv-x="470" 
d="M300 296l-144 -59c-67 -28 -111 -72 -111 -137c0 -69 45 -115 106 -115c30 0 50 7 72 23l77 51c0 -53 20 -74 55 -74s115 100 115 100l-90 -35v270c0 85 -36 145 -145 145c-60 0 -173 -55 -173 -117c0 -29 17 -47 41 -47s41 16 41 47c0 61 26 87 81 87s75 -26 75 -115
v-24zM300 91c-41 -33 -79 -49 -104 -49c-46 0 -69 33 -69 73c0 50 22 89 96 120l77 32v-176zM275 700h115l-230 -200z" />
    <glyph glyph-name="Acircumflex" unicode="&#xc2;" 
d="M-20 0l105 55l205 485l-95 110h147l248 -590l100 -60h-280l85 50l-65 155h-241l-64 -155l90 -50h-235zM310 495l-106 -255h212zM325 800l-200 -100l200 190l200 -190z" />
    <glyph glyph-name="acircumflex" unicode="&#xe2;" horiz-adv-x="470" 
d="M156 237l144 59v24c0 89 -20 115 -75 115s-81 -26 -81 -87c0 -31 -17 -47 -41 -47s-41 18 -41 47c0 62 113 117 173 117c109 0 145 -60 145 -145v-270l90 35s-80 -100 -115 -100s-55 21 -55 74l-77 -51c-22 -16 -42 -23 -72 -23c-61 0 -106 46 -106 115
c0 65 44 109 111 137zM300 91v176l-77 -32c-74 -31 -96 -70 -96 -120c0 -40 23 -73 69 -73c25 0 63 16 104 49zM226 590l-160 -90l160 180l160 -180z" />
    <glyph glyph-name="Atilde" unicode="&#xc3;" 
d="M-20 0l105 55l205 485l-95 110h147l248 -590l100 -60h-280l85 50l-65 155h-241l-64 -155l90 -50h-235zM441 715c-91 0 -166 55 -236 55c-72 0 -85 -61 -87 -73c-1 8 -7 143 114 143c91 0 166 -55 236 -55c69 0 84 57 87 71c0 -11 4 -141 -114 -141zM310 495l-106 -255
h212z" />
    <glyph glyph-name="atilde" unicode="&#xe3;" horiz-adv-x="470" 
d="M156 237l144 59v24c0 89 -20 115 -75 115s-81 -26 -81 -87c0 -31 -17 -47 -41 -47s-41 18 -41 47c0 62 113 117 173 117c109 0 145 -60 145 -145v-270l90 35s-80 -100 -115 -100s-55 21 -55 74l-77 -51c-22 -16 -42 -23 -72 -23c-61 0 -106 46 -106 115
c0 65 44 109 111 137zM300 91v176l-77 -32c-74 -31 -96 -70 -96 -120c0 -40 23 -73 69 -73c25 0 63 16 104 49zM400 670c0 0 12 -125 -82 -125c-56 0 -133 45 -183 45c-54 0 -62 -65 -62 -65s-12 125 82 125c56 0 133 -45 183 -45c54 0 62 65 62 65z" />
    <glyph glyph-name="Agrave" unicode="&#xc0;" 
d="M-20 0l105 55l205 485l-95 110h147l248 -590l100 -60h-280l85 50l-65 155h-241l-64 -155l90 -50h-235zM310 495l-106 -255h212zM155 900h135l115 -200z" />
    <glyph glyph-name="agrave" unicode="&#xe0;" horiz-adv-x="470" 
d="M156 237l144 59v24c0 89 -20 115 -75 115s-81 -26 -81 -87c0 -31 -17 -47 -41 -47s-41 18 -41 47c0 62 113 117 173 117c109 0 145 -60 145 -145v-270l90 35s-80 -100 -115 -100s-55 21 -55 74l-77 -51c-22 -16 -42 -23 -72 -23c-61 0 -106 46 -106 115
c0 65 44 109 111 137zM300 91v176l-77 -32c-74 -31 -96 -70 -96 -120c0 -40 23 -73 69 -73c25 0 63 16 104 49zM90 700h115l115 -200z" />
    <glyph glyph-name="Eacute" unicode="&#xc9;" horiz-adv-x="610" 
d="M210 595v-240h125l70 105v-245l-70 105h-125v-265l35 -20h215l90 175v-210h-535l100 55v540l-100 55h520v-210l-90 175h-200zM334 900h135l-250 -200z" />
    <glyph glyph-name="eacute" unicode="&#xe9;" horiz-adv-x="470" 
d="M425 177c-8 -115 -80 -192 -182 -192c-129 0 -208 105 -208 240c0 140 95 240 213 240c127 0 177 -90 177 -195h-310v-14c0 -159 91 -196 161 -196c49 0 113 32 149 117zM250 435c-61 0 -117 -49 -132 -135h147c50 0 80 15 80 55c0 50 -40 80 -95 80zM275 700h115
l-230 -200z" />
    <glyph glyph-name="Ecircumflex" unicode="&#xca;" horiz-adv-x="610" 
d="M210 595v-240h125l70 105v-245l-70 105h-125v-265l35 -20h215l90 175v-210h-535l100 55v540l-100 55h520v-210l-90 175h-200zM315 800l-200 -100l200 190l200 -190z" />
    <glyph glyph-name="ecircumflex" unicode="&#xea;" horiz-adv-x="470" 
d="M425 177c-8 -115 -80 -192 -182 -192c-129 0 -208 105 -208 240c0 140 95 240 213 240c127 0 177 -90 177 -195h-310v-14c0 -159 91 -196 161 -196c49 0 113 32 149 117zM250 435c-61 0 -117 -49 -132 -135h147c50 0 80 15 80 55c0 50 -40 80 -95 80zM236 590l-160 -90
l160 180l160 -180z" />
    <glyph glyph-name="Iacute" unicode="&#xcd;" horiz-adv-x="325" 
d="M310 650l-100 -55v-540l100 -55h-295l100 55v540l-100 55h295zM199 900h135l-250 -200z" />
    <glyph glyph-name="iacute" unicode="&#xed;" horiz-adv-x="275" 
d="M20 407l80 -19v-343l-80 -45h240l-80 45v420zM165 700h115l-230 -200z" />
    <glyph glyph-name="Oacute" unicode="&#xd3;" 
d="M35 325c0 205 130 340 305 340s305 -135 305 -340s-130 -340 -305 -340s-305 135 -305 340zM145 325c0 -190 75 -310 195 -310s195 120 195 310s-75 310 -195 310s-195 -120 -195 -310zM399 900h135l-250 -200z" />
    <glyph glyph-name="oacute" unicode="&#xf3;" horiz-adv-x="504" 
d="M239 430c-73 0 -114 -65 -114 -165c0 -146 59 -245 141 -245c74 0 113 67 113 165c0 146 -57 245 -140 245zM35 225c0 130 88 240 217 240c139 0 217 -110 217 -240s-88 -240 -217 -240c-139 0 -217 110 -217 240zM290 700h115l-230 -200z" />
    <glyph glyph-name="Ocircumflex" unicode="&#xd4;" 
d="M35 325c0 205 130 340 305 340s305 -135 305 -340s-130 -340 -305 -340s-305 135 -305 340zM145 325c0 -190 75 -310 195 -310s195 120 195 310s-75 310 -195 310s-195 -120 -195 -310zM340 800l-200 -100l200 190l200 -190z" />
    <glyph glyph-name="ocircumflex" unicode="&#xf4;" horiz-adv-x="504" 
d="M239 430c-73 0 -114 -65 -114 -165c0 -146 59 -245 141 -245c74 0 113 67 113 165c0 146 -57 245 -140 245zM35 225c0 130 88 240 217 240c139 0 217 -110 217 -240s-88 -240 -217 -240c-139 0 -217 110 -217 240zM256 590l-160 -90l160 180l160 -180z" />
    <glyph glyph-name="Otilde" unicode="&#xd5;" 
d="M35 325c0 205 130 340 305 340s305 -135 305 -340s-130 -340 -305 -340s-305 135 -305 340zM145 325c0 -190 75 -310 195 -310s195 120 195 310s-75 310 -195 310s-195 -120 -195 -310zM446 715c-71 0 -146 55 -216 55c-56 0 -89 -65 -92 -75c3 13 39 145 129 145
c71 0 146 -55 216 -55c57 0 90 71 92 74c-2 -7 -38 -144 -129 -144z" />
    <glyph glyph-name="otilde" unicode="&#xf5;" horiz-adv-x="504" 
d="M35 225c0 130 88 240 217 240c139 0 217 -110 217 -240s-88 -240 -217 -240c-139 0 -217 110 -217 240zM239 430c-73 0 -114 -65 -114 -165c0 -146 59 -245 141 -245c74 0 113 67 113 165c0 146 -57 245 -140 245zM326 530c-61 0 -106 45 -156 45c-46 0 -69 -47 -72 -55
c2 13 30 115 99 115c61 0 106 -45 156 -45c47 0 71 52 72 54c-1 -5 -27 -114 -99 -114z" />
    <glyph glyph-name="Uacute" unicode="&#xda;" horiz-adv-x="700" 
d="M200 217v378l100 55h-295l100 -55v-363c0 -137 70 -247 257 -247c167 0 238 110 238 247v363l100 55h-245l100 -55v-378c0 -98 -50 -177 -178 -177s-177 79 -177 177zM389 900h135l-250 -200z" />
    <glyph glyph-name="uacute" unicode="&#xfa;" horiz-adv-x="525" 
d="M75 388l-80 19l160 58v-303c0 -82 16 -117 78 -117c42 0 92 26 122 63v280l-80 19l160 58v-403l80 -19l-160 -58v93c-35 -38 -93 -93 -157 -93c-96 0 -123 65 -123 164v239zM320 700h115l-230 -200z" />
    <glyph glyph-name="Adieresis" unicode="&#xc4;" 
d="M-20 0l105 55l205 485l-95 110h147l248 -590l100 -60h-280l85 50l-65 155h-241l-64 -155l90 -50h-235zM310 495l-106 -255h212zM145 780c0 30 25 55 55 55s55 -25 55 -55s-25 -55 -55 -55s-55 25 -55 55zM365 780c0 30 25 55 55 55s55 -25 55 -55s-25 -55 -55 -55
s-55 25 -55 55z" />
    <glyph glyph-name="adieresis" unicode="&#xe4;" horiz-adv-x="470" 
d="M300 296l-144 -59c-67 -28 -111 -72 -111 -137c0 -69 45 -115 106 -115c30 0 50 7 72 23l77 51c0 -53 20 -74 55 -74s115 100 115 100l-90 -35v270c0 85 -36 145 -145 145c-60 0 -173 -55 -173 -117c0 -29 17 -47 41 -47s41 16 41 47c0 61 26 87 81 87s75 -26 75 -115
v-24zM300 91c-41 -33 -79 -49 -104 -49c-46 0 -69 33 -69 73c0 50 22 89 96 120l77 32v-176zM80 610c0 30 25 55 55 55s55 -25 55 -55s-25 -55 -55 -55s-55 25 -55 55zM275 610c0 30 25 55 55 55s55 -25 55 -55s-25 -55 -55 -55s-55 25 -55 55z" />
    <glyph glyph-name="Odieresis" unicode="&#xd6;" 
d="M35 325c0 205 130 340 305 340s305 -135 305 -340s-130 -340 -305 -340s-305 135 -305 340zM145 325c0 -190 75 -310 195 -310s195 120 195 310s-75 310 -195 310s-195 -120 -195 -310zM175 780c0 30 25 55 55 55s55 -25 55 -55s-25 -55 -55 -55s-55 25 -55 55zM395 780
c0 30 25 55 55 55s55 -25 55 -55s-25 -55 -55 -55s-55 25 -55 55z" />
    <glyph glyph-name="odieresis" unicode="&#xf6;" horiz-adv-x="504" 
d="M239 430c-73 0 -114 -65 -114 -165c0 -146 59 -245 141 -245c74 0 113 67 113 165c0 146 -57 245 -140 245zM35 225c0 130 88 240 217 240c139 0 217 -110 217 -240s-88 -240 -217 -240c-139 0 -217 110 -217 240zM100 610c0 30 25 55 55 55s55 -25 55 -55
s-25 -55 -55 -55s-55 25 -55 55zM295 610c0 30 25 55 55 55s55 -25 55 -55s-25 -55 -55 -55s-55 25 -55 55z" />
    <glyph glyph-name="Udieresis" unicode="&#xdc;" horiz-adv-x="700" 
d="M200 217v378l100 55h-295l100 -55v-363c0 -137 70 -247 257 -247c167 0 238 110 238 247v363l100 55h-245l100 -55v-378c0 -98 -50 -177 -178 -177s-177 79 -177 177zM195 780c0 30 25 55 55 55s55 -25 55 -55s-25 -55 -55 -55s-55 25 -55 55zM415 780c0 30 25 55 55 55
s55 -25 55 -55s-25 -55 -55 -55s-55 25 -55 55z" />
    <glyph glyph-name="udieresis" unicode="&#xfc;" horiz-adv-x="525" 
d="M75 388l-80 19l160 58v-303c0 -82 16 -117 78 -117c42 0 92 26 122 63v280l-80 19l160 58v-403l80 -19l-160 -58v93c-35 -38 -93 -93 -157 -93c-96 0 -123 65 -123 164v239zM95 610c0 30 25 55 55 55s55 -25 55 -55s-25 -55 -55 -55s-55 25 -55 55zM290 610
c0 30 25 55 55 55s55 -25 55 -55s-25 -55 -55 -55s-55 25 -55 55z" />
    <glyph glyph-name="germandbls" unicode="&#xdf;" horiz-adv-x="595" 
d="M150 490v-40h389l-142 -163s173 8 173 -142c0 -85 -70 -160 -200 -160c-115 0 -180 55 -180 120c0 30 15 50 40 50c30 0 38 -28 38 -50c0 -55 27 -90 102 -90c70 0 110 50 110 125c0 55 -25 120 -125 120c-50 0 -80 -15 -80 -15l144 170h-251l-18 -10v-570l95 -45h-255
l80 45v615c0 175 100 265 210 265c55 0 105 -19 105 -59c0 -29 -20 -46 -44 -46c-55 0 -51 70 -96 70c-55 0 -95 -60 -95 -190z" />
    <glyph glyph-name="Egrave" unicode="&#xc8;" horiz-adv-x="610" 
d="M210 595v-240h125l70 105v-245l-70 105h-125v-265l35 -20h215l90 175v-210h-535l100 55v540l-100 55h520v-210l-90 175h-200zM124 900h135l115 -200z" />
    <glyph glyph-name="egrave" unicode="&#xe8;" horiz-adv-x="470" 
d="M425 177c-8 -115 -80 -192 -182 -192c-129 0 -208 105 -208 240c0 140 95 240 213 240c127 0 177 -90 177 -195h-310v-14c0 -159 91 -196 161 -196c49 0 113 32 149 117zM250 435c-61 0 -117 -49 -132 -135h147c50 0 80 15 80 55c0 50 -40 80 -95 80zM85 700h115
l115 -200z" />
    <glyph glyph-name="ugrave" unicode="&#xf9;" horiz-adv-x="525" 
d="M75 388l-80 19l160 58v-303c0 -82 16 -117 78 -117c42 0 92 26 122 63v280l-80 19l160 58v-403l80 -19l-160 -58v93c-35 -38 -93 -93 -157 -93c-96 0 -123 65 -123 164v239zM80 700h115l115 -200z" />
    <glyph glyph-name="Ugrave" unicode="&#xd9;" horiz-adv-x="700" 
d="M200 595v-378c0 -98 49 -177 177 -177s178 79 178 177v378l-100 55h245l-100 -55v-363c0 -137 -71 -247 -238 -247c-187 0 -257 110 -257 247v363l-100 55h295zM169 900h135l115 -200z" />
    <glyph glyph-name="Icircumflex" unicode="&#xce;" horiz-adv-x="325" 
d="M310 650l-100 -55v-540l100 -55h-295l100 55v540l-100 55h295zM162 800l-200 -100l200 190l200 -190z" />
    <glyph glyph-name="icircumflex" unicode="&#xee;" horiz-adv-x="275" 
d="M100 388l-80 19l160 58v-420l80 -45h-240l80 45v343zM135 590l-160 -90l160 180l160 -180z" />
    <glyph glyph-name="Ucircumflex" unicode="&#xdb;" horiz-adv-x="700" 
d="M200 595v-378c0 -98 49 -177 177 -177s178 79 178 177v378l-100 55h245l-100 -55v-363c0 -137 -71 -247 -238 -247c-187 0 -257 110 -257 247v363l-100 55h295zM365 800l-200 -100l200 190l200 -190z" />
    <glyph glyph-name="ucircumflex" unicode="&#xfb;" horiz-adv-x="525" 
d="M75 388l-80 19l160 58v-303c0 -82 16 -117 78 -117c42 0 92 26 122 63v280l-80 19l160 58v-403l80 -19l-160 -58v93c-35 -38 -93 -93 -157 -93c-96 0 -123 65 -123 164v239zM250 590l-160 -90l160 180l160 -180z" />
    <glyph glyph-name="Idieresis" unicode="&#xcf;" horiz-adv-x="325" 
d="M310 650l-100 -55v-540l100 -55h-295l100 55v540l-100 55h295zM17 780c0 30 25 55 55 55s55 -25 55 -55s-25 -55 -55 -55s-55 25 -55 55zM198 780c0 30 25 55 55 55s55 -25 55 -55s-25 -55 -55 -55s-55 25 -55 55z" />
    <glyph glyph-name="idieresis" unicode="&#xef;" horiz-adv-x="275" 
d="M20 407l80 -19v-343l-80 -45h240l-80 45v420zM-10 610c0 30 25 55 55 55s55 -25 55 -55s-25 -55 -55 -55s-55 25 -55 55zM165 610c0 30 25 55 55 55s55 -25 55 -55s-25 -55 -55 -55s-55 25 -55 55z" />
    <glyph glyph-name="ydieresis" unicode="&#xff;" horiz-adv-x="495" 
d="M520 450l-90 -45l-207 -521c-34 -90 -73 -109 -113 -109c-35 0 -60 23 -60 53s20 50 45 50c18 0 28 -9 41 -20c16 -14 31 -2 45 32l56 139l-182 376l-90 45h256l-80 -40l135 -282l112 282l-80 40h212zM106 610c0 30 25 55 55 55s55 -25 55 -55s-25 -55 -55 -55
s-55 25 -55 55zM301 610c0 30 25 55 55 55s55 -25 55 -55s-25 -55 -55 -55s-55 25 -55 55z" />
    <glyph glyph-name="Ydieresis" unicode="&#x178;" horiz-adv-x="670" 
d="M270 650l-80 -50l175 -275l175 275l-80 50h230l-100 -55l-195 -308v-232l100 -55h-295l100 55v205l-210 330l-100 60h280zM415 780c0 30 25 55 55 55s55 -25 55 -55s-25 -55 -55 -55s-55 25 -55 55zM195 780c0 30 25 55 55 55s55 -25 55 -55s-25 -55 -55 -55
s-55 25 -55 55z" />
    <glyph glyph-name="Ccaron" unicode="&#x10c;" horiz-adv-x="645" 
d="M340 790l200 100l-200 -190l-200 190zM585 665v-245l-75 160s-50 55 -145 55c-135 0 -220 -120 -220 -295c0 -170 80 -295 235 -295c170 0 227 166 230 174c-2 -11 -46 -234 -260 -234c-185 0 -315 140 -315 335c0 215 131 345 315 345c114 0 175 -55 175 -55z" />
    <glyph glyph-name="ccaron" unicode="&#x10d;" horiz-adv-x="455" 
d="M425 177c-8 -115 -80 -192 -182 -192c-129 0 -208 105 -208 240c0 140 99 240 218 240c100 0 159 -54 159 -112c0 -31 -24 -47 -47 -47c-30 0 -43 26 -43 48c0 52 -27 81 -71 81c-70 0 -136 -67 -136 -179c0 -149 91 -196 161 -196c49 0 113 32 149 117zM240 590l160 90
l-160 -180l-160 180z" />
    <glyph glyph-name="Cacute" unicode="&#x106;" horiz-adv-x="645" 
d="M349 900h135l-250 -200zM585 665v-245l-75 160s-50 55 -145 55c-135 0 -220 -120 -220 -295c0 -170 80 -295 235 -295c170 0 227 166 230 174c-2 -11 -46 -234 -260 -234c-185 0 -315 140 -315 335c0 215 131 345 315 345c114 0 175 -55 175 -55z" />
    <glyph glyph-name="cacute" unicode="&#x107;" horiz-adv-x="455" 
d="M425 177c-8 -115 -80 -192 -182 -192c-129 0 -208 105 -208 240c0 140 99 240 218 240c100 0 159 -54 159 -112c0 -31 -24 -47 -47 -47c-30 0 -43 26 -43 48c0 52 -27 81 -71 81c-70 0 -136 -67 -136 -179c0 -149 91 -196 161 -196c49 0 113 32 149 117zM255 700h115
l-230 -200z" />
    <glyph glyph-name="Zcaron" unicode="&#x17d;" horiz-adv-x="600" 
d="M35 0l372 615h-257l-90 -175v210h480l-373 -615h288l90 175v-210h-510zM305 790l200 100l-200 -190l-200 190z" />
    <glyph glyph-name="zcaron" unicode="&#x17e;" horiz-adv-x="455" 
d="M340 30l80 110v-140h-390l280 420h-175l-80 -110v140h365l-280 -420h200zM230 590l160 90l-160 -180l-160 180z" />
    <glyph glyph-name="Dcroat" unicode="&#x110;" horiz-adv-x="660" 
d="M10 320v35h105v240l-100 55h265c175 0 345 -100 345 -325s-170 -325 -345 -325h-265l100 55v265h-105zM210 595v-240h180v-35h-180v-265l35 -20h35c120 0 235 80 235 290s-115 290 -235 290h-35z" />
    <glyph glyph-name="dcroat" unicode="&#x111;" horiz-adv-x="530" 
d="M440 520v-458l80 -19l-160 -58v99c-35 -54 -80 -99 -145 -99c-105 0 -180 85 -180 230c0 150 91 250 210 250c80 0 115 -45 115 -45v100h-125v35h125v83l-80 19l160 58v-160h110v-35h-110zM360 111v234c0 55 -50 85 -98 85c-77 0 -142 -65 -142 -190
c0 -130 60 -190 135 -190c40 0 76 19 105 61z" />
    <glyph glyph-name="Scaron" unicode="&#x160;" horiz-adv-x="530" 
d="M255 790l200 100l-200 -190l-200 190zM455 665v-215l-75 135s-50 50 -125 50c-80 0 -135 -50 -135 -110c0 -54 46 -89 105 -115l125 -55c64 -28 140 -65 140 -175c0 -125 -105 -195 -235 -195c-95 0 -145 45 -145 45l-60 -45v245l80 -165s40 -50 125 -50s145 50 145 130
s-68 101 -110 120l-125 55c-71 31 -125 81 -125 165c0 125 100 180 215 180c85 0 140 -45 140 -45z" />
    <glyph glyph-name="scaron" unicode="&#x161;" horiz-adv-x="400" 
d="M195 590l160 90l-160 -180l-160 180zM200 -15c-75 0 -110 35 -110 35l-40 -35v200c40 -110 75 -170 150 -170c55 0 85 35 85 75c0 50 -28 67 -65 85l-70 33c-45 20 -105 47 -105 127c0 73 60 130 150 130c60 0 95 -30 95 -30l45 30v-175l-60 115s-25 30 -80 30
c-50 0 -85 -30 -85 -70c0 -45 31 -57 80 -80l70 -33c76 -36 100 -72 100 -132c0 -80 -70 -135 -160 -135z" />
    <glyph glyph-name="Dcaron" unicode="&#x10e;" horiz-adv-x="660" 
d="M280 0h-265l100 55v540l-100 55h265c175 0 345 -100 345 -325s-170 -325 -345 -325zM210 595v-540l35 -20h35c120 0 235 80 235 290s-115 290 -235 290h-35zM300 790l200 100l-200 -190l-200 190z" />
    <glyph glyph-name="dcaron" unicode="&#x10f;" horiz-adv-x="580" 
d="M440 715v-653l80 -19l-160 -58v99c-35 -54 -80 -99 -145 -99c-105 0 -180 85 -180 230c0 150 91 250 210 250c80 0 115 -45 115 -45v218l-80 19zM360 111v234c0 55 -50 85 -98 85c-77 0 -142 -65 -142 -190c0 -130 60 -190 135 -190c40 0 76 19 105 61zM495 645
c0 30 25 55 55 55c35 0 55 -25 55 -55c0 -40 -25 -75 -90 -150l40 95h-5c-30 0 -55 25 -55 55z" />
    <glyph glyph-name="Ecaron" unicode="&#x11a;" horiz-adv-x="610" 
d="M210 595v-240h125l70 105v-245l-70 105h-125v-265l35 -20h215l90 175v-210h-535l100 55v540l-100 55h520v-210l-90 175h-200zM315 790l200 100l-200 -190l-200 190z" />
    <glyph glyph-name="ecaron" unicode="&#x11b;" horiz-adv-x="470" 
d="M425 177c-8 -115 -80 -192 -182 -192c-129 0 -208 105 -208 240c0 140 95 240 213 240c127 0 177 -90 177 -195h-310v-14c0 -159 91 -196 161 -196c49 0 113 32 149 117zM250 435c-61 0 -117 -49 -132 -135h147c50 0 80 15 80 55c0 50 -40 80 -95 80zM240 590l160 90
l-160 -180l-160 180z" />
    <glyph glyph-name="Rcaron" unicode="&#x158;" horiz-adv-x="640" 
d="M310 0h-295l100 55v540l-100 55h270c145 0 260 -50 260 -175c0 -96 -68 -148 -165 -167l206 -254l89 -54h-170l-233 300h-62v-245zM210 615v-280h65c90 0 160 30 160 140s-70 140 -160 140h-65zM295 790l200 100l-200 -190l-200 190z" />
    <glyph glyph-name="rcaron" unicode="&#x159;" horiz-adv-x="410" 
d="M100 388l-80 19l160 58v-105l40 44c45 49 72 61 100 61c35 0 65 -19 65 -57c0 -29 -20 -48 -44 -48c-46 0 -36 45 -71 45c-20 0 -45 -25 -90 -80v-280l100 -45h-260l80 45v343zM210 590l160 90l-160 -180l-160 180z" />
    <glyph glyph-name="Tcaron" unicode="&#x164;" horiz-adv-x="625" 
d="M585 650v-210l-90 175h-135v-560l110 -55h-315l110 55v560h-135l-90 -175v210h545zM312 790l200 100l-200 -190l-200 190z" />
    <glyph glyph-name="tcaron" unicode="&#x165;" horiz-adv-x="330" 
d="M165 565l-160 -150h80v-335c0 -65 30 -95 80 -95c60 0 115 100 115 100s-40 -40 -75 -40c-20 0 -40 10 -40 50v320h105v35h-105v115zM200 645c0 30 25 55 55 55c35 0 55 -25 55 -55c0 -40 -25 -75 -90 -150l40 95h-5c-30 0 -55 25 -55 55z" />
    <glyph glyph-name="uring" unicode="&#x16f;" horiz-adv-x="525" 
d="M75 388l-80 19l160 58v-303c0 -82 16 -117 78 -117c42 0 92 26 122 63v280l-80 19l160 58v-403l80 -19l-160 -58v93c-35 -38 -93 -93 -157 -93c-96 0 -123 65 -123 164v239zM160 610c0 52 38 95 95 95s95 -43 95 -95s-38 -95 -95 -95s-95 43 -95 95zM198 610
c0 -38 26 -60 57 -60s57 22 57 60s-26 60 -57 60s-57 -22 -57 -60z" />
    <glyph glyph-name="Uring" unicode="&#x16e;" horiz-adv-x="700" 
d="M200 217v378l100 55h-295l100 -55v-363c0 -137 70 -247 257 -247c167 0 238 110 238 247v363l100 55h-245l100 -55v-378c0 -98 -50 -177 -178 -177s-177 79 -177 177zM275 800c0 52 38 95 95 95s95 -43 95 -95s-38 -95 -95 -95s-95 43 -95 95zM313 800
c0 -38 26 -60 57 -60s57 22 57 60s-26 60 -57 60s-57 -22 -57 -60z" />
    <glyph glyph-name="yacute" unicode="&#xfd;" horiz-adv-x="495" 
d="M520 450l-90 -45l-207 -521c-34 -90 -73 -109 -113 -109c-35 0 -60 23 -60 53s20 50 45 50c18 0 28 -9 41 -20c16 -14 31 -2 45 32l56 139l-182 376l-90 45h256l-80 -40l135 -282l112 282l-80 40h212zM315 700h115l-230 -200z" />
    <glyph glyph-name="Yacute" unicode="&#xdd;" horiz-adv-x="670" 
d="M270 650l-80 -50l175 -275l175 275l-80 50h230l-100 -55l-195 -308v-232l100 -55h-295l100 55v205l-210 330l-100 60h280zM424 900h135l-250 -200z" />
    <glyph glyph-name="OE" unicode="&#x152;" horiz-adv-x="1000" 
d="M35 325c0 215 155 340 330 340c65 0 120 -15 120 -15h440v-210l-90 175h-200l-35 -20v-240h125l70 105v-245l-70 105h-125v-265l35 -20h215l90 175v-210h-455s-55 -15 -120 -15c-175 0 -330 125 -330 340zM145 325c0 -200 100 -310 220 -310c85 0 140 40 140 80v460
c0 40 -55 80 -140 80c-120 0 -220 -110 -220 -310z" />
    <glyph glyph-name="oe" unicode="&#x153;" horiz-adv-x="824" 
d="M239 430c-73 0 -114 -65 -114 -165c0 -146 59 -245 141 -245c74 0 113 67 113 165c0 146 -57 245 -140 245zM779 177c-8 -115 -80 -192 -182 -192c-77 0 -135 36 -171 94c-38 -57 -99 -94 -174 -94c-139 0 -217 110 -217 240s88 240 217 240c81 0 142 -38 178 -95
c38 59 101 95 172 95c127 0 177 -90 177 -195h-310v-14c0 -159 91 -196 161 -196c49 0 113 32 149 117zM604 435c-61 0 -117 -49 -132 -135h147c50 0 80 15 80 55c0 50 -40 80 -95 80z" />
    <glyph glyph-name="AE" unicode="&#xc6;" horiz-adv-x="910" 
d="M-40 0l105 55l350 540l-100 55h520v-210l-90 175h-200l-35 -20v-240h125l70 105v-245l-70 105h-125v-265l35 -20h215l90 175v-210h-535l100 55v150h-209l-99 -155l90 -50h-237zM229 240h186v290z" />
    <glyph glyph-name="ae" unicode="&#xe6;" horiz-adv-x="745" 
d="M225 465c76 0 126 -29 150 -76c39 47 95 76 158 76c127 0 177 -65 177 -170l-310 -48c3 -151 92 -187 161 -187c49 0 113 32 149 117c-8 -115 -80 -192 -182 -192c-94 0 -161 55 -191 137c-22 -87 -89 -137 -167 -137c-85 0 -135 51 -135 115c0 70 39 123 207 150l78 12
v58c0 89 -40 115 -105 115c-55 0 -81 -26 -81 -87c0 -31 -17 -47 -41 -47s-41 18 -41 47c0 62 113 117 173 117zM205 47c75 0 115 61 115 144v43l-50 -7c-116 -18 -153 -47 -153 -107c0 -40 33 -73 88 -73zM535 435c-66 0 -128 -58 -135 -160l160 26c50 8 70 19 70 54
c0 50 -40 80 -95 80z" />
    <glyph glyph-name="Aring" unicode="&#xc5;" 
d="M-20 0l105 55l205 485l-95 110h147l248 -590l100 -60h-280l85 50l-65 155h-241l-64 -155l90 -50h-235zM235 800c0 52 38 95 95 95s95 -43 95 -95s-38 -95 -95 -95s-95 43 -95 95zM310 495l-106 -255h212zM273 800c0 -38 26 -60 57 -60s57 22 57 60s-26 60 -57 60
s-57 -22 -57 -60z" />
    <glyph glyph-name="aring" unicode="&#xe5;" horiz-adv-x="470" 
d="M156 237l144 59v24c0 89 -20 115 -75 115s-81 -26 -81 -87c0 -31 -17 -47 -41 -47s-41 18 -41 47c0 62 113 117 173 117c109 0 145 -60 145 -145v-270l90 35s-80 -100 -115 -100s-55 21 -55 74l-77 -51c-22 -16 -42 -23 -72 -23c-61 0 -106 46 -106 115
c0 65 44 109 111 137zM300 91v176l-77 -32c-74 -31 -96 -70 -96 -120c0 -40 23 -73 69 -73c25 0 63 16 104 49zM135 610c0 52 38 95 95 95s95 -43 95 -95s-38 -95 -95 -95s-95 43 -95 95zM173 610c0 -38 26 -60 57 -60s57 22 57 60s-26 60 -57 60s-57 -22 -57 -60z" />
    <glyph glyph-name="Oslash" unicode="&#xd8;" 
d="M85 -15l-28 23l61 74c-52 59 -83 143 -83 243c0 205 130 340 305 340c76 0 144 -26 196 -72l59 72l28 -23l-61 -75c52 -59 83 -142 83 -242c0 -205 -130 -340 -305 -340c-77 0 -144 26 -196 72zM145 325c0 -69 10 -128 28 -176l317 388c-34 63 -85 98 -150 98
c-120 0 -195 -120 -195 -310zM535 325c0 68 -10 127 -28 175l-318 -388c34 -62 86 -97 151 -97c120 0 195 120 195 310z" />
    <glyph glyph-name="oslash" unicode="&#xf8;" horiz-adv-x="504" 
d="M78 -15l-28 23l40 49c-36 44 -55 103 -55 168c0 130 88 240 217 240c55 0 100 -18 135 -47l39 47l28 -23l-41 -50c36 -43 56 -103 56 -167c0 -130 -88 -240 -217 -240c-56 0 -101 17 -136 46zM379 185c0 53 -8 101 -22 139l-193 -235c25 -44 60 -69 102 -69
c74 0 113 67 113 165zM239 430c-73 0 -114 -65 -114 -165c0 -54 8 -101 22 -139l193 235c-24 44 -59 69 -101 69z" />
    <glyph glyph-name="Ohungarumlaut" unicode="&#x150;" 
d="M35 325c0 205 130 340 305 340s305 -135 305 -340s-130 -340 -305 -340s-305 135 -305 340zM145 325c0 -190 75 -310 195 -310s195 120 195 310s-75 310 -195 310s-195 -120 -195 -310zM319 900h135l-250 -200zM499 900h135l-250 -200z" />
    <glyph glyph-name="ohungarumlaut" unicode="&#x151;" horiz-adv-x="504" 
d="M239 430c-73 0 -114 -65 -114 -165c0 -146 59 -245 141 -245c74 0 113 67 113 165c0 146 -57 245 -140 245zM35 225c0 130 88 240 217 240c139 0 217 -110 217 -240s-88 -240 -217 -240c-139 0 -217 110 -217 240zM230 700h115l-230 -200zM400 700h115l-230 -200z" />
    <glyph glyph-name="Uhungarumlaut" unicode="&#x170;" horiz-adv-x="700" 
d="M200 217v378l100 55h-295l100 -55v-363c0 -137 70 -247 257 -247c167 0 238 110 238 247v363l100 55h-245l100 -55v-378c0 -98 -50 -177 -178 -177s-177 79 -177 177zM339 900h135l-250 -200zM519 900h135l-250 -200z" />
    <glyph glyph-name="uhungarumlaut" unicode="&#x171;" horiz-adv-x="525" 
d="M75 388l-80 19l160 58v-303c0 -82 16 -117 78 -117c42 0 92 26 122 63v280l-80 19l160 58v-403l80 -19l-160 -58v93c-35 -38 -93 -93 -157 -93c-96 0 -123 65 -123 164v239zM220 700h115l-230 -200zM390 700h115l-230 -200z" />
    <glyph glyph-name="Eth" unicode="&#xd0;" horiz-adv-x="660" 
d="M10 320v35h105v240l-100 55h265c175 0 345 -100 345 -325s-170 -325 -345 -325h-265l100 55v265h-105zM210 595v-240h180v-35h-180v-265l35 -20h35c120 0 235 80 235 290s-115 290 -235 290h-35z" />
    <glyph glyph-name="eth" unicode="&#xf0;" horiz-adv-x="507" 
d="M438 650l-111 -64c80 -67 145 -169 145 -321c0 -175 -90 -280 -220 -280c-139 0 -217 105 -217 230s78 230 207 230c60 0 98 -24 121 -49c-19 66 -50 119 -86 161l-112 -64l-18 30l105 61c-93 94 -206 128 -215 131c6 -1 142 -20 260 -105l123 70zM239 410
c-73 0 -114 -60 -114 -155c0 -141 59 -235 141 -235c74 0 113 67 113 155c0 141 -57 235 -140 235z" />
    <glyph glyph-name="Thorn" unicode="&#xde;" horiz-adv-x="590" 
d="M310 650l-100 -55v-65h70c180 0 280 -75 280 -200s-100 -200 -280 -200h-70v-75l100 -55h-295l100 55v540l-100 55h295zM260 495h-50v-330h50c120 0 190 55 190 165s-70 165 -190 165z" />
    <glyph glyph-name="thorn" unicode="&#xfe;" horiz-adv-x="505" 
d="M145 339v-234c0 -55 50 -85 98 -85c77 0 142 65 142 190c0 130 -60 190 -135 190c-40 0 -76 -19 -105 -61zM-15 -210l80 45v803l-80 19l160 58v-349c35 54 80 99 145 99c105 0 180 -85 180 -230c0 -150 -91 -250 -210 -250c-80 0 -115 45 -115 45v-195l80 -45h-240z" />
    <glyph glyph-name="Amacron" unicode="&#x100;" 
d="M-20 0l105 55l205 485l-95 110h147l248 -590l100 -60h-280l85 50l-65 155h-241l-64 -155l90 -50h-235zM310 495l-106 -255h212zM115 740v35h420v-35h-420z" />
    <glyph glyph-name="amacron" unicode="&#x101;" horiz-adv-x="470" 
d="M300 296l-144 -59c-67 -28 -111 -72 -111 -137c0 -69 45 -115 106 -115c30 0 50 7 72 23l77 51c0 -53 20 -74 55 -74s115 100 115 100l-90 -35v270c0 85 -36 145 -145 145c-60 0 -173 -55 -173 -117c0 -29 17 -47 41 -47s41 16 41 47c0 61 26 87 81 87s75 -26 75 -115
v-24zM300 91c-41 -33 -79 -49 -104 -49c-46 0 -69 33 -69 73c0 50 22 89 96 120l77 32v-176zM65 545v35h320v-35h-320z" />
    <glyph glyph-name="Emacron" unicode="&#x112;" horiz-adv-x="610" 
d="M210 595v-240h125l70 105v-245l-70 105h-125v-265l35 -20h215l90 175v-210h-535l100 55v540l-100 55h520v-210l-90 175h-200zM105 740v35h420v-35h-420z" />
    <glyph glyph-name="emacron" unicode="&#x113;" horiz-adv-x="470" 
d="M425 177c-8 -115 -80 -192 -182 -192c-129 0 -208 105 -208 240c0 140 95 240 213 240c127 0 177 -90 177 -195h-310v-14c0 -159 91 -196 161 -196c49 0 113 32 149 117zM250 435c-61 0 -117 -49 -132 -135h147c50 0 80 15 80 55c0 50 -40 80 -95 80zM85 545v35h320v-35
h-320z" />
    <glyph glyph-name="Gcommaaccent" unicode="&#x122;" horiz-adv-x="700" 
d="M310 -105c0 30 25 55 55 55s55 -25 55 -55c0 -40 -10 -60 -100 -170l50 115h-5c-30 0 -55 25 -55 55zM605 665v-245l-75 160s-60 55 -155 55c-135 0 -230 -120 -230 -310c0 -165 80 -300 235 -300c95 0 135 60 135 60v170l-120 55h295l-80 -55v-265l-75 75
s-55 -80 -185 -80c-185 0 -315 135 -315 335c0 225 150 345 330 345c114 0 180 -55 180 -55z" />
    <glyph glyph-name="gcommaaccent" unicode="&#x123;" horiz-adv-x="490" 
d="M50 305c0 88 70 160 175 160c70 0 105 -30 145 -30c25 0 15 13 15 26c0 21 14 39 38 39c28 0 42 -20 42 -40c0 -27 -15 -50 -60 -50c-25 0 -50 5 -50 5s45 -40 45 -110c0 -88 -70 -160 -175 -160c-8 0 -16 0 -23 1c-30 0 -77 -6 -77 -41c0 -25 25 -30 40 -30h165
c100 0 140 -40 140 -115s-85 -185 -255 -185c-140 0 -200 70 -200 130c0 70 64 91 98 97c-27 8 -53 34 -53 68c0 60 55 80 101 85c-68 22 -111 81 -111 150zM385 0h-251c-2 -1 -49 -16 -49 -65c0 -50 45 -95 155 -95c145 0 200 70 200 115c0 30 -20 45 -55 45zM135 305
c0 -85 35 -135 90 -135s90 50 90 135s-35 135 -90 135s-90 -50 -90 -135zM290 610c0 -30 -25 -55 -55 -55s-55 25 -55 55c0 40 10 60 100 170l-50 -115h5c30 0 55 -25 55 -55z" />
    <glyph glyph-name="uni012A" unicode="&#x12a;" horiz-adv-x="325" 
d="M310 650l-100 -55v-540l100 -55h-295l100 55v540l-100 55h295zM-5 740v35h335v-35h-335z" />
    <glyph glyph-name="imacron" unicode="&#x12b;" horiz-adv-x="275" 
d="M20 407l80 -19v-343l-80 -45h240l-80 45v420zM-30 545v35h320v-35h-320z" />
    <glyph glyph-name="Kcommaaccent" unicode="&#x136;" 
d="M310 650l-100 -55v-245l258 248l-66 52h257l-153 -64l-211 -211l305 -320l80 -55h-160l-310 329v-274l100 -55h-295l100 55v540l-100 55h295zM290 -105c0 30 25 55 55 55s55 -25 55 -55c0 -40 -10 -60 -100 -170l50 115h-5c-30 0 -55 25 -55 55z" />
    <glyph glyph-name="kcommaaccent" unicode="&#x137;" horiz-adv-x="500" 
d="M175 244l175 166l-60 40h215l-115 -45l-143 -139l198 -221l70 -45h-140l-200 234v-189l80 -45h-240l80 45v593l-80 19l160 58v-471zM210 -105c0 30 25 55 55 55s55 -25 55 -55c0 -40 -10 -60 -100 -170l50 115h-5c-30 0 -55 25 -55 55z" />
    <glyph glyph-name="Lcommaaccent" unicode="&#x13b;" horiz-adv-x="585" 
d="M320 650l-110 -55v-540l35 -20h205l95 185v-220h-530l100 55v540l-100 55h305zM250 -105c0 30 25 55 55 55s55 -25 55 -55c0 -40 -10 -60 -100 -170l50 115h-5c-30 0 -55 25 -55 55z" />
    <glyph glyph-name="lcommaaccent" unicode="&#x13c;" horiz-adv-x="270" 
d="M95 638l-80 19l160 58v-670l80 -45h-240l80 45v593zM80 -105c0 30 25 55 55 55s55 -25 55 -55c0 -40 -10 -60 -100 -170l50 115h-5c-30 0 -55 25 -55 55z" />
    <glyph glyph-name="Ncommaaccent" unicode="&#x145;" horiz-adv-x="735" 
d="M140 650l440 -480v425l-110 55h255l-100 -55v-610l-465 507v-437l110 -55h-255l100 55v486l-100 109h125zM310 -105c0 30 25 55 55 55s55 -25 55 -55c0 -40 -10 -60 -100 -170l50 115h-5c-30 0 -55 25 -55 55z" />
    <glyph glyph-name="ncommaaccent" unicode="&#x146;" horiz-adv-x="535" 
d="M295 0l80 45v243c0 82 -16 117 -78 117c-42 0 -87 -26 -117 -63v-297l80 -45h-240l80 45v343l-80 19l160 58v-93c35 38 88 93 152 93c96 0 123 -65 123 -164v-256l80 -45h-240zM230 -105c0 30 25 55 55 55s55 -25 55 -55c0 -40 -10 -60 -100 -170l50 115h-5
c-30 0 -55 25 -55 55z" />
    <glyph glyph-name="Umacron" unicode="&#x16a;" horiz-adv-x="700" 
d="M200 217v378l100 55h-295l100 -55v-363c0 -137 70 -247 257 -247c167 0 238 110 238 247v363l100 55h-245l100 -55v-378c0 -98 -50 -177 -178 -177s-177 79 -177 177zM150 740v35h420v-35h-420z" />
    <glyph glyph-name="umacron" unicode="&#x16b;" horiz-adv-x="525" 
d="M75 388l-80 19l160 58v-303c0 -82 16 -117 78 -117c42 0 92 26 122 63v280l-80 19l160 58v-403l80 -19l-160 -58v93c-35 -38 -93 -93 -157 -93c-96 0 -123 65 -123 164v239zM95 545v35h320v-35h-320z" />
    <glyph glyph-name="Aogonek" unicode="&#x104;" 
d="M-20 0l105 55l205 485l-95 110h147l248 -590l100 -60h-78c-32 -14 -82 -44 -82 -103c0 -40 25 -62 60 -62c30 0 55 20 55 20s-25 -65 -95 -65c-45 0 -85 35 -85 85c0 72 70 109 112 125h-167l85 50l-65 155h-241l-64 -155l90 -50h-235zM310 495l-106 -255h212z" />
    <glyph glyph-name="aogonek" unicode="&#x105;" horiz-adv-x="470" 
d="M380 320v-270l90 35c-65 -80 -140 -105 -140 -188c0 -40 25 -62 60 -62c30 0 55 20 55 20s-25 -65 -95 -65c-45 0 -85 35 -85 85c0 49 34 87 68 114c-21 8 -33 29 -33 70l-77 -51c-22 -16 -42 -23 -72 -23c-61 0 -106 46 -106 115c0 65 44 109 111 137l144 59v24
c0 89 -20 115 -75 115s-81 -26 -81 -87c0 -31 -17 -47 -41 -47s-41 18 -41 47c0 62 113 117 173 117c109 0 145 -60 145 -145zM300 91v176l-77 -32c-74 -31 -96 -70 -96 -120c0 -40 23 -73 69 -73c25 0 63 16 104 49z" />
    <glyph glyph-name="Eogonek" unicode="&#x118;" horiz-adv-x="610" 
d="M210 595v-240h125l70 105v-245l-70 105h-125v-265l35 -20h215l90 175v-210h-51c-27 -14 -69 -46 -69 -103c0 -40 25 -62 60 -62c30 0 55 20 55 20s-25 -65 -95 -65c-45 0 -85 35 -85 85c0 70 62 108 99 125h-449l100 55v540l-100 55h520v-210l-90 175h-200z" />
    <glyph glyph-name="eogonek" unicode="&#x119;" horiz-adv-x="470" 
d="M425 177c-7 -101 -64 -173 -147 -188c-25 -19 -53 -48 -53 -92c0 -40 25 -62 60 -62c30 0 55 20 55 20s-25 -65 -95 -65c-45 0 -85 35 -85 85c0 53 46 89 86 110h-3c-129 0 -208 105 -208 240c0 140 95 240 213 240c127 0 177 -90 177 -195h-310v-14
c0 -159 91 -196 161 -196c49 0 113 32 149 117zM250 435c-61 0 -117 -49 -132 -135h147c50 0 80 15 80 55c0 50 -40 80 -95 80z" />
    <glyph glyph-name="Edotaccent" unicode="&#x116;" horiz-adv-x="610" 
d="M210 595v-240h125l70 105v-245l-70 105h-125v-265l35 -20h215l90 175v-210h-535l100 55v540l-100 55h520v-210l-90 175h-200zM260 780c0 30 25 55 55 55s55 -25 55 -55s-25 -55 -55 -55s-55 25 -55 55z" />
    <glyph glyph-name="edotaccent" unicode="&#x117;" horiz-adv-x="470" 
d="M425 177c-8 -115 -80 -192 -182 -192c-129 0 -208 105 -208 240c0 140 95 240 213 240c127 0 177 -90 177 -195h-310v-14c0 -159 91 -196 161 -196c49 0 113 32 149 117zM250 435c-61 0 -117 -49 -132 -135h147c50 0 80 15 80 55c0 50 -40 80 -95 80zM185 610
c0 30 25 55 55 55s55 -25 55 -55s-25 -55 -55 -55s-55 25 -55 55z" />
    <glyph glyph-name="Iogonek" unicode="&#x12e;" horiz-adv-x="325" 
d="M310 650l-100 -55v-540l100 -55h-88c-32 -14 -82 -44 -82 -103c0 -40 25 -62 60 -62c30 0 55 20 55 20s-25 -65 -95 -65c-45 0 -85 35 -85 85c0 72 70 109 112 125h-172l100 55v540l-100 55h295z" />
    <glyph glyph-name="iogonek" unicode="&#x12f;" horiz-adv-x="275" 
d="M20 407l80 -19v-343l-80 -45h142c-42 -16 -112 -53 -112 -125c0 -50 40 -85 85 -85c70 0 95 65 95 65s-25 -20 -55 -20c-35 0 -60 22 -60 62c0 58 50 89 82 103h63l-80 45v420zM75 610c0 30 25 55 55 55s55 -25 55 -55s-25 -55 -55 -55s-55 25 -55 55z" />
    <glyph glyph-name="Uogonek" unicode="&#x172;" horiz-adv-x="700" 
d="M200 595v-378c0 -98 49 -177 177 -177s178 79 178 177v378l-100 55h245l-100 -55v-363c0 -126 -60 -228 -198 -244c-25 -19 -52 -49 -52 -91c0 -40 25 -62 60 -62c30 0 55 20 55 20s-25 -65 -95 -65c-45 0 -85 35 -85 85c0 53 46 89 86 110h-9c-187 0 -257 110 -257 247
v363l-100 55h295z" />
    <glyph glyph-name="uogonek" unicode="&#x173;" horiz-adv-x="525" 
d="M75 388l-80 19l160 58v-303c0 -82 16 -117 78 -117c42 0 92 26 122 63v280l-80 19l160 58v-403l80 -19s-125 -51 -125 -146c0 -40 25 -62 60 -62c30 0 55 20 55 20s-25 -65 -95 -65c-45 0 -85 35 -85 85c0 66 62 113 103 136l-73 -26v93c-35 -38 -93 -93 -157 -93
c-96 0 -123 65 -123 164v239z" />
    <glyph glyph-name="Cdotaccent" unicode="&#x10a;" horiz-adv-x="645" 
d="M295 780c0 30 25 55 55 55s55 -25 55 -55s-25 -55 -55 -55s-55 25 -55 55zM585 665v-245l-75 160s-50 55 -145 55c-135 0 -220 -120 -220 -295c0 -170 80 -295 235 -295c170 0 227 166 230 174c-2 -11 -46 -234 -260 -234c-185 0 -315 140 -315 335
c0 215 131 345 315 345c114 0 175 -55 175 -55z" />
    <glyph glyph-name="cdotaccent" unicode="&#x10b;" horiz-adv-x="455" 
d="M425 177c-8 -115 -80 -192 -182 -192c-129 0 -208 105 -208 240c0 140 99 240 218 240c100 0 159 -54 159 -112c0 -31 -24 -47 -47 -47c-30 0 -43 26 -43 48c0 52 -27 81 -71 81c-70 0 -136 -67 -136 -179c0 -149 91 -196 161 -196c49 0 113 32 149 117zM185 610
c0 30 25 55 55 55s55 -25 55 -55s-25 -55 -55 -55s-55 25 -55 55z" />
    <glyph glyph-name="Gdotaccent" unicode="&#x120;" horiz-adv-x="700" 
d="M300 780c0 30 25 55 55 55s55 -25 55 -55s-25 -55 -55 -55s-55 25 -55 55zM605 665v-245l-75 160s-60 55 -155 55c-135 0 -230 -120 -230 -310c0 -165 80 -300 235 -300c95 0 135 60 135 60v170l-120 55h295l-80 -55v-265l-75 75s-55 -80 -185 -80
c-185 0 -315 135 -315 335c0 225 150 345 330 345c114 0 180 -55 180 -55z" />
    <glyph glyph-name="gdotaccent" unicode="&#x121;" horiz-adv-x="490" 
d="M50 305c0 88 70 160 175 160c70 0 105 -30 145 -30c25 0 15 13 15 26c0 21 14 39 38 39c28 0 42 -20 42 -40c0 -27 -15 -50 -60 -50c-25 0 -50 5 -50 5s45 -40 45 -110c0 -88 -70 -160 -175 -160c-8 0 -16 0 -23 1c-30 0 -77 -6 -77 -41c0 -25 25 -30 40 -30h165
c100 0 140 -40 140 -115s-85 -185 -255 -185c-140 0 -200 70 -200 130c0 70 64 91 98 97c-27 8 -53 34 -53 68c0 60 55 80 101 85c-68 22 -111 81 -111 150zM385 0h-251c-2 -1 -49 -16 -49 -65c0 -50 45 -95 155 -95c145 0 200 70 200 115c0 30 -20 45 -55 45zM135 305
c0 -85 35 -135 90 -135s90 50 90 135s-35 135 -90 135s-90 -50 -90 -135zM190 610c0 30 25 55 55 55s55 -25 55 -55s-25 -55 -55 -55s-55 25 -55 55z" />
    <glyph glyph-name="Hbar" unicode="&#x126;" horiz-adv-x="725" 
d="M0 480v35h115v80l-100 55h295l-100 -55v-80h305v80l-100 55h295l-100 -55v-80h115v-35h-115v-425l100 -55h-295l100 55v265h-305v-265l100 -55h-295l100 55v425h-115zM210 480v-125h305v125h-305z" />
    <glyph glyph-name="hbar" unicode="&#x127;" horiz-adv-x="530" 
d="M175 520v-148c35 38 88 93 152 93c96 0 123 -65 123 -164v-256l80 -45h-240l80 45v243c0 82 -16 117 -78 117c-42 0 -87 -26 -117 -63v-297l80 -45h-240l80 45v475h-110v35h110v83l-80 19l160 58v-160h125v-35h-125z" />
    <glyph glyph-name="Zdotaccent" unicode="&#x17b;" horiz-adv-x="600" 
d="M35 0l372 615h-257l-90 -175v210h480l-373 -615h288l90 175v-210h-510zM245 780c0 30 25 55 55 55s55 -25 55 -55s-25 -55 -55 -55s-55 25 -55 55z" />
    <glyph glyph-name="zdotaccent" unicode="&#x17c;" horiz-adv-x="455" 
d="M420 140l-80 -110h-200l280 420h-365v-140l80 110h175l-280 -420h390v140zM180 610c0 30 25 55 55 55s55 -25 55 -55s-25 -55 -55 -55s-55 25 -55 55z" />
    <glyph glyph-name="Abreve" unicode="&#x102;" 
d="M-20 0l105 55l205 485l-95 110h147l248 -590l100 -60h-280l85 50l-65 155h-241l-64 -155l90 -50h-235zM310 495l-106 -255h212zM325 715c-149 0 -171 139 -172 152c3 -10 39 -87 172 -87c136 0 170 81 173 89c-1 -7 -20 -154 -173 -154z" />
    <glyph glyph-name="abreve" unicode="&#x103;" horiz-adv-x="470" 
d="M300 296l-144 -59c-67 -28 -111 -72 -111 -137c0 -69 45 -115 106 -115c30 0 50 7 72 23l77 51c0 -53 20 -74 55 -74s115 100 115 100l-90 -35v270c0 85 -36 145 -145 145c-60 0 -173 -55 -173 -117c0 -29 17 -47 41 -47s41 16 41 47c0 61 26 87 81 87s75 -26 75 -115
v-24zM300 91c-41 -33 -79 -49 -104 -49c-46 0 -69 33 -69 73c0 50 22 89 96 120l77 32v-176zM227 535c-128 0 -137 118 -137 127c3 -8 32 -72 137 -72c107 0 135 67 138 74c0 -3 -8 -129 -138 -129z" />
    <glyph glyph-name="Scedilla" unicode="&#x15e;" horiz-adv-x="530" 
d="M455 665v-215l-75 135s-50 50 -125 50c-80 0 -135 -50 -135 -110c0 -54 46 -89 105 -115l125 -55c64 -28 140 -65 140 -175c0 -109 -80 -176 -186 -191l-21 -34s62 -5 62 -70c0 -50 -42 -85 -105 -85c-44 0 -64 23 -65 25c2 -2 17 -10 45 -10c40 0 60 25 60 55
c0 25 -17 40 -40 40c-9 0 -15 -2 -15 -2l47 78c-6 -1 -12 -1 -17 -1c-95 0 -145 45 -145 45l-60 -45v245l80 -165s40 -50 125 -50s145 50 145 130s-68 101 -110 120l-125 55c-71 31 -125 81 -125 165c0 125 100 180 215 180c85 0 140 -45 140 -45z" />
    <glyph glyph-name="scedilla" unicode="&#x15f;" horiz-adv-x="400" 
d="M207 -15h-7c-75 0 -110 35 -110 35l-40 -35v200c40 -110 75 -170 150 -170c55 0 85 35 85 75c0 50 -28 67 -65 85l-70 33c-45 20 -105 47 -105 127c0 73 60 130 150 130c60 0 95 -30 95 -30l45 30v-175l-60 115s-25 30 -80 30c-50 0 -85 -30 -85 -70c0 -45 31 -57 80 -80
l70 -33c76 -36 100 -72 100 -132c0 -68 -51 -118 -122 -131l-20 -34s62 -5 62 -70c0 -50 -42 -85 -105 -85c-44 0 -64 24 -65 25c3 -2 18 -10 45 -10c40 0 60 25 60 55c0 25 -17 40 -40 40c-9 0 -15 -2 -15 -2z" />
    <glyph glyph-name="Tcommaaccent" unicode="&#x162;" horiz-adv-x="625" 
d="M585 650v-210l-90 175h-135v-560l110 -55h-315l110 55v560h-135l-90 -175v210h545zM260 -105c0 30 25 55 55 55s55 -25 55 -55c0 -40 -10 -60 -100 -170l50 115h-5c-30 0 -55 25 -55 55z" />
    <glyph glyph-name="tcommaaccent" unicode="&#x163;" horiz-adv-x="300" 
d="M5 415l160 150v-115h105v-35h-105v-320c0 -40 20 -50 40 -50c35 0 75 40 75 40s-55 -100 -115 -100c-50 0 -80 30 -80 95v335h-80zM100 -105c0 30 25 55 55 55s55 -25 55 -55c0 -40 -10 -60 -100 -170l50 115h-5c-30 0 -55 25 -55 55z" />
    <glyph glyph-name="Lslash" unicode="&#x141;" horiz-adv-x="585" 
d="M10 218v37l105 46v294l-100 55h305l-110 -55v-252l190 84v-37l-190 -84v-251l35 -20h205l95 185v-220h-530l100 55v209z" />
    <glyph glyph-name="lslash" unicode="&#x142;" horiz-adv-x="330" 
d="M20 262v37l105 46v293l-80 19l160 58v-335l105 47v-37l-105 -47v-298l80 -45h-240l80 45v263z" />
    <glyph glyph-name="Nacute" unicode="&#x143;" horiz-adv-x="735" 
d="M580 170l-440 480h-125l100 -109v-486l-100 -55h255l-110 55v437l465 -507v610l100 55h-255l110 -55v-425zM389 900h135l-250 -200z" />
    <glyph glyph-name="nacute" unicode="&#x144;" horiz-adv-x="535" 
d="M295 0l80 45v243c0 82 -16 117 -78 117c-42 0 -87 -26 -117 -63v-297l80 -45h-240l80 45v343l-80 19l160 58v-93c35 38 88 93 152 93c96 0 123 -65 123 -164v-256l80 -45h-240zM300 700h115l-230 -200z" />
    <glyph glyph-name="Sacute" unicode="&#x15a;" horiz-adv-x="530" 
d="M299 900h135l-250 -200zM455 665v-215l-75 135s-50 50 -125 50c-80 0 -135 -50 -135 -110c0 -54 46 -89 105 -115l125 -55c64 -28 140 -65 140 -175c0 -125 -105 -195 -235 -195c-95 0 -145 45 -145 45l-60 -45v245l80 -165s40 -50 125 -50s145 50 145 130
s-68 101 -110 120l-125 55c-71 31 -125 81 -125 165c0 125 100 180 215 180c85 0 140 -45 140 -45z" />
    <glyph glyph-name="sacute" unicode="&#x15b;" horiz-adv-x="400" 
d="M230 700h115l-230 -200zM200 -15c90 0 160 55 160 135c0 60 -24 96 -100 132l-70 33c-49 23 -80 35 -80 80c0 40 35 70 85 70c55 0 80 -30 80 -30l60 -115v175l-45 -30s-35 30 -95 30c-90 0 -150 -57 -150 -130c0 -80 60 -107 105 -127l70 -33c37 -18 65 -35 65 -85
c0 -40 -30 -75 -85 -75c-75 0 -110 60 -150 170v-200l40 35s35 -35 110 -35z" />
    <glyph glyph-name="Zacute" unicode="&#x179;" horiz-adv-x="600" 
d="M35 0l372 615h-257l-90 -175v210h480l-373 -615h288l90 175v-210h-510zM319 900h135l-250 -200z" />
    <glyph glyph-name="zacute" unicode="&#x17a;" horiz-adv-x="455" 
d="M420 140l-80 -110h-200l280 420h-365v-140l80 110h175l-280 -420h390v140zM275 700h115l-230 -200z" />
    <glyph glyph-name="Lacute" unicode="&#x139;" horiz-adv-x="585" 
d="M320 650l-110 -55v-540l35 -20h205l95 185v-220h-530l100 55v540l-100 55h305zM259 900h135l-250 -200z" />
    <glyph glyph-name="lacute" unicode="&#x13a;" horiz-adv-x="270" 
d="M15 657l80 -19v-593l-80 -45h240l-80 45v670zM159 900h115l-230 -200z" />
    <glyph glyph-name="Lcaron" unicode="&#x13d;" horiz-adv-x="585" 
d="M320 650l-110 -55v-540l35 -20h205l95 185v-220h-530l100 55v540l-100 55h305zM350 645c0 30 25 55 55 55c35 0 55 -25 55 -55c0 -40 -25 -75 -90 -150l40 95h-5c-30 0 -55 25 -55 55z" />
    <glyph glyph-name="lcaron" unicode="&#x13e;" horiz-adv-x="320" 
d="M95 638l-80 19l160 58v-670l80 -45h-240l80 45v593zM230 645c0 30 25 55 55 55c35 0 55 -25 55 -55c0 -40 -25 -75 -90 -150l40 95h-5c-30 0 -55 25 -55 55z" />
    <glyph glyph-name="Ncaron" unicode="&#x147;" horiz-adv-x="735" 
d="M140 650l440 -480v425l-110 55h255l-100 -55v-610l-465 507v-437l110 -55h-255l100 55v486l-100 109h125zM360 790l200 100l-200 -190l-200 190z" />
    <glyph glyph-name="ncaron" unicode="&#x148;" horiz-adv-x="535" 
d="M295 0l80 45v243c0 82 -16 117 -78 117c-42 0 -87 -26 -117 -63v-297l80 -45h-240l80 45v343l-80 19l160 58v-93c35 38 88 93 152 93c96 0 123 -65 123 -164v-256l80 -45h-240zM265 590l160 90l-160 -180l-160 180z" />
    <glyph glyph-name="Scircumflex" unicode="&#x15c;" horiz-adv-x="530" 
d="M255 800l-200 -100l200 190l200 -190zM455 665v-215l-75 135s-50 50 -125 50c-80 0 -135 -50 -135 -110c0 -54 46 -89 105 -115l125 -55c64 -28 140 -65 140 -175c0 -125 -105 -195 -235 -195c-95 0 -145 45 -145 45l-60 -45v245l80 -165s40 -50 125 -50s145 50 145 130
s-68 101 -110 120l-125 55c-71 31 -125 81 -125 165c0 125 100 180 215 180c85 0 140 -45 140 -45z" />
    <glyph glyph-name="scircumflex" unicode="&#x15d;" horiz-adv-x="400" 
d="M195 590l-160 -90l160 180l160 -180zM200 -15c-75 0 -110 35 -110 35l-40 -35v200c40 -110 75 -170 150 -170c55 0 85 35 85 75c0 50 -28 67 -65 85l-70 33c-45 20 -105 47 -105 127c0 73 60 130 150 130c60 0 95 -30 95 -30l45 30v-175l-60 115s-25 30 -80 30
c-50 0 -85 -30 -85 -70c0 -45 31 -57 80 -80l70 -33c76 -36 100 -72 100 -132c0 -80 -70 -135 -160 -135z" />
    <glyph glyph-name="Utilde" unicode="&#x168;" horiz-adv-x="700" 
d="M200 595v-378c0 -98 49 -177 177 -177s178 79 178 177v378l-100 55h245l-100 -55v-363c0 -137 -71 -247 -238 -247c-187 0 -257 110 -257 247v363l-100 55h295zM476 715c-91 0 -166 55 -236 55c-72 0 -85 -61 -87 -73c-1 8 -7 143 114 143c91 0 166 -55 236 -55
c69 0 84 57 87 71c0 -11 4 -141 -114 -141z" />
    <glyph glyph-name="utilde" unicode="&#x169;" horiz-adv-x="525" 
d="M75 388l-80 19l160 58v-303c0 -82 16 -117 78 -117c42 0 92 26 122 63v280l-80 19l160 58v-403l80 -19l-160 -58v93c-35 -38 -93 -93 -157 -93c-96 0 -123 65 -123 164v239zM425 670c0 0 12 -125 -82 -125c-56 0 -133 45 -183 45c-54 0 -62 -65 -62 -65s-12 125 82 125
c56 0 133 -45 183 -45c54 0 62 65 62 65z" />
    <glyph glyph-name="Gbreve" unicode="&#x11e;" horiz-adv-x="700" 
d="M605 665v-245l-75 160s-60 55 -155 55c-135 0 -230 -120 -230 -310c0 -165 80 -300 235 -300c95 0 135 60 135 60v170l-120 55h295l-80 -55v-265l-75 75s-55 -80 -185 -80c-185 0 -315 135 -315 335c0 225 150 345 330 345c114 0 180 -55 180 -55zM345 715
c-149 0 -171 139 -172 152c3 -10 39 -87 172 -87c136 0 170 81 173 89c-1 -7 -20 -154 -173 -154z" />
    <glyph glyph-name="gbreve" unicode="&#x11f;" horiz-adv-x="490" 
d="M50 305c0 88 70 160 175 160c70 0 105 -30 145 -30c25 0 15 13 15 26c0 21 14 39 38 39c28 0 42 -20 42 -40c0 -27 -15 -50 -60 -50c-25 0 -50 5 -50 5s45 -40 45 -110c0 -88 -70 -160 -175 -160c-8 0 -16 0 -23 1c-30 0 -77 -6 -77 -41c0 -25 25 -30 40 -30h165
c100 0 140 -40 140 -115s-85 -185 -255 -185c-140 0 -200 70 -200 130c0 70 64 91 98 97c-27 8 -53 34 -53 68c0 60 55 80 101 85c-68 22 -111 81 -111 150zM385 0h-251c-2 -1 -49 -16 -49 -65c0 -50 45 -95 155 -95c145 0 200 70 200 115c0 30 -20 45 -55 45zM135 305
c0 -85 35 -135 90 -135s90 50 90 135s-35 135 -90 135s-90 -50 -90 -135zM232 535c-128 0 -137 118 -137 127c3 -8 32 -72 137 -72c107 0 135 67 138 74c0 -3 -8 -129 -138 -129z" />
    <glyph glyph-name="Omacron" unicode="&#x14c;" 
d="M35 325c0 205 130 340 305 340s305 -135 305 -340s-130 -340 -305 -340s-305 135 -305 340zM145 325c0 -190 75 -310 195 -310s195 120 195 310s-75 310 -195 310s-195 -120 -195 -310zM130 740v35h420v-35h-420z" />
    <glyph glyph-name="omacron" unicode="&#x14d;" horiz-adv-x="504" 
d="M239 430c-73 0 -114 -65 -114 -165c0 -146 59 -245 141 -245c74 0 113 67 113 165c0 146 -57 245 -140 245zM35 225c0 130 88 240 217 240c139 0 217 -110 217 -240s-88 -240 -217 -240c-139 0 -217 110 -217 240zM95 545v35h320v-35h-320z" />
    <glyph glyph-name="Ccircumflex" unicode="&#x108;" horiz-adv-x="645" 
d="M340 800l-200 -100l200 190l200 -190zM585 665v-245l-75 160s-50 55 -145 55c-135 0 -220 -120 -220 -295c0 -170 80 -295 235 -295c170 0 227 166 230 174c-2 -11 -46 -234 -260 -234c-185 0 -315 140 -315 335c0 215 131 345 315 345c114 0 175 -55 175 -55z" />
    <glyph glyph-name="ccircumflex" unicode="&#x109;" horiz-adv-x="455" 
d="M425 177c-8 -115 -80 -192 -182 -192c-129 0 -208 105 -208 240c0 140 99 240 218 240c100 0 159 -54 159 -112c0 -31 -24 -47 -47 -47c-30 0 -43 26 -43 48c0 52 -27 81 -71 81c-70 0 -136 -67 -136 -179c0 -149 91 -196 161 -196c49 0 113 32 149 117zM240 590
l-160 -90l160 180l160 -180z" />
    <glyph glyph-name="Gcircumflex" unicode="&#x11c;" horiz-adv-x="700" 
d="M350 800l-200 -100l200 190l200 -190zM605 665v-245l-75 160s-60 55 -155 55c-135 0 -230 -120 -230 -310c0 -165 80 -300 235 -300c95 0 135 60 135 60v170l-120 55h295l-80 -55v-265l-75 75s-55 -80 -185 -80c-185 0 -315 135 -315 335c0 225 150 345 330 345
c114 0 180 -55 180 -55z" />
    <glyph glyph-name="gcircumflex" unicode="&#x11d;" horiz-adv-x="490" 
d="M50 305c0 88 70 160 175 160c70 0 105 -30 145 -30c25 0 15 13 15 26c0 21 14 39 38 39c28 0 42 -20 42 -40c0 -27 -15 -50 -60 -50c-25 0 -50 5 -50 5s45 -40 45 -110c0 -88 -70 -160 -175 -160c-8 0 -16 0 -23 1c-30 0 -77 -6 -77 -41c0 -25 25 -30 40 -30h165
c100 0 140 -40 140 -115s-85 -185 -255 -185c-140 0 -200 70 -200 130c0 70 64 91 98 97c-27 8 -53 34 -53 68c0 60 55 80 101 85c-68 22 -111 81 -111 150zM385 0h-251c-2 -1 -49 -16 -49 -65c0 -50 45 -95 155 -95c145 0 200 70 200 115c0 30 -20 45 -55 45zM135 305
c0 -85 35 -135 90 -135s90 50 90 135s-35 135 -90 135s-90 -50 -90 -135zM235 590l-160 -90l160 180l160 -180z" />
    <glyph glyph-name="Idotaccent" unicode="&#x130;" horiz-adv-x="325" 
d="M310 650l-100 -55v-540l100 -55h-295l100 55v540l-100 55h295zM107 780c0 30 25 55 55 55s55 -25 55 -55s-25 -55 -55 -55s-55 25 -55 55z" />
    <glyph glyph-name="dotlessi" unicode="&#x131;" horiz-adv-x="275" 
d="M100 388l-80 19l160 58v-420l80 -45h-240l80 45v343z" />
    <glyph glyph-name="Ycircumflex" unicode="&#x176;" horiz-adv-x="670" 
d="M270 650l-80 -50l175 -275l175 275l-80 50h230l-100 -55l-195 -308v-232l100 -55h-295l100 55v205l-210 330l-100 60h280zM360 800l-200 -100l200 190l200 -190z" />
    <glyph glyph-name="ycircumflex" unicode="&#x177;" horiz-adv-x="495" 
d="M520 450l-90 -45l-207 -521c-34 -90 -73 -109 -113 -109c-35 0 -60 23 -60 53s20 50 45 50c18 0 28 -9 41 -20c16 -14 31 -2 45 32l56 139l-182 376l-90 45h256l-80 -40l135 -282l112 282l-80 40h212zM260 590l-160 -90l160 180l160 -180z" />
    <glyph glyph-name="Ubreve" unicode="&#x16c;" horiz-adv-x="700" 
d="M200 217v378l100 55h-295l100 -55v-363c0 -137 70 -247 257 -247c167 0 238 110 238 247v363l100 55h-245l100 -55v-378c0 -98 -50 -177 -178 -177s-177 79 -177 177zM365 715c-149 0 -171 139 -172 152c3 -10 39 -87 172 -87c136 0 170 81 173 89
c-1 -7 -20 -154 -173 -154z" />
    <glyph glyph-name="ubreve" unicode="&#x16d;" horiz-adv-x="525" 
d="M75 388l-80 19l160 58v-303c0 -82 16 -117 78 -117c42 0 92 26 122 63v280l-80 19l160 58v-403l80 -19l-160 -58v93c-35 -38 -93 -93 -157 -93c-96 0 -123 65 -123 164v239zM252 535c-128 0 -137 118 -137 127c3 -8 32 -72 137 -72c107 0 135 67 138 74
c0 -3 -8 -129 -138 -129z" />
    <glyph glyph-name="Rcommaaccent" unicode="&#x156;" horiz-adv-x="640" 
d="M310 0h-295l100 55v540l-100 55h270c145 0 260 -50 260 -175c0 -96 -68 -148 -165 -167l206 -254l89 -54h-170l-233 300h-62v-245zM210 615v-280h65c90 0 160 30 160 140s-70 140 -160 140h-65zM290 -105c0 30 25 55 55 55s55 -25 55 -55c0 -40 -10 -60 -100 -170l50 115
h-5c-30 0 -55 25 -55 55z" />
    <glyph glyph-name="rcommaaccent" unicode="&#x157;" horiz-adv-x="410" 
d="M100 388l-80 19l160 58v-105l40 44c45 49 72 61 100 61c35 0 65 -19 65 -57c0 -29 -20 -48 -44 -48c-46 0 -36 45 -71 45c-20 0 -45 -25 -90 -80v-280l100 -45h-260l80 45v343zM110 -105c0 30 25 55 55 55s55 -25 55 -55c0 -40 -10 -60 -100 -170l50 115h-5
c-30 0 -55 25 -55 55z" />
    <glyph glyph-name="racute" unicode="&#x155;" horiz-adv-x="410" 
d="M20 407l80 -19v-343l-80 -45h260l-100 45v280c45 55 70 80 90 80c35 0 25 -45 71 -45c24 0 44 19 44 48c0 38 -30 57 -65 57c-28 0 -55 -12 -100 -61l-40 -44v105zM240 700h115l-230 -200z" />
    <glyph glyph-name="Racute" unicode="&#x154;" horiz-adv-x="640" 
d="M505 0l-233 300h-62v-245l100 -55h-295l100 55v540l-100 55h270c145 0 260 -50 260 -175c0 -96 -68 -148 -165 -167l206 -254l89 -54h-170zM210 615v-280h65c90 0 160 30 160 140s-70 140 -160 140h-65zM319 900h135l-250 -200z" />
    <glyph glyph-name="obreve" unicode="&#x14f;" horiz-adv-x="504" 
d="M35 225c0 130 88 240 217 240c139 0 217 -110 217 -240s-88 -240 -217 -240c-139 0 -217 110 -217 240zM239 430c-73 0 -114 -65 -114 -165c0 -146 59 -245 141 -245c74 0 113 67 113 165c0 146 -57 245 -140 245zM252 535c-128 0 -137 118 -137 127c3 -8 32 -72 137 -72
c107 0 135 67 138 74c0 -3 -8 -129 -138 -129z" />
    <glyph glyph-name="Obreve" unicode="&#x14e;" 
d="M35 325c0 205 130 340 305 340s305 -135 305 -340s-130 -340 -305 -340s-305 135 -305 340zM145 325c0 -190 75 -310 195 -310s195 120 195 310s-75 310 -195 310s-195 -120 -195 -310zM340 715c-149 0 -171 139 -172 152c3 -10 39 -87 172 -87c136 0 170 81 173 89
c-1 -7 -20 -154 -173 -154z" />
    <glyph glyph-name="Eng" unicode="&#x14a;" horiz-adv-x="735" 
d="M140 650l440 -480v425l-110 55h255l-100 -55v-555c0 -195 -45 -265 -145 -265c-55 0 -90 29 -90 69c0 29 20 46 44 46c55 0 41 -75 66 -75c30 0 80 25 80 185v34l-420 458v-437l110 -55h-255l100 55v486l-100 109h125z" />
    <glyph glyph-name="eng" unicode="&#x14b;" horiz-adv-x="525" 
d="M375 0v288c0 82 -16 117 -78 117c-42 0 -87 -26 -117 -63v-297l80 -45h-240l80 45v343l-80 19l160 58v-93c35 38 88 93 152 93c96 0 123 -65 123 -164v-261c0 -175 -60 -265 -160 -265c-40 0 -75 19 -75 59c0 29 20 46 44 46c55 0 41 -70 66 -70c30 0 45 60 45 190z" />
    <glyph glyph-name="Jcircumflex" unicode="&#x134;" horiz-adv-x="515" 
d="M510 650l-100 -55v-370c0 -155 -80 -240 -200 -240c-137 0 -180 85 -180 150c0 70 37 93 70 93c40 0 55 -28 55 -53c0 -55 -50 -40 -50 -85c0 -40 35 -75 100 -75c70 0 110 48 110 150v430l-120 55h315zM355 800l-200 -100l200 190l200 -190z" />
    <glyph glyph-name="jcircumflex" unicode="&#x135;" horiz-adv-x="230" 
d="M80 0v388l-80 19l160 58v-425c0 -175 -60 -265 -160 -265c-40 0 -75 19 -75 59c0 29 20 46 44 46c55 0 41 -70 66 -70c30 0 45 60 45 190zM115 590l-160 -90l160 180l160 -180z" />
    <glyph glyph-name="uni012D" unicode="&#x12d;" horiz-adv-x="275" 
d="M20 407l80 -19v-343l-80 -45h240l-80 45v420zM137 535c-128 0 -137 118 -137 127c3 -8 32 -72 137 -72c107 0 135 67 138 74c0 -3 -8 -129 -138 -129z" />
    <glyph glyph-name="Ibreve" unicode="&#x12c;" horiz-adv-x="325" 
d="M310 650l-100 -55v-540l100 -55h-295l100 55v540l-100 55h295zM162 715c-146 0 -162 141 -162 152c3 -10 34 -87 162 -87c126 0 157 74 162 87c-2 -17 -21 -152 -162 -152z" />
    <glyph glyph-name="itilde" unicode="&#x129;" horiz-adv-x="275" 
d="M100 388l-80 19l160 58v-420l80 -45h-240l80 45v343zM206 530c-61 0 -106 45 -156 45c-46 0 -69 -47 -72 -55c3 12 30 110 99 110c61 0 106 -45 156 -45c47 0 71 52 72 54c-1 -5 -27 -109 -99 -109z" />
    <glyph glyph-name="Itilde" unicode="&#x128;" horiz-adv-x="325" 
d="M310 650l-100 -55v-540l100 -55h-295l100 55v540l-100 55h295zM276 715c-71 0 -146 55 -216 55c-56 0 -88 -66 -92 -74c3 11 38 144 129 144c71 0 146 -55 216 -55c57 0 90 71 92 74c-2 -7 -38 -144 -129 -144z" />
    <glyph glyph-name="hcircumflex" unicode="&#x125;" horiz-adv-x="530" 
d="M290 0l80 45v243c0 82 -16 117 -78 117c-42 0 -87 -26 -117 -63v-297l80 -45h-240l80 45v593l-80 19l160 58v-343c35 38 88 93 152 93c96 0 123 -65 123 -164v-256l80 -45h-240zM155 800l-160 -90l160 180l160 -180z" />
    <glyph glyph-name="Hcircumflex" unicode="&#x124;" horiz-adv-x="725" 
d="M710 650l-100 -55v-540l100 -55h-295l100 55v265h-305v-265l100 -55h-295l100 55v540l-100 55h295l-100 -55v-240h305v240l-100 55h295zM362 800l-200 -100l200 190l200 -190z" />
    <glyph glyph-name="ebreve" unicode="&#x115;" horiz-adv-x="470" 
d="M425 177c-8 -115 -80 -192 -182 -192c-129 0 -208 105 -208 240c0 140 95 240 213 240c127 0 177 -90 177 -195h-310v-14c0 -159 91 -196 161 -196c49 0 113 32 149 117zM250 435c-61 0 -117 -49 -132 -135h147c50 0 80 15 80 55c0 50 -40 80 -95 80zM232 535
c-128 0 -137 118 -137 127c3 -8 32 -72 137 -72c107 0 135 67 138 74c0 -3 -8 -129 -138 -129z" />
    <glyph glyph-name="Ebreve" unicode="&#x114;" horiz-adv-x="610" 
d="M210 595v-240h125l70 105v-245l-70 105h-125v-265l35 -20h215l90 175v-210h-535l100 55v540l-100 55h520v-210l-90 175h-200zM315 715c-149 0 -171 139 -172 152c3 -10 39 -87 172 -87c136 0 170 81 173 89c-1 -7 -20 -154 -173 -154z" />
    <glyph glyph-name="Igrave" unicode="&#xcc;" horiz-adv-x="325" 
d="M310 650l-100 -55v-540l100 -55h-295l100 55v540l-100 55h295zM-36 900h135l115 -200z" />
    <glyph glyph-name="igrave" unicode="&#xec;" horiz-adv-x="275" 
d="M100 388l-80 19l160 58v-420l80 -45h-240l80 45v343zM-30 700h115l115 -200z" />
    <glyph glyph-name="Ograve" unicode="&#xd2;" 
d="M35 325c0 205 130 340 305 340s305 -135 305 -340s-130 -340 -305 -340s-305 135 -305 340zM145 325c0 -190 75 -310 195 -310s195 120 195 310s-75 310 -195 310s-195 -120 -195 -310zM134 900h135l115 -200z" />
    <glyph glyph-name="ograve" unicode="&#xf2;" horiz-adv-x="504" 
d="M239 430c-73 0 -114 -65 -114 -165c0 -146 59 -245 141 -245c74 0 113 67 113 165c0 146 -57 245 -140 245zM35 225c0 130 88 240 217 240c139 0 217 -110 217 -240s-88 -240 -217 -240c-139 0 -217 110 -217 240zM60 700h115l115 -200z" />
    <glyph glyph-name="space" unicode=" " horiz-adv-x="260" 
 />
    <glyph glyph-name="zero" unicode="0" horiz-adv-x="550" 
d="M255 430c-65 0 -130 -55 -130 -165c0 -155 75 -245 170 -245c65 0 130 55 130 165c0 145 -75 245 -170 245zM35 225c0 132 98 240 240 240s240 -108 240 -240s-98 -240 -240 -240s-240 108 -240 240z" />
    <glyph glyph-name="two" unicode="2" horiz-adv-x="450" 
d="M405 155v-155h-390l195 170c74 64 90 105 90 160s-35 105 -105 105c-60 0 -95 -31 -95 -65c0 -14 30 -18 30 -55c0 -18 -14 -40 -40 -40c-27 0 -50 18 -50 60c0 68 63 130 163 130c134 0 182 -70 182 -130c0 -75 -51 -103 -150 -190l-79 -70h204z" />
    <glyph glyph-name="one" unicode="1" horiz-adv-x="315" 
d="M125 370h-90l170 95v-420l110 -45h-300l110 45v325z" />
    <glyph glyph-name="three" unicode="3" horiz-adv-x="480" 
d="M35 290v160h400l-185 -205c80 10 185 -55 185 -180c0 -130 -102 -230 -231 -230c-110 0 -174 54 -174 112c0 31 24 47 47 47c30 0 43 -26 43 -48c0 -52 32 -81 86 -81c80 0 149 55 149 160c0 93 -55 155 -155 155c-41 0 -65 -12 -70 -15l185 205h-235z" />
    <glyph glyph-name="four" unicode="4" horiz-adv-x="505" 
d="M280 -105v105h-275l355 465v-415h130v-50h-130v-105l80 -45h-240zM90 50h190v255z" />
    <glyph glyph-name="five" unicode="5" horiz-adv-x="466" 
d="M72 -6c30 0 43 -26 43 -48c0 -52 41 -81 85 -81c70 0 141 45 141 160c0 110 -71 160 -155 160c-90 0 -152 -50 -152 -50l70 315h307l-20 -80h-270l-40 -176c32 31 83 61 145 61c120 0 195 -80 195 -190c0 -140 -104 -230 -223 -230c-100 0 -173 54 -173 112
c0 31 24 47 47 47z" />
    <glyph glyph-name="six" unicode="6" horiz-adv-x="510" 
d="M129 325c29 44 78 85 156 85c95 0 190 -70 190 -205s-100 -220 -220 -220c-130 0 -220 105 -220 280c0 380 424 448 434 450c-15 -5 -303 -92 -340 -390zM125 260c0 -170 75 -245 145 -245c65 0 115 55 115 165c0 103 -50 185 -140 185c-56 0 -94 -30 -119 -63
c-1 -14 -1 -28 -1 -42z" />
    <glyph glyph-name="seven" unicode="7" horiz-adv-x="455" 
d="M30 290v160h405l-245 -600h-90l275 520h-300z" />
    <glyph glyph-name="eight" unicode="8" horiz-adv-x="495" 
d="M70 475c0 94 87 140 175 140c79 0 165 -35 165 -130c0 -75 -79 -111 -127 -126c84 -49 177 -100 177 -204s-92 -170 -215 -170c-129 0 -210 66 -210 165c0 103 95 154 154 176c-64 38 -119 81 -119 149zM120 155c0 -84 49 -140 130 -140s125 58 125 115
c0 92 -90 139 -172 188c-34 -28 -83 -83 -83 -163zM335 485c0 74 -44 100 -95 100s-90 -38 -90 -85c0 -60 56 -97 121 -135c27 19 64 57 64 120z" />
    <glyph glyph-name="nine" unicode="9" horiz-adv-x="500" 
d="M376 124c-30 -44 -79 -84 -156 -84c-95 0 -190 70 -190 205s100 220 220 220c130 0 220 -105 220 -280c0 -380 -424 -448 -435 -450c16 5 303 92 341 389zM380 190c0 170 -75 245 -145 245c-65 0 -115 -55 -115 -165c0 -103 50 -185 140 -185c55 0 93 30 118 63
c1 13 2 27 2 42z" />
    <glyph glyph-name="period" unicode="." horiz-adv-x="250" 
d="M70 50c0 30 25 55 55 55s55 -25 55 -55s-25 -55 -55 -55s-55 25 -55 55z" />
    <glyph glyph-name="comma" unicode="," horiz-adv-x="250" 
d="M70 50c0 30 25 55 55 55s55 -25 55 -55c0 -40 -10 -60 -100 -170l50 115h-5c-30 0 -55 25 -55 55z" />
    <glyph glyph-name="exclam" unicode="!" horiz-adv-x="270" 
d="M80 650l110 65l-55 -565zM80 50c0 30 25 55 55 55s55 -25 55 -55s-25 -55 -55 -55s-55 25 -55 55z" />
    <glyph glyph-name="semicolon" unicode=";" horiz-adv-x="270" 
d="M80 385c0 30 25 55 55 55s55 -25 55 -55s-25 -55 -55 -55s-55 25 -55 55zM80 50c0 30 25 55 55 55s55 -25 55 -55c0 -40 -10 -60 -100 -170l50 115h-5c-30 0 -55 25 -55 55z" />
    <glyph glyph-name="colon" unicode=":" horiz-adv-x="270" 
d="M80 50c0 30 25 55 55 55s55 -25 55 -55s-25 -55 -55 -55s-55 25 -55 55zM80 385c0 30 25 55 55 55s55 -25 55 -55s-25 -55 -55 -55s-55 25 -55 55z" />
    <glyph glyph-name="percent" unicode="%" horiz-adv-x="725" 
d="M140 0h-45l490 650h45zM40 520c0 69 52 145 145 145s145 -76 145 -145s-52 -145 -145 -145s-145 76 -145 145zM80 520c0 -50 36 -108 105 -108s105 58 105 108s-36 108 -105 108s-105 -58 -105 -108zM395 130c0 69 52 145 145 145s145 -76 145 -145s-52 -145 -145 -145
s-145 76 -145 145zM435 130c0 -50 36 -108 105 -108s105 58 105 108s-36 108 -105 108s-105 -58 -105 -108z" />
    <glyph glyph-name="perthousand" unicode="&#x2030;" horiz-adv-x="1055" 
d="M140 0h-45l490 650h45zM40 520c0 69 52 145 145 145s145 -76 145 -145s-52 -145 -145 -145s-145 76 -145 145zM80 520c0 -50 36 -108 105 -108s105 58 105 108s-36 108 -105 108s-105 -58 -105 -108zM395 130c0 69 52 145 145 145s145 -76 145 -145s-52 -145 -145 -145
s-145 76 -145 145zM435 130c0 -50 36 -108 105 -108s105 58 105 108s-36 108 -105 108s-105 -58 -105 -108zM725 130c0 69 52 145 145 145s145 -76 145 -145s-52 -145 -145 -145s-145 76 -145 145zM765 130c0 -50 36 -108 105 -108s105 58 105 108s-36 108 -105 108
s-105 -58 -105 -108z" />
    <glyph glyph-name="hyphen" unicode="-" horiz-adv-x="430" 
d="M60 220v45h310v-45h-310z" />
    <glyph glyph-name="endash" unicode="&#x2013;" horiz-adv-x="670" 
d="M70 240v35h530v-35h-530z" />
    <glyph glyph-name="emdash" unicode="&#x2014;" horiz-adv-x="770" 
d="M0 240v35h770v-35h-770z" />
    <glyph glyph-name="quoteleft" unicode="&#x2018;" horiz-adv-x="250" 
d="M180 545c0 -30 -25 -55 -55 -55s-55 25 -55 55c0 40 10 60 100 170l-50 -115h5c30 0 55 -25 55 -55z" />
    <glyph glyph-name="quoteright" unicode="&#x2019;" horiz-adv-x="250" 
d="M70 645c0 30 25 55 55 55s55 -25 55 -55c0 -40 -10 -60 -100 -170l50 115h-5c-30 0 -55 25 -55 55z" />
    <glyph glyph-name="quotedblleft" unicode="&#x201c;" horiz-adv-x="400" 
d="M330 545c0 -30 -25 -55 -55 -55s-55 25 -55 55c0 40 10 60 100 170l-50 -115h5c30 0 55 -25 55 -55zM180 545c0 -30 -25 -55 -55 -55s-55 25 -55 55c0 40 10 60 100 170l-50 -115h5c30 0 55 -25 55 -55z" />
    <glyph glyph-name="quotedblright" unicode="&#x201d;" horiz-adv-x="400" 
d="M70 645c0 30 25 55 55 55s55 -25 55 -55c0 -40 -10 -60 -100 -170l50 115h-5c-30 0 -55 25 -55 55zM220 645c0 30 25 55 55 55s55 -25 55 -55c0 -40 -10 -60 -100 -170l50 115h-5c-30 0 -55 25 -55 55z" />
    <glyph glyph-name="quotesinglbase" unicode="&#x201a;" horiz-adv-x="250" 
d="M70 50c0 30 25 55 55 55s55 -25 55 -55c0 -40 -10 -60 -100 -170l50 115h-5c-30 0 -55 25 -55 55z" />
    <glyph glyph-name="quotedblbase" unicode="&#x201e;" horiz-adv-x="400" 
d="M70 50c0 30 25 55 55 55s55 -25 55 -55c0 -40 -10 -60 -100 -170l50 115h-5c-30 0 -55 25 -55 55zM220 50c0 30 25 55 55 55s55 -25 55 -55c0 -40 -10 -60 -100 -170l50 115h-5c-30 0 -55 25 -55 55z" />
    <glyph glyph-name="ellipsis" unicode="&#x2026;" horiz-adv-x="910" 
d="M130 50c0 30 25 55 55 55s55 -25 55 -55s-25 -55 -55 -55s-55 25 -55 55zM400 50c0 30 25 55 55 55s55 -25 55 -55s-25 -55 -55 -55s-55 25 -55 55zM670 50c0 30 25 55 55 55s55 -25 55 -55s-25 -55 -55 -55s-55 25 -55 55z" />
    <glyph glyph-name="guillemotright" unicode="&#xbb;" horiz-adv-x="510" 
d="M220 0l120 225l-120 225l220 -225zM70 0l100 225l-100 225l200 -225z" />
    <glyph glyph-name="guilsinglright" unicode="&#x203a;" horiz-adv-x="360" 
d="M190 225l-120 225l220 -225l-220 -225z" />
    <glyph glyph-name="guillemotleft" unicode="&#xab;" horiz-adv-x="510" 
d="M290 450l-120 -225l120 -225l-220 225zM440 450l-100 -225l100 -225l-200 225z" />
    <glyph glyph-name="guilsinglleft" unicode="&#x2039;" horiz-adv-x="360" 
d="M290 450l-120 -225l120 -225l-220 225z" />
    <glyph glyph-name="underscore" unicode="_" horiz-adv-x="690" 
d="M60 0v35h570v-35h-570z" />
    <glyph glyph-name="bracketleft" unicode="[" horiz-adv-x="375" 
d="M140 -210v910h195v-35h-155v-840h155v-35h-195z" />
    <glyph glyph-name="bracketright" unicode="]" horiz-adv-x="375" 
d="M235 700v-910h-195v35h155v840h-155v35h195z" />
    <glyph glyph-name="backslash" unicode="\" horiz-adv-x="445" 
d="M465 -210h-40l-395 910h40z" />
    <glyph glyph-name="braceright" unicode="}" horiz-adv-x="372" 
d="M212 130c0 -55 25 -95 25 -155c0 -155 -207 -185 -207 -185s122 45 122 140c0 60 -25 96 -25 150c0 112 142 162 149 165c-7 2 -149 53 -149 165c0 54 25 90 25 150c0 95 -122 140 -122 140s207 -30 207 -185c0 -60 -25 -100 -25 -155c0 -86 107 -113 118 -115
c-12 -4 -118 -31 -118 -115z" />
    <glyph glyph-name="bar" unicode="|" horiz-adv-x="320" 
d="M180 -210h-40v910h40v-910z" />
    <glyph glyph-name="braceleft" unicode="{" horiz-adv-x="372" 
d="M160 130c0 85 -108 112 -119 115c6 1 119 27 119 115c0 55 -25 95 -25 155c0 155 207 185 207 185s-122 -45 -122 -140c0 -60 25 -96 25 -150c0 -112 -143 -163 -150 -165c7 -3 150 -53 150 -165c0 -54 -25 -90 -25 -150c0 -95 122 -140 122 -140s-207 30 -207 185
c0 60 25 100 25 155z" />
    <glyph glyph-name="asciitilde" unicode="~" horiz-adv-x="600" 
d="M80 250c0 0 45 75 120 75c85 0 130 -65 200 -65c55 0 90 60 90 60l30 -20s-45 -75 -120 -75c-85 0 -130 65 -200 65c-55 0 -90 -60 -90 -60z" />
    <glyph glyph-name="brokenbar" unicode="&#xa6;" horiz-adv-x="320" 
d="M180 -210h-40v410h40v-410zM180 290h-40v410h40v-410z" />
    <glyph glyph-name="parenleft" unicode="(" horiz-adv-x="364" 
d="M90 245c0 341 271 416 284 420c-9 -4 -194 -79 -194 -420s185 -416 194 -420c-13 4 -284 79 -284 420z" />
    <glyph glyph-name="parenright" unicode=")" horiz-adv-x="364" 
d="M274 245c0 -341 -271 -416 -284 -420c9 4 194 79 194 420s-185 416 -194 420c13 -4 284 -79 284 -420z" />
    <glyph glyph-name="quotesingle" unicode="'" horiz-adv-x="230" 
d="M70 650h90l-45 -230z" />
    <glyph glyph-name="quotedbl" unicode="&#x22;" horiz-adv-x="360" 
d="M70 650h90l-45 -230zM200 650h90l-45 -230z" />
    <glyph glyph-name="numbersign" unicode="#" horiz-adv-x="632" 
d="M75 390v35h184l98 225h40l-98 -225h120l98 225h40l-98 -225h148v-35h-163l-56 -130h169v-35h-184l-98 -225h-40l97 225h-119l-98 -225h-40l97 225h-147v35h162l57 130h-169zM284 390l-56 -130h119l57 130h-120z" />
    <glyph glyph-name="ampersand" unicode="&#x26;" horiz-adv-x="795" 
d="M745 430l-115 -65s-31 -112 -104 -214c52 -48 102 -81 139 -81c65 0 75 70 75 70s25 -155 -100 -155c-52 0 -115 37 -177 93c-56 -54 -128 -93 -218 -93s-195 50 -195 180c0 113 94 173 189 223c-22 50 -34 96 -34 132c0 105 95 145 165 145c80 0 140 -40 140 -105
c0 -68 -88 -104 -177 -152c40 -77 103 -164 166 -230c61 90 91 192 91 192l-85 60h240zM300 45c53 0 98 24 137 59c-72 72 -140 167 -183 254c-56 -42 -99 -96 -99 -178c0 -60 40 -135 145 -135zM290 540c0 -28 12 -66 32 -108c66 36 118 74 118 133c0 35 -20 70 -70 70
c-45 0 -80 -30 -80 -95z" />
    <glyph glyph-name="slash" unicode="/" horiz-adv-x="445" 
d="M20 -210h-40l395 910h40z" />
    <glyph glyph-name="asciicircum" unicode="^" horiz-adv-x="540" 
d="M70 465l200 200l200 -200l-25 -24l-175 175l-175 -175z" />
    <glyph glyph-name="question" unicode="?" horiz-adv-x="515" 
d="M260 290l-28 -140l-30 215h33c110 0 165 65 165 160s-65 160 -155 160c-95 0 -150 -60 -150 -105c0 -35 35 -38 35 -75c0 -22 -16 -40 -41 -40c-30 0 -54 25 -54 70c0 100 90 180 210 180c112 0 235 -65 235 -215c0 -110 -90 -210 -220 -210zM180 50c0 30 25 55 55 55
s55 -25 55 -55s-25 -55 -55 -55s-55 25 -55 55z" />
    <glyph glyph-name="at" unicode="@" horiz-adv-x="985" 
d="M517 465c100 0 106 -80 106 -80l14 65h80l-87 -410c140 40 248 125 248 275c0 182 -146 313 -368 313s-403 -171 -403 -403c0 -242 181 -403 403 -403c111 0 212 45 285 118l25 -25c-80 -80 -188 -130 -310 -130c-243 0 -440 177 -440 440c0 253 197 440 440 440
s405 -147 405 -350c0 -208 -190 -295 -375 -330l25 117c-47 -74 -105 -117 -160 -117c-81 0 -130 67 -130 177c0 179 138 303 242 303zM596 250c21 95 12 180 -60 180c-75 0 -170 -101 -170 -260c0 -82 27 -125 82 -125c50 0 116 55 133 135z" />
    <glyph glyph-name="greater" unicode="&#x3e;" horiz-adv-x="445" 
d="M375 240l-242 -202l-23 27l211 175l-211 175l23 27z" />
    <glyph glyph-name="equal" unicode="=" horiz-adv-x="600" 
d="M80 155v35h440v-35h-440zM80 285v35h440v-35h-440z" />
    <glyph glyph-name="less" unicode="&#x3c;" horiz-adv-x="445" 
d="M312 38l-242 202l242 202l23 -27l-211 -175l211 -175z" />
    <glyph glyph-name="plus" unicode="+" horiz-adv-x="580" 
d="M70 215v40h200v210h40v-210h200v-40h-200v-205h-40v205h-200z" />
    <glyph glyph-name="asterisk" unicode="*" horiz-adv-x="448" 
d="M184 505c0 40 24 69 29 126c-48 -33 -60 -68 -95 -88c-26 -15 -52 -10 -63 9c-11 20 -3 45 23 60c35 20 72 14 123 38c-51 24 -88 17 -123 38c-26 15 -34 40 -23 59c11 20 37 25 63 10c35 -20 47 -56 95 -88c-5 57 -29 85 -29 126c0 30 18 50 40 50s40 -20 40 -50
c0 -41 -25 -69 -29 -126c47 32 59 68 95 88c26 15 52 10 63 -10c11 -19 3 -44 -23 -59c-35 -21 -72 -14 -124 -38c52 -24 89 -18 124 -38c26 -15 34 -40 23 -60c-11 -19 -37 -24 -63 -9c-36 20 -48 55 -95 88c4 -57 29 -86 29 -126c0 -30 -18 -50 -40 -50s-40 20 -40 50z
" />
    <glyph glyph-name="bullet" unicode="&#x2022;" horiz-adv-x="430" 
d="M90 315c0 69 56 125 125 125s125 -56 125 -125s-56 -125 -125 -125s-125 56 -125 125z" />
    <glyph glyph-name="periodcentered" unicode="&#xb7;" horiz-adv-x="330" 
d="M110 300c0 30 25 55 55 55s55 -25 55 -55s-25 -55 -55 -55s-55 25 -55 55z" />
    <glyph glyph-name="paragraph" unicode="&#xb6;" horiz-adv-x="660" 
d="M590 665h-90v-865h-40v865h-100v-865h-40v400c-138 0 -250 100 -250 250s112 250 250 250h270v-35z" />
    <glyph glyph-name="plusminus" unicode="&#xb1;" horiz-adv-x="600" 
d="M80 300v35h202v200h35v-200h203v-35h-203v-200h-35v200h-202zM80 0v35h440v-35h-440z" />
    <glyph glyph-name="divide" unicode="&#xf7;" horiz-adv-x="580" 
d="M70 215v40h440v-40h-440zM235 70c0 30 25 55 55 55s55 -25 55 -55s-25 -55 -55 -55s-55 25 -55 55zM235 400c0 30 25 55 55 55s55 -25 55 -55s-25 -55 -55 -55s-55 25 -55 55z" />
    <glyph glyph-name="multiply" unicode="&#xd7;" horiz-adv-x="580" 
d="M100 395l30 30l160 -160l160 160l30 -30l-160 -160l160 -160l-30 -30l-160 160l-160 -160l-30 30l160 160z" />
    <glyph glyph-name="copyright" unicode="&#xa9;" horiz-adv-x="1020" 
d="M70 225c0 243 197 440 440 440s440 -197 440 -440s-197 -440 -440 -440s-440 197 -440 440zM107 225c0 -222 181 -403 403 -403s403 181 403 403s-181 403 -403 403s-403 -181 -403 -403zM689 177c-8 -115 -80 -192 -182 -192c-129 0 -208 105 -208 240
c0 140 99 240 218 240c100 0 159 -54 159 -112c0 -31 -24 -47 -47 -47c-30 0 -43 26 -43 48c0 52 -27 81 -71 81c-70 0 -136 -67 -136 -179c0 -149 91 -196 161 -196c49 0 113 32 149 117z" />
    <glyph glyph-name="registered" unicode="&#xae;" horiz-adv-x="1020" 
d="M70 225c0 243 197 440 440 440s440 -197 440 -440s-197 -440 -440 -440s-440 197 -440 440zM107 225c0 -222 181 -403 403 -403s403 181 403 403s-181 403 -403 403s-403 -181 -403 -403zM270 450l80 -45v-360l-80 -45h240l-80 45v155h59l144 -200h137l-70 45l-124 162
c58 13 109 46 109 118c0 100 -100 125 -180 125h-235zM500 235h-70v170l18 10h52c60 0 100 -40 100 -90s-30 -90 -100 -90z" />
    <glyph glyph-name="trademark" unicode="&#x2122;" horiz-adv-x="845" 
d="M80 360l65 40v220h-50l-55 -90v120h280v-120l-55 90h-50v-220l65 -40h-200zM585 360l65 40v187l-110 -242l-110 242v-187l65 -40h-165l65 40v210l-65 40h148l84 -185l83 185h140l-65 -40v-210l65 -40h-200z" />
    <glyph glyph-name="section" unicode="&#xa7;" horiz-adv-x="494" 
d="M150 -66c30 0 40 -20 40 -37c0 -23 -13 -28 -13 -49s16 -48 65 -48c42 0 85 25 85 83c0 141 -257 188 -257 362c0 84 77 142 124 170c-52 45 -97 95 -97 160c0 80 67 140 155 140c90 0 137 -51 137 -106c0 -33 -22 -53 -45 -53c-30 0 -40 20 -40 37c0 23 13 28 13 49
s-16 48 -65 48c-42 0 -85 -25 -85 -83c0 -141 257 -188 257 -362c0 -84 -77 -143 -124 -170c52 -46 97 -95 97 -160c0 -80 -67 -140 -155 -140c-90 0 -137 51 -137 106c0 33 22 53 45 53zM354 220c0 71 -78 124 -148 184c-27 -26 -66 -74 -66 -134c0 -72 77 -125 147 -184
c28 26 67 73 67 134z" />
    <glyph glyph-name="dagger" unicode="&#x2020;" horiz-adv-x="430" 
d="M60 650c0 22 18 40 48 40c32 0 54 -26 97 -30c-3 53 -30 77 -30 115c0 30 18 50 40 50s40 -20 40 -50c0 -38 -27 -62 -30 -115c43 4 64 30 97 30c30 0 48 -18 48 -40s-18 -40 -48 -40c-33 0 -54 26 -97 29c2 -53 17 -81 40 -109l-50 -395l-50 395c24 28 38 56 40 109
c-43 -3 -65 -29 -97 -29c-30 0 -48 18 -48 40z" />
    <glyph glyph-name="daggerdbl" unicode="&#x2021;" horiz-adv-x="430" 
d="M215 85c-22 0 -40 18 -40 48c0 37 27 59 30 111c-43 -3 -65 -29 -97 -29c-30 0 -48 18 -48 40s18 40 48 40c32 0 54 -26 97 -30c-2 52 -18 72 -40 100c0 0 40 30 40 87c0 58 -40 88 -40 88c24 28 38 47 40 99c-43 -3 -65 -29 -97 -29c-30 0 -48 18 -48 40s18 40 48 40
c32 0 54 -26 97 -30c-3 52 -30 74 -30 112c0 30 18 48 40 48s40 -18 40 -48c0 -38 -27 -60 -30 -112c43 4 64 30 97 30c30 0 48 -18 48 -40s-18 -40 -48 -40c-33 0 -54 26 -97 29c2 -51 17 -71 39 -99c-2 -1 -39 -22 -39 -88c0 -67 40 -87 40 -87c-25 -28 -39 -48 -40 -100
c43 4 64 30 97 30c30 0 48 -18 48 -40s-18 -40 -48 -40c-33 0 -54 26 -97 29c3 -52 30 -74 30 -111c0 -30 -18 -48 -40 -48z" />
    <glyph glyph-name="afii61352" unicode="&#x2116;" horiz-adv-x="900" 
d="M130 650l350 -456v401l-110 55h255l-100 -55v-610l-365 476v-406l110 -55h-255l100 55v464l-100 131h115zM615 530c0 66 40 135 125 135s125 -69 125 -135s-40 -135 -125 -135s-125 69 -125 135zM682 530c0 -75 25 -112 58 -112s58 37 58 112s-25 112 -58 112
s-58 -37 -58 -112zM615 310v40h250v-40h-250z" />
    <glyph glyph-name="degree" unicode="&#xb0;" horiz-adv-x="370" 
d="M60 590c0 69 52 125 125 125s125 -56 125 -125s-52 -125 -125 -125s-125 56 -125 125zM98 590c0 -50 37 -90 87 -90s87 40 87 90s-37 90 -87 90s-87 -40 -87 -90z" />
    <glyph glyph-name="uni2031" unicode="&#x2031;" horiz-adv-x="1385" 
d="M140 0h-45l490 650h45zM40 520c0 69 52 145 145 145s145 -76 145 -145s-52 -145 -145 -145s-145 76 -145 145zM80 520c0 -50 36 -108 105 -108s105 58 105 108s-36 108 -105 108s-105 -58 -105 -108zM395 130c0 69 52 145 145 145s145 -76 145 -145s-52 -145 -145 -145
s-145 76 -145 145zM435 130c0 -50 36 -108 105 -108s105 58 105 108s-36 108 -105 108s-105 -58 -105 -108zM725 130c0 69 52 145 145 145s145 -76 145 -145s-52 -145 -145 -145s-145 76 -145 145zM765 130c0 -50 36 -108 105 -108s105 58 105 108s-36 108 -105 108
s-105 -58 -105 -108zM1055 130c0 69 52 145 145 145s145 -76 145 -145s-52 -145 -145 -145s-145 76 -145 145zM1095 130c0 -50 36 -108 105 -108s105 58 105 108s-36 108 -105 108s-105 -58 -105 -108z" />
    <glyph glyph-name="questiondown" unicode="&#xbf;" horiz-adv-x="515" 
d="M255 200l28 140l30 -215h-33c-110 0 -165 -65 -165 -160s65 -160 155 -160c95 0 150 60 150 105c0 35 -35 38 -35 75c0 22 16 40 41 40c30 0 54 -25 54 -70c0 -100 -90 -180 -210 -180c-112 0 -235 65 -235 215c0 110 90 210 220 210zM335 440c0 -30 -25 -55 -55 -55
s-55 25 -55 55s25 55 55 55s55 -25 55 -55z" />
    <glyph glyph-name="exclamdown" unicode="&#xa1;" horiz-adv-x="270" 
d="M190 -160l-110 -65l55 565zM190 440c0 -30 -25 -55 -55 -55s-55 25 -55 55s25 55 55 55s55 -25 55 -55z" />
    <glyph glyph-name="uni203B" unicode="&#x203b;" horiz-adv-x="760" 
d="M118 35l-28 28l262 262l-262 262l28 28l262 -262l262 262l28 -28l-262 -262l262 -262l-28 -28l-262 262zM325 125c0 30 25 55 55 55s55 -25 55 -55s-25 -55 -55 -55s-55 25 -55 55zM125 325c0 30 25 55 55 55s55 -25 55 -55s-25 -55 -55 -55s-55 25 -55 55zM325 525
c0 30 25 55 55 55s55 -25 55 -55s-25 -55 -55 -55s-55 25 -55 55zM525 325c0 30 25 55 55 55s55 -25 55 -55s-25 -55 -55 -55s-55 25 -55 55z" />
    <glyph glyph-name="uni2042" unicode="&#x2042;" horiz-adv-x="767" 
d="M75 440c11 19 36 21 57 9c28 -17 40 -51 74 -76c-4 42 -28 70 -28 102c0 25 14 45 36 45s36 -20 36 -45c0 -32 -24 -60 -29 -102c35 25 47 59 75 76c26 15 48 6 57 -9c8 -15 5 -39 -21 -54c-28 -16 -64 -9 -103 -26c39 -18 75 -11 103 -26c26 -15 29 -39 21 -54
c-9 -15 -31 -24 -57 -9c-28 16 -40 50 -75 75c5 -42 29 -69 29 -101c0 -30 -19 -45 -36 -45s-36 15 -36 45c0 32 24 59 28 102c-34 -25 -46 -60 -74 -76c-21 -12 -46 -10 -57 9s0 41 21 54c28 15 64 8 102 26c-38 17 -74 10 -102 26c-21 13 -32 35 -21 54zM415 440
c11 19 36 21 57 9c28 -17 40 -51 74 -76c-4 42 -28 70 -28 102c0 25 14 45 36 45s36 -20 36 -45c0 -32 -24 -60 -29 -102c35 25 47 59 75 76c26 15 48 6 57 -9c8 -15 5 -39 -21 -54c-28 -16 -64 -9 -103 -26c39 -18 75 -11 103 -26c26 -15 29 -39 21 -54
c-9 -15 -31 -24 -57 -9c-28 16 -40 50 -75 75c5 -42 29 -69 29 -101c0 -30 -19 -45 -36 -45s-36 15 -36 45c0 32 24 59 28 102c-34 -25 -46 -60 -74 -76c-21 -12 -46 -10 -57 9s0 41 21 54c28 15 64 8 102 26c-38 17 -74 10 -102 26c-21 13 -32 35 -21 54zM245 730
c11 19 36 21 57 9c28 -17 40 -51 74 -76c-4 42 -28 70 -28 102c0 25 14 45 36 45s36 -20 36 -45c0 -32 -24 -60 -29 -102c35 25 47 59 75 76c26 15 48 6 57 -9c8 -15 5 -39 -21 -54c-28 -16 -64 -9 -103 -26c39 -18 75 -11 103 -26c26 -15 29 -39 21 -54
c-9 -15 -31 -24 -57 -9c-28 16 -40 50 -75 75c5 -42 29 -69 29 -101c0 -30 -19 -45 -36 -45s-36 15 -36 45c0 32 24 59 28 102c-34 -25 -46 -60 -74 -76c-21 -12 -46 -10 -57 9s0 41 21 54c28 15 64 8 102 26c-38 17 -74 10 -102 26c-21 13 -32 35 -21 54z" />
    <glyph glyph-name="uni203D" unicode="&#x203d;" horiz-adv-x="515" 
d="M185 540l110 65l-29 -239c91 10 134 72 134 159c0 95 -60 160 -150 160c-95 0 -155 -60 -155 -105c0 -35 35 -38 35 -75c0 -22 -16 -40 -41 -40c-30 0 -54 25 -54 70c0 100 95 180 215 180c112 0 230 -65 230 -215c0 -110 -93 -210 -223 -210l-17 -140zM185 50
c0 30 25 55 55 55s55 -25 55 -55s-25 -55 -55 -55s-55 25 -55 55z" />
    <glyph glyph-name="uni2051" unicode="&#x2051;" horiz-adv-x="467" 
d="M95 730c11 19 36 21 57 9c28 -17 40 -51 74 -76c-4 42 -28 70 -28 102c0 25 14 45 36 45s36 -20 36 -45c0 -32 -24 -60 -29 -102c35 25 47 59 75 76c26 15 48 6 57 -9c8 -15 5 -39 -21 -54c-28 -16 -64 -9 -103 -26c39 -18 75 -11 103 -26c26 -15 29 -39 21 -54
c-9 -15 -31 -24 -57 -9c-28 16 -40 50 -75 75c5 -42 29 -69 29 -101c0 -30 -19 -45 -36 -45s-36 15 -36 45c0 32 24 59 28 102c-34 -25 -46 -60 -74 -76c-21 -12 -46 -10 -57 9s0 41 21 54c28 15 64 8 102 26c-38 17 -74 10 -102 26c-21 13 -32 35 -21 54zM95 380
c11 19 36 21 57 9c28 -17 40 -51 74 -76c-4 42 -28 70 -28 102c0 25 14 45 36 45s36 -20 36 -45c0 -32 -24 -60 -29 -102c35 25 47 59 75 76c26 15 48 6 57 -9c8 -15 5 -39 -21 -54c-28 -16 -64 -9 -103 -26c39 -18 75 -11 103 -26c26 -15 29 -39 21 -54
c-9 -15 -31 -24 -57 -9c-28 16 -40 50 -75 75c5 -42 29 -69 29 -101c0 -30 -19 -45 -36 -45s-36 15 -36 45c0 32 24 59 28 102c-34 -25 -46 -60 -74 -76c-21 -12 -46 -10 -57 9s0 41 21 54c28 15 64 8 102 26c-38 17 -74 10 -102 26c-21 13 -32 35 -21 54z" />
    <glyph glyph-name="uni3008" unicode="&#x3008;" horiz-adv-x="348" 
d="M268 -210l-198 455l198 455h40l-198 -455l198 -455h-40z" />
    <glyph glyph-name="uni3009" unicode="&#x3009;" horiz-adv-x="348" 
d="M278 245l-198 -455h-40l198 455l-198 455h40z" />
    <glyph glyph-name="uni300A" unicode="&#x300a;" horiz-adv-x="468" 
d="M388 -210l-198 455l198 455h40l-198 -455l198 -455h-40zM268 -210l-198 455l198 455h40l-198 -455l198 -455h-40z" />
    <glyph glyph-name="uni300B" unicode="&#x300b;" horiz-adv-x="468" 
d="M278 245l-198 -455h-40l198 455l-198 455h40zM398 245l-198 -455h-40l198 455l-198 455h40z" />
    <glyph glyph-name="uni2E2E" unicode="&#x2e2e;" horiz-adv-x="515" 
d="M283 150l-28 140c-130 0 -220 100 -220 210c0 150 123 215 235 215c120 0 210 -80 210 -180c0 -45 -24 -70 -54 -70c-25 0 -41 18 -41 40c0 37 35 40 35 75c0 45 -55 105 -150 105c-90 0 -155 -65 -155 -160s55 -160 165 -160h33zM335 50c0 -30 -25 -55 -55 -55
s-55 25 -55 55s25 55 55 55s55 -25 55 -55z" />
    <glyph glyph-name="arrowleft" unicode="&#x2190;" horiz-adv-x="820" 
d="M735 342v-34h-525v-73l-140 90l140 90v-73h525z" />
    <glyph glyph-name="arrowup" unicode="&#x2191;" horiz-adv-x="820" 
d="M393 525h-73l90 140l90 -140h-73v-525h-34v525z" />
    <glyph glyph-name="arrowright" unicode="&#x2192;" horiz-adv-x="820" 
d="M610 342v73l140 -90l-140 -90v73h-525v34h525z" />
    <glyph glyph-name="arrowdown" unicode="&#x2193;" horiz-adv-x="820" 
d="M427 125h73l-90 -140l-90 140h73v525h34v-525z" />
    <glyph glyph-name="arrowboth" unicode="&#x2194;" horiz-adv-x="820" 
d="M610 342v73l140 -90l-140 -90v73h-400v-73l-140 90l140 90v-73h400z" />
    <glyph glyph-name="arrowupdn" unicode="&#x2195;" horiz-adv-x="820" 
d="M393 525h-73l90 140l90 -140h-73v-400h73l-90 -140l-90 140h73v400z" />
    <glyph glyph-name="uni2196" unicode="&#x2196;" horiz-adv-x="820" 
d="M735 24l-24 -24l-539 539l-52 -51l-35 162l162 -35l-51 -52z" />
    <glyph glyph-name="uni2197" unicode="&#x2197;" horiz-adv-x="820" 
d="M109 0l-24 24l539 539l-51 52l162 35l-35 -162l-52 51z" />
    <glyph glyph-name="uni2198" unicode="&#x2198;" horiz-adv-x="820" 
d="M85 626l24 24l539 -539l52 51l35 -162l-162 35l51 52z" />
    <glyph glyph-name="uni2199" unicode="&#x2199;" horiz-adv-x="820" 
d="M711 650l24 -24l-539 -539l51 -52l-162 -35l35 162l52 -51z" />
    <glyph glyph-name="uni21B0" unicode="&#x21b0;" horiz-adv-x="820" 
d="M209 342h261v-342h-34v308h-227v-73l-140 90l140 90v-73z" />
    <glyph glyph-name="uni21B1" unicode="&#x21b1;" horiz-adv-x="820" 
d="M349 342h261v73l140 -90l-140 -90v73h-227v-308h-34v342z" />
    <glyph glyph-name="uni21B2" unicode="&#x21b2;" horiz-adv-x="820" 
d="M470 308h-261v-73l-140 90l140 90v-73h227v308h34v-342z" />
    <glyph glyph-name="uni21B3" unicode="&#x21b3;" horiz-adv-x="820" 
d="M610 308h-261v342h34v-308h227v73l140 -90l-140 -90v73z" />
    <glyph glyph-name="uni21B4" unicode="&#x21b4;" horiz-adv-x="820" 
d="M427 386v-261h73l-90 -140l-90 140h73v227h-308v34h342z" />
    <glyph glyph-name="uni21C4" unicode="&#x21c4;" horiz-adv-x="820" 
d="M610 442v73l140 -90l-140 -90v73h-525v34h525zM735 242v-34h-525v-73l-140 90l140 90v-73h525z" />
    <glyph glyph-name="uni21C5" unicode="&#x21c5;" horiz-adv-x="820" 
d="M537 125h73l-90 -140l-90 140h73v525h34v-525zM283 525h-73l90 140l90 -140h-73v-525h-34v525z" />
    <glyph glyph-name="uni21BA" unicode="&#x21ba;" horiz-adv-x="820" 
d="M195 325c0 -119 96 -215 215 -215s215 96 215 215c0 59 -24 112 -63 151l-51 -51l-35 163l163 -36l-52 -51c45 -46 73 -107 73 -176c0 -138 -112 -250 -250 -250s-250 112 -250 250c0 69 28 131 73 177l25 -25c-39 -39 -63 -93 -63 -152z" />
    <glyph glyph-name="uni21BB" unicode="&#x21bb;" horiz-adv-x="820" 
d="M625 325c0 59 -24 113 -63 152l25 25c45 -46 73 -108 73 -177c0 -138 -112 -250 -250 -250s-250 112 -250 250c0 69 28 130 73 176l-52 51l163 36l-35 -163l-51 51c-39 -39 -63 -92 -63 -151c0 -119 96 -215 215 -215s215 96 215 215z" />
    <glyph glyph-name="minus" unicode="&#x2212;" horiz-adv-x="580" 
d="M70 215v40h440v-40h-440z" />
    <glyph glyph-name="infinity" unicode="&#x221e;" horiz-adv-x="875" 
d="M210 442c69 1 130 -54 189 -116c36 65 112 169 226 169c119 0 200 -84 200 -213c0 -123 -86 -213 -200 -213c-108 0 -190 94 -266 175c-20 -48 -71 -141 -159 -141c-100 0 -150 83 -150 162c0 88 50 176 160 177zM610 420c-90 0 -163 -60 -202 -103
c74 -78 149 -163 242 -163c77 0 145 47 145 133c0 81 -71 133 -185 133zM195 168c81 0 135 51 159 82c-56 60 -110 112 -169 112c-60 0 -105 -37 -105 -97c0 -55 45 -97 115 -97z" />
    <glyph glyph-name="summation" unicode="&#x2211;" horiz-adv-x="605" 
d="M40 0l217 326l-217 324h500l-90 -210v175h-277l162 -245l-193 -285h338l65 125v-210h-505z" />
    <glyph glyph-name="Delta" unicode="&#x2206;" horiz-adv-x="692" 
d="M622 0h-552l276 665zM318 495l-192 -460h382z" />
    <glyph glyph-name="notequal" unicode="&#x2260;" horiz-adv-x="600" 
d="M80 285v35h230l68 155h40l-68 -155h170v-35h-185l-41 -95h226v-35h-242l-67 -155h-40l67 155h-158v35h174l41 95h-215z" />
    <glyph glyph-name="radical" unicode="&#x221a;" horiz-adv-x="496" 
d="M50 335v35h162l72 -195l151 525h41l-205 -715l-132 350h-89z" />
    <glyph glyph-name="lessequal" unicode="&#x2264;" horiz-adv-x="445" 
d="M317 110l-247 155l245 173l20 -28l-202 -144l202 -126zM70 165l19 30l246 -155l-18 -30z" />
    <glyph glyph-name="greaterequal" unicode="&#x2265;" horiz-adv-x="445" 
d="M375 265l-247 -155l-18 30l202 126l-202 144l20 28zM356 195l19 -30l-247 -155l-18 30z" />
    <glyph glyph-name="pi" unicode="&#x3c0;" horiz-adv-x="555" 
d="M172 370h-47c-63 0 -95 -57 -100 -68c4 15 41 148 140 148h350v-80h-98l-17 -275c-3 -40 20 -50 40 -50c35 0 75 40 75 40s-55 -100 -115 -100c-50 0 -84 30 -80 95l17 290h-130l-2 -25c-14 -165 -40 -360 -130 -360c-25 0 -45 15 -45 44c0 78 117 34 140 316z" />
    <glyph glyph-name="smileface" unicode="&#x263a;" horiz-adv-x="820" 
d="M195 285c0 0 55 -123 215 -123s215 123 215 123s-40 -175 -215 -175s-215 175 -215 175zM70 325c0 188 152 340 340 340s340 -152 340 -340s-152 -340 -340 -340s-340 152 -340 340zM107 325c0 -167 136 -303 303 -303s303 136 303 303s-136 303 -303 303
s-303 -136 -303 -303zM460 410c0 50 15 100 45 100s45 -50 45 -100s-15 -100 -45 -100s-45 50 -45 100zM270 410c0 50 15 100 45 100s45 -50 45 -100s-15 -100 -45 -100s-45 50 -45 100z" />
    <glyph glyph-name="uni2605" unicode="&#x2605;" horiz-adv-x="706" 
d="M277 430l76 235l76 -235h247l-200 -145l77 -235l-200 145l-200 -145l76 235l-199 145h247z" />
    <glyph glyph-name="copyleft" horiz-adv-x="1020" 
d="M70 225c0 243 197 440 440 440s440 -197 440 -440s-197 -440 -440 -440s-440 197 -440 440zM689 177c-8 -115 -80 -192 -182 -192c-49 0 -90 15 -123 41l-101 -134c65 -44 143 -70 227 -70c222 0 403 181 403 403c0 124 -57 235 -145 309l-104 -138c7 -13 12 -28 12 -43
c0 -31 -24 -47 -47 -47c-11 0 -20 3 -27 9l-164 -218c30 -27 68 -37 102 -37c49 0 113 32 149 117zM107 225c0 -124 56 -235 145 -309l103 137c-36 43 -56 104 -56 172c0 140 99 240 218 240c52 0 93 -15 121 -37l98 130c-64 44 -142 70 -226 70c-222 0 -403 -181 -403 -403
zM379 256c0 -56 13 -98 33 -128l174 231c-2 49 -29 76 -71 76c-70 0 -136 -67 -136 -179z" />
    <glyph glyph-name="uni2713" unicode="&#x2713;" horiz-adv-x="710" 
d="M660 715l-455 -730l-190 315l185 -155z" />
    <glyph glyph-name="currency" unicode="&#xa4;" horiz-adv-x="640" 
d="M135 245c0 44 15 84 41 116l-76 76l28 28l76 -76c31 25 72 41 116 41s84 -16 116 -41l76 76l28 -28l-76 -76c25 -32 41 -72 41 -116s-16 -85 -41 -116l76 -76l-28 -28l-76 76c-32 -26 -72 -41 -116 -41s-85 15 -116 41l-76 -76l-28 28l76 76c-26 31 -41 72 -41 116z
M172 245c0 -82 66 -148 148 -148s148 66 148 148s-66 148 -148 148s-148 -66 -148 -148z" />
    <glyph glyph-name="dollar" unicode="$" horiz-adv-x="605" 
d="M315 -155h-40v141c-82 5 -125 44 -125 44l-60 -45v245l80 -165s34 -42 105 -49v273l-70 31c-71 31 -125 81 -125 165c0 117 88 173 195 179v151h40v-151c73 -6 120 -44 120 -44l60 45v-215l-75 135s-42 41 -105 48v-245l75 -33c64 -28 140 -65 140 -175
c0 -119 -95 -187 -215 -194v-141zM330 265l-15 6v-255c74 7 125 55 125 129c0 80 -68 101 -110 120zM160 525c0 -54 46 -89 105 -115l10 -5v229c-69 -8 -115 -54 -115 -109z" />
    <glyph glyph-name="Euro" unicode="&#x20ac;" horiz-adv-x="785" 
d="M690 665v-245l-75 160s-50 55 -145 55c-122 0 -203 -98 -218 -245h278v-35h-280v-15c0 -12 0 -24 1 -35h279v-35h-275c19 -133 97 -225 230 -225c170 0 227 166 230 174c-2 -11 -46 -234 -260 -234c-169 0 -292 116 -312 285h-103v35h100v15c0 12 0 23 1 35h-101v35h105
c25 173 147 275 310 275c114 0 175 -55 175 -55z" />
    <glyph glyph-name="cent" unicode="&#xa2;" horiz-adv-x="455" 
d="M260 -155h-40v141c-115 12 -185 112 -185 239s81 221 185 237v153h40v-150c96 -3 152 -56 152 -112c0 -31 -24 -47 -47 -47c-30 0 -43 26 -43 48c0 48 -24 76 -62 80v-373c5 -1 11 -1 16 -1c49 0 113 32 149 117c-8 -109 -72 -183 -165 -191v-141zM115 256
c0 -111 50 -166 105 -186v360c-58 -16 -105 -79 -105 -174z" />
    <glyph glyph-name="yen" unicode="&#xa5;" horiz-adv-x="670" 
d="M130 235v35h163l-203 320l-100 60h280l-80 -50l175 -275l175 275l-80 50h230l-100 -55l-195 -308v-17h170v-35h-170v-50h170v-35h-170v-95l100 -55h-295l100 55v95h-170v35h170v50h-170z" />
    <glyph glyph-name="bitcoin" horiz-adv-x="620" 
d="M375 -155h-40v155h-60v-155h-40v155h-220l100 55v540l-100 55h220v165h40v-165h45c5 0 10 -1 15 -1v166h40v-168c104 -11 170 -58 170 -152c0 -125 -135 -145 -135 -145v-5s170 -15 170 -165c0 -110 -86 -167 -205 -178v-157zM310 325h-100v-270l35 -20h70
c90 0 155 45 155 145c0 105 -70 145 -160 145zM210 595v-235h100c80 0 135 45 135 130c0 90 -55 125 -135 125h-65z" />
    <glyph glyph-name="ruble" unicode="&#x20bd;" horiz-adv-x="625" 
d="M50 300v35h105v260l-100 55h270c145 0 260 -50 260 -175s-115 -175 -260 -175h-75v-45h220v-35h-220v-165l120 -55h-315l100 55v165h-105v35h105v45h-105zM250 615v-280h65c90 0 160 30 160 140s-70 140 -160 140h-65z" />
    <glyph glyph-name="approxequal" unicode="&#x2248;" horiz-adv-x="600" 
d="M80 165c0 0 45 75 120 75c85 0 130 -65 200 -65c55 0 90 60 90 60l30 -20s-45 -75 -120 -75c-85 0 -130 65 -200 65c-55 0 -90 -60 -90 -60zM80 295c0 0 45 75 120 75c85 0 130 -65 200 -65c55 0 90 60 90 60l30 -20s-45 -75 -120 -75c-85 0 -130 65 -200 65
c-55 0 -90 -60 -90 -60z" />
    <glyph glyph-name="caps_dash" horiz-adv-x="480" 
d="M60 315v45h360v-45h-360z" />
    <glyph glyph-name="caps_endash" horiz-adv-x="670" 
d="M70 320v35h530v-35h-530z" />
    <glyph glyph-name="caps_emdash" horiz-adv-x="770" 
d="M0 320v35h770v-35h-770z" />
    <glyph glyph-name="caps_quoteleft" horiz-adv-x="510" 
d="M290 530l-120 -225l120 -225l-220 225zM440 530l-100 -225l100 -225l-200 225z" />
    <glyph glyph-name="caps_quoteright" horiz-adv-x="510" 
d="M220 80l120 225l-120 225l220 -225zM70 80l100 225l-100 225l200 -225z" />
    <glyph glyph-name="caps_singleleft" horiz-adv-x="360" 
d="M290 530l-120 -225l120 -225l-220 225z" />
    <glyph glyph-name="caps_singleright" horiz-adv-x="360" 
d="M190 305l-120 225l220 -225l-220 -225z" />
    <glyph glyph-name="testmark1" unicode="&#xe009;" horiz-adv-x="1070" 
d="M163 23l372 312l-397 -279c-9 12 -16 24 -24 37l421 242l-440 -205c-6 13 -11 25 -16 39l456 166l-469 -125c-3 13 -6 27 -9 40l478 85l-484 -43c-1 14 -1 28 -1 43h485l-484 42c1 15 4 28 6 42l478 -84l-469 125c4 14 8 27 13 41l456 -166l-440 205c6 12 12 25 19 37
l421 -242l-397 278c8 12 16 23 25 34l372 -312l-343 343c10 10 20 19 31 28l312 -371l-279 397c12 8 24 16 37 23l242 -420l-205 439c13 6 25 12 39 17l166 -456l-125 468c13 4 27 7 40 9l85 -477l-43 483c14 1 28 2 43 2v-485l42 483c15 -1 28 -3 42 -6l-84 -477l125 468
c14 -3 27 -7 41 -12l-166 -456l205 439c13 -6 25 -12 38 -19l-243 -420l278 397c12 -8 23 -17 34 -26l-312 -371l343 343c10 -10 19 -21 28 -31l-371 -312l397 278c8 -12 16 -24 23 -36l-420 -242l439 205c6 -13 12 -26 17 -39l-456 -166l468 125c4 -14 7 -27 9 -41
l-477 -84l483 42c1 -14 2 -28 2 -42h-485l483 -43c-1 -14 -3 -28 -6 -42l-477 85l468 -125c-3 -14 -7 -28 -12 -41l-456 166l439 -205c-6 -13 -12 -26 -19 -38l-420 243l397 -279c-8 -11 -17 -22 -26 -33l-371 312l343 -343c-10 -10 -21 -19 -31 -28l-312 371l278 -397
c-12 -8 -24 -16 -36 -23l-242 420l205 -439c-13 -6 -26 -12 -39 -17l-166 456l125 -468c-14 -4 -27 -7 -41 -9l-84 477l42 -483c-14 -1 -28 -2 -42 -2v485l-43 -483c-14 1 -28 3 -42 6l85 477l-125 -468c-14 3 -28 7 -41 12l166 456l-205 -439c-13 6 -25 12 -37 19l242 420
l-279 -397c-11 8 -22 17 -33 26l312 371l-343 -343c-10 10 -20 20 -29 31z" />
    <glyph glyph-name="testmark2" unicode="&#xe00a;" horiz-adv-x="1070" 
d="M607 -145l-60 341v-346h-24v346l-60 -341l-24 4l60 339l-119 -323l-22 8l118 324l-173 -298l-21 12l172 298l-221 -264l-19 16l221 264l-264 -221l-16 19l264 221l-298 -172l-12 21l299 172l-325 -118l-8 23l326 119l-342 -60l-4 24l341 60h-346v24h346l-341 60l4 24
l342 -60l-326 119l8 23l325 -119l-299 173l12 21l298 -172l-264 221l16 19l264 -222l-221 265l19 16l221 -264l-172 298l21 12l172 -299l-118 325l23 8l120 -328l-61 344l24 4l60 -341v346h24v-346l60 341l24 -4l-61 -344l120 328l23 -8l-118 -325l172 299l21 -12l-172 -298
l221 264l19 -16l-221 -265l264 222l16 -19l-264 -221l298 172l12 -21l-299 -173l325 119l8 -23l-326 -119l342 60l4 -24l-341 -60h346v-24h-346l341 -60l-4 -24l-342 60l326 -119l-8 -23l-325 118l299 -172l-12 -21l-298 172l264 -221l-16 -19l-264 221l221 -264l-19 -16
l-221 264l172 -298l-21 -12l-173 298l118 -324l-22 -8l-119 323l60 -339z" />
    <glyph glyph-name="A" unicode="A" 
d="M-20 0l105 55l205 485l-95 110h147l248 -590l100 -60h-280l85 50l-65 155h-241l-64 -155l90 -50h-235zM310 495l-106 -255h212z" />
    <glyph glyph-name="Scommaaccent" unicode="&#x218;" horiz-adv-x="530" 
d="M205 -105c0 30 25 55 55 55s55 -25 55 -55c0 -40 -10 -60 -100 -170l50 115h-5c-30 0 -55 25 -55 55zM455 665v-215l-75 135s-50 50 -125 50c-80 0 -135 -50 -135 -110c0 -54 46 -89 105 -115l125 -55c64 -28 140 -65 140 -175c0 -125 -105 -195 -235 -195
c-95 0 -145 45 -145 45l-60 -45v245l80 -165s40 -50 125 -50s145 50 145 130s-68 101 -110 120l-125 55c-71 31 -125 81 -125 165c0 125 100 180 215 180c85 0 140 -45 140 -45z" />
    <glyph glyph-name="scommaaccent" unicode="&#x219;" horiz-adv-x="400" 
d="M145 -105c0 30 25 55 55 55s55 -25 55 -55c0 -40 -10 -60 -100 -170l50 115h-5c-30 0 -55 25 -55 55zM200 -15c-75 0 -110 35 -110 35l-40 -35v200c40 -110 75 -170 150 -170c55 0 85 35 85 75c0 50 -28 67 -65 85l-70 33c-45 20 -105 47 -105 127c0 73 60 130 150 130
c60 0 95 -30 95 -30l45 30v-175l-60 115s-25 30 -80 30c-50 0 -85 -30 -85 -70c0 -45 31 -57 80 -80l70 -33c76 -36 100 -72 100 -132c0 -80 -70 -135 -160 -135z" />
    <glyph glyph-name="logicalnot" unicode="&#xac;" horiz-adv-x="580" 
d="M70 295v40h440v-205h-40v165h-400z" />
    <glyph glyph-name="uni261C" unicode="&#x261c;" horiz-adv-x="650" 
d="M480 515v-380l-360 190z" />
    <glyph glyph-name="uni261D" unicode="&#x261d;" horiz-adv-x="650" 
d="M525 200h-380l190 360z" />
    <glyph glyph-name="uni261E" unicode="&#x261e;" horiz-adv-x="650" 
d="M170 135v380l360 -190z" />
    <glyph glyph-name="uni261F" unicode="&#x261f;" horiz-adv-x="650" 
d="M145 450h380l-190 -360z" />
    <glyph glyph-name="N" unicode="N" horiz-adv-x="735" 
d="M140 650l440 -480v425l-110 55h255l-100 -55v-610l-465 507v-437l110 -55h-255l100 55v486l-100 109h125z" />
    <glyph glyph-name="caps_at" horiz-adv-x="985" 
d="M517 545c100 0 106 -80 106 -80l14 65h80l-87 -410c140 40 248 125 248 275c0 182 -146 313 -368 313s-403 -171 -403 -403c0 -242 181 -403 403 -403c111 0 212 45 285 118l25 -25c-80 -80 -188 -130 -310 -130c-243 0 -440 177 -440 440c0 253 197 440 440 440
s405 -147 405 -350c0 -208 -190 -295 -375 -330l25 117c-47 -74 -105 -117 -160 -117c-81 0 -130 67 -130 177c0 179 138 303 242 303zM596 330c21 95 12 180 -60 180c-75 0 -170 -101 -170 -260c0 -82 27 -125 82 -125c50 0 116 55 133 135z" />
    <glyph glyph-name="caps_parenleft" horiz-adv-x="364" 
d="M90 325c0 341 271 416 284 420c-9 -4 -194 -79 -194 -420s185 -416 194 -420c-13 4 -284 79 -284 420z" />
    <glyph glyph-name="caps_parenright" horiz-adv-x="364" 
d="M274 325c0 -341 -271 -416 -284 -420c9 4 194 79 194 420s-185 416 -194 420c13 -4 284 -79 284 -420z" />
    <glyph glyph-name="caps_bracketleft" horiz-adv-x="375" 
d="M140 -130v910h195v-35h-155v-840h155v-35h-195z" />
    <glyph glyph-name="caps_bracketright" horiz-adv-x="375" 
d="M235 780v-910h-195v35h155v840h-155v35h195z" />
    <glyph glyph-name="caps_braceleft" horiz-adv-x="372" 
d="M160 210c0 85 -108 112 -119 115c6 1 119 27 119 115c0 55 -25 95 -25 155c0 155 207 185 207 185s-122 -45 -122 -140c0 -60 25 -96 25 -150c0 -112 -143 -163 -150 -165c7 -3 150 -53 150 -165c0 -54 -25 -90 -25 -150c0 -95 122 -140 122 -140s-207 30 -207 185
c0 60 25 100 25 155z" />
    <glyph glyph-name="caps_braceright" horiz-adv-x="372" 
d="M212 210c0 -55 25 -95 25 -155c0 -155 -207 -185 -207 -185s122 45 122 140c0 60 -25 96 -25 150c0 112 142 162 149 165c-7 2 -149 53 -149 165c0 54 25 90 25 150c0 95 -122 140 -122 140s207 -30 207 -185c0 -60 -25 -100 -25 -155c0 -86 107 -113 118 -115
c-12 -4 -118 -31 -118 -115z" />
    <glyph glyph-name="caps_zero" horiz-adv-x="550" 
d="M35 325c0 205 85 340 240 340s240 -135 240 -340s-85 -340 -240 -340s-240 135 -240 340zM135 325c0 -190 50 -310 140 -310s140 120 140 310s-50 310 -140 310s-140 -120 -140 -310z" />
    <glyph glyph-name="caps_one" horiz-adv-x="340" 
d="M125 560h-100l190 105v-615l100 -50h-290l100 50v510z" />
    <glyph glyph-name="caps_two" horiz-adv-x="530" 
d="M480 200v-200h-450l195 210c113 122 145 185 145 270c0 92 -50 155 -135 155c-89 0 -130 -62 -130 -100c0 -17 55 -21 55 -65c0 -25 -18 -47 -45 -47c-30 0 -60 24 -60 77c0 66 55 165 195 165c135 0 210 -75 210 -175c0 -115 -125 -205 -215 -305l-90 -100h270z" />
    <glyph glyph-name="caps_three" horiz-adv-x="510" 
d="M77 168c30 0 47 -21 47 -52c0 -52 32 -101 106 -101c90 0 155 70 155 185c0 100 -61 155 -165 155c-41 0 -65 -12 -70 -15l200 225h-255l-55 -116v201h435l-197 -221c125 -10 197 -96 197 -209c0 -140 -108 -235 -247 -235c-125 0 -198 74 -198 132c0 35 24 51 47 51z
" />
    <glyph glyph-name="caps_four" horiz-adv-x="545" 
d="M285 50v150h-270l360 465v-415h140v-50h-140v-150l100 -50h-290zM100 250h185v239z" />
    <glyph glyph-name="caps_five" horiz-adv-x="510" 
d="M77 168c30 0 47 -21 47 -52c0 -52 32 -101 106 -101c90 0 155 70 155 185c0 100 -61 165 -165 165c-100 0 -180 -80 -180 -80l58 365h362l-44 -85h-296l-33 -206c23 31 86 81 168 81c140 0 220 -100 220 -220c0 -140 -108 -235 -247 -235c-125 0 -198 74 -198 132
c0 35 24 51 47 51z" />
    <glyph glyph-name="caps_six" horiz-adv-x="530" 
d="M139 326c30 44 79 84 156 84c95 0 200 -70 200 -205s-110 -220 -230 -220c-130 0 -230 105 -230 280c0 380 434 448 445 450c-16 -5 -303 -92 -341 -389zM135 260c0 -170 75 -245 145 -245c65 0 120 55 120 165c0 103 -55 185 -145 185c-55 0 -93 -30 -118 -63
c-1 -13 -2 -27 -2 -42z" />
    <glyph glyph-name="caps_seven" horiz-adv-x="505" 
d="M35 450v200h450l-240 -650h-105l285 565h-335z" />
    <glyph glyph-name="caps_eight" horiz-adv-x="525" 
d="M70 515c0 94 92 150 190 150c89 0 180 -45 180 -140c0 -85 -94 -116 -142 -131c84 -49 197 -110 197 -224c0 -104 -92 -185 -235 -185c-149 0 -230 81 -230 180c0 113 115 164 174 186c-64 38 -134 96 -134 164zM125 170c0 -84 39 -155 140 -155s135 73 135 130
c0 102 -100 149 -182 198c-34 -28 -93 -83 -93 -173zM355 525c0 74 -39 110 -100 110s-95 -48 -95 -95c0 -60 61 -102 126 -140c27 19 69 62 69 125z" />
    <glyph glyph-name="caps_nine" horiz-adv-x="530" 
d="M391 324c-30 -44 -79 -84 -156 -84c-95 0 -200 70 -200 205s110 220 230 220c130 0 230 -105 230 -280c0 -380 -434 -448 -445 -450c16 5 303 92 341 389zM395 390c0 170 -75 245 -145 245c-65 0 -120 -55 -120 -165c0 -103 55 -185 145 -185c55 0 93 30 118 63
c1 13 2 27 2 42z" />
    <glyph glyph-name="caps_plus" horiz-adv-x="580" 
d="M70 305v40h200v210h40v-210h200v-40h-200v-205h-40v205h-200z" />
    <glyph glyph-name="caps_less" horiz-adv-x="445" 
d="M312 123l-242 202l242 202l23 -27l-211 -175l211 -175z" />
    <glyph glyph-name="caps_equal" horiz-adv-x="600" 
d="M80 245v35h440v-35h-440zM80 375v35h440v-35h-440z" />
    <glyph glyph-name="caps_greater" horiz-adv-x="445" 
d="M375 325l-242 -202l-23 27l211 175l-211 175l23 27z" />
    <glyph glyph-name="caps_divide" horiz-adv-x="580" 
d="M70 305v40h440v-40h-440zM235 160c0 30 25 55 55 55s55 -25 55 -55s-25 -55 -55 -55s-55 25 -55 55zM235 490c0 30 25 55 55 55s55 -25 55 -55s-25 -55 -55 -55s-55 25 -55 55z" />
    <glyph glyph-name="caps_multiply" horiz-adv-x="580" 
d="M100 485l30 30l160 -160l160 160l30 -30l-160 -160l160 -160l-30 -30l-160 160l-160 -160l-30 30l160 160z" />
    <glyph glyph-name="caps_minus" horiz-adv-x="580" 
d="M70 305v40h440v-40h-440z" />
    <glyph glyph-name="caps_notequal" horiz-adv-x="600" 
d="M80 375v35h230l68 155h40l-68 -155h170v-35h-185l-41 -95h226v-35h-242l-67 -155h-40l67 155h-158v35h174l41 95h-215z" />
    <glyph glyph-name="caps_lessequal" horiz-adv-x="445" 
d="M317 200l-247 155l245 173l20 -28l-202 -144l202 -126zM70 255l19 30l246 -155l-18 -30z" />
    <glyph glyph-name="caps_greaterequal" horiz-adv-x="445" 
d="M375 355l-247 -155l-18 30l202 126l-202 144l20 28zM356 285l19 -30l-247 -155l-18 30z" />
    <glyph glyph-name="caps_approxequal" horiz-adv-x="600" 
d="M80 240c0 0 45 75 120 75c85 0 130 -65 200 -65c55 0 90 60 90 60l30 -20s-45 -75 -120 -75c-85 0 -130 65 -200 65c-55 0 -90 -60 -90 -60zM80 370c0 0 45 75 120 75c85 0 130 -65 200 -65c55 0 90 60 90 60l30 -20s-45 -75 -120 -75c-85 0 -130 65 -200 65
c-55 0 -90 -60 -90 -60z" />
    <glyph glyph-name="tnum_zero" horiz-adv-x="570" 
d="M45 325c0 205 85 340 240 340s240 -135 240 -340s-85 -340 -240 -340s-240 135 -240 340zM145 325c0 -190 50 -310 140 -310s140 120 140 310s-50 310 -140 310s-140 -120 -140 -310z" />
    <glyph glyph-name="tnum_one" horiz-adv-x="570" 
d="M240 560h-100l190 105v-615l150 -50h-390l150 50v510z" />
    <glyph glyph-name="tnum_two" horiz-adv-x="570" 
d="M490 200v-200h-450l195 210c113 122 145 185 145 270c0 92 -50 155 -135 155c-89 0 -130 -62 -130 -100c0 -17 55 -21 55 -65c0 -25 -18 -47 -45 -47c-30 0 -60 24 -60 77c0 66 55 165 195 165c135 0 210 -75 210 -175c0 -115 -125 -205 -215 -305l-90 -100h270z" />
    <glyph glyph-name="tnum_three" horiz-adv-x="570" 
d="M107 168c30 0 47 -21 47 -52c0 -52 32 -101 106 -101c90 0 155 70 155 185c0 100 -61 155 -165 155c-41 0 -65 -12 -70 -15l200 225h-255l-55 -116v201h435l-197 -221c125 -10 197 -96 197 -209c0 -140 -108 -235 -247 -235c-125 0 -198 74 -198 132c0 35 24 51 47 51z
" />
    <glyph glyph-name="tnum_four" horiz-adv-x="570" 
d="M300 50v150h-270l360 465v-415h140v-50h-140v-150l100 -50h-290zM115 250h185v239z" />
    <glyph glyph-name="tnum_five" horiz-adv-x="570" 
d="M107 168c30 0 47 -21 47 -52c0 -52 32 -101 106 -101c90 0 155 70 155 185c0 100 -61 165 -165 165c-100 0 -180 -80 -180 -80l58 365h362l-44 -85h-296l-33 -206c23 31 86 81 168 81c140 0 220 -100 220 -220c0 -140 -108 -235 -247 -235c-125 0 -198 74 -198 132
c0 35 24 51 47 51z" />
    <glyph glyph-name="tnum_six" horiz-adv-x="570" 
d="M159 326c30 44 79 84 156 84c95 0 200 -70 200 -205s-110 -220 -230 -220c-130 0 -230 105 -230 280c0 380 434 448 445 450c-16 -5 -303 -92 -341 -389zM155 260c0 -170 75 -245 145 -245c65 0 120 55 120 165c0 103 -55 185 -145 185c-55 0 -93 -30 -118 -63
c-1 -13 -2 -27 -2 -42z" />
    <glyph glyph-name="tnum_seven" horiz-adv-x="570" 
d="M70 450v200h450l-240 -650h-105l285 565h-335z" />
    <glyph glyph-name="tnum_eight" horiz-adv-x="570" 
d="M92 515c0 94 92 150 190 150c89 0 180 -45 180 -140c0 -85 -94 -116 -142 -131c84 -49 197 -110 197 -224c0 -104 -92 -185 -235 -185c-149 0 -230 81 -230 180c0 113 115 164 174 186c-64 38 -134 96 -134 164zM147 170c0 -84 39 -155 140 -155s135 73 135 130
c0 102 -100 149 -182 198c-34 -28 -93 -83 -93 -173zM377 525c0 74 -39 110 -100 110s-95 -48 -95 -95c0 -60 61 -102 126 -140c27 19 69 62 69 125z" />
    <glyph glyph-name="tnum_nine" horiz-adv-x="570" 
d="M411 324c-30 -44 -79 -84 -156 -84c-95 0 -200 70 -200 205s110 220 230 220c130 0 230 -105 230 -280c0 -380 -434 -448 -445 -450c16 5 303 92 341 389zM415 390c0 170 -75 245 -145 245c-65 0 -120 -55 -120 -165c0 -103 55 -185 145 -185c55 0 93 30 118 63
c1 13 2 27 2 42z" />
    </font>
</defs>
</svg>
