<?xml version="1.0" standalone="no"?>
<!DOCTYPE svg PUBLIC "-//W3C//DTD SVG 1.1//EN" "http://www.w3.org/Graphics/SVG/1.1/DTD/svg11.dtd" >
<svg xmlns="http://www.w3.org/2000/svg" xmlns:xlink="http://www.w3.org/1999/xlink" version="1.1">
<metadata>
Created by FontForge 20190801 at Tue Apr  4 22:21:57 2017
 By www-data
Copyright (c) 2016 by The Temporary State. All rights reserved.
</metadata>
<defs>
<font id="Wremena-Light" horiz-adv-x="820" >
  <font-face 
    font-family="Wremena"
    font-weight="300"
    font-stretch="normal"
    units-per-em="1000"
    panose-1="2 0 0 0 0 0 0 0 0 0"
    ascent="750"
    descent="-250"
    x-height="450"
    cap-height="650"
    bbox="-52 -275 1355 900"
    underline-thickness="50"
    underline-position="-100"
    unicode-range="U+0020-300B"
  />
<missing-glyph horiz-adv-x="910" 
d="M140 0v650h630v-650h-630zM180 615v-580h550v580h-550zM602 500l28 -28l-147 -147l147 -146l-28 -28l-147 146l-147 -147l-28 28l147 147l-147 148l28 28l147 -148z" />
    <glyph glyph-name=".notdef" horiz-adv-x="910" 
d="M140 0v650h630v-650h-630zM180 615v-580h550v580h-550zM602 500l28 -28l-147 -147l147 -146l-28 -28l-147 146l-147 -147l-28 28l147 147l-147 148l28 28l147 -148z" />
    <glyph glyph-name="B" unicode="B" horiz-adv-x="625" 
d="M35 0l100 55v540l-100 55h295c135 0 215 -58 215 -158c0 -120 -125 -147 -125 -147v-5s150 -10 150 -160c0 -115 -95 -180 -240 -180h-295zM325 320h-140v-265l35 -20h110c90 0 185 35 185 145s-100 140 -190 140zM185 595v-240h145c80 0 160 42 160 132
c0 95 -80 128 -160 128h-109z" />
    <glyph glyph-name="C" unicode="C" horiz-adv-x="650" 
d="M585 665v-245l-65 150s-60 65 -170 65c-135 0 -260 -105 -260 -295c0 -215 130 -320 280 -320c165 0 230 130 230 130s-41 -165 -250 -165c-185 0 -315 140 -315 335c0 215 131 345 315 345c115 0 180 -55 180 -55z" />
    <glyph glyph-name="D" unicode="D" horiz-adv-x="670" 
d="M290 0h-255l100 55v540l-100 55h255c175 0 345 -90 345 -325s-170 -325 -345 -325zM185 595v-540l35 -20h70c120 0 290 60 290 290s-170 290 -290 290h-70z" />
    <glyph glyph-name="E" unicode="E" horiz-adv-x="635" 
d="M185 595v-240h165l60 95v-225l-60 95h-165v-265l35 -20h275l70 145v-180h-530l100 55v540l-100 55h515v-180l-70 145h-260z" />
    <glyph glyph-name="F" unicode="F" horiz-adv-x="585" 
d="M185 320v-265l110 -55h-260l100 55v540l-100 55h495v-180l-70 145h-240l-35 -20v-240h135l60 95v-225l-60 95h-135z" />
    <glyph glyph-name="G" unicode="G" horiz-adv-x="705" 
d="M605 665v-245l-65 150s-60 65 -180 65c-135 0 -270 -100 -270 -295c0 -220 130 -320 275 -320c125 0 185 75 185 75v160l-120 55h260l-90 -55v-265l-40 75s-70 -80 -210 -80c-185 0 -315 140 -315 335c0 215 141 345 325 345c125 0 190 -55 190 -55z" />
    <glyph glyph-name="H" unicode="H" horiz-adv-x="765" 
d="M730 650l-100 -55v-540l100 -55h-250l100 55v265h-395v-265l100 -55h-250l100 55v540l-100 55h250l-100 -55v-240h395v240l-100 55h250z" />
    <glyph glyph-name="I" unicode="I" horiz-adv-x="320" 
d="M185 595v-540l100 -55h-250l100 55v540l-100 55h250z" />
    <glyph glyph-name="J" unicode="J" horiz-adv-x="505" 
d="M490 650l-100 -55v-400c0 -120 -55 -210 -180 -210c-134 0 -170 92 -170 150c0 55 32 78 59 78s41 -18 41 -40c0 -38 -45 -33 -45 -73s35 -85 115 -85s130 48 130 170v410l-120 55h270z" />
    <glyph glyph-name="K" unicode="K" horiz-adv-x="675" 
d="M285 650l-100 -55v-252l275 255l-66 52h251l-147 -64l-253 -236l325 -295l90 -55h-104l-371 337v-282l100 -55h-250l100 55v540l-100 55h250z" />
    <glyph glyph-name="L" unicode="L" horiz-adv-x="600" 
d="M295 650l-110 -55v-540l35 -20h250l75 155v-190h-510l100 55v540l-100 55h260z" />
    <glyph glyph-name="M" unicode="M" horiz-adv-x="884" 
d="M35 0l100 55v540l-100 55h148l256 -562l260 562h150l-100 -55v-540l100 -55h-250l100 55v513l-269 -583l-260 575v-505l100 -55h-235z" />
    <glyph glyph-name="O" unicode="O" horiz-adv-x="690" 
d="M90 325c0 -205 125 -310 255 -310s255 105 255 310s-125 310 -255 310s-255 -105 -255 -310zM345 665c185 0 310 -140 310 -340s-125 -340 -310 -340s-310 140 -310 340s125 340 310 340z" />
    <glyph glyph-name="P" unicode="P" horiz-adv-x="595" 
d="M305 0h-270l100 55v540l-100 55h280c145 0 230 -75 230 -175s-85 -175 -230 -175h-130v-245zM185 595v-260h130c110 0 175 55 175 140s-65 140 -175 140h-95z" />
    <glyph glyph-name="Q" unicode="Q" horiz-adv-x="690" 
d="M345 665c185 0 310 -140 310 -340c0 -156 -76 -276 -198 -321l178 -204l-242 189c-15 -2 -32 -4 -48 -4c-185 0 -310 140 -310 340s125 340 310 340zM90 325c0 -205 125 -310 255 -310s255 105 255 310s-125 310 -255 310s-255 -105 -255 -310z" />
    <glyph glyph-name="R" unicode="R" horiz-adv-x="655" 
d="M305 0h-270l100 55v540l-100 55h280c145 0 230 -75 230 -175c0 -87 -64 -154 -174 -171l187 -249l92 -55h-113l-225 300h-127v-245zM185 595v-260h130c110 0 175 55 175 140s-65 140 -175 140h-95z" />
    <glyph glyph-name="S" unicode="S" horiz-adv-x="565" 
d="M475 665v-215l-65 135s-55 50 -150 50s-150 -58 -150 -118c0 -64 44 -99 166 -140c124 -42 229 -87 229 -217c0 -98 -75 -175 -210 -175c-120 0 -182 55 -182 55l-48 -55v245l65 -155s55 -60 165 -60c95 0 160 55 160 135c0 90 -50 128 -189 177
c-135 48 -206 89 -206 183c0 82 65 155 200 155c105 0 165 -45 165 -45z" />
    <glyph glyph-name="T" unicode="T" horiz-adv-x="640" 
d="M585 650v-180l-70 145h-170v-560l110 -55h-270l110 55v560h-170l-70 -145v180h530z" />
    <glyph glyph-name="U" unicode="U" horiz-adv-x="710" 
d="M595 595v-385c0 -134 -81 -225 -235 -225c-162 0 -245 91 -245 225v385l-100 55h250l-100 -55v-385c0 -108 67 -180 195 -180s195 72 195 180v385l-100 55h240z" />
    <glyph glyph-name="V" unicode="V" horiz-adv-x="709" 
d="M709 650l-105 -55l-253 -610l-251 605l-100 60h235l-85 -50l209 -505l210 505l-90 50h230z" />
    <glyph glyph-name="W" unicode="W" horiz-adv-x="960" 
d="M105 595l-105 55h246l-90 -50l145 -476l183 541l190 -544l145 479l-90 50h231l-105 -55l-186 -610l-192 549l-186 -549z" />
    <glyph glyph-name="X" unicode="X" horiz-adv-x="755" 
d="M228 600l149 -211l149 211l-90 50h249l-120 -55l-167 -236l217 -304l120 -55h-268l90 50l-189 266l-188 -266l90 -50h-250l120 55l206 291l-176 249l-120 55h268z" />
    <glyph glyph-name="Y" unicode="Y" horiz-adv-x="680" 
d="M237 650l-80 -50l192 -285l193 285l-80 50h218l-100 -55l-213 -316v-224l100 -55h-250l100 55v218l-217 322l-100 55h237z" />
    <glyph glyph-name="Z" unicode="Z" horiz-adv-x="615" 
d="M45 0l422 615h-327l-70 -145v180h480l-422 -615h357l70 145v-180h-510z" />
    <glyph glyph-name="a" unicode="a" horiz-adv-x="470" 
d="M169 241l156 54v25c0 89 -50 115 -105 115c-61 0 -93 -30 -93 -55c0 -8 2 -18 2 -32c0 -31 -17 -42 -36 -42s-36 13 -36 42c0 62 113 117 173 117c109 0 145 -60 145 -145v-285l90 35s-70 -85 -105 -85s-35 31 -35 84l-74 -49c-23 -15 -57 -35 -97 -35
c-69 0 -114 44 -114 115c0 70 61 117 129 141zM263 60l62 41v166l-120 -42c-87 -31 -112 -65 -112 -120c0 -43 27 -83 77 -83c39 0 64 19 93 38z" />
    <glyph glyph-name="b" unicode="b" horiz-adv-x="495" 
d="M70 -15v665l-80 25l130 40v-345s45 95 150 95c90 0 185 -55 185 -240c0 -170 -105 -240 -195 -240c-110 0 -150 90 -150 90zM120 320v-165c0 -75 50 -140 135 -140c76 0 145 70 145 210c0 150 -69 210 -145 210c-100 0 -135 -115 -135 -115z" />
    <glyph glyph-name="c" unicode="c" horiz-adv-x="460" 
d="M251 441c-70 0 -166 -63 -166 -200c0 -149 85 -211 185 -211c110 0 155 100 155 100s-30 -145 -180 -145c-130 0 -210 105 -210 240c0 145 99 240 218 240c100 0 159 -62 159 -117c0 -26 -13 -46 -38 -46c-24 0 -38 15 -38 37s9 25 9 41c0 10 -9 61 -94 61z" />
    <glyph glyph-name="d" unicode="d" horiz-adv-x="525" 
d="M375 650l-80 25l130 40v-665l80 -25l-130 -40v95s-45 -95 -150 -95c-90 0 -185 65 -185 240c0 170 105 240 195 240c100 0 137 -72 140 -79v264zM375 130v165c0 75 -50 140 -135 140c-76 0 -145 -70 -145 -210c0 -145 69 -210 145 -210c100 0 135 115 135 115z" />
    <glyph glyph-name="e" unicode="e" horiz-adv-x="470" 
d="M425 270h-339c-1 -10 -1 -19 -1 -29c0 -149 85 -211 185 -211c110 0 155 100 155 100s-30 -145 -180 -145c-130 0 -210 105 -210 240c0 146 99 240 218 240c127 0 172 -85 172 -195zM251 441c-63 0 -138 -45 -160 -141h194c50 0 85 5 85 45c0 50 -49 96 -119 96z" />
    <glyph glyph-name="f" unicode="f" horiz-adv-x="325" 
d="M20 420v30h95c0 175 58 265 158 265c30 0 72 -15 72 -51c0 -25 -18 -39 -38 -39c-45 0 -39 55 -74 55c-40 0 -68 -50 -68 -190v-40h115v-30h-115v-375l90 -45h-220l80 45v375h-95z" />
    <glyph glyph-name="g" unicode="g" horiz-adv-x="510" 
d="M65 305c0 88 65 160 170 160c70 0 105 -30 145 -30c25 0 15 13 15 26c0 21 14 39 38 39c28 0 42 -20 42 -40c0 -27 -15 -50 -55 -50c-25 0 -60 10 -60 10s45 -41 45 -115c0 -88 -65 -160 -170 -160c-36 0 -120 -8 -120 -60c0 -30 25 -35 40 -35h225
c50 0 100 -25 100 -100s-85 -175 -245 -175c-155 0 -210 75 -210 135c0 70 64 86 98 92c-27 8 -53 34 -53 68c0 58 50 80 93 88c-63 24 -98 81 -98 147zM380 0h-206c-2 -1 -99 -6 -99 -75c0 -50 45 -105 170 -105c145 0 200 80 200 125c0 40 -30 55 -65 55zM120 305
c0 -85 52 -135 115 -135s115 50 115 135s-52 135 -115 135s-115 -50 -115 -135z" />
    <glyph glyph-name="h" unicode="h" horiz-adv-x="550" 
d="M110 650l-80 25l130 40v-343c35 38 100 93 170 93s125 -40 125 -150v-270l80 -45h-210l80 45v255c0 80 -30 127 -95 127c-60 0 -120 -48 -150 -85v-297l80 -45h-210l80 45v605z" />
    <glyph glyph-name="i" unicode="i" horiz-adv-x="275" 
d="M35 425l80 -25v-355l-80 -45h210l-80 45v420zM80 615c0 28 22 50 50 50s50 -22 50 -50s-22 -50 -50 -50s-50 22 -50 50z" />
    <glyph glyph-name="j" unicode="j" horiz-adv-x="255" 
d="M35 425l80 -25v-400c0 -130 -25 -195 -55 -195c-25 0 -14 60 -59 60c-20 0 -38 -14 -38 -39c0 -36 32 -51 62 -51c100 0 140 120 140 265v425zM80 615c0 28 22 50 50 50s50 -22 50 -50s-22 -50 -50 -50s-50 22 -50 50z" />
    <glyph glyph-name="k" unicode="k" horiz-adv-x="520" 
d="M160 715v-670l80 -45h-210l80 45v605l-80 25zM408 0l-243 239l180 171l-60 40h210l-112 -45l-161 -152l212 -208l71 -45h-97z" />
    <glyph glyph-name="l" unicode="l" horiz-adv-x="270" 
d="M110 650l-80 25l130 40v-670l80 -45h-210l80 45v605z" />
    <glyph glyph-name="m" unicode="m" horiz-adv-x="850" 
d="M460 342v-297l80 -45h-210l80 45v255c0 80 -30 127 -95 127c-60 0 -120 -48 -150 -85v-297l80 -45h-210l80 45v355l-80 25l130 40v-93c35 38 100 93 170 93c56 0 104 -27 120 -99c40 44 105 99 175 99s125 -40 125 -150v-270l80 -45h-210l80 45v255c0 80 -30 127 -95 127
c-60 0 -120 -48 -150 -85z" />
    <glyph glyph-name="n" unicode="n" horiz-adv-x="555" 
d="M115 400l-80 25l130 40v-93c35 38 100 93 170 93s125 -40 125 -150v-270l80 -45h-210l80 45v255c0 80 -30 127 -95 127c-60 0 -120 -48 -150 -85v-297l80 -45h-210l80 45v355z" />
    <glyph glyph-name="o" unicode="o" horiz-adv-x="498" 
d="M235 438c-73 0 -145 -67 -145 -187c0 -166 91 -239 173 -239c74 0 145 69 145 187c0 166 -90 239 -173 239zM35 225c0 135 85 240 214 240c139 0 214 -105 214 -240s-85 -240 -214 -240c-139 0 -214 105 -214 240z" />
    <glyph glyph-name="p" unicode="p" horiz-adv-x="525" 
d="M100 -165v565l-80 25l130 40v-95s45 95 150 95c90 0 185 -55 185 -240c0 -170 -105 -240 -195 -240c-100 0 -137 72 -140 79v-229l80 -45h-210zM150 320v-165c0 -75 50 -140 135 -140c76 0 145 70 145 210c0 150 -69 210 -145 210c-100 0 -135 -115 -135 -115z" />
    <glyph glyph-name="q" unicode="q" horiz-adv-x="495" 
d="M425 465v-630l80 -45h-210l80 45v245s-45 -95 -150 -95c-90 0 -185 65 -185 240c0 170 105 240 195 240c110 0 150 -90 150 -90zM375 130v165c0 75 -50 140 -135 140c-76 0 -145 -70 -145 -210c0 -145 69 -210 145 -210c100 0 135 115 135 115z" />
    <glyph glyph-name="r" unicode="r" horiz-adv-x="405" 
d="M115 400l-80 25l130 40v-105l67 64c31 30 55 41 83 41c35 0 55 -17 55 -47c0 -21 -15 -38 -39 -38c-35 0 -30 31 -63 31c-20 0 -58 -31 -103 -81v-285l80 -45h-210l80 45v355z" />
    <glyph glyph-name="s" unicode="s" horiz-adv-x="425" 
d="M350 465v-156l-45 81s-30 45 -100 45c-66 0 -105 -35 -105 -75c0 -110 275 -72 275 -237c0 -90 -70 -138 -150 -138c-93 0 -124 56 -125 59l-35 -59v195l43 -90c32 -66 87 -75 117 -75c45 0 105 25 105 92c0 129 -270 87 -270 238c0 73 65 120 145 120
c70 0 105 -40 105 -40z" />
    <glyph glyph-name="t" unicode="t" horiz-adv-x="320" 
d="M15 420l145 135v-105h115v-30h-115v-330c0 -40 15 -70 50 -70c40 0 64 37 65 39c-2 -7 -30 -74 -85 -74c-50 0 -80 30 -80 105v330h-95z" />
    <glyph glyph-name="u" unicode="u" horiz-adv-x="535" 
d="M385 400l-80 25l130 40v-415l80 -25l-130 -40v93c-35 -38 -100 -93 -170 -93s-125 40 -125 150v265l-80 25l130 40v-315c0 -80 30 -127 95 -127c60 0 120 48 150 85v292z" />
    <glyph glyph-name="v" unicode="v" horiz-adv-x="540" 
d="M90 405l-90 45h222l-80 -40l138 -323l140 323l-80 40h200l-90 -45l-180 -420z" />
    <glyph glyph-name="w" unicode="w" horiz-adv-x="730" 
d="M730 450l-90 -45l-135 -420l-139 367l-141 -367l-135 420l-90 45h221l-80 -40l98 -305l138 360l135 -358l99 303l-80 40h199z" />
    <glyph glyph-name="x" unicode="x" horiz-adv-x="536" 
d="M162 410l102 -134l99 134l-70 40h202l-99 -45l-113 -154l158 -206l95 -45h-221l70 40l-131 170l-125 -170l70 -40h-199l95 45l140 190l-130 170l-95 45h222z" />
    <glyph glyph-name="y" unicode="y" horiz-adv-x="543" 
d="M543 450l-90 -45l-207 -521c-32 -81 -67 -109 -104 -109c-33 0 -55 20 -55 49c0 26 19 43 40 43c34 0 33 -31 51 -31c13 0 26 25 38 54l55 140l-181 375l-90 45h224l-80 -40l152 -318l127 318l-80 40h200z" />
    <glyph glyph-name="z" unicode="z" horiz-adv-x="480" 
d="M372 30l58 110v-140h-390l309 420h-227l-57 -110v140h365l-310 -420h252z" />
    <glyph glyph-name="afii10017" unicode="&#x410;" horiz-adv-x="700" 
d="M548 50l-69 155h-271l-67 -155l90 -50h-231l105 55l218 502l-107 93h121l263 -595l100 -55h-237zM342 513l-119 -273h241z" />
    <glyph glyph-name="afii10018" unicode="&#x411;" horiz-adv-x="605" 
d="M185 595v-240h130c145 0 230 -70 230 -175s-85 -180 -230 -180h-280l100 55v540l-100 55h470v-190l-75 155h-210zM185 320v-265l35 -20h95c110 0 175 55 175 145s-65 140 -175 140h-130z" />
    <glyph glyph-name="afii10019" unicode="&#x412;" horiz-adv-x="625" 
d="M35 0l100 55v540l-100 55h295c135 0 215 -58 215 -158c0 -120 -125 -147 -125 -147v-5s150 -10 150 -160c0 -115 -95 -180 -240 -180h-295zM325 320h-140v-265l35 -20h110c90 0 185 35 185 145s-100 140 -190 140zM185 595v-240h145c80 0 160 42 160 132
c0 95 -80 128 -160 128h-109z" />
    <glyph glyph-name="afii10020" unicode="&#x413;" horiz-adv-x="590" 
d="M185 55l110 -55h-260l100 55v540l-100 55h500v-190l-75 155h-240l-35 -20v-540z" />
    <glyph glyph-name="afii10021" unicode="&#x414;" horiz-adv-x="710" 
d="M655 650l-100 -55v-540l36 -20h99l-75 -245v210h-540v-210l-75 245h60c95 0 170 155 170 450v110l-100 55h525zM505 595l-35 20h-165l-35 -20v-110c0 -380 -115 -450 -115 -450h315l35 20v540z" />
    <glyph glyph-name="afii10022" unicode="&#x415;" horiz-adv-x="635" 
d="M185 595v-240h165l60 95v-225l-60 95h-165v-265l35 -20h275l70 145v-180h-530l100 55v540l-100 55h515v-180l-70 145h-260z" />
    <glyph glyph-name="afii10024" unicode="&#x416;" horiz-adv-x="970" 
d="M97 55l305 296l-230 235l-147 64h251l-67 -52l251 -255v252l-100 55h250l-100 -55v-252l251 255l-67 52h251l-147 -64l-231 -235l306 -296l82 -55h-97l-348 337v-282l100 -55h-250l100 55v282l-348 -337h-97z" />
    <glyph glyph-name="afii10025" unicode="&#x417;" horiz-adv-x="600" 
d="M75 420v245l55 -55s55 55 160 55c160 0 230 -85 230 -175c0 -130 -135 -145 -135 -145v-5s160 -10 160 -165c0 -115 -85 -190 -245 -190c-115 0 -180 55 -180 55l-55 -55v245l65 -150s60 -65 170 -65c125 0 190 65 190 160s-70 145 -205 145h-95v35h95
c110 0 180 50 180 135c0 80 -60 145 -175 145c-110 0 -150 -65 -150 -65z" />
    <glyph glyph-name="afii10026" unicode="&#x418;" horiz-adv-x="770" 
d="M735 650l-100 -55v-540l100 -55h-250l100 55v476l-400 -466v-10l100 -55h-250l100 55v540l-100 55h250l-100 -55v-476l400 466v10l-100 55h250z" />
    <glyph glyph-name="afii10027" unicode="&#x419;" horiz-adv-x="770" 
d="M735 650l-100 -55v-540l100 -55h-250l100 55v476l-400 -466v-10l100 -55h-250l100 55v540l-100 55h250l-100 -55v-476l400 466v10l-100 55h250zM385 715c-85 0 -140 34 -140 90c0 26 15 47 42 47c22 0 38 -14 38 -36c0 -28 -23 -30 -17 -48c5 -17 33 -26 77 -26
s72 9 77 26c6 18 -17 20 -17 48c0 22 16 36 38 36c27 0 42 -21 42 -47c0 -56 -55 -90 -140 -90z" />
    <glyph glyph-name="afii10028" unicode="&#x41a;" horiz-adv-x="675" 
d="M285 650l-100 -55v-252l275 255l-66 52h251l-147 -64l-253 -236l325 -295l90 -55h-104l-371 337v-282l100 -55h-250l100 55v540l-100 55h250z" />
    <glyph glyph-name="afii10029" unicode="&#x41b;" horiz-adv-x="695" 
d="M660 650l-100 -55v-540l100 -55h-250l100 55v540l-35 20h-165l-35 -20v-110c0 -365 -80 -500 -185 -500c-41 0 -75 22 -75 60c0 30 20 45 40 45c45 0 35 -50 60 -50c55 0 120 150 120 445v110l-100 55h525z" />
    <glyph glyph-name="afii10030" unicode="&#x41c;" horiz-adv-x="884" 
d="M35 0l100 55v540l-100 55h148l256 -562l260 562h150l-100 -55v-540l100 -55h-250l100 55v513l-269 -583l-260 575v-505l100 -55h-235z" />
    <glyph glyph-name="afii10031" unicode="&#x41d;" horiz-adv-x="765" 
d="M730 650l-100 -55v-540l100 -55h-250l100 55v265h-395v-265l100 -55h-250l100 55v540l-100 55h250l-100 -55v-240h395v240l-100 55h250z" />
    <glyph glyph-name="afii10032" unicode="&#x41e;" horiz-adv-x="690" 
d="M90 325c0 -205 125 -310 255 -310s255 105 255 310s-125 310 -255 310s-255 -105 -255 -310zM345 665c185 0 310 -140 310 -340s-125 -340 -310 -340s-310 140 -310 340s125 340 310 340z" />
    <glyph glyph-name="afii10033" unicode="&#x41f;" horiz-adv-x="755" 
d="M720 650l-100 -55v-540l100 -55h-250l100 55v540l-35 20h-315l-35 -20v-540l100 -55h-250l100 55v540l-100 55h685z" />
    <glyph glyph-name="afii10034" unicode="&#x420;" horiz-adv-x="595" 
d="M305 0h-270l100 55v540l-100 55h280c145 0 230 -75 230 -175s-85 -175 -230 -175h-130v-245zM185 595v-260h130c110 0 175 55 175 140s-65 140 -175 140h-95z" />
    <glyph glyph-name="afii10035" unicode="&#x421;" horiz-adv-x="650" 
d="M585 665v-245l-65 150s-60 65 -170 65c-135 0 -260 -105 -260 -295c0 -215 130 -320 280 -320c165 0 230 130 230 130s-41 -165 -250 -165c-185 0 -315 140 -315 335c0 215 131 345 315 345c115 0 180 -55 180 -55z" />
    <glyph glyph-name="afii10036" unicode="&#x422;" horiz-adv-x="640" 
d="M585 650v-180l-70 145h-170v-560l110 -55h-270l110 55v560h-170l-70 -145v180h530z" />
    <glyph glyph-name="afii10037" unicode="&#x423;" horiz-adv-x="675" 
d="M675 650l-103 -55l-250 -530c-29 -61 -60 -80 -100 -80c-42 0 -67 28 -67 59c0 27 17 46 43 46c43 0 36 -45 61 -45c15 0 30 30 37 46l44 93l-235 411l-105 55h250l-90 -50l206 -361l169 361l-90 50h230z" />
    <glyph glyph-name="afii10038" unicode="&#x424;" horiz-adv-x="680" 
d="M465 650l-100 -55v-55h20c145 0 260 -75 260 -210s-115 -210 -260 -210h-20v-65l100 -55h-250l100 55v65h-20c-145 0 -260 75 -260 210s115 210 260 210h20v55l-100 55h250zM590 330c0 135 -115 175 -205 175h-20v-350h20c90 0 205 40 205 175zM315 155v350h-20
c-90 0 -205 -40 -205 -175s115 -175 205 -175h20z" />
    <glyph glyph-name="afii10039" unicode="&#x425;" horiz-adv-x="755" 
d="M228 600l149 -211l149 211l-90 50h249l-120 -55l-167 -236l217 -304l120 -55h-268l90 50l-189 266l-188 -266l90 -50h-250l120 55l206 291l-176 249l-120 55h268z" />
    <glyph glyph-name="afii10040" unicode="&#x426;" horiz-adv-x="775" 
d="M35 0l100 55v540l-100 55h250l-100 -55v-540l35 -20h315l35 20v540l-100 55h250l-100 -55v-540l36 -20h99l-75 -245v210h-645z" />
    <glyph glyph-name="afii10041" unicode="&#x427;" horiz-adv-x="665" 
d="M630 650l-100 -55v-540l100 -55h-270l120 55v290s-65 -80 -185 -80c-85 0 -190 40 -190 210v120l-100 55h250l-100 -55v-120c0 -110 50 -170 155 -170c110 0 170 65 170 65v225l-100 55h250z" />
    <glyph glyph-name="afii10042" unicode="&#x428;" horiz-adv-x="1010" 
d="M630 650l-100 -55v-540l35 -20h225l35 20v540l-100 55h250l-100 -55v-540l100 -55h-940l100 55v540l-100 55h250l-100 -55v-540l35 -20h225l35 20v540l-100 55h250z" />
    <glyph glyph-name="afii10043" unicode="&#x429;" horiz-adv-x="1030" 
d="M35 0l100 55v540l-100 55h250l-100 -55v-540l35 -20h225l35 20v540l-100 55h250l-100 -55v-540l35 -20h225l35 20v540l-100 55h250l-100 -55v-540l36 -20h99l-75 -245v210h-900z" />
    <glyph glyph-name="afii10044" unicode="&#x42a;" horiz-adv-x="705" 
d="M45 650h350l-100 -55v-240h130c145 0 230 -70 230 -175s-85 -180 -230 -180h-280l100 55v540l-35 20h-95l-70 -145v180zM295 320v-265l35 -20h95c110 0 175 55 175 145s-65 140 -175 140h-130z" />
    <glyph glyph-name="afii10045" unicode="&#x42b;" horiz-adv-x="860" 
d="M725 595v-540l100 -55h-250l100 55v540l-100 55h250zM285 650h-250l100 -55v-540l-100 -55h280c145 0 230 75 230 180s-85 175 -230 175h-130v240zM185 55v265h130c110 0 175 -50 175 -140s-65 -145 -175 -145h-95z" />
    <glyph glyph-name="afii10046" unicode="&#x42c;" horiz-adv-x="595" 
d="M35 650h250l-100 -55v-240h130c145 0 230 -70 230 -175s-85 -180 -230 -180h-280l100 55v540zM185 320v-265l35 -20h95c110 0 175 55 175 145s-65 140 -175 140h-130z" />
    <glyph glyph-name="afii10047" unicode="&#x42d;" horiz-adv-x="650" 
d="M65 420v245l55 -55s65 55 180 55c184 0 315 -120 315 -340s-131 -340 -315 -340c-115 0 -180 55 -180 55l-55 -55v245l65 -150s60 -65 170 -65c134 0 258 98 260 305h-360v35h359c-12 189 -131 280 -259 280c-110 0 -170 -65 -170 -65z" />
    <glyph glyph-name="afii10048" unicode="&#x42e;" horiz-adv-x="930" 
d="M185 595v-240h151c10 184 113 310 279 310c175 0 280 -140 280 -340s-105 -340 -280 -340c-174 0 -279 137 -280 335h-150v-265l100 -55h-250l100 55v540l-100 55h250zM390 325c0 -205 105 -310 225 -310s225 105 225 310s-105 310 -225 310s-225 -105 -225 -310z" />
    <glyph glyph-name="afii10049" unicode="&#x42f;" horiz-adv-x="655" 
d="M620 0h-270l120 55v245h-127l-225 -300h-113l92 55l187 249c-111 17 -174 84 -174 171c0 100 85 175 230 175h280l-100 -55v-540zM470 335v260l-35 20h-95c-110 0 -175 -55 -175 -140s65 -140 175 -140h130z" />
    <glyph glyph-name="afii10065" unicode="&#x430;" horiz-adv-x="470" 
d="M169 241l156 54v25c0 89 -50 115 -105 115c-61 0 -93 -30 -93 -55c0 -8 2 -18 2 -32c0 -31 -17 -42 -36 -42s-36 13 -36 42c0 62 113 117 173 117c109 0 145 -60 145 -145v-285l90 35s-70 -85 -105 -85s-35 31 -35 84l-74 -49c-23 -15 -57 -35 -97 -35
c-69 0 -114 44 -114 115c0 70 61 117 129 141zM263 60l62 41v166l-120 -42c-87 -31 -112 -65 -112 -120c0 -43 27 -83 77 -83c39 0 64 19 93 38z" />
    <glyph glyph-name="afii10066" unicode="&#x431;" horiz-adv-x="510" 
d="M70 330h10s50 115 175 115c140 0 220 -100 220 -230s-89 -230 -218 -230c-139 0 -222 120 -222 300c0 245 100 365 230 365h105c70 0 86 34 90 45v-20c0 -35 -10 -80 -100 -80h-110c-130 0 -165 -125 -180 -265zM244 415c-73 0 -154 -61 -154 -161
c0 -156 99 -239 181 -239c74 0 153 61 153 159c0 171 -97 241 -180 241z" />
    <glyph glyph-name="afii10067" unicode="&#x432;" horiz-adv-x="485" 
d="M260 217h-95v-172l27 -15h73c60 0 125 25 125 95s-60 92 -130 92zM165 247h75c70 0 130 24 130 91c0 64 -65 82 -125 82h-53l-27 -15v-158zM425 340c0 -85 -100 -100 -100 -100v-3s120 -7 120 -112c0 -95 -100 -125 -180 -125h-230l80 45v360l-80 45h205
c80 0 185 -17 185 -110z" />
    <glyph glyph-name="afii10068" unicode="&#x433;" horiz-adv-x="435" 
d="M165 405v-350l100 -55h-230l80 45v360l-80 45h355v-140l-61 110h-137z" />
    <glyph glyph-name="afii10069" unicode="&#x434;" horiz-adv-x="550" 
d="M10 30h48c79 0 122 150 122 315v60l-80 45h410l-80 -45v-360l27 -15h73l-55 -220v190h-410v-190zM380 45v360l-27 15h-111l-27 -15v-60c0 -265 -85 -315 -85 -315h223z" />
    <glyph glyph-name="afii10072" unicode="&#x436;" horiz-adv-x="720" 
d="M385 239v-194l80 -45h-210l80 45v360l-80 45h210l-80 -45v-166l170 171l-60 40h210l-112 -45l-154 -154l194 -206l72 -45h-98zM165 410l170 -171l-222 -239h-98l72 45l193 206l-153 154l-112 45h210z" />
    <glyph glyph-name="afii10070" unicode="&#x435;" horiz-adv-x="470" 
d="M425 270h-339c-1 -10 -1 -19 -1 -29c0 -149 85 -211 185 -211c110 0 155 100 155 100s-30 -145 -180 -145c-130 0 -210 105 -210 240c0 146 99 240 218 240c127 0 172 -85 172 -195zM251 441c-63 0 -138 -45 -160 -141h194c50 0 85 5 85 45c0 50 -49 96 -119 96z" />
    <glyph glyph-name="afii10071" unicode="&#x451;" horiz-adv-x="470" 
d="M425 270h-339c-1 -10 -1 -19 -1 -29c0 -149 85 -211 185 -211c110 0 155 100 155 100s-30 -145 -180 -145c-130 0 -210 105 -210 240c0 146 99 240 218 240c127 0 172 -85 172 -195zM251 441c-63 0 -138 -45 -160 -141h194c50 0 85 5 85 45c0 50 -49 96 -119 96zM90 615
c0 28 22 50 50 50s50 -22 50 -50s-22 -50 -50 -50s-50 22 -50 50zM280 615c0 28 22 50 50 50s50 -22 50 -50s-22 -50 -50 -50s-50 22 -50 50z" />
    <glyph glyph-name="afii10023" unicode="&#x401;" horiz-adv-x="635" 
d="M185 595v-240h165l60 95v-225l-60 95h-165v-265l35 -20h275l70 145v-180h-530l100 55v540l-100 55h515v-180l-70 145h-260zM165 780c0 28 22 50 50 50s50 -22 50 -50s-22 -50 -50 -50s-50 22 -50 50zM390 780c0 28 22 50 50 50s50 -22 50 -50s-22 -50 -50 -50
s-50 22 -50 50z" />
    <glyph glyph-name="afii10073" unicode="&#x437;" horiz-adv-x="455" 
d="M220 10c86 0 140 45 140 110c0 50 -20 107 -150 107h-65v30h70c80 0 123 33 123 88c0 50 -43 90 -118 90c-80 0 -120 -60 -120 -60l-45 -75v165l40 -65s40 65 135 65c80 0 163 -35 163 -120c0 -90 -103 -97 -103 -97v-3s125 -10 125 -125c0 -70 -70 -135 -195 -135
c-120 0 -180 60 -180 125c0 26 12 46 37 46c28 0 35 -22 35 -41c0 -17 -6 -27 -6 -37c0 -35 34 -68 114 -68z" />
    <glyph glyph-name="afii10074" unicode="&#x438;" horiz-adv-x="585" 
d="M340 0l80 45v304l-255 -294v-10l80 -45h-210l80 45v360l-80 45h210l-80 -45v-304l255 294v10l-80 45h210l-80 -45v-360l80 -45h-210z" />
    <glyph glyph-name="afii10075" unicode="&#x439;" horiz-adv-x="585" 
d="M340 0l80 45v304l-255 -294v-10l80 -45h-210l80 45v360l-80 45h210l-80 -45v-304l255 294v10l-80 45h210l-80 -45v-360l80 -45h-210zM292 530c34 0 63 10 68 27c6 18 -17 20 -17 48c0 17 13 32 34 32c25 0 41 -18 41 -45c0 -57 -63 -81 -126 -81s-126 24 -126 81
c0 27 16 45 41 45c21 0 34 -15 34 -32c0 -28 -23 -30 -17 -48c5 -17 34 -27 68 -27z" />
    <glyph glyph-name="afii10076" unicode="&#x43a;" horiz-adv-x="520" 
d="M408 0l-243 239v-194l80 -45h-210l80 45v360l-80 45h210l-80 -45v-166l180 171l-60 40h210l-112 -45l-161 -152l212 -208l71 -45h-97z" />
    <glyph glyph-name="afii10077" unicode="&#x43b;" horiz-adv-x="540" 
d="M295 0l80 45v360l-27 15h-111l-27 -15v-60c0 -165 -25 -355 -142 -355c-22 0 -53 11 -53 46c0 24 17 40 37 40c28 0 25 -25 48 -25c39 0 75 99 75 294v60l-80 45h410l-80 -45v-360l80 -45h-210z" />
    <glyph glyph-name="afii10078" unicode="&#x43c;" horiz-adv-x="685" 
d="M150 45l80 -45h-195l80 45v360l-80 45h140l171 -369l164 369h140l-80 -45v-360l80 -45h-210l80 45v353l-185 -413l-185 400v-340z" />
    <glyph glyph-name="afii10079" unicode="&#x43d;" horiz-adv-x="575" 
d="M35 0l80 45v360l-80 45h210l-80 -45v-158h245v158l-80 45h210l-80 -45v-360l80 -45h-210l80 45v172h-245v-172l80 -45h-210z" />
    <glyph glyph-name="afii10080" unicode="&#x43e;" horiz-adv-x="498" 
d="M235 438c-73 0 -145 -67 -145 -187c0 -166 91 -239 173 -239c74 0 145 69 145 187c0 166 -90 239 -173 239zM35 225c0 135 85 240 214 240c139 0 214 -105 214 -240s-85 -240 -214 -240c-139 0 -214 105 -214 240z" />
    <glyph glyph-name="afii10081" unicode="&#x43f;" horiz-adv-x="575" 
d="M165 405v-360l80 -45h-210l80 45v360l-80 45h505l-80 -45v-360l80 -45h-210l80 45v360l-27 15h-191z" />
    <glyph glyph-name="afii10082" unicode="&#x440;" horiz-adv-x="525" 
d="M100 -165v565l-80 25l130 40v-95s45 95 150 95c90 0 185 -55 185 -240c0 -170 -105 -240 -195 -240c-100 0 -137 72 -140 79v-229l80 -45h-210zM150 320v-165c0 -75 50 -140 135 -140c76 0 145 70 145 210c0 150 -69 210 -145 210c-100 0 -135 -115 -135 -115z" />
    <glyph glyph-name="afii10083" unicode="&#x441;" horiz-adv-x="460" 
d="M251 441c-70 0 -166 -63 -166 -200c0 -149 85 -211 185 -211c110 0 155 100 155 100s-30 -145 -180 -145c-130 0 -210 105 -210 240c0 145 99 240 218 240c100 0 159 -62 159 -117c0 -26 -13 -46 -38 -46c-24 0 -38 15 -38 37s9 25 9 41c0 10 -9 61 -94 61z" />
    <glyph glyph-name="afii10084" unicode="&#x442;" horiz-adv-x="480" 
d="M125 0l90 45v375h-110l-60 -110v140h390v-140l-60 110h-110v-375l90 -45h-230z" />
    <glyph glyph-name="afii10085" unicode="&#x443;" horiz-adv-x="543" 
d="M543 450l-90 -45l-207 -521c-32 -81 -67 -109 -104 -109c-33 0 -55 20 -55 49c0 26 19 43 40 43c34 0 33 -31 51 -31c13 0 26 25 38 54l55 140l-181 375l-90 45h224l-80 -40l152 -318l127 318l-80 40h200z" />
    <glyph glyph-name="afii10086" unicode="&#x444;" horiz-adv-x="680" 
d="M465 435c-75 0 -100 -70 -100 -70v-281c1 -3 26 -69 100 -69c75 0 125 75 125 210s-50 210 -125 210zM315 85v280s-25 70 -100 70s-125 -75 -125 -210s50 -210 125 -210s100 70 100 70zM315 650l-80 25l130 40v-315c3 9 36 65 110 65c95 0 170 -80 170 -240
s-75 -240 -170 -240c-76 0 -107 58 -110 64v-214l80 -45h-210l80 45v214c-2 -3 -32 -64 -110 -64c-95 0 -170 80 -170 240s75 240 170 240c76 0 107 -59 110 -65v250z" />
    <glyph glyph-name="afii10087" unicode="&#x445;" horiz-adv-x="536" 
d="M162 410l102 -134l99 134l-70 40h202l-99 -45l-113 -154l158 -206l95 -45h-221l70 40l-131 170l-125 -170l70 -40h-199l95 45l140 190l-130 170l-95 45h222z" />
    <glyph glyph-name="afii10088" unicode="&#x446;" horiz-adv-x="580" 
d="M410 45v360l-80 45h210l-80 -45v-360l27 -15h73l-55 -220v190h-470l80 45v360l-80 45h210l-80 -45v-360l27 -15h191z" />
    <glyph glyph-name="afii10089" unicode="&#x447;" horiz-adv-x="530" 
d="M365 45v185s-60 -50 -140 -50c-75 0 -135 35 -135 135v90l-80 45h210l-80 -45v-90c0 -70 40 -105 100 -105c75 0 125 45 125 45v150l-80 45h210l-80 -45v-360l80 -45h-230z" />
    <glyph glyph-name="afii10090" unicode="&#x448;" horiz-adv-x="770" 
d="M605 45v360l-70 45h200l-80 -45v-360l80 -45h-700l80 45v360l-80 45h200l-70 -45v-360l27 -15h168v375l-70 45h190l-70 -45v-375h168z" />
    <glyph glyph-name="afii10091" unicode="&#x449;" horiz-adv-x="775" 
d="M655 405v-360l27 -15h73l-55 -220v190h-665l80 45v360l-80 45h200l-70 -45v-360l27 -15h168v375l-70 45h190l-70 -45v-375h168l27 15v360l-70 45h200z" />
    <glyph glyph-name="afii10092" unicode="&#x44a;" horiz-adv-x="530" 
d="M180 45v360l-27 15h-58l-60 -110v140h275l-80 -45v-158h85c80 0 180 -27 180 -122s-100 -125 -180 -125h-215zM310 217h-80v-172l27 -15h58c60 0 125 25 125 95s-60 92 -130 92z" />
    <glyph glyph-name="afii10093" unicode="&#x44b;" horiz-adv-x="685" 
d="M440 0l80 45v360l-80 45h210l-80 -45v-360l80 -45h-210zM35 0l80 45v360l-80 45h210l-80 -45v-158h75c80 0 180 -27 180 -122s-100 -125 -180 -125h-205zM235 217h-70v-172l27 -15h48c60 0 125 25 125 95s-60 92 -130 92z" />
    <glyph glyph-name="afii10094" unicode="&#x44c;" horiz-adv-x="465" 
d="M35 0l80 45v360l-80 45h210l-80 -45v-158h85c80 0 180 -27 180 -122s-100 -125 -180 -125h-215zM245 217h-80v-172l27 -15h58c60 0 125 25 125 95s-60 92 -130 92z" />
    <glyph glyph-name="afii10095" unicode="&#x44d;" horiz-adv-x="475" 
d="M150 217v30h234c-7 129 -84 188 -164 188c-70 0 -120 -60 -120 -60l-45 -75v165l40 -65s50 65 135 65c130 0 210 -85 210 -240c0 -150 -85 -240 -220 -240c-115 0 -180 60 -180 125c0 26 12 46 37 46c28 0 35 -22 35 -41c0 -17 -6 -27 -6 -37c0 -35 44 -68 114 -68
c73 0 162 48 165 207h-235z" />
    <glyph glyph-name="afii10096" unicode="&#x44e;" horiz-adv-x="733" 
d="M35 0l80 45v360l-80 45h210l-80 -45v-158h116c8 120 86 218 208 218c139 0 209 -110 209 -240s-80 -240 -209 -240c-136 0 -206 105 -209 232h-115v-172l80 -45h-210zM475 438c-73 0 -140 -67 -140 -187c0 -166 86 -239 168 -239c74 0 140 69 140 187
c0 166 -85 239 -168 239z" />
    <glyph glyph-name="afii10097" unicode="&#x44f;" horiz-adv-x="515" 
d="M480 450l-80 -45v-360l80 -45h-210l80 45v158h-108l-133 -203h-99l70 45l109 164c-60 13 -114 46 -114 116c0 95 100 125 180 125h225zM260 233h90v172l-27 15h-68c-60 0 -125 -25 -125 -95s60 -92 130 -92z" />
    <glyph glyph-name="uni0406" unicode="&#x406;" horiz-adv-x="320" 
d="M185 595v-540l100 -55h-250l100 55v540l-100 55h250z" />
    <glyph glyph-name="afii10103" unicode="&#x456;" horiz-adv-x="275" 
d="M35 425l80 -25v-355l-80 -45h210l-80 45v420zM80 615c0 28 22 50 50 50s50 -22 50 -50s-22 -50 -50 -50s-50 22 -50 50z" />
    <glyph glyph-name="afii10062" unicode="&#x40e;" horiz-adv-x="675" 
d="M675 650l-103 -55l-250 -530c-29 -61 -60 -80 -100 -80c-42 0 -67 28 -67 59c0 27 17 46 43 46c43 0 36 -45 61 -45c15 0 30 30 37 46l44 93l-235 411l-105 55h250l-90 -50l206 -361l169 361l-90 50h230zM355 715c-85 0 -140 34 -140 90c0 26 15 47 42 47
c22 0 38 -14 38 -36c0 -28 -23 -30 -17 -48c5 -17 33 -26 77 -26s72 9 77 26c6 18 -17 20 -17 48c0 22 16 36 38 36c27 0 42 -21 42 -47c0 -56 -55 -90 -140 -90z" />
    <glyph glyph-name="afii10110" unicode="&#x45e;" horiz-adv-x="543" 
d="M543 450l-90 -45l-207 -521c-32 -81 -67 -109 -104 -109c-33 0 -55 20 -55 49c0 26 19 43 40 43c34 0 33 -31 51 -31c13 0 26 25 38 54l55 140l-181 375l-90 45h224l-80 -40l152 -318l127 318l-80 40h200zM287 530c34 0 63 10 68 27c6 18 -17 20 -17 48c0 17 13 32 34 32
c25 0 41 -18 41 -45c0 -57 -63 -81 -126 -81s-126 24 -126 81c0 27 16 45 41 45c21 0 34 -15 34 -32c0 -28 -23 -30 -17 -48c5 -17 34 -27 68 -27z" />
    <glyph glyph-name="afii10051" unicode="&#x402;" horiz-adv-x="770" 
d="M435 0h-250l100 55v560h-160l-70 -145v180h540v-180l-70 145h-190v-310s65 80 185 80c85 0 200 -49 200 -239c0 -255 -258 -366 -270 -371c8 6 220 111 220 357c0 138 -60 213 -165 213c-110 0 -170 -65 -170 -65v-225z" />
    <glyph glyph-name="afii10099" unicode="&#x452;" horiz-adv-x="535" 
d="M240 0h-210l80 45v490h-110v30h110v85l-80 25l130 40v-150h125v-30h-125v-163c35 38 100 93 170 93s155 -60 155 -249c0 -325 -258 -436 -270 -441c8 6 220 120 220 426c0 159 -60 226 -125 226c-60 0 -120 -48 -150 -85v-297z" />
    <glyph glyph-name="afii10105" unicode="&#x458;" horiz-adv-x="255" 
d="M35 425l80 -25v-400c0 -130 -25 -195 -55 -195c-25 0 -14 60 -59 60c-20 0 -38 -14 -38 -39c0 -36 32 -51 62 -51c100 0 140 120 140 265v425zM80 615c0 28 22 50 50 50s50 -22 50 -50s-22 -50 -50 -50s-50 22 -50 50z" />
    <glyph glyph-name="afii10057" unicode="&#x408;" horiz-adv-x="505" 
d="M490 650l-100 -55v-400c0 -120 -55 -210 -180 -210c-134 0 -170 92 -170 150c0 55 32 78 59 78s41 -18 41 -40c0 -38 -45 -33 -45 -73s35 -85 115 -85s130 48 130 170v410l-120 55h270z" />
    <glyph glyph-name="afii10058" unicode="&#x409;" horiz-adv-x="970" 
d="M660 650l-100 -55v-240h130c145 0 230 -70 230 -175s-85 -180 -230 -180h-280l100 55v540l-35 20h-165l-35 -20v-110c0 -365 -80 -500 -185 -500c-41 0 -75 22 -75 60c0 30 20 45 40 45c45 0 35 -50 60 -50c55 0 120 150 120 445v110l-100 55h525zM560 320v-265l35 -20
h95c110 0 175 55 175 145s-65 140 -175 140h-130z" />
    <glyph glyph-name="afii10106" unicode="&#x459;" horiz-adv-x="730" 
d="M295 0l80 45v360l-27 15h-111l-27 -15v-60c0 -165 -25 -355 -142 -355c-22 0 -53 11 -53 46c0 24 17 40 37 40c28 0 25 -25 48 -25c39 0 75 99 75 294v60l-80 45h410l-80 -45v-158h90c80 0 180 -27 180 -122s-100 -125 -180 -125h-220zM510 217h-85v-172l27 -15h63
c60 0 125 25 125 95s-60 92 -130 92z" />
    <glyph glyph-name="afii10107" unicode="&#x45a;" horiz-adv-x="765" 
d="M325 0l80 45v172h-240v-172l80 -45h-210l80 45v360l-80 45h210l-80 -45v-158h240v158l-80 45h210l-80 -45v-158h95c80 0 180 -27 180 -122s-100 -125 -180 -125h-225zM545 217h-90v-172l27 -15h68c60 0 125 25 125 95s-60 92 -130 92z" />
    <glyph glyph-name="afii10059" unicode="&#x40a;" horiz-adv-x="1035" 
d="M465 650h250l-100 -55v-240h140c145 0 230 -70 230 -175s-85 -180 -230 -180h-290l100 55v265h-380v-265l100 -55h-250l100 55v540l-100 55h250l-100 -55v-240h380v240zM615 320v-265l35 -20h105c110 0 175 55 175 145s-65 140 -175 140h-140z" />
    <glyph glyph-name="afii10060" unicode="&#x40b;" horiz-adv-x="845" 
d="M595 650v-180l-70 145h-190v-310s65 80 185 80c85 0 190 -40 190 -210v-120l100 -55h-250l100 55v120c0 110 -50 170 -155 170c-110 0 -170 -65 -170 -65v-225l100 -55h-250l100 55v560h-160l-70 -145v180h540z" />
    <glyph glyph-name="afii10108" unicode="&#x45b;" horiz-adv-x="550" 
d="M160 535v-163c35 38 100 93 170 93s125 -40 125 -150v-270l80 -45h-210l80 45v255c0 80 -30 127 -95 127c-60 0 -120 -48 -150 -85v-297l80 -45h-210l80 45v490h-110v30h110v85l-80 25l130 40v-150h125v-30h-125z" />
    <glyph glyph-name="afii10145" unicode="&#x40f;" horiz-adv-x="755" 
d="M35 0l100 55v540l-100 55h250l-100 -55v-540l35 -20h315l35 20v540l-100 55h250l-100 -55v-540l100 -55h-308l-35 -210l-34 210h-308z" />
    <glyph glyph-name="afii10193" unicode="&#x45f;" horiz-adv-x="575" 
d="M258 0h-223l80 45v360l-80 45h210l-80 -45v-360l27 -15h191l27 15v360l-80 45h210l-80 -45v-360l80 -45h-223l-29 -190z" />
    <glyph glyph-name="uni04D8" unicode="&#x4d8;" horiz-adv-x="690" 
d="M95 420v245l55 -55s75 55 190 55c184 0 315 -120 315 -340c0 -200 -125 -340 -310 -340s-310 140 -310 340v30h564c-12 189 -131 280 -259 280c-110 0 -180 -65 -180 -65zM345 15c129 0 253 103 255 305h-510c2 -202 126 -305 255 -305z" />
    <glyph glyph-name="afii10846" unicode="&#x4d9;" horiz-adv-x="465" 
d="M35 180h344c1 10 1 19 1 29c0 149 -85 211 -185 211c-110 0 -155 -100 -155 -100s30 145 180 145c130 0 210 -105 210 -240c0 -146 -99 -240 -218 -240c-117 0 -177 85 -177 195zM214 9c63 0 138 45 160 141h-199c-50 0 -85 -5 -85 -45c0 -50 54 -96 124 -96z" />
    <glyph glyph-name="uni0492" unicode="&#x492;" horiz-adv-x="620" 
d="M415 355v-35h-200v-265l110 -55h-260l100 55v265h-135v35h135v240l-100 55h500v-190l-75 155h-240l-35 -20v-240h200z" />
    <glyph glyph-name="uni0493" unicode="&#x493;" horiz-adv-x="440" 
d="M30 217v30h90v158l-80 45h355v-140l-61 110h-137l-27 -15v-158h125v-30h-125v-162l100 -55h-230l80 45v172h-90z" />
    <glyph glyph-name="uni049A" unicode="&#x49a;" horiz-adv-x="685" 
d="M610 0h-54l-371 337v-282l100 -55h-250l100 55v540l-100 55h250l-100 -55v-252l275 255l-66 52h251l-147 -64l-253 -236l325 -295l36 -20h79l-75 -245v210z" />
    <glyph glyph-name="uni049B" unicode="&#x49b;" horiz-adv-x="520" 
d="M408 0l-243 239v-194l80 -45h-210l80 45v360l-80 45h210l-80 -45v-166l180 171l-60 40h210l-112 -45l-161 -152l212 -208l27 -15h58l-55 -220v190h-56z" />
    <glyph glyph-name="uni04A2" unicode="&#x4a2;" horiz-adv-x="785" 
d="M690 0h-210l100 55v265h-395v-265l100 -55h-250l100 55v540l-100 55h250l-100 -55v-240h395v240l-100 55h250l-100 -55v-540l36 -20h99l-75 -245v210z" />
    <glyph glyph-name="uni04A3" unicode="&#x4a3;" horiz-adv-x="580" 
d="M330 0l80 45v172h-245v-172l80 -45h-210l80 45v360l-80 45h210l-80 -45v-158h245v158l-80 45h210l-80 -45v-360l27 -15h73l-55 -220v190h-175z" />
    <glyph glyph-name="uni04E8" unicode="&#x4e8;" horiz-adv-x="690" 
d="M345 665c185 0 310 -140 310 -340s-125 -340 -310 -340s-310 140 -310 340s125 340 310 340zM345 15c129 0 253 103 255 305h-510c2 -202 126 -305 255 -305zM345 635c-124 0 -243 -95 -254 -280h508c-12 185 -131 280 -254 280z" />
    <glyph glyph-name="uni04E9" unicode="&#x4e9;" horiz-adv-x="498" 
d="M35 225c0 135 85 240 214 240c139 0 214 -105 214 -240s-85 -240 -214 -240c-139 0 -214 105 -214 240zM408 199v18h-317c12 -142 96 -205 172 -205c74 0 145 69 145 187zM235 438c-73 0 -145 -67 -145 -187v-4h315c-15 132 -96 191 -170 191z" />
    <glyph glyph-name="uni04AE" unicode="&#x4ae;" horiz-adv-x="680" 
d="M237 650l-80 -50l192 -285l193 285l-80 50h218l-100 -55l-213 -316v-224l100 -55h-250l100 55v218l-217 322l-100 55h237z" />
    <glyph glyph-name="uni04AF" unicode="&#x4af;" horiz-adv-x="540" 
d="M90 405l-90 45h222l-80 -40l138 -323l140 323l-80 40h200l-90 -45l-152 -355v-215l80 -45h-210l80 45v201z" />
    <glyph glyph-name="uni04B0" unicode="&#x4b0;" horiz-adv-x="680" 
d="M567 290v-35h-200v-200l100 -55h-250l100 55v200h-200v35h188l-205 305l-100 55h237l-80 -50l192 -285l193 285l-80 50h218l-100 -55l-206 -305h193z" />
    <glyph glyph-name="uni04B1" unicode="&#x4b1;" horiz-adv-x="540" 
d="M90 405l-90 45h222l-80 -40l138 -323l140 323l-80 40h200l-90 -45l-152 -355v-20h135v-30h-135v-165l80 -45h-210l80 45v165h-135v30h135v6z" />
    <glyph glyph-name="uni04BA" unicode="&#x4ba;" horiz-adv-x="670" 
d="M35 0l100 55v540l-100 55h270l-120 -55v-290s65 80 185 80c85 0 190 -40 190 -210v-120l100 -55h-250l100 55v120c0 110 -50 170 -155 170c-110 0 -170 -65 -170 -65v-225l100 -55h-250z" />
    <glyph glyph-name="uni04BB" unicode="&#x4bb;" horiz-adv-x="550" 
d="M110 650l-80 25l130 40v-343c35 38 100 93 170 93s125 -40 125 -150v-270l80 -45h-210l80 45v255c0 80 -30 127 -95 127c-60 0 -120 -48 -150 -85v-297l80 -45h-210l80 45v605z" />
    <glyph glyph-name="afii10100" unicode="&#x453;" horiz-adv-x="435" 
d="M165 405v-350l100 -55h-230l80 45v360l-80 45h355v-140l-61 110h-137zM285 700h75l-210 -200z" />
    <glyph glyph-name="afii10052" unicode="&#x403;" horiz-adv-x="590" 
d="M295 0l-110 55v540l35 20h240l75 -155v190h-500l100 -55v-540l-100 -55h260zM359 900h85l-230 -200z" />
    <glyph glyph-name="afii10054" unicode="&#x405;" horiz-adv-x="565" 
d="M475 665v-215l-65 135s-55 50 -150 50s-150 -58 -150 -118c0 -64 44 -99 166 -140c124 -42 229 -87 229 -217c0 -98 -75 -175 -210 -175c-120 0 -182 55 -182 55l-48 -55v245l65 -155s55 -60 165 -60c95 0 160 55 160 135c0 90 -50 128 -189 177
c-135 48 -206 89 -206 183c0 82 65 155 200 155c105 0 165 -45 165 -45z" />
    <glyph glyph-name="afii10102" unicode="&#x455;" horiz-adv-x="425" 
d="M350 465v-156l-45 81s-30 45 -100 45c-66 0 -105 -35 -105 -75c0 -110 275 -72 275 -237c0 -90 -70 -138 -150 -138c-93 0 -124 56 -125 59l-35 -59v195l43 -90c32 -66 87 -75 117 -75c45 0 105 25 105 92c0 129 -270 87 -270 238c0 73 65 120 145 120
c70 0 105 -40 105 -40z" />
    <glyph glyph-name="afii10061" unicode="&#x40c;" horiz-adv-x="675" 
d="M285 650l-100 -55v-252l275 255l-66 52h251l-147 -64l-253 -236l325 -295l90 -55h-104l-371 337v-282l100 -55h-250l100 55v540l-100 55h250zM404 900h85l-230 -200z" />
    <glyph glyph-name="afii10109" unicode="&#x45c;" horiz-adv-x="520" 
d="M408 0l-243 239v-194l80 -45h-210l80 45v360l-80 45h210l-80 -45v-166l180 171l-60 40h210l-112 -45l-161 -152l212 -208l71 -45h-97zM335 700h75l-210 -200z" />
    <glyph glyph-name="uni0498" unicode="&#x498;" horiz-adv-x="600" 
d="M75 420v245l55 -55s55 55 160 55c160 0 230 -85 230 -175c0 -130 -135 -145 -135 -145v-5s160 -10 160 -165c0 -106 -72 -177 -208 -188l-26 -42s63 -5 63 -70c0 -40 -30 -80 -85 -80c-52 0 -69 38 -70 40c2 -2 20 -25 58 -25c30 0 57 20 57 55c0 40 -34 50 -57 50
c-9 0 -15 -2 -15 -2l44 72h-6c-115 0 -180 55 -180 55l-55 -55v245l65 -150s60 -65 170 -65c125 0 190 65 190 160s-70 145 -205 145h-95v35h95c110 0 180 50 180 135c0 80 -60 145 -175 145c-110 0 -150 -65 -150 -65z" />
    <glyph glyph-name="uni0499" unicode="&#x499;" horiz-adv-x="455" 
d="M220 10c86 0 140 45 140 110c0 50 -20 107 -150 107h-65v30h70c80 0 123 33 123 88c0 50 -43 90 -118 90c-80 0 -120 -60 -120 -60l-45 -75v165l40 -65s40 65 135 65c80 0 163 -35 163 -120c0 -90 -103 -97 -103 -97v-3s125 -10 125 -125c0 -63 -56 -121 -157 -133
l-27 -42s63 -5 63 -70c0 -40 -30 -80 -85 -80c-52 0 -69 38 -70 40c2 -2 20 -25 58 -25c30 0 57 20 57 55c0 40 -34 50 -57 50c-9 0 -15 -2 -15 -2l44 72h-6c-120 0 -180 60 -180 125c0 26 12 46 37 46c28 0 35 -22 35 -41c0 -17 -6 -27 -6 -37c0 -35 34 -68 114 -68z" />
    <glyph glyph-name="uni04A0" unicode="&#x4a0;" horiz-adv-x="775" 
d="M45 650h340l-100 -55v-252l275 255l-66 52h251l-147 -64l-253 -236l325 -295l90 -55h-104l-371 337v-282l100 -55h-250l100 55v540l-35 20h-85l-70 -145v180z" />
    <glyph glyph-name="uni04A1" unicode="&#x4a1;" horiz-adv-x="575" 
d="M170 45v360l-27 15h-48l-60 -110v140h265l-80 -45v-166l180 171l-60 40h210l-112 -45l-161 -152l212 -208l71 -45h-97l-243 239v-194l80 -45h-210z" />
    <glyph glyph-name="uni04AA" unicode="&#x4aa;" horiz-adv-x="650" 
d="M585 665v-245l-65 150s-60 65 -170 65c-135 0 -260 -105 -260 -295c0 -215 130 -320 280 -320c165 0 230 130 230 130s-40 -158 -238 -164l-25 -41s63 -5 63 -70c0 -40 -30 -80 -85 -80c-52 0 -69 38 -70 40c2 -2 20 -25 58 -25c30 0 57 20 57 55c0 40 -34 50 -57 50
c-9 0 -15 -2 -15 -2l44 73c-176 8 -297 145 -297 334c0 215 131 345 315 345c115 0 180 -55 180 -55z" />
    <glyph glyph-name="uni04AB" unicode="&#x4ab;" horiz-adv-x="460" 
d="M251 441c-70 0 -166 -63 -166 -200c0 -149 85 -211 185 -211c110 0 155 100 155 100s-27 -130 -157 -144l-26 -41s63 -5 63 -70c0 -40 -30 -80 -85 -80c-52 0 -69 38 -70 40c2 -2 20 -25 58 -25c30 0 57 20 57 55c0 40 -34 50 -57 50c-9 0 -15 -2 -15 -2l44 72
c-125 5 -202 108 -202 240c0 145 99 240 218 240c100 0 159 -62 159 -117c0 -26 -13 -46 -38 -46c-24 0 -38 15 -38 37s9 25 9 41c0 10 -9 61 -94 61z" />
    <glyph glyph-name="uni0496" unicode="&#x496;" horiz-adv-x="988" 
d="M913 0h-55l-348 337v-282l100 -55h-250l100 55v282l-348 -337h-97l82 55l305 296l-230 235l-147 64h251l-67 -52l251 -255v252l-100 55h250l-100 -55v-252l251 255l-67 52h251l-147 -64l-231 -235l306 -296l36 -20h79l-75 -245v210z" />
    <glyph glyph-name="uni0497" unicode="&#x497;" horiz-adv-x="720" 
d="M385 239l170 171l-60 40h210l-112 -45l-154 -154l194 -206l27 -15h58l-55 -220v190h-56zM385 405v-360l80 -45h-210l80 45v360l-80 45h210zM165 410l170 -171l-222 -239h-98l72 45l193 206l-153 154l-112 45h210z" />
    <glyph glyph-name="afii10050" unicode="&#x490;" horiz-adv-x="575" 
d="M185 55l110 -55h-260l100 55v540l-100 55h420l65 185v-220h-300l-35 -20v-540z" />
    <glyph glyph-name="afii10098" unicode="&#x491;" horiz-adv-x="430" 
d="M165 405v-350l100 -55h-230l80 45v360l-80 45h290l60 160v-190h-193z" />
    <glyph glyph-name="afii10101" unicode="&#x454;" horiz-adv-x="460" 
d="M251 441c-69 0 -163 -61 -166 -194h210v-30h-210c9 -132 90 -187 185 -187c110 0 155 100 155 100s-30 -145 -180 -145c-130 0 -210 105 -210 240c0 145 99 240 218 240c100 0 159 -62 159 -117c0 -26 -13 -46 -38 -46c-24 0 -38 15 -38 37s9 25 9 41c0 10 -9 61 -94 61z
" />
    <glyph glyph-name="afii10053" unicode="&#x404;" horiz-adv-x="650" 
d="M585 665v-245l-65 150s-60 65 -170 65c-128 0 -247 -91 -259 -280h359v-35h-360c2 -207 126 -305 260 -305c110 0 170 65 170 65l65 150v-245l-55 55s-65 -55 -180 -55c-184 0 -315 120 -315 340s131 340 315 340c115 0 180 -55 180 -55z" />
    <glyph glyph-name="afii10056" unicode="&#x407;" horiz-adv-x="320" 
d="M185 595v-540l100 -55h-250l100 55v540l-100 55h250zM30 780c0 28 22 50 50 50s50 -22 50 -50s-22 -50 -50 -50s-50 22 -50 50zM190 780c0 28 22 50 50 50s50 -22 50 -50s-22 -50 -50 -50s-50 22 -50 50z" />
    <glyph glyph-name="afii10104" unicode="&#x457;" horiz-adv-x="275" 
d="M35 425l80 -25v-355l-80 -45h210l-80 45v420zM-10 615c0 28 22 50 50 50s50 -22 50 -50s-22 -50 -50 -50s-50 22 -50 50zM160 615c0 28 22 50 50 50s50 -22 50 -50s-22 -50 -50 -50s-50 22 -50 50z" />
    <glyph glyph-name="uni04B2" unicode="&#x4b2;" horiz-adv-x="755" 
d="M665 0h-198l90 50l-189 266l-188 -266l90 -50h-250l120 55l206 291l-176 249l-120 55h268l-90 -50l149 -211l149 211l-90 50h249l-120 -55l-167 -236l217 -304l46 -20h79l-75 -245v210z" />
    <glyph glyph-name="uni04B3" unicode="&#x4b3;" horiz-adv-x="536" 
d="M315 0l70 40l-131 170l-125 -170l70 -40h-199l95 45l140 190l-130 170l-95 45h222l-70 -40l102 -134l99 134l-70 40h202l-99 -45l-113 -154l158 -206l32 -15h58l-55 -220v190h-161z" />
    <glyph glyph-name="Ccedilla" unicode="&#xc7;" horiz-adv-x="650" 
d="M585 665v-245l-65 150s-60 65 -170 65c-135 0 -260 -105 -260 -295c0 -215 130 -320 280 -320c165 0 230 130 230 130s-40 -158 -238 -164l-25 -41s63 -5 63 -70c0 -40 -30 -80 -85 -80c-52 0 -69 38 -70 40c2 -2 20 -25 58 -25c30 0 57 20 57 55c0 40 -34 50 -57 50
c-9 0 -15 -2 -15 -2l44 73c-176 8 -297 145 -297 334c0 215 131 345 315 345c115 0 180 -55 180 -55z" />
    <glyph glyph-name="ccedilla" unicode="&#xe7;" horiz-adv-x="460" 
d="M251 441c-70 0 -166 -63 -166 -200c0 -149 85 -211 185 -211c110 0 155 100 155 100s-27 -130 -157 -144l-26 -41s63 -5 63 -70c0 -40 -30 -80 -85 -80c-52 0 -69 38 -70 40c2 -2 20 -25 58 -25c30 0 57 20 57 55c0 40 -34 50 -57 50c-9 0 -15 -2 -15 -2l44 72
c-125 5 -202 108 -202 240c0 145 99 240 218 240c100 0 159 -62 159 -117c0 -26 -13 -46 -38 -46c-24 0 -38 15 -38 37s9 25 9 41c0 10 -9 61 -94 61z" />
    <glyph glyph-name="Edieresis" unicode="&#xcb;" horiz-adv-x="635" 
d="M185 595v-240h165l60 95v-225l-60 95h-165v-265l35 -20h275l70 145v-180h-530l100 55v540l-100 55h515v-180l-70 145h-260zM165 780c0 28 22 50 50 50s50 -22 50 -50s-22 -50 -50 -50s-50 22 -50 50zM390 780c0 28 22 50 50 50s50 -22 50 -50s-22 -50 -50 -50
s-50 22 -50 50z" />
    <glyph glyph-name="edieresis" unicode="&#xeb;" horiz-adv-x="470" 
d="M425 270h-339c-1 -10 -1 -19 -1 -29c0 -149 85 -211 185 -211c110 0 155 100 155 100s-30 -145 -180 -145c-130 0 -210 105 -210 240c0 146 99 240 218 240c127 0 172 -85 172 -195zM251 441c-63 0 -138 -45 -160 -141h194c50 0 85 5 85 45c0 50 -49 96 -119 96zM90 615
c0 28 22 50 50 50s50 -22 50 -50s-22 -50 -50 -50s-50 22 -50 50zM280 615c0 28 22 50 50 50s50 -22 50 -50s-22 -50 -50 -50s-50 22 -50 50z" />
    <glyph glyph-name="Ntilde" unicode="&#xd1;" horiz-adv-x="785" 
d="M635 93v502l-110 55h245l-100 -55v-610l-505 524v-454l110 -55h-245l100 55v491l-100 104h69zM501 730c-76 0 -166 65 -236 65s-99 -77 -102 -92c0 12 20 137 119 137c76 0 166 -65 236 -65c69 0 98 76 102 91c-1 -14 -22 -136 -119 -136z" />
    <glyph glyph-name="ntilde" unicode="&#xf1;" horiz-adv-x="555" 
d="M115 400l-80 25l130 40v-93c35 38 100 93 170 93s125 -40 125 -150v-270l80 -45h-210l80 45v255c0 80 -30 127 -95 127c-60 0 -120 -48 -150 -85v-297l80 -45h-210l80 45v355zM440 660c0 0 12 -105 -82 -105c-56 0 -133 45 -183 45c-54 0 -62 -65 -62 -65s-12 105 82 105
c56 0 133 -45 183 -45c54 0 62 65 62 65z" />
    <glyph glyph-name="Aacute" unicode="&#xc1;" horiz-adv-x="700" 
d="M548 50l-69 155h-271l-67 -155l90 -50h-231l105 55l218 502l-107 93h121l263 -595l100 -55h-237zM342 513l-119 -273h241zM399 900h85l-230 -200z" />
    <glyph glyph-name="aacute" unicode="&#xe1;" horiz-adv-x="471" 
d="M326 295l-156 -54c-68 -24 -129 -71 -129 -141c0 -71 45 -115 114 -115c40 0 74 20 97 35l74 49c0 -53 0 -84 35 -84s105 85 105 85l-90 -35v285c0 85 -36 145 -145 145c-60 0 -173 -55 -173 -117c0 -29 17 -42 36 -42s36 11 36 42c0 14 -2 24 -2 32c0 25 32 55 93 55
c55 0 105 -26 105 -115v-25zM326 101l-62 -41c-29 -19 -54 -38 -93 -38c-50 0 -77 40 -77 83c0 55 25 89 112 120l120 42v-166zM295 700h75l-210 -200z" />
    <glyph glyph-name="Acircumflex" unicode="&#xc2;" horiz-adv-x="700" 
d="M548 50l-69 155h-271l-67 -155l90 -50h-231l105 55l218 502l-107 93h121l263 -595l100 -55h-237zM342 513l-119 -273h241zM335 825l-200 -125l200 190l200 -190z" />
    <glyph glyph-name="acircumflex" unicode="&#xe2;" horiz-adv-x="471" 
d="M170 241l156 54v25c0 89 -50 115 -105 115c-61 0 -93 -30 -93 -55c0 -8 2 -18 2 -32c0 -31 -17 -42 -36 -42s-36 13 -36 42c0 62 113 117 173 117c109 0 145 -60 145 -145v-285l90 35s-70 -85 -105 -85s-35 31 -35 84l-74 -49c-23 -15 -57 -35 -97 -35
c-69 0 -114 44 -114 115c0 70 61 117 129 141zM264 60l62 41v166l-120 -42c-87 -31 -112 -65 -112 -120c0 -43 27 -83 77 -83c39 0 64 19 93 38zM225 615l-160 -105l160 165l160 -165z" />
    <glyph glyph-name="Atilde" unicode="&#xc3;" horiz-adv-x="700" 
d="M548 50l-69 155h-271l-67 -155l90 -50h-231l105 55l218 502l-107 93h121l263 -595l100 -55h-237zM342 513l-119 -273h241zM446 730c-76 0 -166 65 -236 65s-99 -77 -102 -92c0 12 20 137 119 137c76 0 166 -65 236 -65c69 0 98 76 102 91c-1 -14 -22 -136 -119 -136z" />
    <glyph glyph-name="atilde" unicode="&#xe3;" horiz-adv-x="471" 
d="M170 241l156 54v25c0 89 -50 115 -105 115c-61 0 -93 -30 -93 -55c0 -8 2 -18 2 -32c0 -31 -17 -42 -36 -42s-36 13 -36 42c0 62 113 117 173 117c109 0 145 -60 145 -145v-285l90 35s-70 -85 -105 -85s-35 31 -35 84l-74 -49c-23 -15 -57 -35 -97 -35
c-69 0 -114 44 -114 115c0 70 61 117 129 141zM264 60l62 41v166l-120 -42c-87 -31 -112 -65 -112 -120c0 -43 27 -83 77 -83c39 0 64 19 93 38zM385 660c0 0 12 -105 -82 -105c-56 0 -133 45 -183 45c-54 0 -62 -65 -62 -65s-12 105 82 105c56 0 133 -45 183 -45
c54 0 62 65 62 65z" />
    <glyph glyph-name="Agrave" unicode="&#xc0;" horiz-adv-x="700" 
d="M548 50l-69 155h-271l-67 -155l90 -50h-231l105 55l218 502l-107 93h121l263 -595l100 -55h-237zM342 513l-119 -273h241zM159 900h85l145 -200z" />
    <glyph glyph-name="agrave" unicode="&#xe0;" horiz-adv-x="471" 
d="M170 241l156 54v25c0 89 -50 115 -105 115c-61 0 -93 -30 -93 -55c0 -8 2 -18 2 -32c0 -31 -17 -42 -36 -42s-36 13 -36 42c0 62 113 117 173 117c109 0 145 -60 145 -145v-285l90 35s-70 -85 -105 -85s-35 31 -35 84l-74 -49c-23 -15 -57 -35 -97 -35
c-69 0 -114 44 -114 115c0 70 61 117 129 141zM264 60l62 41v166l-120 -42c-87 -31 -112 -65 -112 -120c0 -43 27 -83 77 -83c39 0 64 19 93 38zM75 700h75l135 -200z" />
    <glyph glyph-name="Eacute" unicode="&#xc9;" horiz-adv-x="635" 
d="M185 595v-240h165l60 95v-225l-60 95h-165v-265l35 -20h275l70 145v-180h-530l100 55v540l-100 55h515v-180l-70 145h-260zM374 900h85l-230 -200z" />
    <glyph glyph-name="eacute" unicode="&#xe9;" horiz-adv-x="470" 
d="M425 270h-339c-1 -10 -1 -19 -1 -29c0 -149 85 -211 185 -211c110 0 155 100 155 100s-30 -145 -180 -145c-130 0 -210 105 -210 240c0 146 99 240 218 240c127 0 172 -85 172 -195zM251 441c-63 0 -138 -45 -160 -141h194c50 0 85 5 85 45c0 50 -49 96 -119 96zM295 700
h75l-210 -200z" />
    <glyph glyph-name="Ecircumflex" unicode="&#xca;" horiz-adv-x="635" 
d="M185 595v-240h165l60 95v-225l-60 95h-165v-265l35 -20h275l70 145v-180h-530l100 55v540l-100 55h515v-180l-70 145h-260zM325 825l-200 -125l200 190l200 -190z" />
    <glyph glyph-name="ecircumflex" unicode="&#xea;" horiz-adv-x="470" 
d="M425 270h-339c-1 -10 -1 -19 -1 -29c0 -149 85 -211 185 -211c110 0 155 100 155 100s-30 -145 -180 -145c-130 0 -210 105 -210 240c0 146 99 240 218 240c127 0 172 -85 172 -195zM251 441c-63 0 -138 -45 -160 -141h194c50 0 85 5 85 45c0 50 -49 96 -119 96zM241 615
l-160 -105l160 165l160 -165z" />
    <glyph glyph-name="Iacute" unicode="&#xcd;" horiz-adv-x="320" 
d="M185 595v-540l100 -55h-250l100 55v540l-100 55h250zM224 900h85l-230 -200z" />
    <glyph glyph-name="iacute" unicode="&#xed;" horiz-adv-x="275" 
d="M35 425l80 -25v-355l-80 -45h210l-80 45v420zM190 700h75l-210 -200z" />
    <glyph glyph-name="Oacute" unicode="&#xd3;" horiz-adv-x="690" 
d="M90 325c0 -205 125 -310 255 -310s255 105 255 310s-125 310 -255 310s-255 -105 -255 -310zM345 665c185 0 310 -140 310 -340s-125 -340 -310 -340s-310 140 -310 340s125 340 310 340zM409 900h85l-230 -200z" />
    <glyph glyph-name="oacute" unicode="&#xf3;" horiz-adv-x="498" 
d="M235 438c-73 0 -145 -67 -145 -187c0 -166 91 -239 173 -239c74 0 145 69 145 187c0 166 -90 239 -173 239zM35 225c0 135 85 240 214 240c139 0 214 -105 214 -240s-85 -240 -214 -240c-139 0 -214 105 -214 240zM310 700h75l-210 -200z" />
    <glyph glyph-name="Ocircumflex" unicode="&#xd4;" horiz-adv-x="690" 
d="M90 325c0 -205 125 -310 255 -310s255 105 255 310s-125 310 -255 310s-255 -105 -255 -310zM345 665c185 0 310 -140 310 -340s-125 -340 -310 -340s-310 140 -310 340s125 340 310 340zM345 825l-200 -125l200 190l200 -190z" />
    <glyph glyph-name="ocircumflex" unicode="&#xf4;" horiz-adv-x="498" 
d="M235 438c-73 0 -145 -67 -145 -187c0 -166 91 -239 173 -239c74 0 145 69 145 187c0 166 -90 239 -173 239zM35 225c0 135 85 240 214 240c139 0 214 -105 214 -240s-85 -240 -214 -240c-139 0 -214 105 -214 240zM249 615l-160 -105l160 165l160 -165z" />
    <glyph glyph-name="Otilde" unicode="&#xd5;" horiz-adv-x="690" 
d="M345 665c185 0 310 -140 310 -340s-125 -340 -310 -340s-310 140 -310 340s125 340 310 340zM90 325c0 -205 125 -310 255 -310s255 105 255 310s-125 310 -255 310s-255 -105 -255 -310zM456 730c-76 0 -166 65 -236 65s-99 -77 -102 -92c0 12 20 137 119 137
c76 0 166 -65 236 -65c69 0 98 76 102 91c-1 -14 -22 -136 -119 -136z" />
    <glyph glyph-name="otilde" unicode="&#xf5;" horiz-adv-x="498" 
d="M235 438c-73 0 -145 -67 -145 -187c0 -166 91 -239 173 -239c74 0 145 69 145 187c0 166 -90 239 -173 239zM35 225c0 135 85 240 214 240c139 0 214 -105 214 -240s-85 -240 -214 -240c-139 0 -214 105 -214 240zM412 660c0 0 12 -105 -82 -105c-56 0 -133 45 -183 45
c-54 0 -62 -65 -62 -65s-12 105 82 105c56 0 133 -45 183 -45c54 0 62 65 62 65z" />
    <glyph glyph-name="Uacute" unicode="&#xda;" horiz-adv-x="710" 
d="M595 595v-385c0 -134 -81 -225 -235 -225c-162 0 -245 91 -245 225v385l-100 55h250l-100 -55v-385c0 -108 67 -180 195 -180s195 72 195 180v385l-100 55h240zM444 900h85l-230 -200z" />
    <glyph glyph-name="uacute" unicode="&#xfa;" horiz-adv-x="535" 
d="M385 400l-80 25l130 40v-415l80 -25l-130 -40v93c-35 -38 -100 -93 -170 -93s-125 40 -125 150v265l-80 25l130 40v-315c0 -80 30 -127 95 -127c60 0 120 48 150 85v292zM340 700h75l-210 -200z" />
    <glyph glyph-name="Adieresis" unicode="&#xc4;" horiz-adv-x="700" 
d="M548 50l-69 155h-271l-67 -155l90 -50h-231l105 55l218 502l-107 93h121l263 -595l100 -55h-237zM342 513l-119 -273h241zM165 780c0 28 22 50 50 50s50 -22 50 -50s-22 -50 -50 -50s-50 22 -50 50zM390 780c0 28 22 50 50 50s50 -22 50 -50s-22 -50 -50 -50
s-50 22 -50 50z" />
    <glyph glyph-name="adieresis" unicode="&#xe4;" horiz-adv-x="471" 
d="M326 295l-156 -54c-68 -24 -129 -71 -129 -141c0 -71 45 -115 114 -115c40 0 74 20 97 35l74 49c0 -53 0 -84 35 -84s105 85 105 85l-90 -35v285c0 85 -36 145 -145 145c-60 0 -173 -55 -173 -117c0 -29 17 -42 36 -42s36 11 36 42c0 14 -2 24 -2 32c0 25 32 55 93 55
c55 0 105 -26 105 -115v-25zM326 101l-62 -41c-29 -19 -54 -38 -93 -38c-50 0 -77 40 -77 83c0 55 25 89 112 120l120 42v-166zM80 615c0 28 22 50 50 50s50 -22 50 -50s-22 -50 -50 -50s-50 22 -50 50zM270 615c0 28 22 50 50 50s50 -22 50 -50s-22 -50 -50 -50
s-50 22 -50 50z" />
    <glyph glyph-name="Odieresis" unicode="&#xd6;" horiz-adv-x="690" 
d="M90 325c0 -205 125 -310 255 -310s255 105 255 310s-125 310 -255 310s-255 -105 -255 -310zM345 665c185 0 310 -140 310 -340s-125 -340 -310 -340s-310 140 -310 340s125 340 310 340zM182 780c0 28 22 50 50 50s50 -22 50 -50s-22 -50 -50 -50s-50 22 -50 50z
M408 780c0 28 22 50 50 50s50 -22 50 -50s-22 -50 -50 -50s-50 22 -50 50z" />
    <glyph glyph-name="odieresis" unicode="&#xf6;" horiz-adv-x="498" 
d="M235 438c-73 0 -145 -67 -145 -187c0 -166 91 -239 173 -239c74 0 145 69 145 187c0 166 -90 239 -173 239zM35 225c0 135 85 240 214 240c139 0 214 -105 214 -240s-85 -240 -214 -240c-139 0 -214 105 -214 240zM104 615c0 28 22 50 50 50s50 -22 50 -50
s-22 -50 -50 -50s-50 22 -50 50zM294 615c0 28 22 50 50 50s50 -22 50 -50s-22 -50 -50 -50s-50 22 -50 50z" />
    <glyph glyph-name="Udieresis" unicode="&#xdc;" horiz-adv-x="710" 
d="M595 595v-385c0 -134 -81 -225 -235 -225c-162 0 -245 91 -245 225v385l-100 55h250l-100 -55v-385c0 -108 67 -180 195 -180s195 72 195 180v385l-100 55h240zM195 780c0 28 22 50 50 50s50 -22 50 -50s-22 -50 -50 -50s-50 22 -50 50zM420 780c0 28 22 50 50 50
s50 -22 50 -50s-22 -50 -50 -50s-50 22 -50 50z" />
    <glyph glyph-name="udieresis" unicode="&#xfc;" horiz-adv-x="535" 
d="M385 400l-80 25l130 40v-415l80 -25l-130 -40v93c-35 -38 -100 -93 -170 -93s-125 40 -125 150v265l-80 25l130 40v-315c0 -80 30 -127 95 -127c60 0 120 48 150 85v292zM110 615c0 28 22 50 50 50s50 -22 50 -50s-22 -50 -50 -50s-50 22 -50 50zM300 615
c0 28 22 50 50 50s50 -22 50 -50s-22 -50 -50 -50s-50 22 -50 50z" />
    <glyph glyph-name="germandbls" unicode="&#xdf;" horiz-adv-x="575" 
d="M350 10c86 0 140 50 140 125c0 80 -55 125 -155 125c-38 0 -58 -9 -60 -10l161 170h-298l-18 -10v-575l90 -45h-220l80 45v615c0 190 88 265 188 265c45 0 92 -20 92 -61c0 -25 -18 -39 -38 -39c-50 0 -22 70 -84 70c-48 0 -108 -45 -108 -195v-40h399l-154 -163
s180 8 180 -142c0 -70 -60 -160 -195 -160c-120 0 -180 60 -180 125c0 26 12 46 37 46c28 0 35 -22 35 -41c0 -17 -6 -27 -6 -37c0 -35 34 -68 114 -68z" />
    <glyph glyph-name="Egrave" unicode="&#xc8;" horiz-adv-x="635" 
d="M185 595v-240h165l60 95v-225l-60 95h-165v-265l35 -20h275l70 145v-180h-530l100 55v540l-100 55h515v-180l-70 145h-260zM154 900h85l145 -200z" />
    <glyph glyph-name="egrave" unicode="&#xe8;" horiz-adv-x="470" 
d="M425 270h-339c-1 -10 -1 -19 -1 -29c0 -149 85 -211 185 -211c110 0 155 100 155 100s-30 -145 -180 -145c-130 0 -210 105 -210 240c0 146 99 240 218 240c127 0 172 -85 172 -195zM251 441c-63 0 -138 -45 -160 -141h194c50 0 85 5 85 45c0 50 -49 96 -119 96zM70 700
h75l135 -200z" />
    <glyph glyph-name="ugrave" unicode="&#xf9;" horiz-adv-x="535" 
d="M385 400l-80 25l130 40v-415l80 -25l-130 -40v93c-35 -38 -100 -93 -170 -93s-125 40 -125 150v265l-80 25l130 40v-315c0 -80 30 -127 95 -127c60 0 120 48 150 85v292zM75 700h75l135 -200z" />
    <glyph glyph-name="Ugrave" unicode="&#xd9;" horiz-adv-x="710" 
d="M595 595v-385c0 -134 -81 -225 -235 -225c-162 0 -245 91 -245 225v385l-100 55h250l-100 -55v-385c0 -108 67 -180 195 -180s195 72 195 180v385l-100 55h240zM164 900h85l145 -200z" />
    <glyph glyph-name="Icircumflex" unicode="&#xce;" horiz-adv-x="320" 
d="M185 595v-540l100 -55h-250l100 55v540l-100 55h250zM160 825l-200 -125l200 190l200 -190z" />
    <glyph glyph-name="icircumflex" unicode="&#xee;" horiz-adv-x="275" 
d="M115 400l-80 25l130 40v-420l80 -45h-210l80 45v355zM139 615l-160 -105l160 165l160 -165z" />
    <glyph glyph-name="Ucircumflex" unicode="&#xdb;" horiz-adv-x="710" 
d="M595 595v-385c0 -134 -81 -225 -235 -225c-162 0 -245 91 -245 225v385l-100 55h250l-100 -55v-385c0 -108 67 -180 195 -180s195 72 195 180v385l-100 55h240zM355 825l-200 -125l200 190l200 -190z" />
    <glyph glyph-name="ucircumflex" unicode="&#xfb;" horiz-adv-x="535" 
d="M385 400l-80 25l130 40v-415l80 -25l-130 -40v93c-35 -38 -100 -93 -170 -93s-125 40 -125 150v265l-80 25l130 40v-315c0 -80 30 -127 95 -127c60 0 120 48 150 85v292zM259 615l-160 -105l160 165l160 -165z" />
    <glyph glyph-name="Idieresis" unicode="&#xcf;" horiz-adv-x="320" 
d="M185 595v-540l100 -55h-250l100 55v540l-100 55h250zM30 780c0 28 22 50 50 50s50 -22 50 -50s-22 -50 -50 -50s-50 22 -50 50zM190 780c0 28 22 50 50 50s50 -22 50 -50s-22 -50 -50 -50s-50 22 -50 50z" />
    <glyph glyph-name="idieresis" unicode="&#xef;" horiz-adv-x="275" 
d="M35 425l80 -25v-355l-80 -45h210l-80 45v420zM-10 615c0 28 22 50 50 50s50 -22 50 -50s-22 -50 -50 -50s-50 22 -50 50zM160 615c0 28 22 50 50 50s50 -22 50 -50s-22 -50 -50 -50s-50 22 -50 50z" />
    <glyph glyph-name="ydieresis" unicode="&#xff;" horiz-adv-x="543" 
d="M543 450l-90 -45l-207 -521c-32 -81 -67 -109 -104 -109c-33 0 -55 20 -55 49c0 26 19 43 40 43c34 0 33 -31 51 -31c13 0 26 25 38 54l55 140l-181 375l-90 45h224l-80 -40l152 -318l127 318l-80 40h200zM140 615c0 28 22 50 50 50s50 -22 50 -50s-22 -50 -50 -50
s-50 22 -50 50zM330 615c0 28 22 50 50 50s50 -22 50 -50s-22 -50 -50 -50s-50 22 -50 50z" />
    <glyph glyph-name="Ydieresis" unicode="&#x178;" horiz-adv-x="680" 
d="M237 650l-80 -50l192 -285l193 285l-80 50h218l-100 -55l-213 -316v-224l100 -55h-250l100 55v218l-217 322l-100 55h237zM190 780c0 28 22 50 50 50s50 -22 50 -50s-22 -50 -50 -50s-50 22 -50 50zM415 780c0 28 22 50 50 50s50 -22 50 -50s-22 -50 -50 -50
s-50 22 -50 50z" />
    <glyph glyph-name="Ccaron" unicode="&#x10c;" horiz-adv-x="650" 
d="M585 665v-245l-65 150s-60 65 -170 65c-135 0 -260 -105 -260 -295c0 -215 130 -320 280 -320c165 0 230 130 230 130s-41 -165 -250 -165c-185 0 -315 140 -315 335c0 215 131 345 315 345c115 0 180 -55 180 -55zM340 775l200 125l-200 -190l-200 190z" />
    <glyph glyph-name="ccaron" unicode="&#x10d;" horiz-adv-x="460" 
d="M251 441c-70 0 -166 -63 -166 -200c0 -149 85 -211 185 -211c110 0 155 100 155 100s-30 -145 -180 -145c-130 0 -210 105 -210 240c0 145 99 240 218 240c100 0 159 -62 159 -117c0 -26 -13 -46 -38 -46c-24 0 -38 15 -38 37s9 25 9 41c0 10 -9 61 -94 61zM240 580
l160 105l-160 -165l-160 165z" />
    <glyph glyph-name="Cacute" unicode="&#x106;" horiz-adv-x="650" 
d="M585 665v-245l-65 150s-60 65 -170 65c-135 0 -260 -105 -260 -295c0 -215 130 -320 280 -320c165 0 230 130 230 130s-41 -165 -250 -165c-185 0 -315 140 -315 335c0 215 131 345 315 345c115 0 180 -55 180 -55zM404 900h85l-230 -200z" />
    <glyph glyph-name="cacute" unicode="&#x107;" horiz-adv-x="460" 
d="M251 441c-70 0 -166 -63 -166 -200c0 -149 85 -211 185 -211c110 0 155 100 155 100s-30 -145 -180 -145c-130 0 -210 105 -210 240c0 145 99 240 218 240c100 0 159 -62 159 -117c0 -26 -13 -46 -38 -46c-24 0 -38 15 -38 37s9 25 9 41c0 10 -9 61 -94 61zM300 700h75
l-210 -200z" />
    <glyph glyph-name="Zcaron" unicode="&#x17d;" horiz-adv-x="615" 
d="M45 0l422 615h-327l-70 -145v180h480l-422 -615h357l70 145v-180h-510zM295 775l200 125l-200 -190l-200 190z" />
    <glyph glyph-name="zcaron" unicode="&#x17e;" horiz-adv-x="480" 
d="M372 30l58 110v-140h-390l309 420h-227l-57 -110v140h365l-310 -420h252zM240 580l160 105l-160 -165l-160 165z" />
    <glyph glyph-name="Dcroat" unicode="&#x110;" horiz-adv-x="700" 
d="M320 0h-255l100 55v265h-135v35h135v240l-100 55h255c175 0 345 -90 345 -325s-170 -325 -345 -325zM415 355v-35h-200v-265l35 -20h70c120 0 290 60 290 290s-170 290 -290 290h-70l-35 -20v-240h200z" />
    <glyph glyph-name="dcroat" unicode="&#x111;" horiz-adv-x="525" 
d="M535 535h-110v-485l80 -25l-130 -40v95s-45 -95 -150 -95c-90 0 -185 65 -185 240c0 170 105 240 195 240c100 0 137 -72 140 -79v149h-125v30h125v85l-80 25l130 40v-150h110v-30zM375 130v165c0 75 -50 140 -135 140c-76 0 -145 -70 -145 -210c0 -145 69 -210 145 -210
c100 0 135 115 135 115z" />
    <glyph glyph-name="Scaron" unicode="&#x160;" horiz-adv-x="565" 
d="M475 665v-215l-65 135s-55 50 -150 50s-150 -58 -150 -118c0 -64 44 -99 166 -140c124 -42 229 -87 229 -217c0 -98 -75 -175 -210 -175c-120 0 -182 55 -182 55l-48 -55v245l65 -155s55 -60 165 -60c95 0 160 55 160 135c0 90 -50 128 -189 177
c-135 48 -206 89 -206 183c0 82 65 155 200 155c105 0 165 -45 165 -45zM265 775l200 125l-200 -190l-200 190z" />
    <glyph glyph-name="scaron" unicode="&#x161;" horiz-adv-x="425" 
d="M350 465v-156l-45 81s-30 45 -100 45c-66 0 -105 -35 -105 -75c0 -110 275 -72 275 -237c0 -90 -70 -138 -150 -138c-93 0 -124 56 -125 59l-35 -59v195l43 -90c32 -66 87 -75 117 -75c45 0 105 25 105 92c0 129 -270 87 -270 238c0 73 65 120 145 120
c70 0 105 -40 105 -40zM210 580l160 105l-160 -165l-160 165z" />
    <glyph glyph-name="Dcaron" unicode="&#x10e;" horiz-adv-x="670" 
d="M290 0h-255l100 55v540l-100 55h255c175 0 345 -90 345 -325s-170 -325 -345 -325zM185 595v-540l35 -20h70c120 0 290 60 290 290s-170 290 -290 290h-70zM290 775l200 125l-200 -190l-200 190z" />
    <glyph glyph-name="dcaron" unicode="&#x10f;" horiz-adv-x="530" 
d="M375 650l-80 25l130 40v-665l80 -25l-130 -40v95s-45 -95 -150 -95c-90 0 -185 65 -185 240c0 170 105 240 195 240c100 0 137 -72 140 -79v264zM375 130v165c0 75 -50 140 -135 140c-76 0 -145 -70 -145 -210c0 -145 69 -210 145 -210c100 0 135 115 135 115zM490 650
c0 28 22 50 50 50s50 -22 50 -50c0 -35 -5 -55 -95 -165l50 115h-5c-28 0 -50 22 -50 50z" />
    <glyph glyph-name="Ecaron" unicode="&#x11a;" horiz-adv-x="635" 
d="M185 595v-240h165l60 95v-225l-60 95h-165v-265l35 -20h275l70 145v-180h-530l100 55v540l-100 55h515v-180l-70 145h-260zM320 775l200 125l-200 -190l-200 190z" />
    <glyph glyph-name="ecaron" unicode="&#x11b;" horiz-adv-x="470" 
d="M425 270h-339c-1 -10 -1 -19 -1 -29c0 -149 85 -211 185 -211c110 0 155 100 155 100s-30 -145 -180 -145c-130 0 -210 105 -210 240c0 146 99 240 218 240c127 0 172 -85 172 -195zM251 441c-63 0 -138 -45 -160 -141h194c50 0 85 5 85 45c0 50 -49 96 -119 96zM240 580
l160 105l-160 -165l-160 165z" />
    <glyph glyph-name="Rcaron" unicode="&#x158;" horiz-adv-x="655" 
d="M305 0h-270l100 55v540l-100 55h280c145 0 230 -75 230 -175c0 -87 -64 -154 -174 -171l187 -249l92 -55h-113l-225 300h-127v-245zM185 595v-260h130c110 0 175 55 175 140s-65 140 -175 140h-95zM285 775l200 125l-200 -190l-200 190z" />
    <glyph glyph-name="rcaron" unicode="&#x159;" horiz-adv-x="405" 
d="M115 400l-80 25l130 40v-105l67 64c31 30 55 41 83 41c35 0 55 -17 55 -47c0 -21 -15 -38 -39 -38c-35 0 -30 31 -63 31c-20 0 -58 -31 -103 -81v-285l80 -45h-210l80 45v355zM215 580l160 105l-160 -165l-160 165z" />
    <glyph glyph-name="Tcaron" unicode="&#x164;" horiz-adv-x="640" 
d="M585 650v-180l-70 145h-170v-560l110 -55h-270l110 55v560h-170l-70 -145v180h530zM320 775l200 125l-200 -190l-200 190z" />
    <glyph glyph-name="tcaron" unicode="&#x165;" horiz-adv-x="320" 
d="M160 555l-145 -135h95v-330c0 -75 30 -105 80 -105c55 0 83 67 85 74c-1 -2 -25 -39 -65 -39c-35 0 -50 30 -50 70v330h115v30h-115v105zM205 650c0 28 22 50 50 50s50 -22 50 -50c0 -35 -5 -55 -95 -165l50 115h-5c-28 0 -50 22 -50 50z" />
    <glyph glyph-name="uring" unicode="&#x16f;" horiz-adv-x="535" 
d="M385 400l-80 25l130 40v-415l80 -25l-130 -40v93c-35 -38 -100 -93 -170 -93s-125 40 -125 150v265l-80 25l130 40v-315c0 -80 30 -127 95 -127c60 0 120 48 150 85v292zM165 610c0 52 38 95 95 95s95 -43 95 -95s-38 -95 -95 -95s-95 43 -95 95zM198 610
c0 -40 28 -65 62 -65s62 25 62 65s-28 65 -62 65s-62 -25 -62 -65z" />
    <glyph glyph-name="Uring" unicode="&#x16e;" horiz-adv-x="710" 
d="M595 595v-385c0 -134 -81 -225 -235 -225c-162 0 -245 91 -245 225v385l-100 55h250l-100 -55v-385c0 -108 67 -180 195 -180s195 72 195 180v385l-100 55h240zM265 800c0 52 38 95 95 95s95 -43 95 -95s-38 -95 -95 -95s-95 43 -95 95zM298 800c0 -40 28 -65 62 -65
s62 25 62 65s-28 65 -62 65s-62 -25 -62 -65z" />
    <glyph glyph-name="yacute" unicode="&#xfd;" horiz-adv-x="543" 
d="M543 450l-90 -45l-207 -521c-32 -81 -67 -109 -104 -109c-33 0 -55 20 -55 49c0 26 19 43 40 43c34 0 33 -31 51 -31c13 0 26 25 38 54l55 140l-181 375l-90 45h224l-80 -40l152 -318l127 318l-80 40h200zM380 700h75l-210 -200z" />
    <glyph glyph-name="Yacute" unicode="&#xdd;" horiz-adv-x="680" 
d="M237 650l-80 -50l192 -285l193 285l-80 50h218l-100 -55l-213 -316v-224l100 -55h-250l100 55v218l-217 322l-100 55h237zM454 900h85l-230 -200z" />
    <glyph glyph-name="OE" unicode="&#x152;" horiz-adv-x="985" 
d="M345 665c65 0 120 -15 120 -15h435v-180l-70 145h-260l-35 -20v-240h165l60 95v-225l-60 95h-165v-265l35 -20h275l70 145v-180h-450s-55 -15 -120 -15c-185 0 -310 140 -310 340s125 340 310 340zM345 635c-130 0 -255 -105 -255 -310s125 -310 255 -310
c85 0 140 40 140 80v460c0 40 -55 80 -140 80z" />
    <glyph glyph-name="oe" unicode="&#x153;" horiz-adv-x="848" 
d="M235 438c-73 0 -145 -67 -145 -187c0 -166 91 -239 173 -239c74 0 145 69 145 187c0 166 -90 239 -173 239zM629 441c-63 0 -138 -45 -160 -141h194c50 0 85 5 85 45c0 50 -49 96 -119 96zM803 270h-339c-1 -10 -1 -19 -1 -29c0 -149 85 -211 185 -211
c110 0 155 100 155 100s-30 -145 -180 -145c-88 0 -153 48 -186 121c-34 -73 -101 -121 -188 -121c-139 0 -214 105 -214 240s85 240 214 240c94 0 158 -48 190 -121c37 76 110 121 192 121c127 0 172 -85 172 -195z" />
    <glyph glyph-name="AE" unicode="&#xc6;" horiz-adv-x="975" 
d="M525 595v-240h165l60 95v-225l-60 95h-165v-265l35 -20h275l70 145v-180h-530l100 55v150h-232l-108 -155l90 -50h-235l105 55l380 540l-100 55h515v-180l-70 145h-260zM475 535l-207 -295h207v295z" />
    <glyph glyph-name="ae" unicode="&#xe6;" horiz-adv-x="775" 
d="M730 270h-339c-1 -10 -1 -19 -1 -29c0 -149 85 -211 185 -211c110 0 155 100 155 100s-30 -145 -180 -145c-90 0 -175 50 -200 155c0 0 -35 -155 -181 -155c-69 0 -129 34 -129 110c0 75 58 116 144 146l156 54v25c0 89 -50 115 -110 115c-66 0 -103 -30 -103 -55
c0 -8 2 -18 2 -32c0 -31 -17 -42 -36 -42s-36 13 -36 42c0 62 123 117 183 117c84 0 129 -36 143 -91c40 57 104 91 175 91c127 0 172 -85 172 -195zM340 225v42l-120 -42c-94 -33 -127 -70 -127 -125c0 -48 37 -78 87 -78c97 0 160 95 160 203zM556 441
c-63 0 -138 -45 -160 -141h194c50 0 85 5 85 45c0 50 -49 96 -119 96z" />
    <glyph glyph-name="Aring" unicode="&#xc5;" horiz-adv-x="700" 
d="M548 50l-69 155h-271l-67 -155l90 -50h-231l105 55l218 502l-107 93h121l263 -595l100 -55h-237zM342 513l-119 -273h241zM235 800c0 52 38 95 95 95s95 -43 95 -95s-38 -95 -95 -95s-95 43 -95 95zM268 800c0 -40 28 -65 62 -65s62 25 62 65s-28 65 -62 65
s-62 -25 -62 -65z" />
    <glyph glyph-name="aring" unicode="&#xe5;" horiz-adv-x="471" 
d="M326 295l-156 -54c-68 -24 -129 -71 -129 -141c0 -71 45 -115 114 -115c40 0 74 20 97 35l74 49c0 -53 0 -84 35 -84s105 85 105 85l-90 -35v285c0 85 -36 145 -145 145c-60 0 -173 -55 -173 -117c0 -29 17 -42 36 -42s36 11 36 42c0 14 -2 24 -2 32c0 25 32 55 93 55
c55 0 105 -26 105 -115v-25zM326 101l-62 -41c-29 -19 -54 -38 -93 -38c-50 0 -77 40 -77 83c0 55 25 89 112 120l120 42v-166zM125 610c0 52 38 95 95 95s95 -43 95 -95s-38 -95 -95 -95s-95 43 -95 95zM158 610c0 -40 28 -65 62 -65s62 25 62 65s-28 65 -62 65
s-62 -25 -62 -65z" />
    <glyph glyph-name="Oslash" unicode="&#xd8;" horiz-adv-x="690" 
d="M600 665l27 -22l-59 -72c55 -60 87 -146 87 -246c0 -200 -125 -340 -310 -340c-79 0 -147 25 -199 69l-56 -69l-27 22l58 72c-55 60 -86 145 -86 246c0 200 125 340 310 340c78 0 146 -25 198 -70zM600 325c0 89 -24 159 -61 210l-365 -447c47 -49 108 -73 171 -73
c130 0 255 105 255 310zM90 325c0 -89 23 -159 61 -210l365 447c-47 48 -109 73 -171 73c-130 0 -255 -105 -255 -310z" />
    <glyph glyph-name="oslash" unicode="&#xf8;" horiz-adv-x="498" 
d="M75 -15l-23 19l39 49c-37 43 -56 103 -56 172c0 135 85 240 214 240c56 0 102 -17 136 -47l38 47l23 -19l-40 -49c37 -43 57 -104 57 -172c0 -135 -85 -240 -214 -240c-56 0 -102 17 -137 46zM235 438c-73 0 -145 -67 -145 -187c0 -66 14 -117 36 -155l228 283
c-33 40 -77 59 -119 59zM408 199c0 65 -15 116 -37 154l-227 -282c33 -40 77 -59 119 -59c74 0 145 69 145 187z" />
    <glyph glyph-name="Ohungarumlaut" unicode="&#x150;" horiz-adv-x="690" 
d="M90 325c0 -205 125 -310 255 -310s255 105 255 310s-125 310 -255 310s-255 -105 -255 -310zM345 665c185 0 310 -140 310 -340s-125 -340 -310 -340s-310 140 -310 340s125 340 310 340zM359 900h85l-230 -200zM509 900h85l-230 -200z" />
    <glyph glyph-name="ohungarumlaut" unicode="&#x151;" horiz-adv-x="498" 
d="M235 438c-73 0 -145 -67 -145 -187c0 -166 91 -239 173 -239c74 0 145 69 145 187c0 166 -90 239 -173 239zM35 225c0 135 85 240 214 240c139 0 214 -105 214 -240s-85 -240 -214 -240c-139 0 -214 105 -214 240zM260 700h75l-210 -200zM390 700h75l-210 -200z" />
    <glyph glyph-name="Uhungarumlaut" unicode="&#x170;" horiz-adv-x="710" 
d="M595 595v-385c0 -134 -81 -225 -235 -225c-162 0 -245 91 -245 225v385l-100 55h250l-100 -55v-385c0 -108 67 -180 195 -180s195 72 195 180v385l-100 55h240zM379 900h85l-230 -200zM529 900h85l-230 -200z" />
    <glyph glyph-name="uhungarumlaut" unicode="&#x171;" horiz-adv-x="535" 
d="M385 400l-80 25l130 40v-415l80 -25l-130 -40v93c-35 -38 -100 -93 -170 -93s-125 40 -125 150v265l-80 25l130 40v-315c0 -80 30 -127 95 -127c60 0 120 48 150 85v292zM280 700h75l-210 -200zM410 700h75l-210 -200z" />
    <glyph glyph-name="Eth" unicode="&#xd0;" horiz-adv-x="700" 
d="M320 0h-255l100 55v265h-135v35h135v240l-100 55h255c175 0 345 -90 345 -325s-170 -325 -345 -325zM415 355v-35h-200v-265l35 -20h70c120 0 290 60 290 290s-170 290 -290 290h-70l-35 -20v-240h200z" />
    <glyph glyph-name="eth" unicode="&#xf0;" horiz-adv-x="507" 
d="M162 507l-15 26l114 65c-101 83 -214 114 -224 117c6 -1 133 -22 248 -103l135 78l15 -26l-123 -71c86 -69 160 -176 160 -338c0 -155 -90 -270 -220 -270c-139 0 -217 105 -217 230s78 230 207 230c133 0 173 -125 173 -125c-12 114 -66 197 -130 257zM235 418
c-73 0 -145 -67 -145 -177c0 -156 91 -229 173 -229c74 0 145 69 145 177c0 156 -90 229 -173 229z" />
    <glyph glyph-name="Thorn" unicode="&#xde;" horiz-adv-x="620" 
d="M285 650l-100 -55v-55h140c145 0 260 -75 260 -210s-115 -210 -260 -210h-140v-65l100 -55h-250l100 55v540l-100 55h250zM530 330c0 135 -115 175 -205 175h-140v-350h140c90 0 205 40 205 175z" />
    <glyph glyph-name="thorn" unicode="&#xfe;" horiz-adv-x="495" 
d="M70 650l-80 25l130 40v-345s45 95 150 95c90 0 185 -55 185 -240c0 -170 -105 -240 -195 -240c-100 0 -137 72 -140 79v-229l80 -45h-210l80 45v815zM120 320v-165c0 -75 50 -140 135 -140c76 0 145 70 145 210c0 150 -69 210 -145 210c-100 0 -135 -115 -135 -115z" />
    <glyph glyph-name="Amacron" unicode="&#x100;" horiz-adv-x="700" 
d="M548 50l-69 155h-271l-67 -155l90 -50h-231l105 55l218 502l-107 93h121l263 -595l100 -55h-237zM342 513l-119 -273h241zM120 740v35h440v-35h-440z" />
    <glyph glyph-name="amacron" unicode="&#x101;" horiz-adv-x="471" 
d="M326 295l-156 -54c-68 -24 -129 -71 -129 -141c0 -71 45 -115 114 -115c40 0 74 20 97 35l74 49c0 -53 0 -84 35 -84s105 85 105 85l-90 -35v285c0 85 -36 145 -145 145c-60 0 -173 -55 -173 -117c0 -29 17 -42 36 -42s36 11 36 42c0 14 -2 24 -2 32c0 25 32 55 93 55
c55 0 105 -26 105 -115v-25zM326 101l-62 -41c-29 -19 -54 -38 -93 -38c-50 0 -77 40 -77 83c0 55 25 89 112 120l120 42v-166zM69 545v35h320v-35h-320z" />
    <glyph glyph-name="Emacron" unicode="&#x112;" horiz-adv-x="635" 
d="M185 595v-240h165l60 95v-225l-60 95h-165v-265l35 -20h275l70 145v-180h-530l100 55v540l-100 55h515v-180l-70 145h-260zM110 740v35h440v-35h-440z" />
    <glyph glyph-name="emacron" unicode="&#x113;" horiz-adv-x="470" 
d="M425 270h-339c-1 -10 -1 -19 -1 -29c0 -149 85 -211 185 -211c110 0 155 100 155 100s-30 -145 -180 -145c-130 0 -210 105 -210 240c0 146 99 240 218 240c127 0 172 -85 172 -195zM251 441c-63 0 -138 -45 -160 -141h194c50 0 85 5 85 45c0 50 -49 96 -119 96zM74 545
v35h320v-35h-320z" />
    <glyph glyph-name="Gcommaaccent" unicode="&#x122;" horiz-adv-x="705" 
d="M605 665v-245l-65 150s-60 65 -180 65c-135 0 -270 -100 -270 -295c0 -220 130 -320 275 -320c125 0 185 75 185 75v160l-120 55h260l-90 -55v-265l-40 75s-70 -80 -210 -80c-185 0 -315 140 -315 335c0 215 141 345 325 345c125 0 190 -55 190 -55zM315 -110
c0 28 22 50 50 50s50 -22 50 -50c0 -35 -5 -55 -95 -165l50 115h-5c-28 0 -50 22 -50 50z" />
    <glyph glyph-name="gcommaaccent" unicode="&#x123;" horiz-adv-x="510" 
d="M65 305c0 88 65 160 170 160c70 0 105 -30 145 -30c25 0 15 13 15 26c0 21 14 39 38 39c28 0 42 -20 42 -40c0 -27 -15 -50 -55 -50c-25 0 -60 10 -60 10s45 -41 45 -115c0 -88 -65 -160 -170 -160c-36 0 -120 -8 -120 -60c0 -30 25 -35 40 -35h225
c50 0 100 -25 100 -100s-85 -175 -245 -175c-155 0 -210 75 -210 135c0 70 64 86 98 92c-27 8 -53 34 -53 68c0 58 50 80 93 88c-63 24 -98 81 -98 147zM380 0h-206c-2 -1 -99 -6 -99 -75c0 -50 45 -105 170 -105c145 0 200 80 200 125c0 40 -30 55 -65 55zM120 305
c0 -85 52 -135 115 -135s115 50 115 135s-52 135 -115 135s-115 -50 -115 -135zM285 615c0 -28 -22 -50 -50 -50s-50 22 -50 50c0 35 5 55 95 165l-50 -115h5c28 0 50 -22 50 -50z" />
    <glyph glyph-name="uni012A" unicode="&#x12a;" horiz-adv-x="320" 
d="M185 595v-540l100 -55h-250l100 55v540l-100 55h250zM-5 740v35h330v-35h-330z" />
    <glyph glyph-name="imacron" unicode="&#x12b;" horiz-adv-x="275" 
d="M35 425l80 -25v-355l-80 -45h210l-80 45v420zM-15 545v35h275v-35h-275z" />
    <glyph glyph-name="Kcommaaccent" unicode="&#x136;" horiz-adv-x="675" 
d="M285 650l-100 -55v-252l275 255l-66 52h251l-147 -64l-253 -236l325 -295l90 -55h-104l-371 337v-282l100 -55h-250l100 55v540l-100 55h250zM305 -110c0 28 22 50 50 50s50 -22 50 -50c0 -35 -5 -55 -95 -165l50 115h-5c-28 0 -50 22 -50 50z" />
    <glyph glyph-name="kcommaaccent" unicode="&#x137;" horiz-adv-x="520" 
d="M160 715v-670l80 -45h-210l80 45v605l-80 25zM408 0l-243 239l180 171l-60 40h210l-112 -45l-161 -152l212 -208l71 -45h-97zM225 -110c0 28 22 50 50 50s50 -22 50 -50c0 -35 -5 -55 -95 -165l50 115h-5c-28 0 -50 22 -50 50z" />
    <glyph glyph-name="Lcommaaccent" unicode="&#x13b;" horiz-adv-x="600" 
d="M295 650l-110 -55v-540l35 -20h250l75 155v-190h-510l100 55v540l-100 55h260zM265 -110c0 28 22 50 50 50s50 -22 50 -50c0 -35 -5 -55 -95 -165l50 115h-5c-28 0 -50 22 -50 50z" />
    <glyph glyph-name="lcommaaccent" unicode="&#x13c;" horiz-adv-x="270" 
d="M110 650l-80 25l130 40v-670l80 -45h-210l80 45v605zM85 -110c0 28 22 50 50 50s50 -22 50 -50c0 -35 -5 -55 -95 -165l50 115h-5c-28 0 -50 22 -50 50z" />
    <glyph glyph-name="Ncommaaccent" unicode="&#x145;" horiz-adv-x="785" 
d="M635 93v502l-110 55h245l-100 -55v-610l-505 524v-454l110 -55h-245l100 55v491l-100 104h69zM355 -110c0 28 22 50 50 50s50 -22 50 -50c0 -35 -5 -55 -95 -165l50 115h-5c-28 0 -50 22 -50 50z" />
    <glyph glyph-name="ncommaaccent" unicode="&#x146;" horiz-adv-x="555" 
d="M115 400l-80 25l130 40v-93c35 38 100 93 170 93s125 -40 125 -150v-270l80 -45h-210l80 45v255c0 80 -30 127 -95 127c-60 0 -120 -48 -150 -85v-297l80 -45h-210l80 45v355zM245 -110c0 28 22 50 50 50s50 -22 50 -50c0 -35 -5 -55 -95 -165l50 115h-5
c-28 0 -50 22 -50 50z" />
    <glyph glyph-name="Umacron" unicode="&#x16a;" horiz-adv-x="710" 
d="M595 595v-385c0 -134 -81 -225 -235 -225c-162 0 -245 91 -245 225v385l-100 55h250l-100 -55v-385c0 -108 67 -180 195 -180s195 72 195 180v385l-100 55h240zM135 740v35h440v-35h-440z" />
    <glyph glyph-name="umacron" unicode="&#x16b;" horiz-adv-x="535" 
d="M385 400l-80 25l130 40v-415l80 -25l-130 -40v93c-35 -38 -100 -93 -170 -93s-125 40 -125 150v265l-80 25l130 40v-315c0 -80 30 -127 95 -127c60 0 120 48 150 85v292zM99 545v35h320v-35h-320z" />
    <glyph glyph-name="Aogonek" unicode="&#x104;" horiz-adv-x="700" 
d="M570 0h-107l85 50l-69 155h-271l-67 -155l90 -50h-231l105 55l218 502l-107 93h121l263 -595l100 -55h-96c-38 -21 -79 -56 -79 -111c0 -40 28 -64 66 -64c44 0 70 33 75 39c-3 -7 -28 -74 -94 -74c-45 0 -92 32 -92 90c0 56 49 97 90 120zM342 513l-119 -273h241z" />
    <glyph glyph-name="aogonek" unicode="&#x105;" horiz-adv-x="471" 
d="M170 241l156 54v25c0 89 -50 115 -105 115c-61 0 -93 -30 -93 -55c0 -8 2 -18 2 -32c0 -31 -17 -42 -36 -42s-36 13 -36 42c0 62 113 117 173 117c109 0 145 -60 145 -145v-285l90 35c-68 -58 -156 -110 -156 -181c0 -40 26 -64 64 -64c40 0 65 33 70 39
c-3 -7 -28 -74 -94 -74c-45 0 -85 32 -85 85c0 70 80 120 80 120s-19 -1 -19 74l-74 -49c-23 -15 -57 -35 -97 -35c-69 0 -114 44 -114 115c0 70 61 117 129 141zM264 60l62 41v166l-120 -42c-87 -31 -112 -65 -112 -120c0 -43 27 -83 77 -83c39 0 64 19 93 38z" />
    <glyph glyph-name="Eogonek" unicode="&#x118;" horiz-adv-x="635" 
d="M480 0h-445l100 55v540l-100 55h515v-180l-70 145h-260l-35 -20v-240h165l60 95v-225l-60 95h-165v-265l35 -20h275l70 145v-180h-51c-38 -21 -79 -56 -79 -111c0 -40 28 -64 66 -64c44 0 70 33 75 39c-3 -7 -28 -74 -94 -74c-45 0 -92 32 -92 90c0 56 49 97 90 120z" />
    <glyph glyph-name="eogonek" unicode="&#x119;" horiz-adv-x="470" 
d="M425 270h-339c-1 -10 -1 -19 -1 -29c0 -149 85 -211 185 -211c110 0 155 100 155 100s-27 -130 -158 -144c-32 -22 -62 -54 -62 -97c0 -40 26 -64 64 -64c42 0 68 36 71 40c-2 -4 -27 -75 -95 -75c-45 0 -85 32 -85 85c0 54 44 87 83 110c-129 1 -208 105 -208 240
c0 146 99 240 218 240c127 0 172 -85 172 -195zM251 441c-63 0 -138 -45 -160 -141h194c50 0 85 5 85 45c0 50 -49 96 -119 96zM350 25c0 0 -1 -1 -4 -1z" />
    <glyph glyph-name="Edotaccent" unicode="&#x116;" horiz-adv-x="635" 
d="M185 595v-240h165l60 95v-225l-60 95h-165v-265l35 -20h275l70 145v-180h-530l100 55v540l-100 55h515v-180l-70 145h-260zM280 780c0 28 22 50 50 50s50 -22 50 -50s-22 -50 -50 -50s-50 22 -50 50z" />
    <glyph glyph-name="edotaccent" unicode="&#x117;" horiz-adv-x="470" 
d="M425 270h-339c-1 -10 -1 -19 -1 -29c0 -149 85 -211 185 -211c110 0 155 100 155 100s-30 -145 -180 -145c-130 0 -210 105 -210 240c0 146 99 240 218 240c127 0 172 -85 172 -195zM251 441c-63 0 -138 -45 -160 -141h194c50 0 85 5 85 45c0 50 -49 96 -119 96zM200 615
c0 28 22 50 50 50s50 -22 50 -50s-22 -50 -50 -50s-50 22 -50 50z" />
    <glyph glyph-name="Iogonek" unicode="&#x12e;" horiz-adv-x="320" 
d="M155 0h-120l100 55v540l-100 55h250l-100 -55v-540l100 -55h-96c-38 -21 -79 -56 -79 -111c0 -40 28 -64 66 -64c44 0 70 33 75 39c-3 -7 -28 -74 -94 -74c-45 0 -92 32 -92 90c0 56 49 97 90 120z" />
    <glyph glyph-name="iogonek" unicode="&#x12f;" horiz-adv-x="275" 
d="M35 425l80 -25v-355l-80 -45h210l-80 45v420zM135 0h34c-38 -21 -79 -56 -79 -111c0 -40 28 -64 66 -64c44 0 70 33 75 39c-3 -7 -28 -74 -94 -74c-45 0 -92 32 -92 90c0 56 49 97 90 120zM80 615c0 28 22 50 50 50s50 -22 50 -50s-22 -50 -50 -50s-50 22 -50 50z" />
    <glyph glyph-name="Uogonek" unicode="&#x172;" horiz-adv-x="710" 
d="M595 595v-385c0 -124 -70 -211 -202 -223c-33 -22 -63 -54 -63 -98c0 -40 26 -64 64 -64c42 0 68 36 71 40c-2 -4 -27 -75 -95 -75c-45 0 -85 32 -85 85c0 54 44 87 83 110h-8c-162 0 -245 91 -245 225v385l-100 55h250l-100 -55v-385c0 -108 67 -180 195 -180
s195 72 195 180v385l-100 55h240zM475 25c0 0 -1 -1 -4 -1z" />
    <glyph glyph-name="uogonek" unicode="&#x173;" horiz-adv-x="535" 
d="M385 400l-80 25l130 40v-415l80 -25h-1h1l-3 -1c-19 -4 -157 -37 -157 -135c0 -40 26 -64 64 -64c42 0 68 36 71 40c-2 -4 -27 -75 -95 -75c-45 0 -85 32 -85 85c0 70 75 110 75 110v93c-35 -38 -100 -93 -170 -93s-125 40 -125 150v265l-80 25l130 40v-315
c0 -80 30 -127 95 -127c60 0 120 48 150 85v292z" />
    <glyph glyph-name="Cdotaccent" unicode="&#x10a;" horiz-adv-x="650" 
d="M585 665v-245l-65 150s-60 65 -170 65c-135 0 -260 -105 -260 -295c0 -215 130 -320 280 -320c165 0 230 130 230 130s-41 -165 -250 -165c-185 0 -315 140 -315 335c0 215 131 345 315 345c115 0 180 -55 180 -55zM295 780c0 28 22 50 50 50s50 -22 50 -50
s-22 -50 -50 -50s-50 22 -50 50z" />
    <glyph glyph-name="cdotaccent" unicode="&#x10b;" horiz-adv-x="460" 
d="M251 441c-70 0 -166 -63 -166 -200c0 -149 85 -211 185 -211c110 0 155 100 155 100s-30 -145 -180 -145c-130 0 -210 105 -210 240c0 145 99 240 218 240c100 0 159 -62 159 -117c0 -26 -13 -46 -38 -46c-24 0 -38 15 -38 37s9 25 9 41c0 10 -9 61 -94 61zM190 615
c0 28 22 50 50 50s50 -22 50 -50s-22 -50 -50 -50s-50 22 -50 50z" />
    <glyph glyph-name="Gdotaccent" unicode="&#x120;" horiz-adv-x="705" 
d="M605 665v-245l-65 150s-60 65 -180 65c-135 0 -270 -100 -270 -295c0 -220 130 -320 275 -320c125 0 185 75 185 75v160l-120 55h260l-90 -55v-265l-40 75s-70 -80 -210 -80c-185 0 -315 140 -315 335c0 215 141 345 325 345c125 0 190 -55 190 -55zM300 780
c0 28 22 50 50 50s50 -22 50 -50s-22 -50 -50 -50s-50 22 -50 50z" />
    <glyph glyph-name="gdotaccent" unicode="&#x121;" horiz-adv-x="510" 
d="M65 305c0 88 65 160 170 160c70 0 105 -30 145 -30c25 0 15 13 15 26c0 21 14 39 38 39c28 0 42 -20 42 -40c0 -27 -15 -50 -55 -50c-25 0 -60 10 -60 10s45 -41 45 -115c0 -88 -65 -160 -170 -160c-36 0 -120 -8 -120 -60c0 -30 25 -35 40 -35h225
c50 0 100 -25 100 -100s-85 -175 -245 -175c-155 0 -210 75 -210 135c0 70 64 86 98 92c-27 8 -53 34 -53 68c0 58 50 80 93 88c-63 24 -98 81 -98 147zM380 0h-206c-2 -1 -99 -6 -99 -75c0 -50 45 -105 170 -105c145 0 200 80 200 125c0 40 -30 55 -65 55zM120 305
c0 -85 52 -135 115 -135s115 50 115 135s-52 135 -115 135s-115 -50 -115 -135zM185 615c0 28 22 50 50 50s50 -22 50 -50s-22 -50 -50 -50s-50 22 -50 50z" />
    <glyph glyph-name="Hbar" unicode="&#x126;" horiz-adv-x="805" 
d="M785 505v-35h-135v-415l100 -55h-250l100 55v265h-395v-265l100 -55h-250l100 55v415h-135v35h135v90l-100 55h250l-100 -55v-90h395v90l-100 55h250l-100 -55v-90h135zM205 355h395v115h-395v-115z" />
    <glyph glyph-name="hbar" unicode="&#x127;" horiz-adv-x="550" 
d="M160 535v-163c35 38 100 93 170 93s125 -40 125 -150v-270l80 -45h-210l80 45v255c0 80 -30 127 -95 127c-60 0 -120 -48 -150 -85v-297l80 -45h-210l80 45v490h-110v30h110v85l-80 25l130 40v-150h125v-30h-125z" />
    <glyph glyph-name="Zdotaccent" unicode="&#x17b;" horiz-adv-x="615" 
d="M45 0l422 615h-327l-70 -145v180h480l-422 -615h357l70 145v-180h-510zM255 780c0 28 22 50 50 50s50 -22 50 -50s-22 -50 -50 -50s-50 22 -50 50z" />
    <glyph glyph-name="zdotaccent" unicode="&#x17c;" horiz-adv-x="480" 
d="M430 140l-58 -110h-252l310 420h-365v-140l57 110h227l-309 -420h390v140zM190 615c0 28 22 50 50 50s50 -22 50 -50s-22 -50 -50 -50s-50 22 -50 50z" />
    <glyph glyph-name="Abreve" unicode="&#x102;" horiz-adv-x="700" 
d="M548 50l-69 155h-271l-67 -155l90 -50h-231l105 55l218 502l-107 93h121l263 -595l100 -55h-237zM342 513l-119 -273h241zM330 725c-137 0 -170 129 -172 142c3 -11 43 -97 172 -97c132 0 170 91 173 99c-1 -7 -33 -144 -173 -144z" />
    <glyph glyph-name="abreve" unicode="&#x103;" horiz-adv-x="471" 
d="M326 295l-156 -54c-68 -24 -129 -71 -129 -141c0 -71 45 -115 114 -115c40 0 74 20 97 35l74 49c0 -53 0 -84 35 -84s105 85 105 85l-90 -35v285c0 85 -36 145 -145 145c-60 0 -173 -55 -173 -117c0 -29 17 -42 36 -42s36 11 36 42c0 14 -2 24 -2 32c0 25 32 55 93 55
c55 0 105 -26 105 -115v-25zM326 101l-62 -41c-29 -19 -54 -38 -93 -38c-50 0 -77 40 -77 83c0 55 25 89 112 120l120 42v-166zM222 540c-128 0 -137 113 -137 122c3 -9 32 -82 137 -82c107 0 135 77 138 84c0 -3 -8 -124 -138 -124z" />
    <glyph glyph-name="Scedilla" unicode="&#x15e;" horiz-adv-x="565" 
d="M475 665v-215l-65 135s-55 50 -150 50s-150 -58 -150 -118c0 -64 44 -99 166 -140c124 -42 229 -87 229 -217c0 -94 -69 -168 -193 -174l-25 -41s63 -5 63 -70c0 -40 -30 -80 -85 -80c-52 0 -69 38 -70 40c2 -2 20 -25 58 -25c30 0 57 20 57 55c0 40 -34 50 -57 50
c-9 0 -15 -2 -15 -2l44 72c-112 4 -169 55 -169 55l-48 -55v245l65 -155s55 -60 165 -60c95 0 160 55 160 135c0 90 -50 128 -189 177c-135 48 -206 89 -206 183c0 82 65 155 200 155c105 0 165 -45 165 -45z" />
    <glyph glyph-name="scedilla" unicode="&#x15f;" horiz-adv-x="425" 
d="M350 465v-156l-45 81s-30 45 -100 45c-66 0 -105 -35 -105 -75c0 -110 275 -72 275 -237c0 -81 -56 -127 -126 -136l-26 -42s63 -5 63 -70c0 -40 -30 -80 -85 -80c-52 0 -69 38 -70 40c2 -2 20 -25 58 -25c30 0 57 20 57 55c0 40 -34 50 -57 50c-9 0 -15 -2 -15 -2l44 72
c-88 3 -117 56 -118 59l-35 -59v195l43 -90c32 -66 87 -75 117 -75c45 0 105 25 105 92c0 129 -270 87 -270 238c0 73 65 120 145 120c70 0 105 -40 105 -40z" />
    <glyph glyph-name="Tcommaaccent" unicode="&#x162;" horiz-adv-x="640" 
d="M585 650v-180l-70 145h-170v-560l110 -55h-270l110 55v560h-170l-70 -145v180h530zM275 -110c0 28 22 50 50 50s50 -22 50 -50c0 -35 -5 -55 -95 -165l50 115h-5c-28 0 -50 22 -50 50z" />
    <glyph glyph-name="tcommaaccent" unicode="&#x163;" horiz-adv-x="320" 
d="M15 420l145 135v-105h115v-30h-115v-330c0 -40 15 -70 50 -70c40 0 64 37 65 39c-2 -7 -30 -74 -85 -74c-50 0 -80 30 -80 105v330h-95zM125 -110c0 28 22 50 50 50s50 -22 50 -50c0 -35 -5 -55 -95 -165l50 115h-5c-28 0 -50 22 -50 50z" />
    <glyph glyph-name="Lslash" unicode="&#x141;" horiz-adv-x="600" 
d="M15 237v32l120 53v273l-100 55h260l-110 -55v-251l135 60v-33l-135 -60v-256l35 -20h250l75 155v-190h-510l100 55v234z" />
    <glyph glyph-name="lslash" unicode="&#x142;" horiz-adv-x="290" 
d="M15 267v32l105 46v305l-80 25l130 40v-348l105 47v-33l-105 -46v-290l80 -45h-210l80 45v268z" />
    <glyph glyph-name="Nacute" unicode="&#x143;" horiz-adv-x="785" 
d="M635 595v-502l-536 557h-69l100 -104v-491l-100 -55h245l-110 55v454l505 -524v610l100 55h-245zM469 900h85l-230 -200z" />
    <glyph glyph-name="nacute" unicode="&#x144;" horiz-adv-x="555" 
d="M115 400l-80 25l130 40v-93c35 38 100 93 170 93s125 -40 125 -150v-270l80 -45h-210l80 45v255c0 80 -30 127 -95 127c-60 0 -120 -48 -150 -85v-297l80 -45h-210l80 45v355zM350 700h75l-210 -200z" />
    <glyph glyph-name="Sacute" unicode="&#x15a;" horiz-adv-x="565" 
d="M475 665v-215l-65 135s-55 50 -150 50s-150 -58 -150 -118c0 -64 44 -99 166 -140c124 -42 229 -87 229 -217c0 -98 -75 -175 -210 -175c-120 0 -182 55 -182 55l-48 -55v245l65 -155s55 -60 165 -60c95 0 160 55 160 135c0 90 -50 128 -189 177
c-135 48 -206 89 -206 183c0 82 65 155 200 155c105 0 165 -45 165 -45zM325 900h85l-230 -200z" />
    <glyph glyph-name="sacute" unicode="&#x15b;" horiz-adv-x="425" 
d="M350 309v156l-40 -40s-35 40 -105 40c-80 0 -145 -47 -145 -120c0 -151 270 -109 270 -238c0 -67 -60 -92 -105 -92c-30 0 -85 9 -117 75l-43 90v-195l35 59c1 -3 32 -59 125 -59c80 0 150 48 150 138c0 165 -275 127 -275 237c0 40 39 75 105 75c70 0 100 -45 100 -45z
M280 700h75l-210 -200z" />
    <glyph glyph-name="Zacute" unicode="&#x179;" horiz-adv-x="615" 
d="M45 0l422 615h-327l-70 -145v180h480l-422 -615h357l70 145v-180h-510zM390 900h85l-230 -200z" />
    <glyph glyph-name="zacute" unicode="&#x17a;" horiz-adv-x="480" 
d="M430 140l-58 -110h-252l310 420h-365v-140l57 110h227l-309 -420h390v140zM320 700h75l-210 -200z" />
    <glyph glyph-name="Lacute" unicode="&#x139;" horiz-adv-x="600" 
d="M295 650l-110 -55v-540l35 -20h250l75 155v-190h-510l100 55v540l-100 55h260zM275 900h85l-230 -200z" />
    <glyph glyph-name="lacute" unicode="&#x13a;" horiz-adv-x="270" 
d="M30 675l80 -25v-605l-80 -45h210l-80 45v670zM175 900h75l-210 -200z" />
    <glyph glyph-name="Lcaron" unicode="&#x13d;" horiz-adv-x="600" 
d="M295 650l-110 -55v-540l35 -20h250l75 155v-190h-510l100 55v540l-100 55h260zM330 650c0 28 22 50 50 50s50 -22 50 -50c0 -35 -5 -55 -95 -165l50 115h-5c-28 0 -50 22 -50 50z" />
    <glyph glyph-name="lcaron" unicode="&#x13e;" horiz-adv-x="275" 
d="M110 650l-80 25l130 40v-670l80 -45h-210l80 45v605zM225 650c0 28 22 50 50 50s50 -22 50 -50c0 -35 -5 -55 -95 -165l50 115h-5c-28 0 -50 22 -50 50z" />
    <glyph glyph-name="Ncaron" unicode="&#x147;" horiz-adv-x="785" 
d="M635 93v502l-110 55h245l-100 -55v-610l-505 524v-454l110 -55h-245l100 55v491l-100 104h69zM385 775l200 125l-200 -190l-200 190z" />
    <glyph glyph-name="ncaron" unicode="&#x148;" horiz-adv-x="555" 
d="M115 400l-80 25l130 40v-93c35 38 100 93 170 93s125 -40 125 -150v-270l80 -45h-210l80 45v255c0 80 -30 127 -95 127c-60 0 -120 -48 -150 -85v-297l80 -45h-210l80 45v355zM270 580l160 105l-160 -165l-160 165z" />
    <glyph glyph-name="Scircumflex" unicode="&#x15c;" horiz-adv-x="565" 
d="M475 665v-215l-65 135s-55 50 -150 50s-150 -58 -150 -118c0 -64 44 -99 166 -140c124 -42 229 -87 229 -217c0 -98 -75 -175 -210 -175c-120 0 -182 55 -182 55l-48 -55v245l65 -155s55 -60 165 -60c95 0 160 55 160 135c0 90 -50 128 -189 177
c-135 48 -206 89 -206 183c0 82 65 155 200 155c105 0 165 -45 165 -45zM275 825l-200 -125l200 190l200 -190z" />
    <glyph glyph-name="scircumflex" unicode="&#x15d;" horiz-adv-x="425" 
d="M350 465v-156l-45 81s-30 45 -100 45c-66 0 -105 -35 -105 -75c0 -110 275 -72 275 -237c0 -90 -70 -138 -150 -138c-93 0 -124 56 -125 59l-35 -59v195l43 -90c32 -66 87 -75 117 -75c45 0 105 25 105 92c0 129 -270 87 -270 238c0 73 65 120 145 120
c70 0 105 -40 105 -40zM215 615l-160 -105l160 165l160 -165z" />
    <glyph glyph-name="Utilde" unicode="&#x168;" horiz-adv-x="710" 
d="M595 595v-385c0 -134 -81 -225 -235 -225c-162 0 -245 91 -245 225v385l-100 55h250l-100 -55v-385c0 -108 67 -180 195 -180s195 72 195 180v385l-100 55h240zM476 730c-76 0 -166 65 -236 65s-99 -77 -102 -92c0 12 20 137 119 137c76 0 166 -65 236 -65
c69 0 98 76 102 91c-1 -14 -22 -136 -119 -136z" />
    <glyph glyph-name="utilde" unicode="&#x169;" horiz-adv-x="535" 
d="M385 400l-80 25l130 40v-415l80 -25l-130 -40v93c-35 -38 -100 -93 -170 -93s-125 40 -125 150v265l-80 25l130 40v-315c0 -80 30 -127 95 -127c60 0 120 48 150 85v292zM425 660c0 0 12 -105 -82 -105c-56 0 -133 45 -183 45c-54 0 -62 -65 -62 -65s-12 105 82 105
c56 0 133 -45 183 -45c54 0 62 65 62 65z" />
    <glyph glyph-name="Gbreve" unicode="&#x11e;" horiz-adv-x="705" 
d="M605 665v-245l-65 150s-60 65 -180 65c-135 0 -270 -100 -270 -295c0 -220 130 -320 275 -320c125 0 185 75 185 75v160l-120 55h260l-90 -55v-265l-40 75s-70 -80 -210 -80c-185 0 -315 140 -315 335c0 215 141 345 325 345c125 0 190 -55 190 -55zM350 725
c-137 0 -170 129 -172 142c3 -11 43 -97 172 -97c132 0 170 91 173 99c-1 -7 -33 -144 -173 -144z" />
    <glyph glyph-name="gbreve" unicode="&#x11f;" horiz-adv-x="510" 
d="M65 305c0 88 65 160 170 160c70 0 105 -30 145 -30c25 0 15 13 15 26c0 21 14 39 38 39c28 0 42 -20 42 -40c0 -27 -15 -50 -55 -50c-25 0 -60 10 -60 10s45 -41 45 -115c0 -88 -65 -160 -170 -160c-36 0 -120 -8 -120 -60c0 -30 25 -35 40 -35h225
c50 0 100 -25 100 -100s-85 -175 -245 -175c-155 0 -210 75 -210 135c0 70 64 86 98 92c-27 8 -53 34 -53 68c0 58 50 80 93 88c-63 24 -98 81 -98 147zM380 0h-206c-2 -1 -99 -6 -99 -75c0 -50 45 -105 170 -105c145 0 200 80 200 125c0 40 -30 55 -65 55zM120 305
c0 -85 52 -135 115 -135s115 50 115 135s-52 135 -115 135s-115 -50 -115 -135zM227 540c-128 0 -137 113 -137 122c3 -9 32 -82 137 -82c107 0 135 77 138 84c0 -3 -8 -124 -138 -124z" />
    <glyph glyph-name="Omacron" unicode="&#x14c;" horiz-adv-x="690" 
d="M90 325c0 -205 125 -310 255 -310s255 105 255 310s-125 310 -255 310s-255 -105 -255 -310zM345 665c185 0 310 -140 310 -340s-125 -340 -310 -340s-310 140 -310 340s125 340 310 340zM125 740v35h440v-35h-440z" />
    <glyph glyph-name="omacron" unicode="&#x14d;" horiz-adv-x="498" 
d="M235 438c-73 0 -145 -67 -145 -187c0 -166 91 -239 173 -239c74 0 145 69 145 187c0 166 -90 239 -173 239zM35 225c0 135 85 240 214 240c139 0 214 -105 214 -240s-85 -240 -214 -240c-139 0 -214 105 -214 240zM89 545v35h320v-35h-320z" />
    <glyph glyph-name="Ccircumflex" unicode="&#x108;" horiz-adv-x="650" 
d="M585 665v-245l-65 150s-60 65 -170 65c-135 0 -260 -105 -260 -295c0 -215 130 -320 280 -320c165 0 230 130 230 130s-41 -165 -250 -165c-185 0 -315 140 -315 335c0 215 131 345 315 345c115 0 180 -55 180 -55zM335 825l-200 -125l200 190l200 -190z" />
    <glyph glyph-name="ccircumflex" unicode="&#x109;" horiz-adv-x="460" 
d="M251 441c-70 0 -166 -63 -166 -200c0 -149 85 -211 185 -211c110 0 155 100 155 100s-30 -145 -180 -145c-130 0 -210 105 -210 240c0 145 99 240 218 240c100 0 159 -62 159 -117c0 -26 -13 -46 -38 -46c-24 0 -38 15 -38 37s9 25 9 41c0 10 -9 61 -94 61zM240 615
l-160 -105l160 165l160 -165z" />
    <glyph glyph-name="Gcircumflex" unicode="&#x11c;" horiz-adv-x="705" 
d="M605 665v-245l-65 150s-60 65 -180 65c-135 0 -270 -100 -270 -295c0 -220 130 -320 275 -320c125 0 185 75 185 75v160l-120 55h260l-90 -55v-265l-40 75s-70 -80 -210 -80c-185 0 -315 140 -315 335c0 215 141 345 325 345c125 0 190 -55 190 -55zM340 825l-200 -125
l200 190l200 -190z" />
    <glyph glyph-name="gcircumflex" unicode="&#x11d;" horiz-adv-x="510" 
d="M65 305c0 88 65 160 170 160c70 0 105 -30 145 -30c25 0 15 13 15 26c0 21 14 39 38 39c28 0 42 -20 42 -40c0 -27 -15 -50 -55 -50c-25 0 -60 10 -60 10s45 -41 45 -115c0 -88 -65 -160 -170 -160c-36 0 -120 -8 -120 -60c0 -30 25 -35 40 -35h225
c50 0 100 -25 100 -100s-85 -175 -245 -175c-155 0 -210 75 -210 135c0 70 64 86 98 92c-27 8 -53 34 -53 68c0 58 50 80 93 88c-63 24 -98 81 -98 147zM380 0h-206c-2 -1 -99 -6 -99 -75c0 -50 45 -105 170 -105c145 0 200 80 200 125c0 40 -30 55 -65 55zM120 305
c0 -85 52 -135 115 -135s115 50 115 135s-52 135 -115 135s-115 -50 -115 -135zM235 615l-160 -105l160 165l160 -165z" />
    <glyph glyph-name="Idotaccent" unicode="&#x130;" horiz-adv-x="320" 
d="M185 595v-540l100 -55h-250l100 55v540l-100 55h250zM110 780c0 28 22 50 50 50s50 -22 50 -50s-22 -50 -50 -50s-50 22 -50 50z" />
    <glyph glyph-name="dotlessi" unicode="&#x131;" horiz-adv-x="275" 
d="M115 400l-80 25l130 40v-420l80 -45h-210l80 45v355z" />
    <glyph glyph-name="Ycircumflex" unicode="&#x176;" horiz-adv-x="680" 
d="M237 650l-80 -50l192 -285l193 285l-80 50h218l-100 -55l-213 -316v-224l100 -55h-250l100 55v218l-217 322l-100 55h237zM350 825l-200 -125l200 190l200 -190z" />
    <glyph glyph-name="ycircumflex" unicode="&#x177;" horiz-adv-x="543" 
d="M543 450l-90 -45l-207 -521c-32 -81 -67 -109 -104 -109c-33 0 -55 20 -55 49c0 26 19 43 40 43c34 0 33 -31 51 -31c13 0 26 25 38 54l55 140l-181 375l-90 45h224l-80 -40l152 -318l127 318l-80 40h200zM280 615l-160 -105l160 165l160 -165z" />
    <glyph glyph-name="Ubreve" unicode="&#x16c;" horiz-adv-x="710" 
d="M595 595v-385c0 -134 -81 -225 -235 -225c-162 0 -245 91 -245 225v385l-100 55h250l-100 -55v-385c0 -108 67 -180 195 -180s195 72 195 180v385l-100 55h240zM360 725c-137 0 -170 129 -172 142c3 -11 43 -97 172 -97c132 0 170 91 173 99c-1 -7 -33 -144 -173 -144z
" />
    <glyph glyph-name="ubreve" unicode="&#x16d;" horiz-adv-x="535" 
d="M385 400l-80 25l130 40v-415l80 -25l-130 -40v93c-35 -38 -100 -93 -170 -93s-125 40 -125 150v265l-80 25l130 40v-315c0 -80 30 -127 95 -127c60 0 120 48 150 85v292zM252 540c-128 0 -137 113 -137 122c3 -9 32 -82 137 -82c107 0 135 77 138 84
c0 -3 -8 -124 -138 -124z" />
    <glyph glyph-name="Rcommaaccent" unicode="&#x156;" horiz-adv-x="655" 
d="M305 0h-270l100 55v540l-100 55h280c145 0 230 -75 230 -175c0 -87 -64 -154 -174 -171l187 -249l92 -55h-113l-225 300h-127v-245zM185 595v-260h130c110 0 175 55 175 140s-65 140 -175 140h-95zM290 -110c0 28 22 50 50 50s50 -22 50 -50c0 -35 -5 -55 -95 -165
l50 115h-5c-28 0 -50 22 -50 50z" />
    <glyph glyph-name="rcommaaccent" unicode="&#x157;" horiz-adv-x="405" 
d="M115 400l-80 25l130 40v-105l67 64c31 30 55 41 83 41c35 0 55 -17 55 -47c0 -21 -15 -38 -39 -38c-35 0 -30 31 -63 31c-20 0 -58 -31 -103 -81v-285l80 -45h-210l80 45v355zM165 -110c0 28 22 50 50 50s50 -22 50 -50c0 -35 -5 -55 -95 -165l50 115h-5
c-28 0 -50 22 -50 50z" />
    <glyph glyph-name="racute" unicode="&#x155;" horiz-adv-x="405" 
d="M35 425l80 -25v-355l-80 -45h210l-80 45v285c45 50 83 81 103 81c33 0 28 -31 63 -31c24 0 39 17 39 38c0 30 -20 47 -55 47c-28 0 -52 -11 -83 -41l-67 -64v105zM315 700h75l-210 -200z" />
    <glyph glyph-name="Racute" unicode="&#x154;" horiz-adv-x="655" 
d="M305 0h-270l100 55v540l-100 55h280c145 0 230 -75 230 -175c0 -87 -64 -154 -174 -171l187 -249l92 -55h-113l-225 300h-127v-245zM185 595v-260h130c110 0 175 55 175 140s-65 140 -175 140h-95zM399 900h85l-230 -200z" />
    <glyph glyph-name="obreve" unicode="&#x14f;" horiz-adv-x="498" 
d="M35 225c0 135 85 240 214 240c139 0 214 -105 214 -240s-85 -240 -214 -240c-139 0 -214 105 -214 240zM235 438c-73 0 -145 -67 -145 -187c0 -166 91 -239 173 -239c74 0 145 69 145 187c0 166 -90 239 -173 239zM249 540c-128 0 -137 113 -137 122c3 -9 32 -82 137 -82
c107 0 135 77 138 84c0 -3 -8 -124 -138 -124z" />
    <glyph glyph-name="Obreve" unicode="&#x14e;" horiz-adv-x="690" 
d="M345 665c185 0 310 -140 310 -340s-125 -340 -310 -340s-310 140 -310 340s125 340 310 340zM90 325c0 -205 125 -310 255 -310s255 105 255 310s-125 310 -255 310s-255 -105 -255 -310zM345 725c-137 0 -170 129 -172 142c3 -11 43 -97 172 -97c132 0 170 91 173 99
c-1 -7 -33 -144 -173 -144z" />
    <glyph glyph-name="Eng" unicode="&#x14a;" horiz-adv-x="785" 
d="M635 93v502l-110 55h245l-100 -55v-555c0 -165 -40 -265 -140 -265c-30 0 -62 15 -62 51c0 25 18 39 38 39c45 0 34 -55 59 -55c30 0 70 60 70 190v21l-470 488v-454l110 -55h-245l100 55v491l-100 104h69z" />
    <glyph glyph-name="eng" unicode="&#x14b;" horiz-adv-x="545" 
d="M115 400l-80 25l130 40v-93c35 38 100 93 170 93s125 -40 125 -150v-275c0 -145 -40 -265 -140 -265c-30 0 -62 15 -62 51c0 25 18 39 38 39c45 0 34 -60 59 -60c30 0 55 65 55 195v300c0 80 -30 127 -95 127c-60 0 -120 -48 -150 -85v-297l80 -45h-210l80 45v355z" />
    <glyph glyph-name="Jcircumflex" unicode="&#x134;" horiz-adv-x="505" 
d="M490 650l-100 -55v-400c0 -120 -55 -210 -180 -210c-134 0 -170 92 -170 150c0 55 32 78 59 78s41 -18 41 -40c0 -38 -45 -33 -45 -73s35 -85 115 -85s130 48 130 170v410l-120 55h270zM360 825l-200 -125l200 190l200 -190z" />
    <glyph glyph-name="jcircumflex" unicode="&#x135;" horiz-adv-x="255" 
d="M115 400l-80 25l130 40v-425c0 -145 -40 -265 -140 -265c-30 0 -62 15 -62 51c0 25 18 39 38 39c45 0 34 -60 59 -60c30 0 55 65 55 195v400zM139 615l-160 -105l160 165l160 -165z" />
    <glyph glyph-name="uni012D" unicode="&#x12d;" horiz-adv-x="275" 
d="M35 425l80 -25v-355l-80 -45h210l-80 45v420zM129 540c-128 0 -137 113 -137 122c3 -9 32 -82 137 -82c107 0 135 77 138 84c0 -3 -8 -124 -138 -124z" />
    <glyph glyph-name="Ibreve" unicode="&#x12c;" horiz-adv-x="320" 
d="M185 595v-540l100 -55h-250l100 55v540l-100 55h250zM160 725c-137 0 -170 129 -172 142c4 -11 43 -97 172 -97c132 0 170 91 173 99c-1 -7 -33 -144 -173 -144z" />
    <glyph glyph-name="itilde" unicode="&#x129;" horiz-adv-x="275" 
d="M115 400l-80 25l130 40v-420l80 -45h-210l80 45v355zM300 660c0 0 12 -105 -82 -105c-56 0 -133 45 -183 45c-54 0 -62 -65 -62 -65s-12 105 82 105c56 0 133 -45 183 -45c54 0 62 65 62 65z" />
    <glyph glyph-name="Itilde" unicode="&#x128;" horiz-adv-x="320" 
d="M185 595v-540l100 -55h-250l100 55v540l-100 55h250zM286 730c-76 0 -166 65 -236 65s-99 -77 -102 -92c0 12 20 137 119 137c76 0 166 -65 236 -65c69 0 98 76 102 91c-1 -14 -22 -136 -119 -136z" />
    <glyph glyph-name="hcircumflex" unicode="&#x125;" horiz-adv-x="550" 
d="M110 650l-80 25l130 40v-343c35 38 100 93 170 93s125 -40 125 -150v-270l80 -45h-210l80 45v255c0 80 -30 127 -95 127c-60 0 -120 -48 -150 -85v-297l80 -45h-210l80 45v605zM190 815l-160 -105l160 165l160 -165z" />
    <glyph glyph-name="Hcircumflex" unicode="&#x124;" horiz-adv-x="765" 
d="M730 650l-100 -55v-540l100 -55h-250l100 55v265h-395v-265l100 -55h-250l100 55v540l-100 55h250l-100 -55v-240h395v240l-100 55h250zM383 825l-200 -125l200 190l200 -190z" />
    <glyph glyph-name="ebreve" unicode="&#x115;" horiz-adv-x="470" 
d="M425 270h-339c-1 -10 -1 -19 -1 -29c0 -149 85 -211 185 -211c110 0 155 100 155 100s-30 -145 -180 -145c-130 0 -210 105 -210 240c0 146 99 240 218 240c127 0 172 -85 172 -195zM251 441c-63 0 -138 -45 -160 -141h194c50 0 85 5 85 45c0 50 -49 96 -119 96zM239 540
c-128 0 -137 113 -137 122c3 -9 32 -82 137 -82c107 0 135 77 138 84c0 -3 -8 -124 -138 -124z" />
    <glyph glyph-name="Ebreve" unicode="&#x114;" horiz-adv-x="635" 
d="M185 595v-240h165l60 95v-225l-60 95h-165v-265l35 -20h275l70 145v-180h-530l100 55v540l-100 55h515v-180l-70 145h-260zM325 725c-137 0 -170 129 -172 142c3 -11 43 -97 172 -97c132 0 170 91 173 99c-1 -7 -33 -144 -173 -144z" />
    <glyph glyph-name="Igrave" unicode="&#xcc;" horiz-adv-x="320" 
d="M185 595v-540l100 -55h-250l100 55v540l-100 55h250zM-15 900h85l145 -200z" />
    <glyph glyph-name="igrave" unicode="&#xec;" horiz-adv-x="275" 
d="M115 400l-80 25l130 40v-420l80 -45h-210l80 45v355zM-5 700h75l135 -200z" />
    <glyph glyph-name="Ograve" unicode="&#xd2;" horiz-adv-x="690" 
d="M90 325c0 -205 125 -310 255 -310s255 105 255 310s-125 310 -255 310s-255 -105 -255 -310zM345 665c185 0 310 -140 310 -340s-125 -340 -310 -340s-310 140 -310 340s125 340 310 340zM145 900h85l145 -200z" />
    <glyph glyph-name="ograve" unicode="&#xf2;" horiz-adv-x="498" 
d="M235 438c-73 0 -145 -67 -145 -187c0 -166 91 -239 173 -239c74 0 145 69 145 187c0 166 -90 239 -173 239zM35 225c0 135 85 240 214 240c139 0 214 -105 214 -240s-85 -240 -214 -240c-139 0 -214 105 -214 240zM75 700h75l135 -200z" />
    <glyph glyph-name="space" unicode=" " horiz-adv-x="260" 
 />
    <glyph glyph-name="zero" unicode="0" horiz-adv-x="550" 
d="M82 252c0 -152 110 -235 214 -235c103 0 172 87 172 181c0 152 -111 235 -215 235c-103 0 -171 -86 -171 -181zM35 225c0 132 98 240 240 240s240 -108 240 -240s-98 -240 -240 -240s-240 108 -240 240z" />
    <glyph glyph-name="two" unicode="2" horiz-adv-x="460" 
d="M415 120v-120h-390l194 165c86 73 126 110 126 170s-50 105 -125 105s-125 -35 -125 -80c0 -25 34 -19 34 -54c0 -18 -15 -34 -36 -34c-23 0 -48 18 -48 58c0 60 50 135 175 135c140 0 175 -85 175 -130c0 -70 -46 -98 -147 -184l-119 -101h246z" />
    <glyph glyph-name="one" unicode="1" horiz-adv-x="315" 
d="M135 390h-90l140 75v-420l110 -45h-270l110 45v345z" />
    <glyph glyph-name="three" unicode="3" horiz-adv-x="500" 
d="M230 225c-42 0 -71 -17 -75 -20l205 195h-270l-40 -70v120h405l-204 -195c124 -5 204 -84 204 -210c0 -125 -90 -210 -225 -210c-115 0 -185 70 -185 135c0 26 12 46 37 46c28 0 35 -22 35 -41c0 -17 -9 -27 -9 -37c0 -45 52 -78 122 -78c75 0 170 40 170 185
c0 125 -85 180 -170 180z" />
    <glyph glyph-name="four" unicode="4" horiz-adv-x="525" 
d="M235 -150l80 45v105h-295l345 465v-435h140v-30h-140v-105l80 -45h-210zM315 30v317l-235 -317h235z" />
    <glyph glyph-name="five" unicode="5" horiz-adv-x="500" 
d="M409 400h-285l-25 -203s61 58 141 58c130 0 215 -80 215 -210c0 -125 -90 -210 -225 -210c-115 0 -185 70 -185 135c0 26 12 46 37 46c28 0 35 -22 35 -41c0 -17 -9 -27 -9 -37c0 -45 52 -78 122 -78c75 0 170 40 170 185c0 125 -85 180 -170 180
c-70 0 -140 -60 -170 -100l39 325h342z" />
    <glyph glyph-name="six" unicode="6" horiz-adv-x="515" 
d="M474 715c-17 -4 -355 -83 -382 -417c26 48 80 112 183 112c100 0 205 -70 205 -210c0 -125 -100 -215 -205 -215c-145 0 -240 110 -240 270c0 390 429 458 439 460zM255 380c-103 0 -148 -79 -165 -126c0 -184 120 -239 190 -239c80 0 150 55 150 160
c0 115 -70 205 -175 205z" />
    <glyph glyph-name="seven" unicode="7" horiz-adv-x="480" 
d="M20 330v120h425l-255 -600h-55l265 550h-340z" />
    <glyph glyph-name="eight" unicode="8" horiz-adv-x="495" 
d="M410 485c0 -79 -86 -120 -134 -136c90 -42 184 -89 184 -194c0 -104 -90 -170 -213 -170c-129 0 -212 66 -212 165c0 110 109 166 166 188c-70 35 -131 75 -131 147c0 85 87 130 170 130c84 0 170 -45 170 -130zM410 155c0 91 -98 130 -189 173
c-43 -23 -131 -81 -131 -173c0 -95 71 -145 157 -145s163 50 163 145zM120 485c0 -61 63 -94 136 -127c34 15 104 53 104 127c0 75 -64 105 -120 105s-120 -30 -120 -105z" />
    <glyph glyph-name="nine" unicode="9" horiz-adv-x="515" 
d="M40 -265c18 4 356 83 383 417c-27 -49 -81 -112 -183 -112c-100 0 -205 70 -205 210c0 125 100 215 205 215c145 0 240 -110 240 -270c0 -390 -429 -458 -440 -460zM260 70c102 0 147 79 165 126c-1 184 -120 239 -190 239c-80 0 -150 -55 -150 -160
c0 -115 70 -205 175 -205z" />
    <glyph glyph-name="period" unicode="." horiz-adv-x="220" 
d="M60 45c0 28 22 50 50 50s50 -22 50 -50s-22 -50 -50 -50s-50 22 -50 50z" />
    <glyph glyph-name="comma" unicode="," horiz-adv-x="220" 
d="M60 45c0 28 22 50 50 50s50 -22 50 -50c0 -35 -5 -55 -95 -165l50 115h-5c-28 0 -50 22 -50 50z" />
    <glyph glyph-name="exclam" unicode="!" horiz-adv-x="270" 
d="M95 650l80 65l-40 -565zM85 45c0 28 22 50 50 50s50 -22 50 -50s-22 -50 -50 -50s-50 22 -50 50z" />
    <glyph glyph-name="semicolon" unicode=";" horiz-adv-x="260" 
d="M80 385c0 28 22 50 50 50s50 -22 50 -50s-22 -50 -50 -50s-50 22 -50 50zM80 45c0 28 22 50 50 50s50 -22 50 -50c0 -35 -5 -55 -95 -165l50 115h-5c-28 0 -50 22 -50 50z" />
    <glyph glyph-name="colon" unicode=":" horiz-adv-x="260" 
d="M80 50c0 28 22 50 50 50s50 -22 50 -50s-22 -50 -50 -50s-50 22 -50 50zM80 385c0 28 22 50 50 50s50 -22 50 -50s-22 -50 -50 -50s-50 22 -50 50z" />
    <glyph glyph-name="percent" horiz-adv-x="745" 
d="M150 0h-45l490 650h45zM50 520c0 69 52 145 145 145s145 -76 145 -145s-52 -145 -145 -145s-145 76 -145 145zM90 520c0 -50 36 -108 105 -108s105 58 105 108s-36 108 -105 108s-105 -58 -105 -108zM405 130c0 69 52 145 145 145s145 -76 145 -145s-52 -145 -145 -145
s-145 76 -145 145zM445 130c0 -50 36 -108 105 -108s105 58 105 108s-36 108 -105 108s-105 -58 -105 -108z" />
    <glyph glyph-name="perthousand" unicode="&#x2030;" horiz-adv-x="1075" 
d="M150 0h-45l490 650h45zM50 520c0 69 52 145 145 145s145 -76 145 -145s-52 -145 -145 -145s-145 76 -145 145zM90 520c0 -50 36 -108 105 -108s105 58 105 108s-36 108 -105 108s-105 -58 -105 -108zM405 130c0 69 52 145 145 145s145 -76 145 -145s-52 -145 -145 -145
s-145 76 -145 145zM445 130c0 -50 36 -108 105 -108s105 58 105 108s-36 108 -105 108s-105 -58 -105 -108zM735 130c0 69 52 145 145 145s145 -76 145 -145s-52 -145 -145 -145s-145 76 -145 145zM775 130c0 -50 36 -108 105 -108s105 58 105 108s-36 108 -105 108
s-105 -58 -105 -108z" />
    <glyph glyph-name="hyphen" unicode="-" horiz-adv-x="430" 
d="M60 230v35h310v-35h-310z" />
    <glyph glyph-name="endash" unicode="&#x2013;" horiz-adv-x="670" 
d="M70 240v35h530v-35h-530z" />
    <glyph glyph-name="emdash" unicode="&#x2014;" horiz-adv-x="770" 
d="M0 240v35h770v-35h-770z" />
    <glyph glyph-name="quoteleft" unicode="&#x2018;" horiz-adv-x="220" 
d="M160 550c0 -28 -22 -50 -50 -50s-50 22 -50 50c0 35 5 55 95 165l-50 -115h5c28 0 50 -22 50 -50z" />
    <glyph glyph-name="quoteright" unicode="&#x2019;" horiz-adv-x="220" 
d="M60 650c0 28 22 50 50 50s50 -22 50 -50c0 -35 -5 -55 -95 -165l50 115h-5c-28 0 -50 22 -50 50z" />
    <glyph glyph-name="quotedblleft" unicode="&#x201c;" horiz-adv-x="360" 
d="M300 550c0 -28 -22 -50 -50 -50s-50 22 -50 50c0 35 5 55 95 165l-50 -115h5c28 0 50 -22 50 -50zM160 550c0 -28 -22 -50 -50 -50s-50 22 -50 50c0 35 5 55 95 165l-50 -115h5c28 0 50 -22 50 -50z" />
    <glyph glyph-name="quotedblright" unicode="&#x201d;" horiz-adv-x="360" 
d="M60 650c0 28 22 50 50 50s50 -22 50 -50c0 -35 -5 -55 -95 -165l50 115h-5c-28 0 -50 22 -50 50zM200 650c0 28 22 50 50 50s50 -22 50 -50c0 -35 -5 -55 -95 -165l50 115h-5c-28 0 -50 22 -50 50z" />
    <glyph glyph-name="quotesinglbase" unicode="&#x201a;" horiz-adv-x="220" 
d="M60 45c0 28 22 50 50 50s50 -22 50 -50c0 -35 -5 -55 -95 -165l50 115h-5c-28 0 -50 22 -50 50z" />
    <glyph glyph-name="quotedblbase" unicode="&#x201e;" horiz-adv-x="360" 
d="M60 45c0 28 22 50 50 50s50 -22 50 -50c0 -35 -5 -55 -95 -165l50 115h-5c-28 0 -50 22 -50 50zM200 45c0 28 22 50 50 50s50 -22 50 -50c0 -35 -5 -55 -95 -165l50 115h-5c-28 0 -50 22 -50 50z" />
    <glyph glyph-name="ellipsis" unicode="&#x2026;" horiz-adv-x="780" 
d="M90 45c0 28 22 50 50 50s50 -22 50 -50s-22 -50 -50 -50s-50 22 -50 50zM350 45c0 28 22 50 50 50s50 -22 50 -50s-22 -50 -50 -50s-50 22 -50 50zM610 45c0 28 22 50 50 50s50 -22 50 -50s-22 -50 -50 -50s-50 22 -50 50z" />
    <glyph glyph-name="guillemotright" unicode="&#xbb;" horiz-adv-x="525" 
d="M240 0l140 225l-140 225l215 -225zM70 0l140 225l-140 225l215 -225z" />
    <glyph glyph-name="guilsinglright" unicode="&#x203a;" horiz-adv-x="355" 
d="M70 0l140 225l-140 225l215 -225z" />
    <glyph glyph-name="guillemotleft" unicode="&#xab;" horiz-adv-x="525" 
d="M145 225l140 -225l-215 225l215 225zM315 225l140 -225l-215 225l215 225z" />
    <glyph glyph-name="guilsinglleft" unicode="&#x2039;" horiz-adv-x="355" 
d="M145 225l140 -225l-215 225l215 225z" />
    <glyph glyph-name="underscore" unicode="_" horiz-adv-x="640" 
d="M60 0v35h520v-35h-520z" />
    <glyph glyph-name="bracketleft" unicode="[" horiz-adv-x="365" 
d="M130 -210v910h195v-35h-155v-840h155v-35h-195z" />
    <glyph glyph-name="bracketright" unicode="]" horiz-adv-x="365" 
d="M235 700v-910h-195v35h155v840h-155v35h195z" />
    <glyph glyph-name="backslash" unicode="\" horiz-adv-x="475" 
d="M475 -210h-40l-395 910h40z" />
    <glyph glyph-name="braceright" unicode="}" horiz-adv-x="346" 
d="M187 130c0 -55 25 -95 25 -155c0 -155 -172 -185 -172 -185s122 45 122 140c0 60 -25 96 -25 150c0 112 108 162 115 165c-7 2 -115 53 -115 165c0 54 25 90 25 150c0 95 -122 140 -122 140s172 -30 172 -185c0 -60 -25 -100 -25 -155c0 -86 107 -113 118 -115
c-12 -4 -118 -31 -118 -115z" />
    <glyph glyph-name="bar" unicode="|" horiz-adv-x="300" 
d="M170 -210h-40v910h40v-910z" />
    <glyph glyph-name="braceleft" unicode="{" horiz-adv-x="346" 
d="M159 130c0 85 -108 112 -119 115c6 1 119 27 119 115c0 55 -25 95 -25 155c0 155 172 185 172 185s-122 -45 -122 -140c0 -60 25 -96 25 -150c0 -112 -108 -163 -115 -165c7 -3 115 -53 115 -165c0 -54 -25 -90 -25 -150c0 -95 122 -140 122 -140s-172 30 -172 185
c0 60 25 100 25 155z" />
    <glyph glyph-name="asciitilde" unicode="~" horiz-adv-x="600" 
d="M80 250c0 0 45 75 120 75c85 0 130 -65 200 -65c55 0 90 60 90 60l30 -20s-45 -75 -120 -75c-85 0 -130 65 -200 65c-55 0 -90 -60 -90 -60z" />
    <glyph glyph-name="brokenbar" unicode="&#xa6;" horiz-adv-x="300" 
d="M170 -210h-40v410h40v-410zM170 290h-40v410h40v-410z" />
    <glyph glyph-name="parenleft" unicode="(" horiz-adv-x="369" 
d="M110 245c0 341 246 416 259 420c-9 -4 -204 -89 -204 -420s195 -416 204 -420c-13 4 -259 79 -259 420z" />
    <glyph glyph-name="parenright" unicode=")" horiz-adv-x="369" 
d="M259 245c0 -341 -246 -416 -259 -420c9 4 204 89 204 420s-195 416 -204 420c13 -4 259 -79 259 -420z" />
    <glyph glyph-name="quotesingle" unicode="'" horiz-adv-x="220" 
d="M70 650h80l-40 -220z" />
    <glyph glyph-name="quotedbl" unicode="&#x22;" horiz-adv-x="350" 
d="M70 650h80l-40 -220zM200 650h80l-40 -220z" />
    <glyph glyph-name="numbersign" unicode="#" horiz-adv-x="662" 
d="M90 390v35h184l98 225h40l-98 -225h120l98 225h40l-98 -225h148v-35h-163l-56 -130h169v-35h-184l-98 -225h-40l97 225h-119l-98 -225h-40l97 225h-147v35h162l57 130h-169zM299 390l-56 -130h119l57 130h-120z" />
    <glyph glyph-name="ampersand" unicode="&#x26;" horiz-adv-x="770" 
d="M725 430l-115 -60s-31 -159 -125 -273c48 -41 98 -67 145 -67c65 0 75 90 75 90s20 -135 -85 -135c-55 0 -113 30 -168 77c-48 -45 -109 -77 -187 -77c-100 0 -195 65 -195 185c0 104 79 166 163 216c-18 49 -28 95 -28 134c0 105 75 145 145 145c80 0 125 -40 125 -105
c0 -72 -98 -115 -190 -171c39 -96 106 -202 181 -274c86 105 119 260 119 260l-85 55h225zM285 20c59 0 108 24 147 60c-78 75 -149 182 -190 282c-65 -45 -117 -101 -117 -182c0 -65 40 -160 160 -160zM250 535c0 -35 10 -78 27 -125c82 46 158 86 158 150
c0 40 -35 75 -85 75c-45 0 -100 -30 -100 -100z" />
    <glyph glyph-name="slash" unicode="/" horiz-adv-x="475" 
d="M40 -210h-40l395 910h40z" />
    <glyph glyph-name="asciicircum" unicode="^" horiz-adv-x="540" 
d="M70 465l200 200l200 -200l-25 -24l-175 175l-175 -175z" />
    <glyph glyph-name="question" unicode="?" horiz-adv-x="520" 
d="M265 300l-28 -150l-30 195h33c105 0 180 60 180 170c0 105 -80 170 -170 170c-95 0 -150 -60 -150 -105c0 -35 35 -38 35 -75c0 -22 -16 -40 -41 -40c-30 0 -54 25 -54 70c0 95 90 180 210 180c112 0 220 -75 220 -215c0 -110 -85 -200 -205 -200zM190 45
c0 28 22 50 50 50s50 -22 50 -50s-22 -50 -50 -50s-50 22 -50 50z" />
    <glyph glyph-name="at" unicode="@" horiz-adv-x="985" 
d="M522 465c100 0 116 -80 116 -80l14 65h51l-87 -418c156 41 262 135 262 283c0 182 -146 313 -368 313s-403 -171 -403 -403c0 -242 181 -403 403 -403c111 0 212 45 285 118l25 -25c-80 -80 -188 -130 -310 -130c-243 0 -440 177 -440 440c0 253 197 440 440 440
s405 -147 405 -350c0 -208 -175 -295 -360 -330l25 117c-47 -74 -115 -117 -170 -117c-81 0 -130 70 -130 177c0 179 138 303 242 303zM611 250c23 102 2 190 -80 190c-90 0 -195 -105 -195 -270c0 -102 47 -145 102 -145c50 0 139 65 158 155z" />
    <glyph glyph-name="greater" unicode="&#x3e;" horiz-adv-x="465" 
d="M385 240l-242 -202l-23 27l211 175l-211 175l23 27z" />
    <glyph glyph-name="equal" unicode="=" horiz-adv-x="600" 
d="M80 155v35h440v-35h-440zM80 285v35h440v-35h-440z" />
    <glyph glyph-name="less" unicode="&#x3c;" horiz-adv-x="465" 
d="M322 38l-242 202l242 202l23 -27l-211 -175l211 -175z" />
    <glyph glyph-name="plus" unicode="+" horiz-adv-x="580" 
d="M70 215v40h200v210h40v-210h200v-40h-200v-205h-40v205h-200z" />
    <glyph glyph-name="asterisk" unicode="*" horiz-adv-x="448" 
d="M189 500c0 42 25 76 28 138c-52 -34 -68 -73 -105 -93c-26 -15 -48 -8 -57 7c-9 16 -4 38 22 53c36 21 77 17 132 45c-55 28 -96 23 -132 45c-26 15 -31 37 -22 52c9 16 31 23 57 8c37 -21 53 -60 105 -93c-3 62 -28 95 -28 138c0 30 17 45 35 45s35 -15 35 -45
c0 -42 -25 -76 -28 -137c52 33 68 71 105 92c26 15 48 8 57 -8c9 -15 4 -37 -22 -52c-37 -22 -78 -17 -133 -45c55 -29 96 -24 133 -45c26 -15 31 -37 22 -53c-9 -15 -31 -22 -57 -7c-37 20 -53 58 -105 92c3 -62 28 -95 28 -137c0 -30 -17 -45 -35 -45s-35 15 -35 45z" />
    <glyph glyph-name="bullet" unicode="&#x2022;" horiz-adv-x="450" 
d="M100 315c0 69 56 125 125 125s125 -56 125 -125s-56 -125 -125 -125s-125 56 -125 125z" />
    <glyph glyph-name="periodcentered" unicode="&#xb7;" horiz-adv-x="330" 
d="M115 300c0 28 22 50 50 50s50 -22 50 -50s-22 -50 -50 -50s-50 22 -50 50z" />
    <glyph glyph-name="paragraph" unicode="&#xb6;" horiz-adv-x="700" 
d="M610 665h-90v-865h-40v865h-100v-865h-40v400c-138 0 -250 100 -250 250s112 250 250 250h270v-35z" />
    <glyph glyph-name="plusminus" unicode="&#xb1;" horiz-adv-x="600" 
d="M80 300v35h202v200h35v-200h203v-35h-203v-200h-35v200h-202zM80 0v35h440v-35h-440z" />
    <glyph glyph-name="divide" unicode="&#xf7;" horiz-adv-x="580" 
d="M70 215v40h440v-40h-440zM240 70c0 28 22 50 50 50s50 -22 50 -50s-22 -50 -50 -50s-50 22 -50 50zM240 400c0 28 22 50 50 50s50 -22 50 -50s-22 -50 -50 -50s-50 22 -50 50z" />
    <glyph glyph-name="multiply" unicode="&#xd7;" horiz-adv-x="580" 
d="M100 395l30 30l160 -160l160 160l30 -30l-160 -160l160 -160l-30 -30l-160 160l-160 -160l-30 30l160 160z" />
    <glyph glyph-name="copyright" unicode="&#xa9;" horiz-adv-x="1020" 
d="M70 225c0 243 197 440 440 440s440 -197 440 -440s-197 -440 -440 -440s-440 197 -440 440zM107 225c0 -222 181 -403 403 -403s403 181 403 403s-181 403 -403 403s-403 -181 -403 -403zM515 441c-70 0 -166 -63 -166 -200c0 -149 85 -211 185 -211
c110 0 155 100 155 100s-30 -145 -180 -145c-130 0 -210 105 -210 240c0 145 99 240 218 240c100 0 159 -62 159 -117c0 -26 -13 -46 -38 -46c-24 0 -38 15 -38 37s9 25 9 41c0 10 -9 61 -94 61z" />
    <glyph glyph-name="registered" unicode="&#xae;" horiz-adv-x="1020" 
d="M70 225c0 243 197 440 440 440s440 -197 440 -440s-197 -440 -440 -440s-440 197 -440 440zM107 225c0 -222 181 -403 403 -403s403 181 403 403s-181 403 -403 403s-403 -181 -403 -403zM375 405l-80 45h210c80 0 180 -30 180 -125c0 -70 -54 -103 -114 -116l109 -164
l70 -45h-99l-133 203h-93v-158l80 -45h-210l80 45v360zM425 233h75c70 0 130 22 130 92s-65 95 -125 95h-53l-27 -15v-172z" />
    <glyph glyph-name="trademark" unicode="&#x2122;" horiz-adv-x="760" 
d="M565 360l55 35v202l-110 -252l-110 245v-195l55 -35h-140l55 35v220l-55 35h108l97 -219l96 219h104l-55 -35v-220l55 -35h-155zM90 360l55 35v230h-60l-45 -80v105h255v-105l-45 80h-60v-230l55 -35h-155z" />
    <glyph glyph-name="section" unicode="&#xa7;" horiz-adv-x="484" 
d="M145 -66c30 0 40 -20 40 -37c0 -23 -13 -28 -13 -49s16 -48 65 -48c52 0 95 35 95 93c0 141 -252 198 -252 362c0 90 89 149 127 169c-51 46 -95 95 -95 161c0 70 52 130 135 130c90 0 137 -51 137 -106c0 -33 -22 -53 -45 -53c-30 0 -40 20 -40 37c0 23 13 28 13 49
s-16 48 -65 48c-52 0 -95 -35 -95 -93c0 -141 252 -198 252 -362c0 -91 -89 -149 -127 -170c51 -46 95 -94 95 -160c0 -70 -52 -130 -135 -130c-90 0 -137 51 -137 106c0 33 22 53 45 53zM359 225c0 76 -73 130 -139 188c-27 -19 -95 -75 -95 -148c0 -76 72 -130 139 -188
c26 19 95 75 95 148z" />
    <glyph glyph-name="dagger" unicode="&#x2020;" horiz-adv-x="422" 
d="M60 650c0 20 14 36 44 36c32 0 54 -22 97 -26c-3 53 -26 77 -26 115c0 30 16 46 36 46s36 -16 36 -46c0 -38 -23 -62 -26 -115c43 4 64 26 97 26c30 0 44 -16 44 -36s-14 -36 -44 -36c-33 0 -54 22 -97 25c2 -53 7 -81 30 -109l-40 -395l-40 395c24 28 28 56 30 109
c-43 -3 -65 -25 -97 -25c-30 0 -44 16 -44 36z" />
    <glyph glyph-name="daggerdbl" unicode="&#x2021;" horiz-adv-x="422" 
d="M211 89c-20 0 -36 14 -36 44c0 37 23 59 26 111c-43 -3 -65 -25 -97 -25c-30 0 -44 16 -44 36s14 36 44 36c32 0 54 -22 97 -26c-2 52 -14 72 -36 100c0 0 36 30 36 87c0 58 -36 88 -36 88c24 28 34 47 36 99c-43 -3 -65 -25 -97 -25c-30 0 -44 16 -44 36s14 36 44 36
c32 0 54 -22 97 -26c-3 52 -26 74 -26 112c0 30 16 44 36 44s36 -14 36 -44c0 -38 -23 -60 -26 -112c43 4 64 26 97 26c30 0 44 -16 44 -36s-14 -36 -44 -36c-33 0 -54 22 -97 25c2 -51 13 -71 35 -99c-2 -1 -35 -22 -35 -88c0 -67 36 -87 36 -87c-25 -28 -35 -48 -36 -100
c43 4 64 26 97 26c30 0 44 -16 44 -36s-14 -36 -44 -36c-33 0 -54 22 -97 25c3 -52 26 -74 26 -111c0 -30 -16 -44 -36 -44z" />
    <glyph glyph-name="afii61352" unicode="&#x2116;" horiz-adv-x="905" 
d="M510 595v-482l-407 537h-63l100 -132v-463l-100 -55h245l-110 55v417l370 -487v610l100 55h-245zM655 540c0 66 40 125 110 125s110 -59 110 -125s-40 -125 -110 -125s-110 59 -110 125zM702 540c0 -70 30 -102 63 -102s63 32 63 102s-30 102 -63 102s-63 -32 -63 -102z
M655 315v35h220v-35h-220z" />
    <glyph glyph-name="degree" unicode="&#xb0;" horiz-adv-x="390" 
d="M70 590c0 69 52 125 125 125s125 -56 125 -125s-52 -125 -125 -125s-125 56 -125 125zM108 590c0 -50 37 -90 87 -90s87 40 87 90s-37 90 -87 90s-87 -40 -87 -90z" />
    <glyph glyph-name="uni2031" unicode="&#x2031;" horiz-adv-x="1405" 
d="M150 0h-45l490 650h45zM50 520c0 69 52 145 145 145s145 -76 145 -145s-52 -145 -145 -145s-145 76 -145 145zM90 520c0 -50 36 -108 105 -108s105 58 105 108s-36 108 -105 108s-105 -58 -105 -108zM405 130c0 69 52 145 145 145s145 -76 145 -145s-52 -145 -145 -145
s-145 76 -145 145zM445 130c0 -50 36 -108 105 -108s105 58 105 108s-36 108 -105 108s-105 -58 -105 -108zM735 130c0 69 52 145 145 145s145 -76 145 -145s-52 -145 -145 -145s-145 76 -145 145zM775 130c0 -50 36 -108 105 -108s105 58 105 108s-36 108 -105 108
s-105 -58 -105 -108zM1065 130c0 69 52 145 145 145s145 -76 145 -145s-52 -145 -145 -145s-145 76 -145 145zM1105 130c0 -50 36 -108 105 -108s105 58 105 108s-36 108 -105 108s-105 -58 -105 -108z" />
    <glyph glyph-name="questiondown" unicode="&#xbf;" horiz-adv-x="510" 
d="M255 190l28 150l30 -195h-33c-105 0 -180 -60 -180 -170c0 -105 80 -170 170 -170c95 0 150 60 150 105c0 35 -35 38 -35 75c0 22 16 40 41 40c30 0 54 -25 54 -70c0 -95 -90 -180 -210 -180c-112 0 -220 75 -220 215c0 110 85 200 205 200zM330 445
c0 -28 -22 -50 -50 -50s-50 22 -50 50s22 50 50 50s50 -22 50 -50z" />
    <glyph glyph-name="exclamdown" unicode="&#xa1;" horiz-adv-x="270" 
d="M175 -160l-80 -65l40 565zM185 445c0 -28 -22 -50 -50 -50s-50 22 -50 50s22 50 50 50s50 -22 50 -50z" />
    <glyph glyph-name="uni203B" unicode="&#x203b;" horiz-adv-x="760" 
d="M118 35l-28 28l262 262l-262 262l28 28l262 -262l262 262l28 -28l-262 -262l262 -262l-28 -28l-262 262zM330 125c0 28 22 50 50 50s50 -22 50 -50s-22 -50 -50 -50s-50 22 -50 50zM330 525c0 28 22 50 50 50s50 -22 50 -50s-22 -50 -50 -50s-50 22 -50 50zM130 325
c0 28 22 50 50 50s50 -22 50 -50s-22 -50 -50 -50s-50 22 -50 50zM530 325c0 28 22 50 50 50s50 -22 50 -50s-22 -50 -50 -50s-50 22 -50 50z" />
    <glyph glyph-name="uni2042" unicode="&#x2042;" horiz-adv-x="746" 
d="M234 730c9 16 29 19 51 7c24 -14 44 -50 80 -75c-3 44 -23 80 -23 108c0 25 13 40 31 40s31 -15 31 -40c0 -27 -20 -63 -24 -107c37 25 57 60 81 74c22 12 42 9 51 -7s2 -34 -20 -47c-24 -14 -65 -14 -105 -33c40 -19 81 -20 105 -33c26 -15 26 -36 20 -47
c-7 -11 -25 -22 -51 -7c-24 13 -44 48 -81 73c4 -43 24 -79 24 -106c0 -30 -18 -40 -31 -40s-31 10 -31 40c0 27 20 63 23 107c-36 -25 -56 -60 -80 -74c-26 -15 -44 -4 -51 7c-6 11 -6 32 20 47c24 13 64 14 104 33c-40 19 -80 19 -104 33c-22 13 -29 31 -20 47zM64 440
c9 16 29 19 51 7c24 -14 44 -50 80 -75c-3 44 -23 80 -23 108c0 25 13 40 31 40s31 -15 31 -40c0 -27 -20 -63 -24 -107c37 25 57 60 81 74c22 12 42 9 51 -7s2 -34 -20 -47c-24 -14 -65 -14 -105 -33c40 -19 81 -20 105 -33c26 -15 26 -36 20 -47c-7 -11 -25 -22 -51 -7
c-24 13 -44 48 -81 73c4 -43 24 -79 24 -106c0 -30 -18 -40 -31 -40s-31 10 -31 40c0 27 20 63 23 107c-36 -25 -56 -60 -80 -74c-26 -15 -44 -4 -51 7c-6 11 -6 32 20 47c24 13 64 14 104 33c-40 19 -80 19 -104 33c-22 13 -29 31 -20 47zM404 440c9 16 29 19 51 7
c24 -14 44 -50 80 -75c-3 44 -23 80 -23 108c0 25 13 40 31 40s31 -15 31 -40c0 -27 -20 -63 -24 -107c37 25 57 60 81 74c22 12 42 9 51 -7s2 -34 -20 -47c-24 -14 -65 -14 -105 -33c40 -19 81 -20 105 -33c26 -15 26 -36 20 -47c-7 -11 -25 -22 -51 -7
c-24 13 -44 48 -81 73c4 -43 24 -79 24 -106c0 -30 -18 -40 -31 -40s-31 10 -31 40c0 27 20 63 23 107c-36 -25 -56 -60 -80 -74c-26 -15 -44 -4 -51 7c-6 11 -6 32 20 47c24 13 64 14 104 33c-40 19 -80 19 -104 33c-22 13 -29 31 -20 47z" />
    <glyph glyph-name="uni203D" unicode="&#x203d;" horiz-adv-x="520" 
d="M202 540l80 65l-23 -260c97 5 161 65 161 170s-80 170 -170 170c-95 0 -150 -60 -150 -105c0 -35 35 -38 35 -75c0 -22 -16 -40 -41 -40c-30 0 -54 25 -54 70c0 95 90 180 210 180c112 0 220 -75 220 -215c0 -110 -80 -200 -200 -200h-15l-13 -150zM195 45
c0 28 22 50 50 50s50 -22 50 -50s-22 -50 -50 -50s-50 22 -50 50z" />
    <glyph glyph-name="uni2051" unicode="&#x2051;" horiz-adv-x="446" 
d="M84 730c9 16 29 19 51 7c24 -14 44 -50 80 -75c-3 44 -23 80 -23 108c0 25 13 40 31 40s31 -15 31 -40c0 -27 -20 -63 -24 -107c37 25 57 60 81 74c22 12 42 9 51 -7s2 -34 -20 -47c-24 -14 -65 -14 -105 -33c40 -19 81 -20 105 -33c26 -15 26 -36 20 -47
c-7 -11 -25 -22 -51 -7c-24 13 -44 48 -81 73c4 -43 24 -79 24 -106c0 -30 -18 -40 -31 -40s-31 10 -31 40c0 27 20 63 23 107c-36 -25 -56 -60 -80 -74c-26 -15 -44 -4 -51 7c-6 11 -6 32 20 47c24 13 64 14 104 33c-40 19 -80 19 -104 33c-22 13 -29 31 -20 47zM84 370
c9 16 29 19 51 7c24 -14 44 -50 80 -75c-3 44 -23 80 -23 108c0 25 13 40 31 40s31 -15 31 -40c0 -27 -20 -63 -24 -107c37 25 57 60 81 74c22 12 42 9 51 -7s2 -34 -20 -47c-24 -14 -65 -14 -105 -33c40 -19 81 -20 105 -33c26 -15 26 -36 20 -47c-7 -11 -25 -22 -51 -7
c-24 13 -44 48 -81 73c4 -43 24 -79 24 -106c0 -30 -18 -40 -31 -40s-31 10 -31 40c0 27 20 63 23 107c-36 -25 -56 -60 -80 -74c-26 -15 -44 -4 -51 7c-6 11 -6 32 20 47c24 13 64 14 104 33c-40 19 -80 19 -104 33c-22 13 -29 31 -20 47z" />
    <glyph glyph-name="uni3008" unicode="&#x3008;" horiz-adv-x="348" 
d="M268 -210l-198 455l198 455h40l-198 -455l198 -455h-40z" />
    <glyph glyph-name="uni3009" unicode="&#x3009;" horiz-adv-x="348" 
d="M278 245l-198 -455h-40l198 455l-198 455h40z" />
    <glyph glyph-name="uni300A" unicode="&#x300a;" horiz-adv-x="468" 
d="M388 -210l-198 455l198 455h40l-198 -455l198 -455h-40zM268 -210l-198 455l198 455h40l-198 -455l198 -455h-40z" />
    <glyph glyph-name="uni300B" unicode="&#x300b;" horiz-adv-x="468" 
d="M278 245l-198 -455h-40l198 455l-198 455h40zM398 245l-198 -455h-40l198 455l-198 455h40z" />
    <glyph glyph-name="uni2E2E" unicode="&#x2e2e;" horiz-adv-x="520" 
d="M283 150l-28 150c-120 0 -205 90 -205 200c0 140 108 215 220 215c120 0 210 -85 210 -180c0 -45 -24 -70 -54 -70c-25 0 -41 18 -41 40c0 37 35 40 35 75c0 45 -55 105 -150 105c-90 0 -170 -65 -170 -170c0 -110 75 -170 180 -170h33zM330 45c0 -28 -22 -50 -50 -50
s-50 22 -50 50s22 50 50 50s50 -22 50 -50z" />
    <glyph glyph-name="arrowleft" unicode="&#x2190;" 
d="M735 342v-34h-525v-73l-140 90l140 90v-73h525z" />
    <glyph glyph-name="arrowup" unicode="&#x2191;" 
d="M393 525h-73l90 140l90 -140h-73v-525h-34v525z" />
    <glyph glyph-name="arrowright" unicode="&#x2192;" 
d="M610 342v73l140 -90l-140 -90v73h-525v34h525z" />
    <glyph glyph-name="arrowdown" unicode="&#x2193;" 
d="M427 125h73l-90 -140l-90 140h73v525h34v-525z" />
    <glyph glyph-name="arrowboth" unicode="&#x2194;" 
d="M610 342v73l140 -90l-140 -90v73h-400v-73l-140 90l140 90v-73h400z" />
    <glyph glyph-name="arrowupdn" unicode="&#x2195;" 
d="M393 525h-73l90 140l90 -140h-73v-400h73l-90 -140l-90 140h73v400z" />
    <glyph glyph-name="uni2196" unicode="&#x2196;" 
d="M735 24l-24 -24l-539 539l-52 -51l-35 162l162 -35l-51 -52z" />
    <glyph glyph-name="uni2197" unicode="&#x2197;" 
d="M109 0l-24 24l539 539l-51 52l162 35l-35 -162l-52 51z" />
    <glyph glyph-name="uni2198" unicode="&#x2198;" 
d="M85 626l24 24l539 -539l52 51l35 -162l-162 35l51 52z" />
    <glyph glyph-name="uni2199" unicode="&#x2199;" 
d="M711 650l24 -24l-539 -539l51 -52l-162 -35l35 162l52 -51z" />
    <glyph glyph-name="uni21B0" unicode="&#x21b0;" 
d="M209 342h261v-342h-34v308h-227v-73l-140 90l140 90v-73z" />
    <glyph glyph-name="uni21B1" unicode="&#x21b1;" 
d="M349 342h261v73l140 -90l-140 -90v73h-227v-308h-34v342z" />
    <glyph glyph-name="uni21B2" unicode="&#x21b2;" 
d="M470 308h-261v-73l-140 90l140 90v-73h227v308h34v-342z" />
    <glyph glyph-name="uni21B3" unicode="&#x21b3;" 
d="M610 308h-261v342h34v-308h227v73l140 -90l-140 -90v73z" />
    <glyph glyph-name="uni21B4" unicode="&#x21b4;" 
d="M427 386v-261h73l-90 -140l-90 140h73v227h-308v34h342z" />
    <glyph glyph-name="uni21C4" unicode="&#x21c4;" 
d="M610 442v73l140 -90l-140 -90v73h-525v34h525zM735 242v-34h-525v-73l-140 90l140 90v-73h525z" />
    <glyph glyph-name="uni21C5" unicode="&#x21c5;" 
d="M537 125h73l-90 -140l-90 140h73v525h34v-525zM283 525h-73l90 140l90 -140h-73v-525h-34v525z" />
    <glyph glyph-name="uni21BA" unicode="&#x21ba;" 
d="M195 325c0 -119 96 -215 215 -215s215 96 215 215c0 59 -24 112 -63 151l-51 -51l-35 163l163 -36l-52 -51c45 -46 73 -107 73 -176c0 -138 -112 -250 -250 -250s-250 112 -250 250c0 69 28 131 73 177l25 -25c-39 -39 -63 -93 -63 -152z" />
    <glyph glyph-name="uni21BB" unicode="&#x21bb;" 
d="M625 325c0 59 -24 113 -63 152l25 25c45 -46 73 -108 73 -177c0 -138 -112 -250 -250 -250s-250 112 -250 250c0 69 28 130 73 176l-52 51l163 36l-35 -163l-51 51c-39 -39 -63 -92 -63 -151c0 -119 96 -215 215 -215s215 96 215 215z" />
    <glyph glyph-name="minus" unicode="&#x2212;" horiz-adv-x="580" 
d="M70 215v40h440v-40h-440z" />
    <glyph glyph-name="infinity" unicode="&#x221e;" horiz-adv-x="885" 
d="M80 270c0 -70 60 -115 125 -115c105 0 160 95 160 95s-55 -130 -165 -130c-95 0 -150 70 -150 150c0 75 55 150 150 150c160 0 275 -285 445 -285c88 0 155 55 155 155s-77 160 -175 160c-127 0 -216 -133 -220 -140c3 9 79 175 230 175c109 0 200 -75 200 -195
c0 -115 -76 -200 -190 -200c-190 0 -310 290 -450 290c-60 0 -115 -40 -115 -110z" />
    <glyph glyph-name="summation" unicode="&#x2211;" horiz-adv-x="605" 
d="M40 0l220 322l-220 328h500l-80 -200v165h-336l188 -279l-196 -286h369l60 125v-175h-505z" />
    <glyph glyph-name="Delta" unicode="&#x2206;" horiz-adv-x="672" 
d="M612 0h-552l276 665zM330 549l-214 -514h427z" />
    <glyph glyph-name="notequal" unicode="&#x2260;" horiz-adv-x="600" 
d="M80 285v35h230l68 155h40l-68 -155h170v-35h-185l-41 -95h226v-35h-242l-67 -155h-40l67 155h-158v35h174l41 95h-215z" />
    <glyph glyph-name="radical" unicode="&#x221a;" horiz-adv-x="496" 
d="M50 335v35h130l93 -249l167 579h36l-205 -715l-132 350h-89z" />
    <glyph glyph-name="lessequal" unicode="&#x2264;" horiz-adv-x="465" 
d="M327 110l-247 155l245 173l20 -28l-202 -144l202 -126zM80 165l19 30l246 -155l-18 -30z" />
    <glyph glyph-name="greaterequal" unicode="&#x2265;" horiz-adv-x="465" 
d="M385 265l-247 -155l-18 30l202 126l-202 144l20 28zM366 195l19 -30l-247 -155l-18 30z" />
    <glyph glyph-name="pi" unicode="&#x3c0;" horiz-adv-x="575" 
d="M199 400h-49c-68 0 -98 -65 -100 -69c2 8 39 119 140 119h345v-50h-96l-19 -305c-3 -50 10 -70 35 -70c35 0 70 40 70 40s-35 -80 -95 -80c-40 0 -64 30 -60 95l19 320h-160l-4 -55c-14 -165 -60 -360 -135 -360c-20 0 -35 13 -35 34c0 66 115 24 140 326z" />
    <glyph glyph-name="smileface" unicode="&#x263a;" 
d="M195 285c0 0 55 -123 215 -123s215 123 215 123s-40 -175 -215 -175s-215 175 -215 175zM70 325c0 188 152 340 340 340s340 -152 340 -340s-152 -340 -340 -340s-340 152 -340 340zM107 325c0 -167 136 -303 303 -303s303 136 303 303s-136 303 -303 303
s-303 -136 -303 -303zM460 410c0 50 15 100 45 100s45 -50 45 -100s-15 -100 -45 -100s-45 50 -45 100zM270 410c0 50 15 100 45 100s45 -50 45 -100s-15 -100 -45 -100s-45 50 -45 100z" />
    <glyph glyph-name="uni2605" unicode="&#x2605;" horiz-adv-x="706" 
d="M277 430l76 235l76 -235h247l-200 -145l77 -235l-200 145l-200 -145l76 235l-199 145h247z" />
    <glyph glyph-name="copyleft" horiz-adv-x="1020" 
d="M70 225c0 243 197 440 440 440s440 -197 440 -440s-197 -440 -440 -440s-440 197 -440 440zM768 534l-106 -140c9 -15 14 -31 14 -46c0 -26 -13 -46 -38 -46c-16 0 -27 6 -33 16l-189 -250c33 -26 74 -38 118 -38c110 0 155 100 155 100s-30 -145 -180 -145
c-50 0 -91 15 -125 41l-101 -134c65 -44 143 -70 227 -70c222 0 403 181 403 403c0 124 -57 235 -145 309zM107 225c0 -124 56 -235 145 -309l104 138c-37 43 -57 103 -57 171c0 145 99 240 218 240c51 0 91 -17 119 -40l100 133c-64 44 -142 70 -226 70
c-222 0 -403 -181 -403 -403zM515 441c-70 0 -166 -63 -166 -200c0 -63 15 -110 39 -144l220 291c-5 18 -23 53 -93 53z" />
    <glyph glyph-name="uni2713" unicode="&#x2713;" horiz-adv-x="710" 
d="M660 715l-450 -730l-195 315l195 -225z" />
    <glyph glyph-name="currency" unicode="&#xa4;" horiz-adv-x="640" 
d="M135 245c0 44 15 84 41 116l-76 76l28 28l76 -76c31 25 72 41 116 41s84 -16 116 -41l76 76l28 -28l-76 -76c25 -32 41 -72 41 -116s-16 -85 -41 -116l76 -76l-28 -28l-76 76c-32 -26 -72 -41 -116 -41s-85 15 -116 41l-76 -76l-28 28l76 76c-26 31 -41 72 -41 116z
M172 245c0 -82 66 -148 148 -148s148 66 148 148s-66 148 -148 148s-148 -66 -148 -148z" />
    <glyph glyph-name="dollar" unicode="$" horiz-adv-x="565" 
d="M295 -155h-40v142c-94 10 -142 53 -142 53l-48 -55v245l65 -155s42 -46 125 -58v314c-128 46 -195 87 -195 179c0 81 63 153 195 155v150h40v-152c83 -8 130 -43 130 -43l50 45v-215l-65 135s-42 38 -115 48v-263c115 -40 210 -87 210 -210c0 -98 -75 -175 -210 -175
v-140zM455 150c0 83 -43 122 -160 166v-301c95 0 160 55 160 135zM110 517c0 -60 39 -95 145 -133v251c-92 -2 -145 -59 -145 -118z" />
    <glyph glyph-name="Euro" unicode="&#x20ac;" horiz-adv-x="755" 
d="M480 310v-35h-281c24 -171 142 -255 276 -255c165 0 230 130 230 130s-41 -165 -250 -165c-171 0 -294 119 -313 290h-127v35h125v10c0 13 0 27 1 40h-126v35h131c27 170 147 270 309 270c115 0 180 -55 180 -55l55 55v-245l-65 150s-60 65 -170 65
c-122 0 -235 -85 -257 -240h282v-35h-285v-20c0 -10 0 -21 1 -30h284z" />
    <glyph glyph-name="cent" unicode="&#xa2;" horiz-adv-x="460" 
d="M260 -155h-40v141c-115 13 -185 113 -185 239c0 131 81 221 185 237v153h40v-150c96 -3 152 -64 152 -117c0 -26 -13 -46 -38 -46c-24 0 -38 15 -38 37s9 25 9 41c0 9 -9 57 -85 60v-410h10c110 0 155 100 155 100s-28 -135 -165 -144v-141zM85 241
c0 -124 58 -187 135 -205v401c-65 -16 -135 -79 -135 -196z" />
    <glyph glyph-name="yen" unicode="&#xa5;" horiz-adv-x="680" 
d="M567 205v-35h-200v-115l100 -55h-250l100 55v115h-200v35h200v50h-200v35h188l-205 305l-100 55h237l-80 -50l192 -285l193 285l-80 50h218l-100 -55l-206 -305h193v-35h-200v-50h200z" />
    <glyph glyph-name="bitcoin" horiz-adv-x="625" 
d="M375 -155h-40v155h-5h-65v-155h-40v155h-190l100 55v540l-100 55h190v165h40v-165h65h5v165h40v-167c107 -12 170 -68 170 -156c0 -120 -125 -147 -125 -147v-5s150 -10 150 -160c0 -103 -76 -165 -195 -178v-157zM325 320h-140v-265l35 -20h110c90 0 185 35 185 145
s-100 140 -190 140zM185 595v-240h145c80 0 160 42 160 132c0 95 -80 128 -160 128h-109z" />
    <glyph glyph-name="ruble" horiz-adv-x="625" 
d="M475 250v-35h-260v-160l120 -55h-270l100 55v160h-135v35h135v50h-135v35h135v260l-100 55h280c145 0 230 -75 230 -175s-85 -175 -230 -175h-130v-50h260zM215 595v-260h130c110 0 175 55 175 140s-65 140 -175 140h-95z" />
    <glyph glyph-name="approxequal" unicode="&#x2248;" horiz-adv-x="600" 
d="M80 165c0 0 45 75 120 75c85 0 130 -65 200 -65c55 0 90 60 90 60l30 -20s-45 -75 -120 -75c-85 0 -130 65 -200 65c-55 0 -90 -60 -90 -60zM80 295c0 0 45 75 120 75c85 0 130 -65 200 -65c55 0 90 60 90 60l30 -20s-45 -75 -120 -75c-85 0 -130 65 -200 65
c-55 0 -90 -60 -90 -60z" />
    <glyph glyph-name="caps_dash" horiz-adv-x="480" 
d="M60 320v35h360v-35h-360z" />
    <glyph glyph-name="caps_endash" horiz-adv-x="670" 
d="M70 320v35h530v-35h-530z" />
    <glyph glyph-name="caps_emdash" horiz-adv-x="770" 
d="M0 320v35h770v-35h-770z" />
    <glyph glyph-name="caps_quoteleft" horiz-adv-x="525" 
d="M145 305l140 -225l-215 225l215 225zM315 305l140 -225l-215 225l215 225z" />
    <glyph glyph-name="caps_quoteright" horiz-adv-x="525" 
d="M240 80l140 225l-140 225l215 -225zM70 80l140 225l-140 225l215 -225z" />
    <glyph glyph-name="caps_singleleft" horiz-adv-x="355" 
d="M145 305l140 -225l-215 225l215 225z" />
    <glyph glyph-name="caps_singleright" horiz-adv-x="355" 
d="M70 80l140 225l-140 225l215 -225z" />
    <glyph glyph-name="testmark1" horiz-adv-x="1070" 
d="M163 23l372 312l-397 -279c-9 12 -16 24 -24 37l421 242l-440 -205c-6 13 -11 25 -16 39l456 166l-469 -125c-3 13 -6 27 -9 40l478 85l-484 -43c-1 14 -1 28 -1 43h485l-484 42c1 15 4 28 6 42l478 -84l-469 125c4 14 8 27 13 41l456 -166l-440 205c6 12 12 25 19 37
l421 -242l-397 278c8 12 16 23 25 34l372 -312l-343 343c10 10 20 19 31 28l312 -371l-279 397c12 8 24 16 37 23l242 -420l-205 439c13 6 25 12 39 17l166 -456l-125 468c13 4 27 7 40 9l85 -477l-43 483c14 1 28 2 43 2v-485l42 483c15 -1 28 -3 42 -6l-84 -477l125 468
c14 -3 27 -7 41 -12l-166 -456l205 439c13 -6 25 -12 38 -19l-243 -420l278 397c12 -8 23 -17 34 -26l-312 -371l343 343c10 -10 19 -21 28 -31l-371 -312l397 278c8 -12 16 -24 23 -36l-420 -242l439 205c6 -13 12 -26 17 -39l-456 -166l468 125c4 -14 7 -27 9 -41
l-477 -84l483 42c1 -14 2 -28 2 -42h-485l483 -43c-1 -14 -3 -28 -6 -42l-477 85l468 -125c-3 -14 -7 -28 -12 -41l-456 166l439 -205c-6 -13 -12 -26 -19 -38l-420 243l397 -279c-8 -11 -17 -22 -26 -33l-371 312l343 -343c-10 -10 -21 -19 -31 -28l-312 371l278 -397
c-12 -8 -24 -16 -36 -23l-242 420l205 -439c-13 -6 -26 -12 -39 -17l-166 456l125 -468c-14 -4 -27 -7 -41 -9l-84 477l42 -483c-14 -1 -28 -2 -42 -2v485l-43 -483c-14 1 -28 3 -42 6l85 477l-125 -468c-14 3 -28 7 -41 12l166 456l-205 -439c-13 6 -25 12 -37 19l242 420
l-279 -397c-11 8 -22 17 -33 26l312 371l-343 -343c-10 10 -20 20 -29 31z" />
    <glyph glyph-name="testmark2" horiz-adv-x="1070" 
d="M607 -145l-60 341v-346h-24v346l-60 -341l-24 4l60 339l-119 -323l-22 8l118 324l-173 -298l-21 12l172 298l-221 -264l-19 16l221 264l-264 -221l-16 19l264 221l-298 -172l-12 21l299 172l-325 -118l-8 23l326 119l-342 -60l-4 24l341 60h-346v24h346l-341 60l4 24
l342 -60l-326 119l8 23l325 -119l-299 173l12 21l298 -172l-264 221l16 19l264 -222l-221 265l19 16l221 -264l-172 298l21 12l172 -299l-118 325l23 8l120 -328l-61 344l24 4l60 -341v346h24v-346l60 341l24 -4l-61 -344l120 328l23 -8l-118 -325l172 299l21 -12l-172 -298
l221 264l19 -16l-221 -265l264 222l16 -19l-264 -221l298 172l12 -21l-299 -173l325 119l8 -23l-326 -119l342 60l4 -24l-341 -60h346v-24h-346l341 -60l-4 -24l-342 60l326 -119l-8 -23l-325 118l299 -172l-12 -21l-298 172l264 -221l-16 -19l-264 221l221 -264l-19 -16
l-221 264l172 -298l-21 -12l-173 298l118 -324l-22 -8l-119 323l60 -339z" />
    <glyph glyph-name="A" unicode="A" horiz-adv-x="700" 
d="M548 50l-69 155h-271l-67 -155l90 -50h-231l105 55l218 502l-107 93h121l263 -595l100 -55h-237zM342 513l-119 -273h241z" />
    <glyph glyph-name="Scommaaccent" unicode="&#x218;" horiz-adv-x="565" 
d="M475 665v-215l-65 135s-55 50 -150 50s-150 -58 -150 -118c0 -64 44 -99 166 -140c124 -42 229 -87 229 -217c0 -98 -75 -175 -210 -175c-120 0 -182 55 -182 55l-48 -55v245l65 -155s55 -60 165 -60c95 0 160 55 160 135c0 90 -50 128 -189 177
c-135 48 -206 89 -206 183c0 82 65 155 200 155c105 0 165 -45 165 -45zM230 -110c0 28 22 50 50 50s50 -22 50 -50c0 -35 -5 -55 -95 -165l50 115h-5c-28 0 -50 22 -50 50z" />
    <glyph glyph-name="scommaaccent" unicode="&#x219;" horiz-adv-x="425" 
d="M350 465v-156l-45 81s-30 45 -100 45c-66 0 -105 -35 -105 -75c0 -110 275 -72 275 -237c0 -90 -70 -138 -150 -138c-93 0 -124 56 -125 59l-35 -59v195l43 -90c32 -66 87 -75 117 -75c45 0 105 25 105 92c0 129 -270 87 -270 238c0 73 65 120 145 120
c70 0 105 -40 105 -40zM170 -110c0 28 22 50 50 50s50 -22 50 -50c0 -35 -5 -55 -95 -165l50 115h-5c-28 0 -50 22 -50 50z" />
    <glyph glyph-name="logicalnot" unicode="&#xac;" horiz-adv-x="590" 
d="M70 295v40h440v-205h-40v165h-400z" />
    <glyph glyph-name="uni261C" unicode="&#x261c;" horiz-adv-x="650" 
d="M480 515v-380l-360 190z" />
    <glyph glyph-name="uni261D" unicode="&#x261d;" horiz-adv-x="650" 
d="M525 200h-380l190 360z" />
    <glyph glyph-name="uni261E" unicode="&#x261e;" horiz-adv-x="650" 
d="M170 135v380l360 -190z" />
    <glyph glyph-name="uni261F" unicode="&#x261f;" horiz-adv-x="650" 
d="M145 450h380l-190 -360z" />
    <glyph glyph-name="N" unicode="N" horiz-adv-x="785" 
d="M635 93v502l-110 55h245l-100 -55v-610l-505 524v-454l110 -55h-245l100 55v491l-100 104h69z" />
    <glyph glyph-name="caps_at" horiz-adv-x="985" 
d="M522 545c100 0 116 -80 116 -80l14 65h51l-87 -418c156 41 262 135 262 283c0 182 -146 313 -368 313s-403 -171 -403 -403c0 -242 181 -403 403 -403c111 0 212 45 285 118l25 -25c-80 -80 -188 -130 -310 -130c-243 0 -440 177 -440 440c0 253 197 440 440 440
s405 -147 405 -350c0 -208 -175 -295 -360 -330l25 117c-47 -74 -115 -117 -170 -117c-81 0 -130 70 -130 177c0 179 138 303 242 303zM611 330c23 102 2 190 -80 190c-90 0 -195 -105 -195 -270c0 -102 47 -145 102 -145c50 0 139 65 158 155z" />
    <glyph glyph-name="caps_parenleft" horiz-adv-x="369" 
d="M105 325c0 341 246 416 259 420c-9 -4 -204 -89 -204 -420s195 -416 204 -420c-13 4 -259 79 -259 420z" />
    <glyph glyph-name="caps_parenright" horiz-adv-x="369" 
d="M264 325c0 -341 -246 -416 -259 -420c9 4 204 89 204 420s-195 416 -204 420c13 -4 259 -79 259 -420z" />
    <glyph glyph-name="caps_bracketleft" horiz-adv-x="365" 
d="M130 -130v910h195v-35h-155v-840h155v-35h-195z" />
    <glyph glyph-name="caps_bracketright" horiz-adv-x="365" 
d="M235 780v-910h-195v35h155v840h-155v35h195z" />
    <glyph glyph-name="caps_braceleft" horiz-adv-x="346" 
d="M159 210c0 85 -108 112 -119 115c6 1 119 27 119 115c0 55 -25 95 -25 155c0 155 172 185 172 185s-122 -45 -122 -140c0 -60 25 -96 25 -150c0 -112 -108 -163 -115 -165c7 -3 115 -53 115 -165c0 -54 -25 -90 -25 -150c0 -95 122 -140 122 -140s-172 30 -172 185
c0 60 25 100 25 155z" />
    <glyph glyph-name="caps_braceright" horiz-adv-x="346" 
d="M187 210c0 -55 25 -95 25 -155c0 -155 -172 -185 -172 -185s122 45 122 140c0 60 -25 96 -25 150c0 112 108 162 115 165c-7 2 -115 53 -115 165c0 54 25 90 25 150c0 95 -122 140 -122 140s172 -30 172 -185c0 -60 -25 -100 -25 -155c0 -86 107 -113 118 -115
c-12 -4 -118 -31 -118 -115z" />
    <glyph glyph-name="caps_zero" horiz-adv-x="520" 
d="M35 325c0 175 70 340 225 340s225 -165 225 -340s-70 -340 -225 -340s-225 165 -225 340zM90 325c0 -210 80 -310 170 -310s170 100 170 310s-80 310 -170 310s-170 -100 -170 -310z" />
    <glyph glyph-name="caps_one" horiz-adv-x="325" 
d="M140 590h-85l135 75v-615l100 -50h-250l100 50v540z" />
    <glyph glyph-name="caps_two" horiz-adv-x="550" 
d="M485 120v-120h-455l195 210c73 78 175 160 175 275c0 91 -58 150 -153 150s-144 -59 -144 -95c0 -30 39 -25 39 -63c0 -17 -12 -36 -35 -36c-25 0 -47 24 -47 68c0 64 55 156 187 156c150 0 213 -88 213 -175c0 -110 -124 -206 -215 -305l-125 -135h325z" />
    <glyph glyph-name="caps_three" horiz-adv-x="535" 
d="M170 391l219 209h-289l-40 -70v120h425l-225 -215c137 -2 225 -82 225 -220c0 -125 -93 -230 -238 -230c-125 0 -197 78 -197 140c0 33 16 53 41 53c26 0 36 -20 36 -39c0 -17 -14 -34 -14 -44c0 -43 54 -80 134 -80c85 0 183 55 183 200c0 125 -90 190 -185 190
c-26 0 -52 -5 -75 -14z" />
    <glyph glyph-name="caps_four" horiz-adv-x="540" 
d="M310 55v145h-300l350 465v-430h150v-35h-150v-145l100 -55h-250zM75 235h235v312z" />
    <glyph glyph-name="caps_five" horiz-adv-x="525" 
d="M428 600h-297l-30 -215c24 19 75 50 144 50c140 0 230 -80 230 -220c0 -125 -93 -230 -238 -230c-125 0 -197 78 -197 140c0 33 16 53 41 53c26 0 36 -20 36 -39c0 -17 -14 -34 -14 -44c0 -43 54 -80 134 -80c85 0 183 55 183 200c0 125 -90 190 -185 190
c-80 0 -150 -50 -180 -90l49 335h356z" />
    <glyph glyph-name="caps_six" horiz-adv-x="515" 
d="M474 715c-17 -4 -355 -83 -382 -417c26 48 80 112 183 112c100 0 205 -70 205 -210c0 -125 -100 -215 -205 -215c-145 0 -240 110 -240 270c0 390 429 458 439 460zM255 380c-103 0 -148 -79 -165 -126c0 -184 120 -239 190 -239c75 0 145 55 145 160
c0 115 -65 205 -170 205z" />
    <glyph glyph-name="caps_seven" horiz-adv-x="540" 
d="M50 530v120h450l-265 -650h-60l280 600h-365z" />
    <glyph glyph-name="caps_eight" horiz-adv-x="495" 
d="M410 525c0 -78 -84 -127 -132 -148c89 -50 182 -107 182 -212c0 -104 -85 -180 -213 -180c-134 0 -212 76 -212 175c0 110 109 175 166 201c-70 42 -131 90 -131 164c0 85 82 140 170 140c89 0 170 -55 170 -140zM410 155c0 92 -100 141 -191 195
c-44 -28 -129 -94 -129 -185c0 -95 71 -155 157 -155c91 0 163 50 163 145zM120 530c0 -62 65 -101 139 -143c35 20 101 66 101 138c0 75 -59 115 -120 115c-56 0 -120 -35 -120 -110z" />
    <glyph glyph-name="caps_nine" horiz-adv-x="515" 
d="M40 -65c18 4 356 83 383 417c-27 -49 -81 -112 -183 -112c-100 0 -205 70 -205 210c0 125 100 215 205 215c145 0 240 -110 240 -270c0 -390 -429 -458 -440 -460zM260 270c102 0 147 79 165 126c-1 184 -120 239 -190 239c-75 0 -145 -55 -145 -160
c0 -115 65 -205 170 -205z" />
    <glyph glyph-name="caps_plus" horiz-adv-x="580" 
d="M70 305v40h200v210h40v-210h200v-40h-200v-205h-40v205h-200z" />
    <glyph glyph-name="caps_less" horiz-adv-x="445" 
d="M322 123l-242 202l242 202l23 -27l-211 -175l211 -175z" />
    <glyph glyph-name="caps_equal" horiz-adv-x="600" 
d="M80 245v35h440v-35h-440zM80 375v35h440v-35h-440z" />
    <glyph glyph-name="caps_greater" horiz-adv-x="445" 
d="M385 325l-242 -202l-23 27l211 175l-211 175l23 27z" />
    <glyph glyph-name="caps_divide" horiz-adv-x="580" 
d="M70 305v40h440v-40h-440zM240 160c0 28 22 50 50 50s50 -22 50 -50s-22 -50 -50 -50s-50 22 -50 50zM240 490c0 28 22 50 50 50s50 -22 50 -50s-22 -50 -50 -50s-50 22 -50 50z" />
    <glyph glyph-name="caps_multiply" horiz-adv-x="580" 
d="M100 485l30 30l160 -160l160 160l30 -30l-160 -160l160 -160l-30 -30l-160 160l-160 -160l-30 30l160 160z" />
    <glyph glyph-name="caps_minus" horiz-adv-x="580" 
d="M70 305v40h440v-40h-440z" />
    <glyph glyph-name="caps_notequal" horiz-adv-x="600" 
d="M80 375v35h230l68 155h40l-68 -155h170v-35h-185l-41 -95h226v-35h-242l-67 -155h-40l67 155h-158v35h174l41 95h-215z" />
    <glyph glyph-name="caps_lessequal" horiz-adv-x="445" 
d="M327 200l-247 155l245 173l20 -28l-202 -144l202 -126zM80 255l19 30l246 -155l-18 -30z" />
    <glyph glyph-name="caps_greaterequal" horiz-adv-x="445" 
d="M385 355l-247 -155l-18 30l202 126l-202 144l20 28zM366 285l19 -30l-247 -155l-18 30z" />
    <glyph glyph-name="caps_approxequal" horiz-adv-x="600" 
d="M80 240c0 0 45 75 120 75c85 0 130 -65 200 -65c55 0 90 60 90 60l30 -20s-45 -75 -120 -75c-85 0 -130 65 -200 65c-55 0 -90 -60 -90 -60zM80 370c0 0 45 75 120 75c85 0 130 -65 200 -65c55 0 90 60 90 60l30 -20s-45 -75 -120 -75c-85 0 -130 65 -200 65
c-55 0 -90 -60 -90 -60z" />
    <glyph glyph-name="tnum_zero" horiz-adv-x="550" 
d="M50 325c0 175 70 340 225 340s225 -165 225 -340s-70 -340 -225 -340s-225 165 -225 340zM105 325c0 -210 80 -310 170 -310s170 100 170 310s-80 310 -170 310s-170 -100 -170 -310z" />
    <glyph glyph-name="tnum_one" horiz-adv-x="550" 
d="M250 595h-105l155 70v-615l130 -50h-310l130 50v545z" />
    <glyph glyph-name="tnum_two" horiz-adv-x="550" 
d="M485 120v-120h-455l195 210c73 78 175 160 175 275c0 91 -58 150 -153 150s-144 -59 -144 -95c0 -30 39 -25 39 -63c0 -17 -12 -36 -35 -36c-25 0 -47 24 -47 68c0 64 55 156 187 156c150 0 213 -88 213 -175c0 -110 -124 -206 -215 -305l-125 -135h325z" />
    <glyph glyph-name="tnum_three" horiz-adv-x="550" 
d="M175 391l219 209h-289l-40 -70v120h425l-225 -215c137 -2 225 -82 225 -220c0 -125 -93 -230 -238 -230c-125 0 -197 78 -197 140c0 33 16 53 41 53c26 0 36 -20 36 -39c0 -17 -14 -34 -14 -44c0 -43 54 -80 134 -80c85 0 183 55 183 200c0 125 -90 190 -185 190
c-26 0 -52 -5 -75 -14z" />
    <glyph glyph-name="tnum_four" horiz-adv-x="550" 
d="M320 55v145h-300l350 465v-430h150v-35h-150v-145l100 -55h-250zM85 235h235v312z" />
    <glyph glyph-name="tnum_five" horiz-adv-x="550" 
d="M443 600h-297l-30 -215c24 19 75 50 144 50c140 0 230 -80 230 -220c0 -125 -93 -230 -238 -230c-125 0 -197 78 -197 140c0 33 16 53 41 53c26 0 36 -20 36 -39c0 -17 -14 -34 -14 -44c0 -43 54 -80 134 -80c85 0 183 55 183 200c0 125 -90 190 -185 190
c-80 0 -150 -50 -180 -90l49 335h356z" />
    <glyph glyph-name="tnum_six" horiz-adv-x="550" 
d="M494 715c-17 -4 -355 -83 -382 -417c26 48 80 112 183 112c100 0 205 -70 205 -210c0 -125 -100 -215 -205 -215c-145 0 -240 110 -240 270c0 390 429 458 439 460zM275 380c-103 0 -148 -79 -165 -126c0 -184 120 -239 190 -239c75 0 145 55 145 160
c0 115 -65 205 -170 205z" />
    <glyph glyph-name="tnum_seven" horiz-adv-x="550" 
d="M60 530v120h450l-265 -650h-60l280 600h-365z" />
    <glyph glyph-name="tnum_eight" horiz-adv-x="550" 
d="M437 525c0 -78 -84 -127 -132 -148c89 -50 182 -107 182 -212c0 -104 -85 -180 -213 -180c-134 0 -212 76 -212 175c0 110 109 175 166 201c-70 42 -131 90 -131 164c0 85 82 140 170 140c89 0 170 -55 170 -140zM437 155c0 92 -100 141 -191 195
c-44 -28 -129 -94 -129 -185c0 -95 71 -155 157 -155c91 0 163 50 163 145zM147 530c0 -62 65 -101 139 -143c35 20 101 66 101 138c0 75 -59 115 -120 115c-56 0 -120 -35 -120 -110z" />
    <glyph glyph-name="tnum_nine" horiz-adv-x="550" 
d="M55 -65c18 4 356 83 383 417c-27 -49 -81 -112 -183 -112c-100 0 -205 70 -205 210c0 125 100 215 205 215c145 0 240 -110 240 -270c0 -390 -429 -458 -440 -460zM275 270c102 0 147 79 165 126c-1 184 -120 239 -190 239c-75 0 -145 -55 -145 -160
c0 -115 65 -205 170 -205z" />
    </font>
</defs>
</svg>
