<svg xmlns="http://www.w3.org/2000/svg" width="242" height="242" viewBox="0 0 242 242" fill="none"><mask id="mask0" maskUnits="userSpaceOnUse" x="0" y="0" width="242" height="242"><rect x="242" y="242" width="242" height="242" transform="rotate(-180 242 242)" fill="#DEDEDE"/></mask><g mask="url(#mask0)"><rect x="5" width="1" height="11" fill="#1A1A1A"/><rect y="6" width="1" height="11" transform="rotate(-90 0 6)" fill="#1A1A1A"/><rect x="5" y="21" width="1" height="11" fill="#1A1A1A"/><rect y="27" width="1" height="11" transform="rotate(-90 0 27)" fill="#1A1A1A"/><rect x="5" y="42" width="1" height="11" fill="#1A1A1A"/><rect y="48" width="1" height="11" transform="rotate(-90 0 48)" fill="#1A1A1A"/><rect x="5" y="63" width="1" height="11" fill="#1A1A1A"/><rect y="69" width="1" height="11" transform="rotate(-90 0 69)" fill="#1A1A1A"/><rect x="5" y="84" width="1" height="11" fill="#1A1A1A"/><rect y="90" width="1" height="11" transform="rotate(-90 0 90)" fill="#1A1A1A"/><rect x="5" y="105" width="1" height="11" fill="#1A1A1A"/><rect y="111" width="1" height="11" transform="rotate(-90 0 111)" fill="#1A1A1A"/><rect x="5" y="126" width="1" height="11" fill="#1A1A1A"/><rect y="132" width="1" height="11" transform="rotate(-90 0 132)" fill="#1A1A1A"/><rect x="5" y="147" width="1" height="11" fill="#1A1A1A"/><rect y="153" width="1" height="11" transform="rotate(-90 0 153)" fill="#1A1A1A"/><rect x="5" y="168" width="1" height="11" fill="#1A1A1A"/><rect y="174" width="1" height="11" transform="rotate(-90 0 174)" fill="#1A1A1A"/><rect x="5" y="189" width="1" height="11" fill="#1A1A1A"/><rect y="195" width="1" height="11" transform="rotate(-90 0 195)" fill="#1A1A1A"/><rect x="5" y="210" width="1" height="11" fill="#1A1A1A"/><rect y="216" width="1" height="11" transform="rotate(-90 0 216)" fill="#1A1A1A"/><rect x="5" y="231" width="1" height="11" fill="#1A1A1A"/><rect y="237" width="1" height="11" transform="rotate(-90 0 237)" fill="#1A1A1A"/><rect x="26" width="1" height="11" fill="#1A1A1A"/><rect x="21" y="6" width="1" height="11" transform="rotate(-90 21 6)" fill="#1A1A1A"/><rect x="26" y="21" width="1" height="11" fill="#1A1A1A"/><rect x="21" y="27" width="1" height="11" transform="rotate(-90 21 27)" fill="#1A1A1A"/><rect x="26" y="42" width="1" height="11" fill="#1A1A1A"/><rect x="21" y="48" width="1" height="11" transform="rotate(-90 21 48)" fill="#1A1A1A"/><rect x="26" y="63" width="1" height="11" fill="#1A1A1A"/><rect x="21" y="69" width="1" height="11" transform="rotate(-90 21 69)" fill="#1A1A1A"/><rect x="26" y="84" width="1" height="11" fill="#1A1A1A"/><rect x="21" y="90" width="1" height="11" transform="rotate(-90 21 90)" fill="#1A1A1A"/><rect x="26" y="105" width="1" height="11" fill="#1A1A1A"/><rect x="21" y="111" width="1" height="11" transform="rotate(-90 21 111)" fill="#1A1A1A"/><rect x="26" y="126" width="1" height="11" fill="#1A1A1A"/><rect x="21" y="132" width="1" height="11" transform="rotate(-90 21 132)" fill="#1A1A1A"/><rect x="26" y="147" width="1" height="11" fill="#1A1A1A"/><rect x="21" y="153" width="1" height="11" transform="rotate(-90 21 153)" fill="#1A1A1A"/><rect x="26" y="168" width="1" height="11" fill="#1A1A1A"/><rect x="21" y="174" width="1" height="11" transform="rotate(-90 21 174)" fill="#1A1A1A"/><rect x="26" y="189" width="1" height="11" fill="#1A1A1A"/><rect x="21" y="195" width="1" height="11" transform="rotate(-90 21 195)" fill="#1A1A1A"/><rect x="26" y="210" width="1" height="11" fill="#1A1A1A"/><rect x="21" y="216" width="1" height="11" transform="rotate(-90 21 216)" fill="#1A1A1A"/><rect x="26" y="231" width="1" height="11" fill="#1A1A1A"/><rect x="21" y="237" width="1" height="11" transform="rotate(-90 21 237)" fill="#1A1A1A"/><rect x="47" width="1" height="11" fill="#1A1A1A"/><rect x="42" y="6" width="1" height="11" transform="rotate(-90 42 6)" fill="#1A1A1A"/><rect x="47" y="21" width="1" height="11" fill="#1A1A1A"/><rect x="42" y="27" width="1" height="11" transform="rotate(-90 42 27)" fill="#1A1A1A"/><rect x="47" y="42" width="1" height="11" fill="#1A1A1A"/><rect x="42" y="48" width="1" height="11" transform="rotate(-90 42 48)" fill="#1A1A1A"/><rect x="47" y="63" width="1" height="11" fill="#1A1A1A"/><rect x="42" y="69" width="1" height="11" transform="rotate(-90 42 69)" fill="#1A1A1A"/><rect x="47" y="84" width="1" height="11" fill="#1A1A1A"/><rect x="42" y="90" width="1" height="11" transform="rotate(-90 42 90)" fill="#1A1A1A"/><rect x="47" y="105" width="1" height="11" fill="#1A1A1A"/><rect x="42" y="111" width="1" height="11" transform="rotate(-90 42 111)" fill="#1A1A1A"/><rect x="47" y="126" width="1" height="11" fill="#1A1A1A"/><rect x="42" y="132" width="1" height="11" transform="rotate(-90 42 132)" fill="#1A1A1A"/><rect x="47" y="147" width="1" height="11" fill="#1A1A1A"/><rect x="42" y="153" width="1" height="11" transform="rotate(-90 42 153)" fill="#1A1A1A"/><rect x="47" y="168" width="1" height="11" fill="#1A1A1A"/><rect x="42" y="174" width="1" height="11" transform="rotate(-90 42 174)" fill="#1A1A1A"/><rect x="47" y="189" width="1" height="11" fill="#1A1A1A"/><rect x="42" y="195" width="1" height="11" transform="rotate(-90 42 195)" fill="#1A1A1A"/><rect x="47" y="210" width="1" height="11" fill="#1A1A1A"/><rect x="42" y="216" width="1" height="11" transform="rotate(-90 42 216)" fill="#1A1A1A"/><rect x="47" y="231" width="1" height="11" fill="#1A1A1A"/><rect x="42" y="237" width="1" height="11" transform="rotate(-90 42 237)" fill="#1A1A1A"/><rect x="68" width="1" height="11" fill="#1A1A1A"/><rect x="63" y="6" width="1" height="11" transform="rotate(-90 63 6)" fill="#1A1A1A"/><rect x="68" y="21" width="1" height="11" fill="#1A1A1A"/><rect x="63" y="27" width="1" height="11" transform="rotate(-90 63 27)" fill="#1A1A1A"/><rect x="68" y="42" width="1" height="11" fill="#1A1A1A"/><rect x="63" y="48" width="1" height="11" transform="rotate(-90 63 48)" fill="#1A1A1A"/><rect x="68" y="63" width="1" height="11" fill="#1A1A1A"/><rect x="63" y="69" width="1" height="11" transform="rotate(-90 63 69)" fill="#1A1A1A"/><rect x="68" y="84" width="1" height="11" fill="#1A1A1A"/><rect x="63" y="90" width="1" height="11" transform="rotate(-90 63 90)" fill="#1A1A1A"/><rect x="68" y="105" width="1" height="11" fill="#1A1A1A"/><rect x="63" y="111" width="1" height="11" transform="rotate(-90 63 111)" fill="#1A1A1A"/><rect x="68" y="126" width="1" height="11" fill="#1A1A1A"/><rect x="63" y="132" width="1" height="11" transform="rotate(-90 63 132)" fill="#1A1A1A"/><rect x="68" y="147" width="1" height="11" fill="#1A1A1A"/><rect x="63" y="153" width="1" height="11" transform="rotate(-90 63 153)" fill="#1A1A1A"/><rect x="68" y="168" width="1" height="11" fill="#1A1A1A"/><rect x="63" y="174" width="1" height="11" transform="rotate(-90 63 174)" fill="#1A1A1A"/><rect x="68" y="189" width="1" height="11" fill="#1A1A1A"/><rect x="63" y="195" width="1" height="11" transform="rotate(-90 63 195)" fill="#1A1A1A"/><rect x="68" y="210" width="1" height="11" fill="#1A1A1A"/><rect x="63" y="216" width="1" height="11" transform="rotate(-90 63 216)" fill="#1A1A1A"/><rect x="68" y="231" width="1" height="11" fill="#1A1A1A"/><rect x="63" y="237" width="1" height="11" transform="rotate(-90 63 237)" fill="#1A1A1A"/><rect x="89" width="1" height="11" fill="#1A1A1A"/><rect x="84" y="6" width="1" height="11" transform="rotate(-90 84 6)" fill="#1A1A1A"/><rect x="89" y="21" width="1" height="11" fill="#1A1A1A"/><rect x="84" y="27" width="1" height="11" transform="rotate(-90 84 27)" fill="#1A1A1A"/><rect x="89" y="42" width="1" height="11" fill="#1A1A1A"/><rect x="84" y="48" width="1" height="11" transform="rotate(-90 84 48)" fill="#1A1A1A"/><rect x="89" y="63" width="1" height="11" fill="#1A1A1A"/><rect x="84" y="69" width="1" height="11" transform="rotate(-90 84 69)" fill="#1A1A1A"/><rect x="89" y="84" width="1" height="11" fill="#1A1A1A"/><rect x="84" y="90" width="1" height="11" transform="rotate(-90 84 90)" fill="#1A1A1A"/><rect x="89" y="105" width="1" height="11" fill="#1A1A1A"/><rect x="84" y="111" width="1" height="11" transform="rotate(-90 84 111)" fill="#1A1A1A"/><rect x="89" y="126" width="1" height="11" fill="#1A1A1A"/><rect x="84" y="132" width="1" height="11" transform="rotate(-90 84 132)" fill="#1A1A1A"/><rect x="89" y="147" width="1" height="11" fill="#1A1A1A"/><rect x="84" y="153" width="1" height="11" transform="rotate(-90 84 153)" fill="#1A1A1A"/><rect x="89" y="168" width="1" height="11" fill="#1A1A1A"/><rect x="84" y="174" width="1" height="11" transform="rotate(-90 84 174)" fill="#1A1A1A"/><rect x="89" y="189" width="1" height="11" fill="#1A1A1A"/><rect x="84" y="195" width="1" height="11" transform="rotate(-90 84 195)" fill="#1A1A1A"/><rect x="89" y="210" width="1" height="11" fill="#1A1A1A"/><rect x="84" y="216" width="1" height="11" transform="rotate(-90 84 216)" fill="#1A1A1A"/><rect x="89" y="231" width="1" height="11" fill="#1A1A1A"/><rect x="84" y="237" width="1" height="11" transform="rotate(-90 84 237)" fill="#1A1A1A"/><rect x="110" width="1" height="11" fill="#1A1A1A"/><rect x="105" y="6" width="1" height="11" transform="rotate(-90 105 6)" fill="#1A1A1A"/><rect x="110" y="21" width="1" height="11" fill="#1A1A1A"/><rect x="105" y="27" width="1" height="11" transform="rotate(-90 105 27)" fill="#1A1A1A"/><rect x="110" y="42" width="1" height="11" fill="#1A1A1A"/><rect x="105" y="48" width="1" height="11" transform="rotate(-90 105 48)" fill="#1A1A1A"/><rect x="110" y="63" width="1" height="11" fill="#1A1A1A"/><rect x="105" y="69" width="1" height="11" transform="rotate(-90 105 69)" fill="#1A1A1A"/><rect x="110" y="84" width="1" height="11" fill="#1A1A1A"/><rect x="105" y="90" width="1" height="11" transform="rotate(-90 105 90)" fill="#1A1A1A"/><rect x="110" y="105" width="1" height="11" fill="#1A1A1A"/><rect x="105" y="111" width="1" height="11" transform="rotate(-90 105 111)" fill="#1A1A1A"/><rect x="110" y="126" width="1" height="11" fill="#1A1A1A"/><rect x="105" y="132" width="1" height="11" transform="rotate(-90 105 132)" fill="#1A1A1A"/><rect x="110" y="147" width="1" height="11" fill="#1A1A1A"/><rect x="105" y="153" width="1" height="11" transform="rotate(-90 105 153)" fill="#1A1A1A"/><rect x="110" y="168" width="1" height="11" fill="#1A1A1A"/><rect x="105" y="174" width="1" height="11" transform="rotate(-90 105 174)" fill="#1A1A1A"/><rect x="110" y="189" width="1" height="11" fill="#1A1A1A"/><rect x="105" y="195" width="1" height="11" transform="rotate(-90 105 195)" fill="#1A1A1A"/><rect x="110" y="210" width="1" height="11" fill="#1A1A1A"/><rect x="105" y="216" width="1" height="11" transform="rotate(-90 105 216)" fill="#1A1A1A"/><rect x="110" y="231" width="1" height="11" fill="#1A1A1A"/><rect x="105" y="237" width="1" height="11" transform="rotate(-90 105 237)" fill="#1A1A1A"/><rect x="131" width="1" height="11" fill="#1A1A1A"/><rect x="126" y="6" width="1" height="11" transform="rotate(-90 126 6)" fill="#1A1A1A"/><rect x="131" y="21" width="1" height="11" fill="#1A1A1A"/><rect x="126" y="27" width="1" height="11" transform="rotate(-90 126 27)" fill="#1A1A1A"/><rect x="131" y="42" width="1" height="11" fill="#1A1A1A"/><rect x="126" y="48" width="1" height="11" transform="rotate(-90 126 48)" fill="#1A1A1A"/><rect x="131" y="63" width="1" height="11" fill="#1A1A1A"/><rect x="126" y="69" width="1" height="11" transform="rotate(-90 126 69)" fill="#1A1A1A"/><rect x="131" y="84" width="1" height="11" fill="#1A1A1A"/><rect x="126" y="90" width="1" height="11" transform="rotate(-90 126 90)" fill="#1A1A1A"/><rect x="131" y="105" width="1" height="11" fill="#1A1A1A"/><rect x="126" y="111" width="1" height="11" transform="rotate(-90 126 111)" fill="#1A1A1A"/><rect x="131" y="126" width="1" height="11" fill="#1A1A1A"/><rect x="126" y="132" width="1" height="11" transform="rotate(-90 126 132)" fill="#1A1A1A"/><rect x="131" y="147" width="1" height="11" fill="#1A1A1A"/><rect x="126" y="153" width="1" height="11" transform="rotate(-90 126 153)" fill="#1A1A1A"/><rect x="131" y="168" width="1" height="11" fill="#1A1A1A"/><rect x="126" y="174" width="1" height="11" transform="rotate(-90 126 174)" fill="#1A1A1A"/><rect x="131" y="189" width="1" height="11" fill="#1A1A1A"/><rect x="126" y="195" width="1" height="11" transform="rotate(-90 126 195)" fill="#1A1A1A"/><rect x="131" y="210" width="1" height="11" fill="#1A1A1A"/><rect x="126" y="216" width="1" height="11" transform="rotate(-90 126 216)" fill="#1A1A1A"/><rect x="131" y="231" width="1" height="11" fill="#1A1A1A"/><rect x="126" y="237" width="1" height="11" transform="rotate(-90 126 237)" fill="#1A1A1A"/><rect x="152" width="1" height="11" fill="#1A1A1A"/><rect x="147" y="6" width="1" height="11" transform="rotate(-90 147 6)" fill="#1A1A1A"/><rect x="152" y="21" width="1" height="11" fill="#1A1A1A"/><rect x="147" y="27" width="1" height="11" transform="rotate(-90 147 27)" fill="#1A1A1A"/><rect x="152" y="42" width="1" height="11" fill="#1A1A1A"/><rect x="147" y="48" width="1" height="11" transform="rotate(-90 147 48)" fill="#1A1A1A"/><rect x="152" y="63" width="1" height="11" fill="#1A1A1A"/><rect x="147" y="69" width="1" height="11" transform="rotate(-90 147 69)" fill="#1A1A1A"/><rect x="152" y="84" width="1" height="11" fill="#1A1A1A"/><rect x="147" y="90" width="1" height="11" transform="rotate(-90 147 90)" fill="#1A1A1A"/><rect x="152" y="105" width="1" height="11" fill="#1A1A1A"/><rect x="147" y="111" width="1" height="11" transform="rotate(-90 147 111)" fill="#1A1A1A"/><rect x="152" y="126" width="1" height="11" fill="#1A1A1A"/><rect x="147" y="132" width="1" height="11" transform="rotate(-90 147 132)" fill="#1A1A1A"/><rect x="152" y="147" width="1" height="11" fill="#1A1A1A"/><rect x="147" y="153" width="1" height="11" transform="rotate(-90 147 153)" fill="#1A1A1A"/><rect x="152" y="168" width="1" height="11" fill="#1A1A1A"/><rect x="147" y="174" width="1" height="11" transform="rotate(-90 147 174)" fill="#1A1A1A"/><rect x="152" y="189" width="1" height="11" fill="#1A1A1A"/><rect x="147" y="195" width="1" height="11" transform="rotate(-90 147 195)" fill="#1A1A1A"/><rect x="152" y="210" width="1" height="11" fill="#1A1A1A"/><rect x="147" y="216" width="1" height="11" transform="rotate(-90 147 216)" fill="#1A1A1A"/><rect x="152" y="231" width="1" height="11" fill="#1A1A1A"/><rect x="147" y="237" width="1" height="11" transform="rotate(-90 147 237)" fill="#1A1A1A"/><rect x="173" width="1" height="11" fill="#1A1A1A"/><rect x="168" y="6" width="1" height="11" transform="rotate(-90 168 6)" fill="#1A1A1A"/><rect x="173" y="21" width="1" height="11" fill="#1A1A1A"/><rect x="168" y="27" width="1" height="11" transform="rotate(-90 168 27)" fill="#1A1A1A"/><rect x="173" y="42" width="1" height="11" fill="#1A1A1A"/><rect x="168" y="48" width="1" height="11" transform="rotate(-90 168 48)" fill="#1A1A1A"/><rect x="173" y="63" width="1" height="11" fill="#1A1A1A"/><rect x="168" y="69" width="1" height="11" transform="rotate(-90 168 69)" fill="#1A1A1A"/><rect x="173" y="84" width="1" height="11" fill="#1A1A1A"/><rect x="168" y="90" width="1" height="11" transform="rotate(-90 168 90)" fill="#1A1A1A"/><rect x="173" y="105" width="1" height="11" fill="#1A1A1A"/><rect x="168" y="111" width="1" height="11" transform="rotate(-90 168 111)" fill="#1A1A1A"/><rect x="173" y="126" width="1" height="11" fill="#1A1A1A"/><rect x="168" y="132" width="1" height="11" transform="rotate(-90 168 132)" fill="#1A1A1A"/><rect x="173" y="147" width="1" height="11" fill="#1A1A1A"/><rect x="168" y="153" width="1" height="11" transform="rotate(-90 168 153)" fill="#1A1A1A"/><rect x="173" y="168" width="1" height="11" fill="#1A1A1A"/><rect x="168" y="174" width="1" height="11" transform="rotate(-90 168 174)" fill="#1A1A1A"/><rect x="173" y="189" width="1" height="11" fill="#1A1A1A"/><rect x="168" y="195" width="1" height="11" transform="rotate(-90 168 195)" fill="#1A1A1A"/><rect x="173" y="210" width="1" height="11" fill="#1A1A1A"/><rect x="168" y="216" width="1" height="11" transform="rotate(-90 168 216)" fill="#1A1A1A"/><rect x="173" y="231" width="1" height="11" fill="#1A1A1A"/><rect x="168" y="237" width="1" height="11" transform="rotate(-90 168 237)" fill="#1A1A1A"/><rect x="194" width="1" height="11" fill="#1A1A1A"/><rect x="189" y="6" width="1" height="11" transform="rotate(-90 189 6)" fill="#1A1A1A"/><rect x="194" y="21" width="1" height="11" fill="#1A1A1A"/><rect x="189" y="27" width="1" height="11" transform="rotate(-90 189 27)" fill="#1A1A1A"/><rect x="194" y="42" width="1" height="11" fill="#1A1A1A"/><rect x="189" y="48" width="1" height="11" transform="rotate(-90 189 48)" fill="#1A1A1A"/><rect x="194" y="63" width="1" height="11" fill="#1A1A1A"/><rect x="189" y="69" width="1" height="11" transform="rotate(-90 189 69)" fill="#1A1A1A"/><rect x="194" y="84" width="1" height="11" fill="#1A1A1A"/><rect x="189" y="90" width="1" height="11" transform="rotate(-90 189 90)" fill="#1A1A1A"/><rect x="194" y="105" width="1" height="11" fill="#1A1A1A"/><rect x="189" y="111" width="1" height="11" transform="rotate(-90 189 111)" fill="#1A1A1A"/><rect x="194" y="126" width="1" height="11" fill="#1A1A1A"/><rect x="189" y="132" width="1" height="11" transform="rotate(-90 189 132)" fill="#1A1A1A"/><rect x="194" y="147" width="1" height="11" fill="#1A1A1A"/><rect x="189" y="153" width="1" height="11" transform="rotate(-90 189 153)" fill="#1A1A1A"/><rect x="194" y="168" width="1" height="11" fill="#1A1A1A"/><rect x="189" y="174" width="1" height="11" transform="rotate(-90 189 174)" fill="#1A1A1A"/><rect x="194" y="189" width="1" height="11" fill="#1A1A1A"/><rect x="189" y="195" width="1" height="11" transform="rotate(-90 189 195)" fill="#1A1A1A"/><rect x="194" y="210" width="1" height="11" fill="#1A1A1A"/><rect x="189" y="216" width="1" height="11" transform="rotate(-90 189 216)" fill="#1A1A1A"/><rect x="194" y="231" width="1" height="11" fill="#1A1A1A"/><rect x="189" y="237" width="1" height="11" transform="rotate(-90 189 237)" fill="#1A1A1A"/><rect x="215" width="1" height="11" fill="#1A1A1A"/><rect x="210" y="6" width="1" height="11" transform="rotate(-90 210 6)" fill="#1A1A1A"/><rect x="215" y="21" width="1" height="11" fill="#1A1A1A"/><rect x="210" y="27" width="1" height="11" transform="rotate(-90 210 27)" fill="#1A1A1A"/><rect x="215" y="42" width="1" height="11" fill="#1A1A1A"/><rect x="210" y="48" width="1" height="11" transform="rotate(-90 210 48)" fill="#1A1A1A"/><rect x="215" y="63" width="1" height="11" fill="#1A1A1A"/><rect x="210" y="69" width="1" height="11" transform="rotate(-90 210 69)" fill="#1A1A1A"/><rect x="215" y="84" width="1" height="11" fill="#1A1A1A"/><rect x="210" y="90" width="1" height="11" transform="rotate(-90 210 90)" fill="#1A1A1A"/><rect x="215" y="105" width="1" height="11" fill="#1A1A1A"/><rect x="210" y="111" width="1" height="11" transform="rotate(-90 210 111)" fill="#1A1A1A"/><rect x="215" y="126" width="1" height="11" fill="#1A1A1A"/><rect x="210" y="132" width="1" height="11" transform="rotate(-90 210 132)" fill="#1A1A1A"/><rect x="215" y="147" width="1" height="11" fill="#1A1A1A"/><rect x="210" y="153" width="1" height="11" transform="rotate(-90 210 153)" fill="#1A1A1A"/><rect x="215" y="168" width="1" height="11" fill="#1A1A1A"/><rect x="210" y="174" width="1" height="11" transform="rotate(-90 210 174)" fill="#1A1A1A"/><rect x="215" y="189" width="1" height="11" fill="#1A1A1A"/><rect x="210" y="195" width="1" height="11" transform="rotate(-90 210 195)" fill="#1A1A1A"/><rect x="215" y="210" width="1" height="11" fill="#1A1A1A"/><rect x="210" y="216" width="1" height="11" transform="rotate(-90 210 216)" fill="#1A1A1A"/><rect x="215" y="231" width="1" height="11" fill="#1A1A1A"/><rect x="210" y="237" width="1" height="11" transform="rotate(-90 210 237)" fill="#1A1A1A"/><rect x="236" width="1" height="11" fill="#1A1A1A"/><rect x="231" y="6" width="1" height="11" transform="rotate(-90 231 6)" fill="#1A1A1A"/><rect x="236" y="21" width="1" height="11" fill="#1A1A1A"/><rect x="231" y="27" width="1" height="11" transform="rotate(-90 231 27)" fill="#1A1A1A"/><rect x="236" y="42" width="1" height="11" fill="#1A1A1A"/><rect x="231" y="48" width="1" height="11" transform="rotate(-90 231 48)" fill="#1A1A1A"/><rect x="236" y="63" width="1" height="11" fill="#1A1A1A"/><rect x="231" y="69" width="1" height="11" transform="rotate(-90 231 69)" fill="#1A1A1A"/><rect x="236" y="84" width="1" height="11" fill="#1A1A1A"/><rect x="231" y="90" width="1" height="11" transform="rotate(-90 231 90)" fill="#1A1A1A"/><rect x="236" y="105" width="1" height="11" fill="#1A1A1A"/><rect x="231" y="111" width="1" height="11" transform="rotate(-90 231 111)" fill="#1A1A1A"/><rect x="236" y="126" width="1" height="11" fill="#1A1A1A"/><rect x="231" y="132" width="1" height="11" transform="rotate(-90 231 132)" fill="#1A1A1A"/><rect x="236" y="147" width="1" height="11" fill="#1A1A1A"/><rect x="231" y="153" width="1" height="11" transform="rotate(-90 231 153)" fill="#1A1A1A"/><rect x="236" y="168" width="1" height="11" fill="#1A1A1A"/><rect x="231" y="174" width="1" height="11" transform="rotate(-90 231 174)" fill="#1A1A1A"/><rect x="236" y="189" width="1" height="11" fill="#1A1A1A"/><rect x="231" y="195" width="1" height="11" transform="rotate(-90 231 195)" fill="#1A1A1A"/><rect x="236" y="210" width="1" height="11" fill="#1A1A1A"/><rect x="231" y="216" width="1" height="11" transform="rotate(-90 231 216)" fill="#1A1A1A"/><rect x="236" y="231" width="1" height="11" fill="#1A1A1A"/><rect x="231" y="237" width="1" height="11" transform="rotate(-90 231 237)" fill="#1A1A1A"/></g></svg>